<svg viewBox="0 0 24 24" xmlns="http://www.w3.org/2000/svg"><path d="m20.447 20.452h-3.554v-5.569c0-1.328-.027-3.037-1.852-3.037-1.853 0-2.136 1.445-2.136 2.939v5.667h-3.554v-11.452h3.414v1.561h.046c.477-.9 1.637-1.85 3.37-1.85 3.601 0 4.267 2.37 4.267 5.455v6.286zm-15.11-13.019c-1.144 0-2.063-.926-2.063-2.065 0-1.138.92-2.063 2.063-2.063 1.14 0 2.064.925 2.064 2.063 0 1.139-.925 2.065-2.064 2.065zm1.782 13.019h-3.564v-11.452h3.564zm15.106-20.452h-20.454c-.979 0-1.771.774-1.771 1.729v20.542c0 .956.792 1.729 1.771 1.729h20.451c.978 0 1.778-.773 1.778-1.729v-20.542c0-.955-.8-1.729-1.778-1.729z" fill="#0077b5"/></svg>