<svg clip-rule="evenodd" fill-rule="evenodd" stroke-linecap="round" stroke-linejoin="round" stroke-miterlimit="1.5" viewBox="0 0 32 32" xmlns="http://www.w3.org/2000/svg" xmlns:xlink="http://www.w3.org/1999/xlink"><clipPath id="a"><path clip-rule="evenodd" d="m0 0h32v32h-32z"/></clipPath><clipPath id="b"><path clip-rule="evenodd" d="m4 30c-.53 0-1.039-.211-1.414-.586s-.586-.884-.586-1.414c0-.811 0-1.833 0-3 0-12.703 10.297-23 23-23h3c.53 0 1.039.211 1.414.586s.586.884.586 1.414v3c0 12.703-10.297 23-23 23-1.167 0-2.189 0-3 0z"/></clipPath><path d="m0 0h32v32h-32z" fill="none"/><g clip-path="url(#a)"><path d="m4 30c-.53 0-1.039-.211-1.414-.586s-.586-.884-.586-1.414c0-.811 0-1.833 0-3 0-12.703 10.297-23 23-23h3c.53 0 1.039.211 1.414.586s.586.884.586 1.414v3c0 12.703-10.297 23-23 23-1.167 0-2.189 0-3 0z" fill="none" stroke="#000" stroke-width="4"/><path d="m4 30c-.53 0-1.039-.211-1.414-.586s-.586-.884-.586-1.414c0-.811 0-1.833 0-3 0-12.703 10.297-23 23-23h3c.53 0 1.039.211 1.414.586s.586.884.586 1.414v3c0 12.703-10.297 23-23 23-1.167 0-2.189 0-3 0z" fill="#a65c2f"/><g clip-path="url(#b)"><path d="m21 0v.001c-2.451 10.416-10.583 18.548-20.999 20.999-.001 0-.001 0-.001 0v-21z" fill="#b96d3e"/><g fill="none"><path d="m1 31 30-30" stroke="#7f4724" stroke-width="2"/><path d="m7.918 24.082c4.412 4.412 5.402 10.586 2.21 13.779-3.193 3.193-9.367 2.203-13.78-2.209-4.412-4.413-5.402-10.587-2.209-13.78 3.193-3.192 9.367-2.202 13.779 2.21z" stroke="#fff" stroke-width="3"/><path d="m35.652-3.652c4.412 4.413 5.402 10.587 2.209 13.78-3.193 3.192-9.367 2.202-13.779-2.21s-5.402-10.586-2.21-13.779c3.193-3.193 9.367-2.203 13.78 2.209z" stroke="#fff" stroke-width="3"/></g></g><path d="m19.293 11.293-.939-.939c-.094-.094-.147-.221-.147-.354s.053-.26.147-.354c.095-.095.197-.197.292-.292.094-.094.221-.147.354-.147s.26.053.354.147c.758.758 2.534 2.534 3.292 3.292.094.094.147.221.147.354s-.053.26-.147.354c-.095.095-.197.197-.292.292-.094.094-.221.147-.354.147s-.26-.053-.354-.147l-.939-.939-2 2 .939.939c.094.094.147.221.147.354s-.053.26-.147.354c-.095.095-.197.197-.292.292-.094.094-.221.147-.354.147s-.26-.053-.354-.147l-.939-.939-2 2 .939.939c.094.094.147.221.147.354s-.053.26-.147.354c-.095.095-.197.197-.292.292-.094.094-.221.147-.354.147s-.26-.053-.354-.147l-.939-.939-2 2 .939.939c.094.094.147.221.147.354s-.053.26-.147.354c-.095.095-.197.197-.292.292-.094.094-.221.147-.354.147s-.26-.053-.354-.147c-.758-.758-2.534-2.534-3.292-3.292-.094-.094-.147-.221-.147-.354s.053-.26.147-.354l.292-.292c.094-.094.221-.147.354-.147s.26.053.354.147l.939.939 2-2-.939-.939c-.094-.094-.147-.221-.147-.354s.053-.26.147-.354c.095-.095.197-.197.292-.292.094-.094.221-.147.354-.147s.26.053.354.147l.939.939 2-2-.939-.939c-.094-.094-.147-.221-.147-.354s.053-.26.147-.354l.292-.292c.094-.094.221-.147.354-.147s.26.053.354.147l.939.939z" fill="#fff"/></g></svg>