<svg xmlns="http://www.w3.org/2000/svg" xmlns:xlink="http://www.w3.org/1999/xlink" fill-rule="evenodd" stroke-linejoin="round" stroke-miterlimit="1.414" clip-rule="evenodd" viewBox="0 0 32 32"><clipPath id="a"><path d="m0 0h32v32h-32z" clip-rule="evenodd"/></clipPath><clipPath id="b"><path d="m16 11h12v19h-12z" clip-rule="evenodd"/></clipPath><clipPath id="c"><path d="m18 15c0-1.591-.632-3.117-1.757-4.243-1.126-1.125-2.652-1.757-4.243-1.757-1.591 0-3.117.632-4.243 1.757-1.125 1.126-1.757 2.652-1.757 4.243v2c0 1.591.632 3.117 1.757 4.243 1.126 1.125 2.652 1.757 4.243 1.757 1.591 0 3.117-.632 4.243-1.757 1.125-1.126 1.757-2.652 1.757-4.243 0-.663 0-1.337 0-2z" clip-rule="evenodd"/></clipPath><clipPath id="d"><path d="m24 18c-1.657 0-3 1.343-3 3v3c1.657 0 3-1.343 3-3 0-1.5 0-3 0-3z" clip-rule="evenodd"/></clipPath><path fill="none" d="m0 0h32v32h-32z"/><g clip-path="url(#a)"><path fill-rule="nonzero" d="m14 9h16v23h-16z"/><path fill="#fff" d="m16 11h12v19h-12z"/><g clip-path="url(#b)"><path fill="#a746ec" fill-rule="nonzero" d="m23 14c.343 0 .685-.003 1.028.001.075.003.15.007.225.014.323.036.636.115.934.246.757.336 1.355.98 1.635 1.759.092.258.149.528.17.802.005.073.008.146.008.22 0 .065-.001.128.004.193.005.041.012.082.022.123.073.279.281.508.556.599.08.026.162.04.246.043h.027 1.145v8.5h-3v-4.514c.005-.198.031-.391.09-.581.148-.477.477-.889.91-1.137v-.398c-.06-.018-.118-.039-.177-.061-.064-.026-.128-.053-.191-.082-.21-.102-.408-.224-.589-.372-.47-.386-.809-.92-.957-1.51-.046-.181-.073-.366-.083-.553-.005-.107.001-.214-.006-.322-.004-.043-.009-.085-.017-.127-.024-.109-.061-.214-.116-.311-.127-.225-.337-.398-.583-.479-.098-.032-.2-.049-.303-.053h-.032-2.946v-6h2z"/></g><path d="m7.043 23.279c-.167-.132-.329-.271-.486-.416-.769-.714-1.395-1.579-1.831-2.533-.326-.712-.546-1.471-.652-2.246-.045-.327-.067-.655-.073-.985-.005-.733-.005-1.465 0-2.198.005-.264.019-.527.048-.79.069-.616.21-1.224.419-1.808.431-1.204 1.153-2.297 2.089-3.166.815-.757 1.787-1.339 2.838-1.701.807-.278 1.652-.42 2.506-.435.099-.001.099-.001.198 0 .854.015 1.699.157 2.506.435 1.302.449 2.48 1.236 3.391 2.268.671.759 1.194 1.645 1.535 2.598.3.835.452 1.712.468 2.598.005.733.005 1.467 0 2.2-.005.296-.023.592-.06.886-.005.04-.01.079-.016.119.185-.261.395-.503.627-.724.495-.473 1.088-.842 1.731-1.077.35-.128.715-.217 1.085-.264.168-.021.337-.032.506-.039l2.128-.026v5.038c-.002.165-.009.33-.026.496-.037.372-.117.74-.237 1.094-.181.536-.455 1.04-.804 1.485-.27.343-.585.65-.933.911v7.001h-22c0-.725-.011-1.45.002-2.175.023-.746.156-1.483.408-2.186.523-1.463 1.537-2.728 2.849-3.557.433-.273.897-.499 1.379-.672.134-.048.269-.092.405-.131z"/><path fill="#333" d="m19 27c.628.835 1 1.874 1 3h-1l-1-1.5z"/><path fill="#999" d="m19 30h-15c0-2.47 1.791-4.522 4.146-4.927.469 1.687 7.239 1.687 7.708 0 1.282.22 2.396.929 3.146 1.927z"/><path fill="#5963ef" d="m8.146 25.073c.277-.048.563-.073.854-.073h6c.291 0 .577.025.854.073-.469 1.687-2.018 2.927-3.854 2.927s-3.385-1.24-3.854-2.927z"/><path fill="#5963ef" d="m18 15c0-1.591-.632-3.117-1.757-4.243-1.126-1.125-2.652-1.757-4.243-1.757-1.591 0-3.117.632-4.243 1.757-1.125 1.126-1.757 2.652-1.757 4.243v2c0 1.591.632 3.117 1.757 4.243 1.126 1.125 2.652 1.757 4.243 1.757 1.591 0 3.117-.632 4.243-1.757 1.125-1.126 1.757-2.652 1.757-4.243 0-.663 0-1.337 0-2z"/><g clip-path="url(#c)"><path d="m16 15c0-.552-.448-1-1-1s-1 .448-1 1v1c0 .552.448 1 1 1s1-.448 1-1c0-.322 0-.678 0-1zm-6 0c0-.552-.448-1-1-1s-1 .448-1 1v1c0 .552.448 1 1 1s1-.448 1-1c0-.322 0-.678 0-1z"/></g><path fill="#705c32" d="m21 23h1v7h-1z"/><path fill="#bfaf91" d="m24 18c-1.657 0-3 1.343-3 3v3c1.657 0 3-1.343 3-3 0-1.5 0-3 0-3z"/><g clip-path="url(#d)"><path fill="#7731a6" d="m19.5 17.143h5.25v3.429h-5.25z"/></g></g></svg>