<svg xmlns="http://www.w3.org/2000/svg" xmlns:xlink="http://www.w3.org/1999/xlink" fill-rule="evenodd" stroke-linejoin="round" stroke-miterlimit="1.414" clip-rule="evenodd" viewBox="0 0 32 32"><clipPath id="a"><path d="m22.229 24.523c1.643.819 2.771 2.516 2.771 4.477v1h-18s0-.403 0-1c0-1.96 1.128-3.657 2.771-4.477.621.381 11.872.36 12.458 0z" clip-rule="evenodd"/></clipPath><clipPath id="b"><path d="m25 14c0-2.122-.843-4.157-2.343-5.657s-3.535-2.343-5.657-2.343c-.664 0-1.336 0-2 0-2.122 0-4.157.843-5.657 2.343s-2.343 3.535-2.343 5.657v2c0 2.122.843 4.157 2.343 5.657s3.535 2.343 5.657 2.343h2c2.122 0 4.157-.843 5.657-2.343s2.343-3.535 2.343-5.657c0-.664 0-1.336 0-2z" clip-rule="evenodd"/></clipPath><path fill="none" d="m0 0h32v32h-32z"/><path d="m8.068 23.208c-.017-.017-.034-.033-.051-.05-1.084-1.057-1.921-2.36-2.431-3.786-.248-.692-.419-1.41-.51-2.139-.046-.368-.068-.738-.075-1.109-.005-.749-.005-1.499 0-2.248.007-.371.029-.741.075-1.109.091-.729.262-1.448.51-2.139.51-1.426 1.347-2.729 2.431-3.786 1.054-1.028 2.334-1.817 3.726-2.297.695-.239 1.416-.402 2.146-.483.328-.037.657-.055.987-.061.749-.005 1.499-.005 2.248 0 .33.006.659.024.987.061.77.086 1.531.262 2.261.524 1.465.524 2.8 1.393 3.872 2.521.987 1.036 1.745 2.284 2.211 3.636.239.695.402 1.416.483 2.146.037.328.055.657.061.987.005.749.005 1.499 0 2.248-.006.33-.024.659-.061.987-.081.73-.244 1.451-.483 2.146-.466 1.352-1.224 2.6-2.211 3.636-.102.108-.206.212-.312.315.179.122.354.253.521.391 1.135.936 1.96 2.228 2.327 3.653.146.57.216 1.154.22 1.742v3.006h-22c0-1.06-.017-2.12.002-3.18.01-.296.034-.59.079-.883.095-.627.277-1.241.538-1.819.53-1.172 1.386-2.187 2.449-2.91z"/><path fill="#fff" d="m22.229 24.523c1.643.819 2.771 2.516 2.771 4.477v1h-18s0-.403 0-1c0-1.96 1.128-3.657 2.771-4.477.621.381 11.872.36 12.458 0z"/><g clip-path="url(#a)"><path fill="#878787" d="m14 25h4v6h-4z"/></g><path fill="#5f5f5f" d="m9.771 24.523c.671-.335 1.428-.523 2.229-.523h8c.801 0 1.558.188 2.229.523-.586.36-1.209.659-1.857.891-.73.262-1.491.438-2.261.524-.328.037-.657.055-.987.061-.749.005-1.499.005-2.248 0-.33-.006-.659-.024-.987-.061-.73-.081-1.451-.244-2.146-.483-.689-.238-1.351-.551-1.972-.932z"/><path fill="#333" d="m25 14c0-2.122-.843-4.157-2.343-5.657s-3.535-2.343-5.657-2.343c-.664 0-1.336 0-2 0-2.122 0-4.157.843-5.657 2.343s-2.343 3.535-2.343 5.657v2c0 2.122.843 4.157 2.343 5.657s3.535 2.343 5.657 2.343h2c2.122 0 4.157-.843 5.657-2.343s2.343-3.535 2.343-5.657c0-.664 0-1.336 0-2z"/><g clip-path="url(#b)"><path fill="#a3a9ff" d="m10 16.472.5-2.472 2.5-3h6l2.5 3 .5 2.465v.535c0 1.591-.632 3.117-1.757 4.243-1.126 1.125-2.652 1.757-4.243 1.757-1.591 0-3.117-.632-4.243-1.757-1.125-1.126-1.757-2.652-1.757-4.243z"/><path fill="#343394" d="m10 16.472v-1.472c0-1.591.632-3.117 1.757-4.243 1.126-1.125 2.652-1.757 4.243-1.757 1.591 0 3.117.632 4.243 1.757 1.125 1.126 1.757 2.652 1.757 4.243v1.465c-.296-.595-.592-1.189-.895-1.78-.205-.386-.453-.745-.749-1.068-.658-.717-1.526-1.232-2.47-1.468-.369-.092-.744-.138-1.123-.148-.509-.005-1.017-.005-1.526 0-.379.01-.754.056-1.123.148-.973.243-1.862.783-2.528 1.533-.293.33-.535.697-.736 1.09z"/><path d="m20 15c0-.552-.448-1-1-1s-1 .448-1 1v1c0 .552.448 1 1 1s1-.448 1-1c0-.322 0-.678 0-1zm-6 0c0-.552-.448-1-1-1s-1 .448-1 1v1c0 .552.448 1 1 1s1-.448 1-1c0-.322 0-.678 0-1z"/><path fill="#ababab" d="m8 16s.485-.97 1.065-2.13c1.186-2.372 3.61-3.87 6.261-3.87h1.348c2.651 0 5.075 1.498 6.261 3.87.58 1.16 1.065 2.13 1.065 2.13h3v-12h-22v12z"/></g></svg>