<svg clip-rule="evenodd" fill-rule="evenodd" stroke-linejoin="round" stroke-miterlimit="2" viewBox="0 0 32 32" xmlns="http://www.w3.org/2000/svg" xmlns:xlink="http://www.w3.org/1999/xlink"><clipPath id="a"><path clip-rule="evenodd" d="m0 0h32v32h-32z"/></clipPath><path d="m0 0h32v32h-32z" fill="none"/><g clip-path="url(#a)"><path d="m17.035 31.996h-1.035v.004h-.133c-3.159 0-6.189-1.255-8.423-3.489-2.371-2.371-5.979-5.979-5.979-5.979-1.952-1.952-1.952-5.12 0-7.071 1.484-1.485 3.674-1.84 5.496-1.065l-1.701-6.805c-.602-2.409.865-4.854 3.275-5.457 1.354-.338 2.721-.023 3.764.747.65-1.687 2.287-2.885 4.201-2.885 1.81 0 3.372 1.071 4.086 2.613.9-.523 1.984-.739 3.087-.532 2.164.406 3.675 2.301 3.671 4.427.291.015.584.057.877.131 2.409.603 3.875 3.048 3.272 5.457 0 0-1.49 5.956-2.68 10.71-1.352 5.404-6.207 9.194-11.778 9.194z"/><path d="m14 13v-8.504c.002-.314.058-.624.174-.916.283-.718.9-1.278 1.642-1.489.263-.075.539-.106.813-.092.279.015.556.076.816.182.288.118.554.291.78.506.232.221.422.488.554.781.146.322.218.671.221 1.025v9.507c.001.067.013.133.039.195.081.191.279.315.487.304.058-.003.115-.016.169-.038.055-.024.106-.058.15-.099.046-.044.084-.098.111-.156.029-.065.043-.135.044-.206v-5.899l.387-2.062c.254-1.356 1.561-2.25 2.917-1.996 1.062.199 1.84 1.043 2.007 2.05l-1.554 9.325c-.01.066-.009.133.007.198.048.203.223.357.429.381.058.006.117.003.173-.011.059-.014.115-.038.165-.072.053-.036.099-.083.135-.136.039-.059.065-.126.077-.196l1.123-6.734c.546-.323 1.215-.439 1.879-.273 1.339.336 2.153 1.695 1.817 3.033 0 0-1.494 5.959-2.687 10.714-1.131 4.511-5.186 7.674-9.836 7.674h-1.039v.004h-.133c-2.629 0-5.15-1.044-7.009-2.903-2.371-2.371-5.979-5.98-5.979-5.98-1.171-1.17-1.171-3.071 0-4.242s3.072-1.171 4.242 0l2.879 2.878v-1.449l-2.799-11.198c-.084-.344-.099-.702-.035-1.051.057-.316.176-.621.348-.892.167-.264.383-.495.634-.68.226-.166.48-.292.748-.374.262-.08.537-.117.81-.108.772.024 1.506.418 1.955 1.046.182.255.312.543.39.847l.949 3.794v3.812c.001.067.013.133.039.195.081.191.279.315.487.304.058-.003.115-.016.169-.038.055-.024.106-.058.15-.099.046-.044.084-.098.111-.156.029-.065.043-.135.044-.206z" fill="#a3a9ff"/></g></svg>