<svg clip-rule="evenodd" fill-rule="evenodd" stroke-linecap="round" stroke-linejoin="round" stroke-miterlimit="1.5" viewBox="0 0 32 32" xmlns="http://www.w3.org/2000/svg" xmlns:xlink="http://www.w3.org/1999/xlink"><clipPath id="a"><path clip-rule="evenodd" d="m28.327 8.65c-.841-2.314-2.663-4.136-4.977-4.977-.507-.185-1.038-.378-1.572-.572-3.732-1.357-7.824-1.357-11.556 0-.534.194-1.065.387-1.572.572-2.314.841-4.136 2.663-4.977 4.977-.185.507-.378 1.038-.572 1.572-1.357 3.732-1.357 7.824 0 11.556.194.534.387 1.065.572 1.572.841 2.314 2.663 4.136 4.977 4.977.507.185 1.038.378 1.572.572 3.732 1.357 7.824 1.357 11.556 0 .534-.194 1.065-.387 1.572-.572 2.314-.841 4.136-2.663 4.977-4.977.185-.507.378-1.038.572-1.572 1.357-3.732 1.357-7.824 0-11.556-.194-.534-.387-1.065-.572-1.572z"/></clipPath><path d="m0 0v32h32v-32z" fill="none"/><path d="m28.327 8.65c-.841-2.314-2.663-4.136-4.977-4.977-.507-.185-1.038-.378-1.572-.572-3.732-1.357-7.824-1.357-11.556 0-.534.194-1.065.387-1.572.572-2.314.841-4.136 2.663-4.977 4.977-.185.507-.378 1.038-.572 1.572-1.357 3.732-1.357 7.824 0 11.556.194.534.387 1.065.572 1.572.841 2.314 2.663 4.136 4.977 4.977.507.185 1.038.378 1.572.572 3.732 1.357 7.824 1.357 11.556 0 .534-.194 1.065-.387 1.572-.572 2.314-.841 4.136-2.663 4.977-4.977.185-.507.378-1.038.572-1.572 1.357-3.732 1.357-7.824 0-11.556-.194-.534-.387-1.065-.572-1.572z" fill="none" stroke="#000" stroke-width="4"/><path d="m28.327 8.65c-.841-2.314-2.663-4.136-4.977-4.977-.507-.185-1.038-.378-1.572-.572-3.732-1.357-7.824-1.357-11.556 0-.534.194-1.065.387-1.572.572-2.314.841-4.136 2.663-4.977 4.977-.185.507-.378 1.038-.572 1.572-1.357 3.732-1.357 7.824 0 11.556.194.534.387 1.065.572 1.572.841 2.314 2.663 4.136 4.977 4.977.507.185 1.038.378 1.572.572 3.732 1.357 7.824 1.357 11.556 0 .534-.194 1.065-.387 1.572-.572 2.314-.841 4.136-2.663 4.977-4.977.185-.507.378-1.038.572-1.572 1.357-3.732 1.357-7.824 0-11.556-.194-.534-.387-1.065-.572-1.572z" fill="#f1f1f1"/><g clip-path="url(#a)"><path d="m.76.712c4.967-4.968 11.795-6.205 15.238-2.763 3.443 3.443 2.205 10.271-2.762 15.238-4.967 4.968-11.795 6.205-15.238 2.762-3.443-3.442-2.205-10.27 2.762-15.237z" fill="#fff"/><g fill="none" stroke="#ff5757" stroke-width="3"><ellipse cx="27.5" cy="16" rx="7.5" ry="10.778"/><ellipse cx="4.5" cy="16" rx="7.5" ry="10.778"/></g></g></svg>