<svg clip-rule="evenodd" fill-rule="evenodd" stroke-linejoin="round" stroke-miterlimit="2" viewBox="0 0 32 32" xmlns="http://www.w3.org/2000/svg" xmlns:xlink="http://www.w3.org/1999/xlink"><clipPath id="a"><path clip-rule="evenodd" d="m0 0h32v32h-32z"/></clipPath><clipPath id="b"><path clip-rule="evenodd" d="m9.032 19.667c.015.162 13.927.103 13.936 0 .729.303 1.353.815 1.793 1.475.874 1.31 2.267 3.401 2.903 4.354.219.329.336.715.336 1.11v3.394h-24v-3.394c0-.395.117-.781.336-1.11.636-.953 2.029-3.044 2.903-4.354.44-.66 1.065-1.172 1.793-1.475z"/></clipPath><clipPath id="c"><path clip-rule="evenodd" d="m21 17c0-2.761-2.239-5-5-5-2.761 0-5 2.239-5 5v2c0 2.761 2.239 5 5 5 2.761 0 5-2.239 5-5 0-.661 0-1.339 0-2z"/></clipPath><path d="m0 0h32v32h-32z" fill="none"/><g clip-path="url(#a)"><path d="m8.996 17.56c.002-.217.003-.433.005-.65.015-.848.171-1.694.487-2.483.21-.523.478-1.021.804-1.481.717-1.007 1.7-1.818 2.826-2.327.578-.261 1.192-.443 1.818-.538.293-.045.588-.069.884-.079.09-.001.18-.002.27-.001.848.016 1.694.171 2.483.487.523.21 1.021.478 1.481.805 1.007.716 1.818 1.699 2.327 2.825.261.578.443 1.192.538 1.818.045.293.069.588.079.885.004.246.007.493.007.739l.335.112c.272.094.537.201.794.331.552.278 1.06.642 1.501 1.074.266.262.504.548.72.852 1.01 1.481 1.989 2.982 2.984 4.473.129.202.245.41.339.631.154.36.255.742.298 1.131.016.141.021.282.024.423v5.413h-28v-5.413c.003-.141.008-.282.024-.423.038-.34.12-.676.243-.995.088-.23.2-.446.325-.658.969-1.514 1.992-2.992 2.988-4.487.209-.306.439-.595.698-.859.461-.471 1-.865 1.588-1.162.257-.13.522-.237.794-.331l.336-.112zm-.953-13.56c.543.011 1.076.164 1.538.451.187.115.358.251.516.403.376.372.761.736 1.12 1.125.247.274.445.589.579.933.163.419.23.873.195 1.321-.036.459-.179.909-.415 1.304-.141.237-.316.455-.517.644-.242.23-.523.418-.828.555-.336.151-.699.239-1.067.26-.391.021-.785-.035-1.155-.164-.392-.138-.75-.357-1.056-.639-.401-.379-.796-.766-1.17-1.172-.247-.274-.445-.589-.579-.933-.1-.257-.164-.529-.19-.804-.085-.889.241-1.789.877-2.417.237-.235.514-.43.815-.574.354-.169.738-.265 1.13-.289.069-.003.138-.004.207-.004zm15.983 0c.369.005.734.075 1.078.211.569.225 1.062.625 1.399 1.135.184.278.321.588.404.911.071.279.102.568.091.855-.013.345-.086.688-.215 1.008-.147.364-.365.695-.637.977-.372.376-.736.761-1.125 1.12-.308.278-.669.493-1.063.626-.371.125-.766.176-1.156.15-.368-.024-.73-.117-1.065-.272-.302-.14-.581-.331-.821-.563-.323-.312-.574-.697-.73-1.118-.16-.433-.218-.901-.169-1.359.029-.274.097-.545.2-.801.138-.343.339-.655.59-.927.379-.401.766-.796 1.172-1.17.154-.139.32-.263.499-.368.448-.264.959-.404 1.479-.415zm-7.953-2.999c.327.011.649.069.956.181.816.298 1.476.952 1.781 1.766.12.322.181.66.19 1.003.005.716.016 1.431-.002 2.147-.015.375-.094.744-.243 1.089-.11.255-.254.493-.429.708-.288.354-.657.639-1.072.83-.414.191-.871.285-1.327.274-.342-.008-.682-.076-1.001-.198-.35-.134-.674-.334-.95-.587-.289-.264-.525-.584-.691-.938-.181-.385-.274-.802-.285-1.227-.005-.716-.016-1.431.002-2.147.012-.31.067-.615.172-.908.28-.787.891-1.434 1.661-1.759.301-.127.62-.2.945-.227.098-.006.195-.009.293-.007z"/><path d="m9.032 19.667c.015.162 13.927.103 13.936 0 .729.303 1.353.815 1.793 1.475.874 1.31 2.267 3.401 2.903 4.354.219.329.336.715.336 1.11v3.394h-24v-3.394c0-.395.117-.781.336-1.11.636-.953 2.029-3.044 2.903-4.354.44-.66 1.065-1.172 1.793-1.475z" fill="#999"/><g clip-path="url(#b)"><path d="m21 22c0-2.761-2.239-5-5-5-2.761 0-5 2.239-5 5v2c0 2.761 2.239 5 5 5 2.761 0 5-2.239 5-5 0-.661 0-1.339 0-2z" fill="#737373"/><path d="m29 31h-9v-3l4-1 5-1zm-17 0v-3l-4-1-5-1v5z" fill="#a3a9ff"/><path d="m13 31.5h-2c0-.668.033-1.336-.002-2.003-.024-.319-.195-.612-.467-.783-.083-.052-.173-.09-.268-.117l-.026-.007-3.603-.901-.16-.578 3.526-3.525c.471.471.943.943 1.414 1.414l-1.458 1.458c.278.07.557.137.834.209.303.087.592.213.856.386.584.384 1.023.97 1.225 1.638.085.281.126.572.129.865zm8 0h-2c0-.668-.006-1.335.001-2.003.002-.064.005-.127.01-.191.028-.291.091-.576.199-.849.25-.63.714-1.165 1.302-1.501.238-.135.491-.235.755-.304l.777-.194-1.458-1.458 1.414-1.414c1.175 1.175 2.35 2.35 3.526 3.525l-.16.578c-1.224.306-2.465.55-3.671.92-.303.1-.546.338-.646.643-.03.093-.046.19-.049.288v.027z"/></g><path d="m21 19 1.698.566c.091.03.182.064.27.101-.009.103-.021.206-.036.309-.092.657-.278 1.301-.551 1.906-.347.768-.835 1.472-1.431 2.068-.516.516-1.113.951-1.762 1.283-.587.301-1.217.518-1.865.642-1.354.259-2.778.112-4.048-.426-.623-.263-1.207-.618-1.728-1.048-.736-.607-1.346-1.364-1.78-2.213-.328-.639-.555-1.329-.673-2.038-.026-.16-.047-.321-.062-.483.089-.037.179-.071.27-.101l1.698-.566z" fill="#333"/><path d="m21 17c0-2.761-2.239-5-5-5-2.761 0-5 2.239-5 5v2c0 2.761 2.239 5 5 5 2.761 0 5-2.239 5-5 0-.661 0-1.339 0-2z" fill="#a3a9ff"/><g clip-path="url(#c)"><path d="m13.02 19c.113.004.224.024.33.063.276.103.496.328.593.605.036.101.054.206.057.312.003.366.022.734-.003 1.099-.013.14-.051.275-.118.398-.06.111-.141.21-.238.29-.092.077-.197.137-.309.176-.107.038-.219.057-.332.057-.391 0-.755-.237-.914-.594-.054-.122-.082-.253-.086-.386-.003-.366-.022-.734.003-1.099.01-.106.034-.21.075-.308.101-.24.295-.434.535-.535.092-.039.189-.062.288-.073.039-.004.079-.005.119-.005zm6 0c.113.004.224.024.33.063.276.103.496.328.593.605.036.101.054.206.057.312.003.366.022.734-.003 1.099-.013.14-.051.275-.118.398-.06.111-.141.21-.238.29-.092.077-.197.137-.309.176-.107.038-.219.057-.332.057-.391 0-.755-.237-.914-.594-.054-.122-.082-.253-.086-.386-.003-.366-.022-.734.003-1.099.01-.106.034-.21.075-.308.101-.24.295-.434.535-.535.092-.039.189-.062.288-.073.039-.004.079-.005.119-.005z"/></g><path d="m8.03 6c.235.01.456.097.634.252.383.347.757.709 1.097 1.099.085.102.151.219.192.346.119.373.003.791-.289 1.051-.085.075-.182.135-.286.178-.11.045-.229.07-.348.074-.126.003-.253-.017-.371-.06-.132-.048-.25-.123-.352-.219-.359-.352-.737-.692-1.068-1.072-.085-.102-.151-.219-.192-.346-.03-.094-.046-.194-.047-.293-.004-.377.213-.733.55-.903.125-.063.261-.097.4-.106.027-.001.053-.001.08-.001zm16 0c.133.006.263.035.385.09.102.047.197.111.278.189.287.276.383.709.24 1.081-.048.124-.121.236-.212.333-.352.359-.692.737-1.072 1.068-.108.09-.23.158-.365.198-.12.036-.248.048-.373.037-.119-.011-.236-.043-.344-.094-.101-.049-.194-.115-.274-.195-.277-.277-.367-.701-.226-1.067.048-.124.121-.236.212-.333.352-.359.692-.737 1.072-1.068.181-.151.404-.234.639-.239zm-8.002-3c.113.005.223.025.329.066.273.104.49.328.587.604.034.097.051.199.056.302.009.695.028 1.39-.002 2.084-.009.141-.045.277-.11.403-.06.116-.143.221-.243.305-.093.078-.2.14-.315.18-.097.034-.199.053-.302.056-.38.01-.742-.203-.916-.541-.07-.134-.105-.281-.112-.431-.009-.695-.028-1.39.002-2.084.007-.103.027-.204.064-.301.094-.246.285-.448.526-.556.094-.042.194-.068.296-.081.047-.004.093-.006.14-.006z" fill="#fff"/></g></svg>