<svg xmlns="http://www.w3.org/2000/svg" xmlns:xlink="http://www.w3.org/1999/xlink" fill-rule="evenodd" stroke-linejoin="round" stroke-miterlimit="2" clip-rule="evenodd" viewBox="0 0 32 32"><clipPath id="a"><path d="m0 0h32v32h-32z" clip-rule="evenodd"/></clipPath><clipPath id="b"><path d="m27 14s.698-2.442 1.269-4.441c.485-1.698.731-3.455.731-5.22 0-.626 0-1.239 0-1.68 0-.364-.295-.659-.659-.659 0 0 0 0-.001 0-1.842 0-3.635.603-5.102 1.718-2.666 2.024-6.738 5.115-6.738 5.115z" clip-rule="evenodd"/></clipPath><clipPath id="c"><path d="m5 14s-.698-2.442-1.269-4.441c-.485-1.698-.731-3.455-.731-5.22 0-.626 0-1.239 0-1.68 0-.364.295-.659.659-.659h.001c1.842 0 3.635.603 5.102 1.718 2.666 2.024 6.738 5.115 6.738 5.115z" clip-rule="evenodd"/></clipPath><path fill="none" d="m0 0h32v32h-32z"/><g clip-path="url(#a)"><path d="m21.126 2.81.902-.685c1.816-1.379 4.033-2.125 6.312-2.125h.001c1.469 0 2.659 1.19 2.659 2.659v1.68c0 1.951-.272 3.893-.808 5.769l-.651 2.278c1.708 5.677-.37 11.986-5.449 15.478-.837.575-1.658 1.14-2.427 1.668-3.412 2.346-7.918 2.346-11.33 0-.769-.528-1.59-1.093-2.427-1.668-5.079-3.492-7.157-9.801-5.449-15.478l-.651-2.278c-.536-1.876-.808-3.818-.808-5.769 0-.626 0-1.239 0-1.68 0-1.469 1.19-2.659 2.659-2.659h.001c2.279 0 4.496.746 6.312 2.125l.902.685c.134-.212.298-.403.49-.567.587-.501 1.383-.7 2.129-.553l.806-.388.065-.059c.706-.603 1.714-.768 2.576-.422.239.097.464.23.663.395.034.028.067.057.1.087l.804.387c.746-.147 1.542.052 2.129.553.192.164.356.355.49.567z"/><path fill="#353535" d="m15.537 2.925c.032-.061.074-.117.127-.162.145-.124.352-.158.529-.086.049.019.095.047.136.081.056.046.101.103.134.167l1.287 2.575.787-1.575c.033-.064.078-.121.134-.167.041-.034.087-.062.136-.081.177-.072.384-.038.529.086.053.045.095.101.127.162l2.537 5.075h-12c.846-1.692 1.692-3.383 2.537-5.075.029-.056.067-.107.114-.15.041-.038.088-.069.14-.091.183-.082.402-.047.552.085.049.044.089.097.12.156l.787 1.575z"/><path fill="#353535" d="m27 14s.698-2.442 1.269-4.441c.485-1.698.731-3.455.731-5.22 0-.626 0-1.239 0-1.68 0-.364-.295-.659-.659-.659 0 0 0 0-.001 0-1.842 0-3.635.603-5.102 1.718-2.666 2.024-6.738 5.115-6.738 5.115z"/><g clip-path="url(#b)"><path fill="#4b4b4b" d="m21 8s1.18-1.18 2.258-2.258c1.149-1.149 2.52-2.053 4.029-2.657 1.317-.527 2.713-1.085 2.713-1.085v12h-9z"/></g><path fill="#353535" d="m5 14s-.698-2.442-1.269-4.441c-.485-1.698-.731-3.455-.731-5.22 0-.626 0-1.239 0-1.68 0-.364.295-.659.659-.659h.001c1.842 0 3.635.603 5.102 1.718 2.666 2.024 6.738 5.115 6.738 5.115z"/><g clip-path="url(#c)"><path fill="#4b4b4b" d="m11 8s-1.18-1.18-2.258-2.258c-1.149-1.149-2.52-2.053-4.029-2.657-1.317-.527-2.713-1.085-2.713-1.085v12h9z"/></g><path fill="#353535" d="m13.152 6c-3.186 0-6.127 1.707-7.708 4.473 0 0 0 .001-.001.001-3.076 5.384-1.512 12.228 3.598 15.742.837.575 1.658 1.14 2.427 1.668 2.73 1.877 6.334 1.877 9.064 0 .769-.528 1.59-1.093 2.427-1.668 5.11-3.514 6.674-10.358 3.598-15.742-.001 0-.001-.001-.001-.001-1.581-2.766-4.522-4.473-7.708-4.473-1.823 0-3.873 0-5.696 0z"/><path fill="#fbe845" d="m10.498 18c-.928 0-1.817-.369-2.473-1.025s-1.025-1.545-1.025-2.473c0-.657 0-1.345 0-2.002 0-1.933 1.567-3.5 3.5-3.5h.002c.928 0 1.817.369 2.473 1.025s1.025 1.545 1.025 2.473v2.002c0 1.933-1.567 3.5-3.5 3.5z"/><path d="m13 12.5c0-.663-.263-1.299-.732-1.768s-1.105-.732-1.768-.732c-1.381 0-2.5 1.119-2.5 2.5v1.983c0 .663.263 1.299.732 1.768s1.105.732 1.768.732c1.381 0 2.5-1.119 2.5-2.5z"/><path fill="#fbe845" d="m21.502 18c.928 0 1.817-.369 2.473-1.025s1.025-1.545 1.025-2.473c0-.657 0-1.345 0-2.002 0-1.933-1.567-3.5-3.5-3.5h-.002c-.928 0-1.817.369-2.473 1.025s-1.025 1.545-1.025 2.473v2.002c0 1.933 1.567 3.5 3.5 3.5z"/><path d="m19 12.5c0-.663.263-1.299.732-1.768s1.105-.732 1.768-.732c1.381 0 2.5 1.119 2.5 2.5v1.983c0 .663-.263 1.299-.732 1.768s-1.105.732-1.768.732c-1.381 0-2.5-1.119-2.5-2.5z"/><path fill="gray" d="m14.179 26.828c-.115-.252-.179-.533-.179-.828 0-.941 0-2.059 0-3 0-1.105.895-2 2-2s2 .895 2 2v3c0 .295-.064.576-.179.828z"/><path fill="#b3b3b3" d="m16.001 25c.786 0 1.473.528 1.676 1.287l.144.541c-.315.692-1.012 1.172-1.821 1.172s-1.506-.48-1.821-1.172l.144-.541c.203-.759.89-1.287 1.676-1.287z"/><path fill="#666" d="m13 17.829c0-.22.087-.431.243-.586.155-.156.366-.243.586-.243h4.342c.22 0 .431.087.586.243.156.155.243.366.243.586 0 .107-.053.207-.142.266-.595.397-2.858 1.905-2.858 1.905s-2.263-1.508-2.858-1.905c-.089-.059-.142-.159-.142-.266z"/><path d="m29 23.5c0-2.485-2.015-4.5-4.5-4.5-1.193 0-2.338.474-3.182 1.318s-1.318 1.989-1.318 3.182v8.5h10.562l-1.502-6.007c-.04-.159-.06-.322-.06-.485z"/><path d="m3 23.5v2.008c0 .163-.02.326-.06.485l-1.502 6.007h10.562v-8.5c0-1.193-.474-2.338-1.318-3.182s-1.989-1.318-3.182-1.318c-2.485 0-4.5 2.015-4.5 4.5z"/><path fill="#353535" d="m27 23.5c0-1.381-1.119-2.5-2.5-2.5-.663 0-1.299.263-1.768.732s-.732 1.105-.732 1.768v6.5h6s-.615-2.461-.881-3.522c-.079-.318-.119-.643-.119-.97zm-17 6.5h-6s.615-2.461.881-3.522c.079-.318.119-.643.119-.97v-2.008c0-1.381 1.119-2.5 2.5-2.5.663 0 1.299.263 1.768.732s.732 1.105.732 1.768z"/></g></svg>