<svg xmlns="http://www.w3.org/2000/svg" xmlns:xlink="http://www.w3.org/1999/xlink" fill-rule="evenodd" stroke-linejoin="round" stroke-miterlimit="2" clip-rule="evenodd" viewBox="0 0 32 32"><clipPath id="a"><path d="m0 0h32v32h-32z" clip-rule="evenodd"/></clipPath><clipPath id="b"><path d="m27 14s.698-2.442 1.269-4.441c.485-1.698.731-3.455.731-5.22 0-.626 0-1.239 0-1.68 0-.364-.295-.659-.659-.659 0 0 0 0-.001 0-1.842 0-3.635.603-5.102 1.718-2.666 2.024-6.738 5.115-6.738 5.115z" clip-rule="evenodd"/></clipPath><clipPath id="c"><path d="m5 14s-.698-2.442-1.269-4.441c-.485-1.698-.731-3.455-.731-5.22 0-.626 0-1.239 0-1.68 0-.364.295-.659.659-.659h.001c1.842 0 3.635.603 5.102 1.718 2.666 2.024 6.738 5.115 6.738 5.115z" clip-rule="evenodd"/></clipPath><path fill="none" d="m0 0h32v32h-32z"/><g clip-path="url(#a)"><path d="m19.491 4.051 2.537-1.926c1.816-1.379 4.033-2.125 6.312-2.125h.001c1.469 0 2.659 1.19 2.659 2.659v1.68c0 1.951-.272 3.893-.808 5.769l-.719 2.516c1.962 5.118.761 10.971-3.175 14.906-.432.432-.853.853-1.248 1.248-2.063 2.063-4.861 3.222-7.778 3.222-.831 0-1.713 0-2.544 0-2.917 0-5.715-1.159-7.778-3.222-.395-.395-.816-.816-1.248-1.248-3.936-3.935-5.137-9.788-3.175-14.906l-.719-2.516c-.536-1.876-.808-3.818-.808-5.769 0-.626 0-1.239 0-1.68 0-1.469 1.19-2.659 2.659-2.659h.001c2.279 0 4.496.746 6.312 2.125l2.537 1.926c.348-.034.699-.051 1.053-.051h4.876c.354 0 .705.017 1.053.051z"/><path fill="#353535" d="m27 14s.698-2.442 1.269-4.441c.485-1.698.731-3.455.731-5.22 0-.626 0-1.239 0-1.68 0-.364-.295-.659-.659-.659 0 0 0 0-.001 0-1.842 0-3.635.603-5.102 1.718-2.666 2.024-6.738 5.115-6.738 5.115z"/><g clip-path="url(#b)"><path fill="#4b4b4b" d="m21 8s1.18-1.18 2.258-2.258c1.149-1.149 2.52-2.053 4.029-2.657 1.317-.527 2.713-1.085 2.713-1.085v12h-9z"/></g><path fill="#353535" d="m5 14s-.698-2.442-1.269-4.441c-.485-1.698-.731-3.455-.731-5.22 0-.626 0-1.239 0-1.68 0-.364.295-.659.659-.659h.001c1.842 0 3.635.603 5.102 1.718 2.666 2.024 6.738 5.115 6.738 5.115z"/><g clip-path="url(#c)"><path fill="#4b4b4b" d="m11 8s-1.18-1.18-2.258-2.258c-1.149-1.149-2.52-2.053-4.029-2.657-1.317-.527-2.713-1.085-2.713-1.085v12h9z"/></g><path fill="#353535" d="m13.562 6c-3.409 0-6.525 1.926-8.05 4.975-.21.421-.426.853-.644 1.289-2.31 4.62-1.404 10.2 2.248 13.852.432.432.853.853 1.248 1.248 1.688 1.688 3.977 2.636 6.364 2.636h2.544c2.387 0 4.676-.948 6.364-2.636l1.248-1.248c3.652-3.652 4.558-9.232 2.248-13.852-.218-.436-.434-.868-.644-1.289-1.525-3.049-4.641-4.975-8.05-4.975-1.579 0-3.297 0-4.876 0z"/><path fill="#fbe844" d="m19.165 14.171 4 2c.37.185.821.035 1.006-.336.185-.37.035-.821-.336-1.006l-4-2c-.37-.185-.821-.035-1.006.336-.185.37-.035.821.336 1.006z"/><path fill="#fbe844" d="m12.165 12.829-4 2c-.371.185-.521.636-.336 1.006.185.371.636.521 1.006.336l4-2c.371-.185.521-.636.336-1.006-.185-.371-.636-.521-1.006-.336z"/><path fill="gray" d="m18.033 22.906-2.715-.678c-.401-.101-.646-.508-.546-.91.101-.401.508-.646.91-.546l4 1c.262.066.469.267.541.528.072.26-.002.539-.193.73l-1.469 1.47 1.469 1.47c.191.191.265.47.193.73-.072.261-.279.462-.541.528l-4 1c-.402.1-.809-.145-.91-.546-.1-.402.145-.809.546-.91l2.715-.678-1.063-1.064c-.287-.302-.287-.758 0-1.06z"/><path fill="#666" d="m13 17.829c0-.22.087-.431.243-.586.155-.156.366-.243.586-.243h4.352c.217 0 .426.086.579.24.154.153.24.362.24.579v.001c0 .112-.056.218-.15.28-.607.405-2.85 1.9-2.85 1.9s-2.263-1.508-2.858-1.905c-.089-.059-.142-.159-.142-.266z"/></g></svg>