<svg clip-rule="evenodd" fill-rule="evenodd" stroke-linecap="round" stroke-linejoin="round" stroke-miterlimit="1.5" viewBox="0 0 32 32" xmlns="http://www.w3.org/2000/svg" xmlns:xlink="http://www.w3.org/1999/xlink"><clipPath id="a"><path clip-rule="evenodd" d="m0 0h32v32h-32z"/></clipPath><path d="m0 0h32v32h-32z" fill="none"/><g clip-path="url(#a)"><ellipse cx="8.5" cy="16" fill="none" rx="6.5" ry="13" stroke="#000" stroke-width="4"/><ellipse cx="23.5" cy="16" fill="none" rx="6.5" ry="13" stroke="#000" stroke-width="4"/><path d="m28 6.623c1.232 2.366 2 5.694 2 9.377 0 7.062-2.822 12.817-6.332 12.996 1.15-4.239 3.285-22.672 4.332-22.373z" fill="#d9d9d9"/><path d="m23.668 28.996c-.056.003-.112.004-.168.004-3.587 0-6.5-5.825-6.5-13s2.913-13 6.5-13c1.746 0 3.332 1.379 4.5 3.623v9.264c0 4.749-1.535 9.34-4.332 13.109z" fill="#fff"/><path d="m13 6.623c1.232 2.366 2 5.694 2 9.377 0 7.062-2.822 12.817-6.332 12.996 1.15-4.239 3.285-22.672 4.332-22.373z" fill="#d9d9d9"/><path d="m8.668 28.996c-.056.003-.112.004-.168.004-3.587 0-6.5-5.825-6.5-13s2.913-13 6.5-13c1.746 0 3.332 1.379 4.5 3.623v9.264c0 4.749-1.535 9.34-4.332 13.109z" fill="#fff"/><ellipse cx="4.857" cy="16.75" rx="4.643" ry="5"/><ellipse cx="19.857" cy="16.75" rx="4.643" ry="5"/></g></svg>