<svg clip-rule="evenodd" fill-rule="evenodd" stroke-linejoin="round" stroke-miterlimit="1.5" viewBox="0 0 32 32" xmlns="http://www.w3.org/2000/svg" xmlns:xlink="http://www.w3.org/1999/xlink"><clipPath id="a"><path clip-rule="evenodd" d="m0 0h32v32h-32z"/></clipPath><path d="m0 0h32v32h-32z" fill="none"/><g clip-path="url(#a)"><path d="m13.828 4c-1.811 0-3.547.719-4.828 2-1.281 1.281-2 3.017-2 4.828v2.115c0 .699.122 1.393.361 2.05.781 2.148 2.615 7.19 3.338 9.179.199.548.301 1.126.301 1.709v3.119l3-3 2 3 2-3 3 3s0-1.941 0-3.119c0-.583.102-1.161.301-1.709.723-1.989 2.557-7.031 3.338-9.179.239-.657.361-1.351.361-2.05 0-.592 0-1.361 0-2.115 0-1.811-.719-3.547-2-4.828-1.281-1.281-3.017-2-4.828-2-1.359 0-2.985 0-4.344 0z" fill="none" stroke="#000" stroke-width="4"/><path d="m10.094 12.002.023.002.024.001.023.002.023.002.024.003.023.002.023.003.023.003.024.004.023.003.023.004.023.004.023.005.023.004.023.006.023.005.022.006.023.005.023.007.022.006.023.007.022.006.022.008.023.007.022.008.022.007.022.009.022.008.021.009.022.009.022.009.021.009.021.011.022.009.021.011.021.01.02.011.021.011.021.011.02.011.021.012.02.012.02.012.02.012.019.013.02.013.019.013.02.013.019.014.019.013.019.015.019.014.018.014.018.015.018.015.019.015.017.015.018.015.017.016.018.016.016.016.018.016.016.017.017.016.016.018.016.016.016.018.016.017.015.018.015.017.015.019.015.018.015.018.014.018.014.019.015.019.013.019.014.019.013.02.013.019.013.02.013.019.012.02.012.02.012.02.012.021.011.02.011.021.011.021.011.02.01.021.011.021.009.022.011.021.009.021.009.022.009.022.009.021.008.022.009.022.007.022.008.022.007.023.008.022.006.022.007.023.006.022.007.023.005.023.006.022.005.023.006.023.004.023.005.023.004.023.004.023.003.023.004.024.003.023.003.023.002.023.003.024.002.023.002.023.001.024.002.023v.024l.001.023v.024l.001.023v7.245l-.308.24-5.643-1.411-.155-.041-.164-.046-.163-.05-.161-.054-.16-.056-.158-.06-.156-.063-.154-.066-.153-.069-.151-.072-.149-.075-.147-.078-.145-.081-.143-.083-.141-.087-.139-.089-.137-.092-.134-.094-.133-.097-.13-.1-.129-.102-.125-.105-.124-.107-.121-.11-.119-.112-.117-.114-.114-.117-.111-.119-.11-.121-.106-.123-.104-.125-.102-.127-.099-.13-.096-.131-.094-.133-.09-.136-.089-.137-.085-.139-.083-.14-.079-.143-.077-.144-.074-.146-.071-.147-.069-.15-.065-.15-.062-.152-.059-.154-.056-.155-.053-.157-.049-.157-.047-.16-.043-.16-.04-.161-.037-.163-.033-.164-.03-.165-.026-.165-.023-.167-.02-.168-.016-.168-.013-.17-.009-.17-.005-.17-.002-.161v-3.833l.001-.08.006-.099.009-.098.013-.096.016-.097.02-.095.023-.094.027-.093.03-.091.033-.09.037-.089.039-.087.043-.086.045-.083.049-.083.051-.08.054-.078.058-.076.06-.075.063-.071.065-.07.068-.068.071-.065.073-.063.075-.059.078-.058.081-.055.082-.052.085-.049.086-.046.09-.043.09-.039.092-.036.093-.033.094-.029.094-.025.095-.021.096-.019.096-.014.096-.011.096-.007.095-.004.097-.001.096.004.094.006.095.01.094.014.095.017.093.02.092.023.091.028.091.03.09.034.088.037.087.04.086.043.085.047.082.05.082.053.08.057.077.06.075.062.074.066.058.056 1.167 1.166.065.067.07.074.069.075.068.076.066.077.064.078.064.079.062.08.06.081.06.082.057.083.057.084.054.085.054.086.052.086.05.088.049.088.048.089.046.09.045.091.043.091.041.093.04.093.038.093.037.095.035.095.034.095.032.097.031.097.028.097.028.098.023.09.352 1.409.003.01h.01 2.428l.023.001h.024l.023.001h.024zm-4.619 3.416.064.051.065.05.066.048.067.047.068.046.07.045.07.043.071.041.073.041.073.039.074.037.075.036.077.034.077.033.078.032.078.029.08.029.081.026.082.026.082.023.094.024.96.24v-.438h-.449l-.075-.001-.085-.003-.085-.004-.085-.006-.083-.008-.085-.01-.083-.012-.083-.013-.082-.015-.083-.017-.081-.018-.081-.02-.08-.022-.079-.023-.08-.025-.078-.026-.077-.028-.077-.03-.076-.031-.076-.032-.074-.034-.074-.036-.073-.037-.072-.038-.072-.04-.07-.042-.052-.032z"/><path d="m29.432 5.886.095.004.096.007.096.011.096.014.096.019.095.021.094.025.094.029.093.033.092.036.09.039.09.043.086.046.085.049.082.052.081.055.078.058.075.059.073.063.071.065.068.068.065.07.063.071.06.075.058.076.054.078.051.08.049.083.045.083.043.086.039.087.037.089.033.09.03.091.027.093.023.094.02.095.016.097.013.097.009.097.005.099.002.08v3.833l-.002.161-.005.17-.009.17-.013.17-.016.168-.02.168-.023.167-.026.165-.03.165-.033.164-.037.163-.04.161-.043.16-.047.16-.049.157-.053.157-.056.155-.059.153-.062.153-.065.15-.069.15-.071.147-.074.146-.077.144-.079.143-.083.14-.085.139-.089.137-.09.136-.094.133-.096.131-.099.13-.102.127-.104.125-.106.123-.11.121-.111.119-.114.117-.117.114-.119.112-.121.11-.124.107-.125.105-.129.102-.13.1-.133.097-.134.094-.137.092-.139.089-.141.087-.143.083-.145.081-.147.078-.149.075-.151.072-.153.069-.154.066-.156.063-.158.06-.16.056-.161.054-.163.05-.164.046-.155.041-5.643 1.411-.308-.24v-7.245l.001-.023v-.024l.001-.023v-.024l.002-.023.001-.024.002-.023.002-.023.003-.024.002-.023.003-.023.003-.023.004-.024.003-.023.004-.023.004-.023.005-.023.004-.023.006-.023.005-.023.006-.022.005-.023.007-.023.006-.022.007-.023.006-.022.008-.022.007-.023.008-.022.007-.022.009-.022.008-.022.009-.021.009-.022.009-.022.009-.021.011-.021.009-.022.011-.021.01-.021.011-.02.011-.021.011-.021.011-.02.012-.021.012-.02.012-.02.012-.02.013-.019.013-.02.013-.019.013-.02.014-.019.013-.019.015-.019.014-.019.014-.018.015-.018.015-.018.015-.019.015-.017.015-.018.016-.017.016-.018.016-.016.016-.018.017-.016.016-.017.018-.016.016-.016.018-.016.017-.016.018-.015.017-.015.019-.015.018-.015.018-.015.018-.014.019-.014.019-.015.019-.013.019-.014.02-.013.019-.013.02-.013.019-.013.02-.012.02-.012.02-.012.021-.012.02-.011.021-.011.021-.011.02-.011.021-.01.021-.011.022-.009.021-.011.021-.009.022-.009.022-.009.021-.009.022-.008.022-.009.022-.007.022-.008.023-.007.022-.008.022-.006.023-.007.022-.006.023-.007.023-.005.022-.006.023-.005.023-.006.023-.004.023-.005.023-.004.023-.004.023-.003.024-.004.023-.003.023-.003.023-.002.024-.003.023-.002.023-.002.024-.001.023-.002h.024l.023-.001h.024l.023-.001h2.428.01l.003-.01.352-1.409.023-.09.028-.098.028-.097.031-.097.032-.097.034-.095.035-.095.037-.095.038-.093.04-.093.041-.093.043-.091.045-.091.046-.09.048-.089.049-.088.05-.088.052-.086.054-.086.054-.085.057-.084.057-.083.06-.082.06-.081.062-.08.064-.079.064-.078.066-.077.068-.076.069-.075.07-.074.065-.067 1.167-1.167.058-.055.074-.066.075-.062.077-.06.08-.057.082-.053.082-.05.085-.047.086-.043.087-.04.088-.037.09-.034.091-.03.091-.028.092-.023.093-.02.095-.017.094-.014.095-.01.094-.006.096-.004.097.001zm-2.934 9.543-.07.042-.072.04-.072.038-.073.037-.074.036-.074.034-.076.032-.076.031-.077.03-.077.028-.078.026-.08.025-.079.023-.08.022-.081.02-.081.018-.083.017-.082.015-.083.013-.083.012-.085.01-.083.008-.085.006-.085.004-.085.003-.075.001h-.449v.438l.96-.24.094-.024.082-.023.082-.026.081-.026.08-.029.078-.029.078-.032.077-.033.077-.034.075-.036.074-.037.073-.039.073-.041.071-.041.07-.043.07-.045.068-.046.067-.047.066-.048.065-.05.064-.051.025-.021z"/><g fill="#fff"><path d="m13.828 4c-1.811 0-3.547.719-4.828 2-1.281 1.281-2 3.017-2 4.828v2.115c0 .699.122 1.393.361 2.05.781 2.148 2.615 7.19 3.338 9.179.199.548.301 1.126.301 1.709v3.119l3-3 2 3 2-3 3 3s0-1.941 0-3.119c0-.583.102-1.161.301-1.709.723-1.989 2.557-7.031 3.338-9.179.239-.657.361-1.351.361-2.05 0-.592 0-1.361 0-2.115 0-1.811-.719-3.547-2-4.828-1.281-1.281-3.017-2-4.828-2-1.359 0-2.985 0-4.344 0z"/><path d="m10 14s-1.316 0-2.438 0c-.918 0-1.718-.625-1.941-1.515-.117-.469-.244-.977-.352-1.41-.176-.703-.54-1.346-1.052-1.858-.351-.351-.77-.77-1.148-1.148-.179-.179-.449-.233-.683-.136-.233.097-.386.325-.386.579v3.803c0 2.754 1.874 5.153 4.545 5.821 1.803.451 3.455.864 3.455.864z"/><path d="m22 14h2.438c.918 0 1.718-.625 1.941-1.515.117-.469.244-.977.352-1.41.176-.703.54-1.346 1.052-1.858.351-.351.77-.77 1.148-1.148.179-.179.449-.233.683-.136.233.097.386.325.386.579v3.803c0 2.754-1.874 5.153-4.545 5.821-1.803.451-3.455.864-3.455.864z"/></g><path d="m15 14-2-1-1 1-3-1s.15.601.334 1.337c.415 1.659 1.648 2.99 3.27 3.531l2.447.816c.616.205 1.282.205 1.898 0 .879-.293 2.051-.684 2.051-.684s.156-.052.396-.132c1.622-.541 2.855-1.872 3.27-3.531.184-.736.334-1.337.334-1.337l-3 1-1-1-2 1-1-1z" fill="#75050d"/><path d="m11.457 17.315.652-.979c.237-.355.542-.649.891-.87 0 0 .837.095 1 .534.161.433-.009.622 0 1 .008.338-.954.951-.942 1.019l-.454-.151c-.41-.137-.794-.323-1.147-.553zm7.485.704c.018-.102-.658-.479-.942-1.019-.159-.303-.003-.752 0-1 .003-.27 1-.534 1-.534.349.221.654.515.891.87l.652.979c-.353.23-.737.416-1.147.553-.24.08-.396.132-.396.132z" fill="#b40816"/><path d="m13 15.466c.473-.3 1.028-.466 1.606-.466h2.788c.578 0 1.133.166 1.606.466v1.877c0 1.061-.421 2.078-1.172 2.829-.083.083-.165.165-.242.242-.375.375-.884.586-1.414.586h-.344c-.53 0-1.039-.211-1.414-.586-.077-.077-.159-.159-.242-.242-.751-.751-1.172-1.768-1.172-2.829z" fill="#f4101c"/><path d="m11.015 8.5.028.001.028.002.028.002.028.003.027.004.028.005.028.005.027.006.027.008.027.007.027.009.026.009.026.01.026.011.026.011.025.013 2 1 .025.012.025.014.024.014.024.015.023.016.023.016.022.017.022.018.021.018.021.018.021.02.02.019.019.021.018.021.019.021.017.022.017.023.016.023.016.023.015.024.014.024.013.024.013.025.012.026.012.025.01.026.01.026.01.027.008.027.008.026.007.028.006.027.006.027.004.028.004.028.003.028.003.028.001.028.001.028v.028l-.001.028-.002.028-.002.028-.003.028-.004.027-.005.028-.005.028-.006.027-.008.027-.007.027-.009.027-.009.026-.01.026-.011.026-.011.026-.013.025-.012.025-.014.025-.014.024-.015.024-.016.023-.016.023-.017.022-.018.022-.018.021-.018.021-.02.021-.019.02-.021.019-.021.018-.021.019-.022.017-.023.017-.023.016-.023.016-.024.015-.024.014-.024.013-.025.013-.026.012-.025.012-.026.01-.026.01-.027.01-.027.008-.026.008-.028.007-.027.006-.027.006-.028.004-.028.004-.028.003-.028.003-.028.001-.028.001h-.028l-.028-.001-.028-.002-.028-.002-.028-.003-.027-.004-.028-.005-.028-.005-.027-.006-.027-.008-.027-.007-.027-.009-.026-.009-.026-.01-.026-.011-.026-.011-.025-.013-2-1-.025-.012-.025-.014-.024-.014-.024-.015-.023-.016-.023-.016-.022-.017-.022-.018-.021-.018-.021-.018-.021-.02-.02-.019-.019-.021-.018-.021-.019-.021-.017-.022-.017-.023-.016-.023-.016-.023-.015-.024-.014-.024-.013-.024-.013-.025-.012-.026-.012-.025-.01-.026-.01-.026-.01-.027-.008-.027-.008-.026-.007-.028-.006-.027-.006-.027-.004-.028-.004-.028-.003-.028-.003-.028-.001-.028-.001-.028v-.028l.001-.028.002-.028.002-.028.003-.028.004-.027.005-.028.005-.028.006-.027.008-.027.007-.027.009-.027.009-.026.01-.026.011-.026.011-.026.013-.025.012-.025.014-.025.014-.024.015-.024.016-.023.016-.023.017-.022.018-.022.018-.021.018-.021.02-.021.019-.02.021-.019.021-.018.021-.019.022-.017.023-.017.023-.016.023-.016.024-.015.024-.014.024-.013.025-.013.026-.012.025-.012.026-.01.026-.01.027-.01.027-.008.026-.008.028-.007.027-.006.027-.006.028-.004.028-.004.028-.003.028-.003.028-.001.028-.001z"/><path d="m21.041 8.501.028.001.028.003.028.003.028.004.028.004.027.006.027.006.028.007.026.008.027.008.027.01.026.01.026.01.025.012.026.012.025.013.024.013.024.014.024.015.023.016.023.016.023.017.022.017.021.019.021.018.021.019.019.02.02.021.018.021.018.021.018.022.017.022.016.023.016.023.015.024.014.024.014.025.012.025.013.025.011.026.011.026.01.026.009.026.009.027.007.027.008.027.006.027.005.028.005.028.004.027.003.028.002.028.002.028.001.028v.028l-.001.028-.001.028-.003.028-.003.028-.004.028-.004.028-.006.027-.006.027-.007.028-.008.026-.008.027-.01.027-.01.026-.01.026-.012.025-.012.026-.013.025-.013.024-.014.024-.015.024-.016.023-.016.023-.017.023-.017.022-.019.021-.018.021-.019.021-.02.019-.021.02-.021.018-.021.018-.022.018-.022.017-.023.016-.023.016-.024.015-.024.014-.025.014-.025.012-2 1-.025.013-.026.011-.026.011-.026.01-.026.009-.027.009-.027.007-.027.008-.027.006-.028.005-.028.005-.027.004-.028.003-.028.002-.028.002-.028.001h-.028l-.028-.001-.028-.001-.028-.003-.028-.003-.028-.004-.028-.004-.027-.006-.027-.006-.028-.007-.026-.008-.027-.008-.027-.01-.026-.01-.026-.01-.025-.012-.026-.012-.025-.013-.024-.013-.024-.014-.024-.015-.023-.016-.023-.016-.023-.017-.022-.017-.021-.019-.021-.018-.021-.019-.019-.02-.02-.021-.018-.021-.018-.021-.018-.022-.017-.022-.016-.023-.016-.023-.015-.024-.014-.024-.014-.025-.012-.025-.013-.025-.011-.026-.011-.026-.01-.026-.009-.026-.009-.027-.007-.027-.008-.027-.006-.027-.005-.028-.005-.028-.004-.027-.003-.028-.002-.028-.002-.028-.001-.028v-.028l.001-.028.001-.028.003-.028.003-.028.004-.028.004-.028.006-.027.006-.027.007-.028.008-.026.008-.027.01-.027.01-.026.01-.026.012-.025.012-.026.013-.025.013-.024.014-.024.015-.024.016-.023.016-.023.017-.023.017-.022.019-.021.018-.021.019-.021.02-.019.021-.02.021-.018.021-.018.022-.018.022-.017.023-.016.023-.016.024-.015.024-.014.025-.014.025-.012 2-1 .025-.013.026-.011.026-.011.026-.01.026-.009.027-.009.027-.007.027-.008.027-.006.028-.005.028-.005.027-.004.028-.003.028-.002.028-.002.028-.001h.028z"/></g></svg>