<svg clip-rule="evenodd" fill-rule="evenodd" stroke-linejoin="round" stroke-miterlimit="2" viewBox="0 0 32 32" xmlns="http://www.w3.org/2000/svg" xmlns:xlink="http://www.w3.org/1999/xlink"><clipPath id="a"><path clip-rule="evenodd" d="m0 .017h32v32h-32z"/></clipPath><path d="m0 .017h32v32h-32z" fill="none"/><g clip-path="url(#a)"><path d="m25 5.015c0-2.761 2.238-4.998 4.998-4.998h2.002v5.716c0 1.257-.464 2.406-1.232 3.284h1.232v7.412c0 3.638-2.949 6.588-6.587 6.588h-4.413v-3.786h-2v-5.048c-.835.266-1.715.405-2.608.405h-2.392v-5.106c0-2.283.907-4.473 2.521-6.087 1.615-1.614 3.804-2.521 6.087-2.521h2.392z"/><path d="m16.002 2.017c1.591 0 3.116.632 4.241 1.756.921.921 1.511 2.109 1.695 3.383 1.454.283 2.803.994 3.866 2.057 1.406 1.406 2.196 3.313 2.196 5.302v.004c0 .502-.05 1-.149 1.485.657.361 1.266.816 1.806 1.356 1.488 1.488 2.33 3.503 2.343 5.607v.05c0 2.121-.843 4.156-2.343 5.657-1.5 1.5-3.535 2.343-5.657 2.343 0 0-16 0-16.006 0-.884-.003-1.763-.148-2.599-.436-1.35-.465-2.564-1.294-3.488-2.381-.677-.795-1.195-1.723-1.517-2.717-.258-.794-.387-1.625-.39-2.46v-.056c.013-2.104.855-4.119 2.343-5.607.54-.54 1.149-.995 1.806-1.356-.099-.485-.149-.983-.149-1.485v-.004c0-1.989.79-3.896 2.196-5.302.799-.799 1.759-1.399 2.804-1.768v-3.428c.027-1.071.828-1.916 1.897-1.998l.103-.002z"/><path d="m21 10.716c-1.233 1.199-2.886 1.872-4.608 1.872h-.392s0-1.384 0-3.106c0-1.753.696-3.434 1.935-4.673 1.24-1.239 2.92-1.935 4.673-1.935h.392v3.106c0 .428-.041.851-.122 1.265.362-.149.754-.228 1.154-.228h1.968v4.282c.495-.183 1.029-.282 1.587-.282h2.413v5.412c0 2.534-2.054 4.588-4.587 4.588h-2.413v-3.786h-.032-1.968zm9-8.699v3.716c0 1.656-1.342 2.998-2.998 2.998h-.002s0-1.927 0-3.716c0-1.656 1.342-2.998 2.998-2.998z" fill="#f08c00"/><path d="m21.032 6.017h.968v3.18c.322-.117.669-.18 1.032-.18h.968v4.781c.538-.486 1.25-.781 2.032-.781h1.968v3.968c0 1.674-1.357 3.032-3.032 3.032h-1.968v-3.782c-.538.486-1.25.782-2.032.782h-.968v-4.18c-.322.116-.669.18-1.032.18h-.968s0-2.077 0-3.969c0-1.674 1.357-3.031 3.032-3.031z" fill="#ffbf36"/><path d="m16.002 4.017c1.06 0 2.077.421 2.827 1.171.75.749 1.171 1.766 1.171 2.827v.004c0 .339-.043.674-.127.998h.629c1.458 0 2.857.579 3.888 1.61s1.61 2.43 1.61 3.888v.004c0 .933-.237 1.841-.678 2.645 1.097.248 2.112.802 2.921 1.61 1.116 1.116 1.747 2.628 1.757 4.205v.038c0 1.591-.632 3.117-1.757 4.242-1.126 1.126-2.652 1.758-4.243 1.758h-16c-.664-.002-1.326-.111-1.954-.327-1.012-.349-1.923-.97-2.616-1.786-.508-.596-.896-1.292-1.138-2.037-.193-.598-.29-1.223-.292-1.85v-.038c.01-1.577.641-3.089 1.757-4.205.809-.808 1.824-1.362 2.921-1.61-.441-.804-.678-1.712-.678-2.645v-.004c0-1.458.579-2.857 1.61-3.888.975-.974 2.277-1.545 3.648-1.605l-.004-.01c-.167-.481-.252-.986-.254-1.495v-3.5h5.002z" fill="#9a6f42"/><path d="m10.731 25.852c-.071-.048-.136-.105-.195-.172-.279-.321-.324-.783-.113-1.153.353-.618.733-1.283 1.089-1.906.92-1.611 2.633-2.604 4.487-2.604h.002c1.854 0 3.567.993 4.487 2.604.356.623.736 1.288 1.089 1.906.211.37.166.832-.113 1.153-.059.067-.124.124-.195.172l-5.269-1.835z" fill="#352412"/><path d="m16.107 23.017c1.828 0 3.558.831 4.7 2.259l.462.576c-.271.183-.619.225-.931.1-.379-.152-.753-.301-1.086-.435-.827-.33-1.71-.5-2.6-.5h-1.304c-.89 0-1.773.17-2.6.5-.333.134-.707.283-1.086.435-.312.125-.66.083-.931-.1l.462-.576c1.142-1.428 2.872-2.259 4.7-2.259z" fill="#1f140a"/><path d="m11 12.017c.271 0 .534.036.784.103.216.88 1.799 4.711 2.216 4.398v.501c0 .795-.316 1.557-.878 2.12-.562.562-1.325.878-2.12.878-.001 0-.001 0-.002 0-1.657 0-3-1.343-3-3 0-.655 0-1.348 0-2.002 0-.795.316-1.558.878-2.12s1.325-.878 2.12-.878z" fill="#fff"/><path d="m11.784 12.12c1.277.345 2.216 1.511 2.216 2.897v1.501c-.417.313-.936.499-1.498.499h-.004c-1.38 0-2.498-1.119-2.498-2.498v-.004c0-1.132.752-2.088 1.784-2.395z"/><path d="m21 12.017c.271 0 .534.036.784.103.216.88 1.799 4.711 2.216 4.398v.501c0 .795-.316 1.557-.878 2.12-.562.562-1.325.878-2.12.878-.001 0-.001 0-.002 0-1.657 0-3-1.343-3-3 0-.655 0-1.348 0-2.002 0-.795.316-1.558.878-2.12s1.325-.878 2.12-.878z" fill="#fff"/><path d="m21.784 12.12c1.277.345 2.216 1.511 2.216 2.897v1.501c-.417.313-.936.499-1.498.499h-.004c-1.38 0-2.498-1.119-2.498-2.498v-.004c0-1.132.752-2.088 1.784-2.395z"/></g></svg>