<svg clip-rule="evenodd" fill-rule="evenodd" stroke-linecap="round" stroke-miterlimit="1.5" viewBox="0 0 32 32" xmlns="http://www.w3.org/2000/svg" xmlns:xlink="http://www.w3.org/1999/xlink"><clipPath id="a"><path clip-rule="evenodd" d="m0 0h32v32h-32z"/></clipPath><path d="m0 0h32v32h-32z" fill="none"/><g clip-path="url(#a)"><path d="m6 30c-1.657 0-3-1.343-3-3 0-2.684 0-6.737 0-10.317 0-4.531 3.046-8.495 7.423-9.663 5.051-1.347 11.657-3.108 16.417-4.377.844-.225 1.737.124 2.205.862.467.738.401 1.695-.163 2.362-2.624 3.101-5.697 6.733-6.612 7.814-.18.213-.354.43-.521.653-.601.803-2.178 2.904-3.528 4.705-1.472 1.962-3.237 3.687-5.233 5.113-1.897 1.354-3.988 2.848-3.988 2.848 0 1.657-1.343 3-3 3z" fill="none" stroke="#000" stroke-width="4"/><path d="m6 30c-1.657 0-3-1.343-3-3 0-2.684 0-6.737 0-10.317 0-4.531 3.046-8.495 7.423-9.663 5.051-1.347 11.657-3.108 16.417-4.377.844-.225 1.737.124 2.205.862.467.738.401 1.695-.163 2.362-2.624 3.101-5.697 6.733-6.612 7.814-.18.213-.354.43-.521.653-.601.803-2.178 2.904-3.528 4.705-1.472 1.962-3.237 3.687-5.233 5.113-1.897 1.354-3.988 2.848-3.988 2.848 0 1.657-1.343 3-3 3z" fill="#a3a9ff"/><path d="m5 17v3c0 2.209 1.791 4 4 4h1l6-6 2-3 8-9-2-1-16 6-3 4z" fill="#8484f6"/><path d="m8 18c0-.796-.316-1.559-.879-2.121-.562-.563-1.325-.879-2.121-.879-.574 0-1 0-1 0v6h1c.796 0 1.559-.316 2.121-.879.563-.562.879-1.325.879-2.121z" fill="#a3a9ff"/><g fill="none" stroke-width="2"><path d="m10 23s3.994-3.328 5.465-4.554c.356-.297.686-.624.985-.978.95-1.122 3.07-3.628 3.07-3.628s4.474-5.288 6.502-7.684c.128-.152.142-.37.033-.537-.109-.166-.315-.241-.505-.184-3.06.918-10.26 3.078-14.736 4.421-2.365.709-4.181 2.612-4.78 5.007-.022.088-.034.137-.034.137s.808.808 1.586 1.586c.781.781.781 2.047 0 2.828-.778.778-1.586 1.586-1.586 1.586" stroke="#343394" stroke-linejoin="round"/><path d="m11 13c1.657 0 3 1.343 3 3" stroke="#a3a9ff"/><path d="m17 11h.001c.552 0 .999.447.999.999v.001" stroke="#a3a9ff"/></g></g></svg>