<svg clip-rule="evenodd" fill-rule="evenodd" stroke-linejoin="round" stroke-miterlimit="2" viewBox="0 0 32 32" xmlns="http://www.w3.org/2000/svg" xmlns:xlink="http://www.w3.org/1999/xlink"><clipPath id="a"><path clip-rule="evenodd" d="m0 0h32v32h-32z"/></clipPath><path d="m0 0h32v32h-32z" fill="none"/><g clip-path="url(#a)"><path d="m10.008 29.799c-.971.825-2.262 1.186-3.532.975-1.75-.292-4.805-.801-4.805-.801-.964-.161-1.671-.995-1.671-1.973 0 0 0-2.958 0-5.277 0-2.092.471-4.158 1.378-6.044 1.874-3.896 5.32-11.059 5.32-11.059.192-.4.511-.724.908-.922l8.655-4.328c.831-.416 1.793-.484 2.675-.19.881.294 1.61.926 2.025 1.757.74 1.478 1.917 3.833 2.627 5.253.826 1.652.156 3.66-1.496 4.486-.655.328-1.483.742-2.232 1.116-1.003.502-2.164.584-3.228.23-.395-.132-.765-.32-1.099-.556l-1.533.768v3.766h5.929c.411 0 .818.036 1.216.107.955-.715 2.121-1.107 3.327-1.107h1.974c1.473 0 2.886.585 3.927 1.627 1.042 1.041 1.627 2.454 1.627 3.927v4.892c0 1.473-.585 2.886-1.627 3.927-1.041 1.042-2.454 1.627-3.927 1.627h-1.974c-1.206 0-2.372-.392-3.327-1.107-.398.071-.805.107-1.216.107h-5.436c-.655-.002-1.308-.072-1.947-.215-.89-.198-1.748-.532-2.538-.986z"/><path d="m25 22s-.774-.774-1.536-1.536c-.937-.937-2.209-1.464-3.535-1.464-1.737 0-4.258 0-6.325 0-2.152 0-4.063 1.377-4.744 3.419-.449 1.348-.86 2.581-.86 2.581s.396.528.9 1.2c1.322 1.763 3.397 2.8 5.6 2.8h5.429c1.326 0 2.598-.527 3.535-1.464.762-.762 1.536-1.536 1.536-1.536z" fill="#595959"/><path d="m12 17.275c0 .483.04.964.119 1.44.104.622.261 1.566.414 2.485.293 1.757-.281 3.548-1.54 4.807-.744.744-1.549 1.549-2.137 2.137-.537.537-1.301.782-2.051.657-1.75-.292-4.805-.801-4.805-.801v-5.277c0-1.792.403-3.562 1.18-5.177l4.341-9.025 2.479 1.479 2 3z" fill="#323232"/><path d="m8.5 6.486 2.5 1.514 1 4v1l-4.479-4.479z" fill="#818181"/><path d="m14.32 10.834-2.32 1.166-3.5-5.514s5.928-2.963 8.656-4.327c.356-.179.769-.208 1.147-.082s.691.397.869.754l2.231 4.461-.399.671-4.087 1.902-.941.141-.762.381-.594-.044zm7.526-2.645c.256.642-.019 1.384-.648 1.699-.655.327-1.483.741-2.232 1.116-.529.264-1.141.307-1.701.12-.229-.076-.441-.188-.63-.329l.347-.746 4.198-2.052z" fill="#595959"/><path d="m15.976 10.006-1.656.828-1.014-2.028c.298-.149.596-.299.894-.448l1.014 2.029 1.609-.804-1.017-2.034c.298-.149.596-.298.894-.447l1.017 2.033 1.608-.804-1.019-2.039c.298-.149.596-.298.894-.447l1.02 2.039 1.183-.592.396.792c.015.031.029.063.043.095l.004.01-5.211 2.606-.02-.015c-.268-.208-.487-.471-.639-.774z" fill="#1e1e1e"/><path d="m26.446 30c.943 0 1.847-.374 2.513-1.041.667-.667 1.041-1.571 1.041-2.513 0-1.544 0-3.348 0-4.892 0-.942-.374-1.846-1.041-2.513-.666-.667-1.57-1.041-2.513-1.041-.698 0-1.393 0-1.974 0-.942 0-1.846.374-2.513 1.041-.848.848-2.067 2.067-3.084 3.084-1.036 1.036-1.036 2.714 0 3.75l3.084 3.084c.667.667 1.571 1.041 2.513 1.041z" fill="#323232"/><path d="m6 22c1.104 0 2 .896 2 2s-.896 2-2 2-2-.896-2-2 .896-2 2-2zm0 1c.552 0 1 .448 1 1s-.448 1-1 1-1-.448-1-1 .448-1 1-1z" fill="#2176ff"/></g></svg>