<svg clip-rule="evenodd" fill-rule="evenodd" stroke-linejoin="round" stroke-miterlimit="2" viewBox="0 0 32 32" xmlns="http://www.w3.org/2000/svg" xmlns:xlink="http://www.w3.org/1999/xlink"><clipPath id="a"><path clip-rule="evenodd" d="m0 0h32v32h-32z"/></clipPath><clipPath id="b"><path clip-rule="evenodd" d="m22 10c0-1.591-.632-3.117-1.757-4.243-1.126-1.125-2.652-1.757-4.243-1.757-1.591 0-3.117.632-4.243 1.757-1.125 1.126-1.757 2.652-1.757 4.243v2c0 1.591.632 3.117 1.757 4.243 1.126 1.125 2.652 1.757 4.243 1.757 1.591 0 3.117-.632 4.243-1.757 1.125-1.126 1.757-2.652 1.757-4.243 0-.663 0-1.337 0-2z"/></clipPath><path d="m0 0h32v32h-32z" fill="none"/><g clip-path="url(#a)"><path d="m8.005 12.271c-.002-.057-.003-.114-.004-.172-.005-.733-.005-1.465 0-2.198.015-.854.157-1.699.435-2.506.395-1.145 1.051-2.195 1.907-3.052.833-.833 1.85-1.477 2.96-1.875.835-.299 1.712-.451 2.598-.467.099-.001.099-.001.198 0 .886.016 1.763.168 2.598.467 1.204.431 2.297 1.153 3.166 2.089.757.815 1.339 1.787 1.701 2.838.278.807.42 1.652.435 2.506.005.733.005 1.465 0 2.198-.001.058-.002.115-.004.172.015-.009.031-.018.047-.027.205-.112.43-.187.661-.222.103-.015.129-.015.232-.021.117 0 .117 0 .234.006.117.013.231.03.345.06.226.06.44.16.632.294.097.067.183.144.268.225l1 1c.071.075.091.093.155.174.097.122.179.256.245.397.231.498.246 1.081.041 1.59-.073.183-.175.346-.293.502l-2.462 3.077c.121.087.239.178.354.273 1.112.918 1.927 2.177 2.303 3.569.162.596.239 1.209.243 1.826v7.006h-24c0-2.393-.044-4.787.002-7.18.026-.818.181-1.632.486-2.393.21-.523.478-1.021.804-1.481.444-.623.99-1.171 1.608-1.619l-2.462-3.078c-.062-.082-.08-.102-.135-.19-.082-.132-.149-.274-.199-.422-.175-.52-.125-1.101.135-1.584.093-.174.212-.324.347-.467l1-1c.085-.081.171-.158.268-.225.192-.134.406-.234.632-.294.114-.03.228-.047.345-.06.117-.006.117-.006.234-.006.103.006.129.006.232.021.231.035.456.11.661.222.016.009.032.018.047.027z"/><path d="m8.57 20.629c.104.124 4.518 2.58 4.518 2.58l-1.399 6.791h-5.689v-5c0-1.88 1.037-3.517 2.57-4.371zm9.309 9.371h-3.758l1.879-4.879zm5.542-9.376c1.538.853 2.579 2.493 2.579 4.376v5h-4.939l-2.149-6.791z" fill="#999"/><path d="m8.57 20.629c.72-.401 1.548-.629 2.43-.629h10c.878 0 1.704.227 2.421.624l-.25.313c-.053.063-.053.063-.11.124l-2.149 2.148 2.025 1.62-1.874 2.342-.002 2.829h-3.182l-1.879-1.879-1.879 1.879h-2.432l-.752-2.829-1.874-2.342 2.025-1.62-2.149-2.148-.057-.061c-.104-.123-.208-.247-.312-.371z" fill="#333"/><path d="m12.155 24.276 2.845-.276-.061 3.061-2.939 2.939h-2v-4zm5.046-4.036 2.799-2.24 5-4 1 1-4 5-2.266 2.266-2.533-.106z" fill="#a3a9ff"/><path d="m19.734 22.266-4.795 4.795-2.784-2.785 5.046-4.036z" fill="#343394"/><path d="m22 26v4h-2l-10-10-4-5 1-1z" fill="#a3a9ff"/><path d="m22 10c0-1.591-.632-3.117-1.757-4.243-1.126-1.125-2.652-1.757-4.243-1.757-1.591 0-3.117.632-4.243 1.757-1.125 1.126-1.757 2.652-1.757 4.243v2c0 1.591.632 3.117 1.757 4.243 1.126 1.125 2.652 1.757 4.243 1.757 1.591 0 3.117-.632 4.243-1.757 1.125-1.126 1.757-2.652 1.757-4.243 0-.663 0-1.337 0-2z" fill="#a3a9ff"/><g clip-path="url(#b)"><path d="m20.041 9.001c.141.008.278.041.405.104.109.054.207.128.29.218.244.265.327.651.213.993-.033.098-.081.19-.141.273-.089.122-.204.22-.336.293-.687.355-1.37.72-2.076 1.036-.13.054-.268.084-.409.082-.131-.002-.262-.03-.382-.081-.112-.048-.214-.117-.302-.201-.073-.072-.136-.155-.185-.246-.179-.335-.15-.754.074-1.061.089-.122.204-.22.336-.293.687-.355 1.37-.72 2.076-1.036.087-.036.176-.061.269-.074.056-.006.112-.009.168-.007zm-8.026-.001c.142.004.277.035.407.093.696.336 1.398.664 2.075 1.039.121.072.227.164.311.279.077.105.133.226.164.354.029.118.035.241.02.362-.013.102-.042.202-.085.295-.161.345-.514.573-.894.578-.151.002-.298-.032-.435-.093-.696-.336-1.398-.664-2.075-1.039-.121-.072-.227-.164-.311-.279-.206-.283-.249-.663-.11-.985.037-.086.086-.167.146-.239.077-.094.171-.174.277-.234.123-.07.258-.111.398-.126.037-.003.074-.005.112-.005z"/></g></g></svg>