<svg xmlns="http://www.w3.org/2000/svg" xmlns:xlink="http://www.w3.org/1999/xlink" fill-rule="evenodd" stroke-linejoin="round" stroke-miterlimit="1.414" clip-rule="evenodd" viewBox="0 0 32 32"><clipPath id="a"><path d="m0 0h32v32h-32z" clip-rule="evenodd"/></clipPath><clipPath id="b"><path d="m20 30c0-2.761-2.239-5-5-5-1.912 0-4.091 0-6.002 0-1.326 0-2.597.527-3.534 1.464s-1.464 2.208-1.464 3.534v.002z" clip-rule="evenodd"/></clipPath><clipPath id="c"><path d="m18 15c0-1.591-.632-3.117-1.757-4.243-1.126-1.125-2.652-1.757-4.243-1.757-1.591 0-3.117.632-4.243 1.757-1.125 1.126-1.757 2.652-1.757 4.243v2c0 1.591.632 3.117 1.757 4.243 1.126 1.125 2.652 1.757 4.243 1.757 1.591 0 3.117-.632 4.243-1.757 1.125-1.126 1.757-2.652 1.757-4.243 0-.663 0-1.337 0-2z" clip-rule="evenodd"/></clipPath><path fill="none" d="m0 0h32v32h-32z"/><g clip-path="url(#a)"><path fill-rule="nonzero" d="m14 9h16v23h-16z"/><path fill="#fff" d="m16 11h12v19h-12z"/><path fill="#b4d7ec" d="m27 29h-11v-1h11zm0-3h-11v-1h11zm0-3h-11v-1h11zm0-3h-11v-1h11zm0-3h-11v-1h11zm0-3h-11v-1h11z"/><path fill="#00a513" fill-rule="nonzero" d="m26.97 12.243-1.97 7.88v1.412l-6.799 6.678-1.402-1.426 6.201-6.091v-.819l2.03-8.12c.647.162 1.293.324 1.94.486z"/><path fill="#e50000" fill-rule="nonzero" d="m27 22v2h-2.598l-2.524-5.004-2.004 2.988-1.768-3.537-2-4 1.788-.894 2.232 4.463 1.996-2.976 3.512 6.96z"/><path d="m7.043 23.279c-.167-.132-.329-.271-.486-.416-.769-.714-1.394-1.579-1.831-2.533-.326-.712-.546-1.471-.652-2.246-.045-.327-.067-.655-.073-.985-.005-.733-.005-1.465 0-2.198.005-.264.019-.527.048-.79.069-.616.21-1.224.419-1.808.386-1.078 1.006-2.069 1.805-2.889.869-.891 1.945-1.573 3.122-1.978.807-.278 1.652-.42 2.506-.435.099-.001.099-.001.198 0 .886.016 1.763.168 2.598.467 1.047.375 2.012.97 2.818 1.736.902.859 1.597 1.927 2.017 3.099.209.584.35 1.192.419 1.808.029.263.043.526.048.79.005.733.005 1.465 0 2.198-.006.33-.028.658-.073.985-.088.646-.256 1.281-.498 1.887-.279.697-.656 1.353-1.117 1.945-.394.506-.849.965-1.353 1.362.316.092.624.206.924.341.564.255 1.094.586 1.572.98 1.134.937 1.959 2.228 2.325 3.653.147.569.217 1.154.221 1.742v2.006h-20c0-.725-.011-1.45.002-2.175.023-.746.156-1.483.408-2.186.523-1.463 1.537-2.728 2.849-3.557.433-.273.897-.499 1.379-.672.134-.048.269-.092.405-.131z"/><path fill="#303030" d="m20 30c0-2.761-2.239-5-5-5-1.912 0-4.091 0-6.002 0-1.326 0-2.597.527-3.534 1.464s-1.464 2.208-1.464 3.534v.002z"/><g clip-path="url(#b)"><path fill="#fff" d="m9 26h6v4h-6z"/><circle cx="12" cy="24" r="4" fill="#a3a9ff"/></g><path fill="#a3a9ff" d="m18 15c0-1.591-.632-3.117-1.757-4.243-1.126-1.125-2.652-1.757-4.243-1.757-1.591 0-3.117.632-4.243 1.757-1.125 1.126-1.757 2.652-1.757 4.243v2c0 1.591.632 3.117 1.757 4.243 1.126 1.125 2.652 1.757 4.243 1.757 1.591 0 3.117-.632 4.243-1.757 1.125-1.126 1.757-2.652 1.757-4.243 0-.663 0-1.337 0-2z"/><g clip-path="url(#c)"><path d="m16 15c0-.552-.448-1-1-1s-1 .448-1 1v1c0 .552.448 1 1 1s1-.448 1-1c0-.322 0-.678 0-1zm-6 0c0-.552-.448-1-1-1s-1 .448-1 1v1c0 .552.448 1 1 1s1-.448 1-1c0-.322 0-.678 0-1z"/></g></g></svg>