<svg clip-rule="evenodd" fill-rule="evenodd" stroke-linejoin="round" stroke-miterlimit="2" viewBox="0 0 32 32" xmlns="http://www.w3.org/2000/svg" xmlns:xlink="http://www.w3.org/1999/xlink"><clipPath id="a"><path clip-rule="evenodd" d="m24 12c0-4.418-3.582-8-8-8-4.418 0-8 3.582-8 8v3c0 4.418 3.582 8 8 8 4.418 0 8-3.582 8-8z"/></clipPath><path d="m0 0h32v32h-32z" fill="none"/><path d="m10.083 23.062c-.313-.23-.612-.477-.895-.741-.94-.875-1.71-1.931-2.253-3.094-.4-.858-.677-1.771-.82-2.707-.07-.461-.105-.925-.114-1.391-.007-1.086-.007-2.172 0-3.258.006-.34.025-.679.064-1.017.089-.782.272-1.553.542-2.292.513-1.399 1.341-2.677 2.407-3.717 1.067-1.042 2.366-1.841 3.779-2.319.708-.24 1.443-.399 2.187-.475.337-.034.675-.049 1.014-.051.045 0 .09 0 .135.001.34.006.679.025 1.017.064.782.089 1.553.272 2.292.542 1.324.485 2.539 1.253 3.548 2.238 1.095 1.069 1.94 2.388 2.448 3.832.248.704.416 1.436.501 2.177.039.338.058.677.064 1.017.007 1.086.007 2.172 0 3.258-.007.382-.031.763-.079 1.142-.104.82-.311 1.627-.614 2.396-.689 1.747-1.876 3.281-3.386 4.393.019.003.037.005.056.008.657.092 1.301.278 1.906.551.564.255 1.094.586 1.572.98 1.112.918 1.927 2.177 2.303 3.569.162.596.239 1.209.243 1.826v2.006h-24c0-.717-.012-1.454.002-2.18.01-.296.034-.591.079-.884.095-.626.277-1.24.538-1.818.509-1.126 1.32-2.109 2.327-2.826.46-.326.958-.594 1.481-.804.532-.213 1.089-.353 1.656-.426z"/><path d="m21.709 25.05c2.425.344 4.291 2.429 4.291 4.95h-20s0-.001 0-.002c0-1.326.527-2.597 1.464-3.534.769-.769 1.763-1.262 2.828-1.414 1.269 1.785 10.148 1.785 11.417 0z" fill="#999"/><path d="m10.292 25.05c.232-.033.468-.05.706-.05h10.002c.241 0 .477.017.709.05-1.269 1.785-3.354 2.95-5.709 2.95s-4.439-1.165-5.708-2.95z" fill="#a3a9ff"/><path d="m24 12c0-4.418-3.582-8-8-8-4.418 0-8 3.582-8 8v3c0 4.418 3.582 8 8 8 4.418 0 8-3.582 8-8z" fill="#a3a9ff"/><g clip-path="url(#a)"><path d="m16.266 16.001c.338.007.673.049 1.002.132.798.202 1.533.632 2.1 1.23.124.131.24.269.346.414.063.086.128.173.176.267.066.13.104.273.109.418.005.129-.015.258-.059.38-.039.106-.095.205-.167.292-.26.318-.702.445-1.092.314-.171-.058-.316-.16-.436-.293-.031-.037-.059-.075-.087-.116-.002-.003.009.015.007.011-.042-.059-.083-.117-.129-.174-.324-.393-.763-.679-1.258-.804-.178-.045-.36-.067-.543-.072-.181-.001-.363-.004-.544.003-.194.01-.386.042-.573.098-.525.159-.977.498-1.284.951l.006-.009c-.027.04-.027.039-.056.078-.031.037-.031.037-.064.073-.127.126-.277.221-.451.269-.109.03-.222.042-.335.035-.41-.027-.77-.313-.89-.706-.038-.123-.052-.254-.04-.382s.048-.254.108-.369c.048-.093.111-.179.174-.264.12-.163.251-.318.393-.463.56-.572 1.277-.985 2.053-1.181.329-.083.664-.125 1.002-.132.177-.002.355-.002.532 0zm-3.266-6.001v2.5c0 .398-.158.779-.439 1.061-.282.281-.663.439-1.061.439s-.779-.158-1.061-.439c-.281-.282-.439-.663-.439-1.061v-.5l2-2zm7 0 2 2v.5c0 .398-.158.779-.439 1.061-.282.281-.663.439-1.061.439s-.779-.158-1.061-.439c-.281-.282-.439-.663-.439-1.061v-2.5z"/></g></svg>