<svg clip-rule="evenodd" fill-rule="evenodd" stroke-linejoin="round" stroke-miterlimit="2" viewBox="0 0 32 32" xmlns="http://www.w3.org/2000/svg" xmlns:xlink="http://www.w3.org/1999/xlink"><clipPath id="a"><path clip-rule="evenodd" d="m7 21 1.447-2.894c.339-.678 1.032-1.106 1.789-1.106h11.528c.757 0 1.45.428 1.789 1.106.592 1.183 1.447 2.894 1.447 2.894l1 1v2l-1 1c-.618 0-1.215-.287-1.6-.8-1.275-1.701-2.4-3.2-2.4-3.2v9h-10v-9s-1.125 1.499-2.4 3.2c-.385.513-.982.8-1.6.8l-1-1v-2z"/></clipPath><clipPath id="b"><path clip-rule="evenodd" d="m21 10c0-2.761-2.239-5-5-5-2.761 0-5 2.239-5 5v3c0 2.761 2.239 5 5 5 2.761 0 5-2.239 5-5 0-.984 0-2.016 0-3z"/></clipPath><path d="m0 0h32v32h-32z" fill="none"/><path d="m8.991 12c-.001-.697.005-1.393.01-2.09.015-.819.163-1.63.454-2.397.291-.765.717-1.476 1.252-2.095.662-.764 1.49-1.382 2.411-1.799.578-.261 1.192-.443 1.819-.538.292-.045.587-.069.883-.079.09-.001.18-.002.27-.001.848.016 1.694.171 2.483.487.523.21 1.021.477 1.481.804 1.007.717 1.818 1.7 2.327 2.827.249.551.426 1.134.525 1.731.053.321.081.645.092.97.013.727.013 1.453.009 2.18h1.53c.035-.02.07-.039.105-.057l5.512-2.756.846.522v3.573c-.005.275-.03.547-.088.817-.162.762-.55 1.469-1.106 2.016-.232.229-.492.421-.769.592l-.037.021c0 2.117.021 4.235-.001 6.353-.002.079-.006.159-.012.238-.047.522-.184 1.028-.422 1.495-.162.32-.368.618-.61.883-.279.306-.606.567-.965.773-.777.446-1.698.619-2.584.486-.497-.075-.969-.245-1.406-.492v5.536h-14v-5.536l-.099.056-.137.071c-.14.065-.28.127-.425.179-.29.103-.592.172-.898.206-.891.1-1.805-.11-2.564-.586-.35-.219-.666-.493-.933-.809-.264-.312-.475-.662-.635-1.038-.197-.463-.293-.961-.308-1.462l-.001-.071v-6.282c-.078-.044-.076-.045-.156-.095-.271-.18-.523-.38-.746-.616-.505-.532-.857-1.201-1.01-1.918-.058-.27-.083-.542-.088-.818v-3.572l.846-.522 5.511 2.756c.036.018.071.037.106.057z"/><path d="m7 21 1.447-2.894c.339-.678 1.032-1.106 1.789-1.106h11.528c.757 0 1.45.428 1.789 1.106.592 1.183 1.447 2.894 1.447 2.894l1 1v2l-1 1c-.618 0-1.215-.287-1.6-.8-1.275-1.701-2.4-3.2-2.4-3.2v9h-10v-9s-1.125 1.499-2.4 3.2c-.385.513-.982.8-1.6.8l-1-1v-2z" fill="#999"/><g clip-path="url(#a)"><path d="m24.072 14.003c.114.011.223.035.327.08.253.11.453.325.544.585.033.092.049.187.056.284.049 2.031.049 4.065 0 6.096-.012.163-.054.318-.137.459-.191.325-.559.518-.934.49-.097-.007-.192-.028-.283-.062-.105-.04-.204-.098-.29-.171-.098-.083-.181-.185-.24-.299-.069-.131-.103-.271-.114-.417-.049-2.031-.049-4.065 0-6.096.008-.114.03-.223.073-.329.104-.256.314-.46.571-.558.092-.035.186-.053.283-.062.048-.003.096-.003.144 0zm-16 0c.114.011.223.035.327.08.253.11.453.325.544.585.033.092.049.187.056.284.049 2.031.049 4.065 0 6.096-.012.163-.054.318-.137.459-.049.083-.11.159-.181.225-.276.257-.684.337-1.036.203-.105-.04-.204-.098-.29-.171-.098-.083-.181-.185-.24-.299-.069-.131-.103-.271-.114-.417-.049-2.031-.049-4.065 0-6.096.007-.097.023-.192.056-.284.091-.26.291-.475.544-.585.104-.045.213-.069.327-.08.048-.003.096-.003.144 0z" fill="#737373"/><path d="m9.002 13.18c-.02-1.09 14.005-1.18 13.997-.09-.005.268-.021.534-.055.799-.088.688-.278 1.361-.563 1.992-.347.769-.835 1.473-1.431 2.069-.516.516-1.112.951-1.762 1.283-.587.301-1.217.518-1.865.642-1.355.259-2.778.112-4.048-.426-.623-.263-1.207-.618-1.729-1.048-.735-.607-1.345-1.364-1.779-2.213-.328-.639-.555-1.329-.673-2.038-.053-.321-.081-.645-.092-.97z" fill="#333" fill-rule="nonzero"/><circle cx="16" cy="16" fill="#343394" r="4"/></g><path d="m7 25c-.211 0-.424-.033-.632-.103-.817-.272-1.368-1.036-1.368-1.897 0-3.605 0-7.5 0-7.5s-.432-.216-.894-.447c-.678-.339-1.106-1.032-1.106-1.789 0-.63 0-1.264 0-1.264s2.35 1.175 3.447 1.724c.339.169.553.515.553.894zm18-4v-6.382c0-.379.214-.725.553-.894 1.097-.549 3.447-1.724 3.447-1.724v1.264c0 .757-.428 1.45-1.106 1.789-.462.231-.894.447-.894.447v7.5c0 .861-.551 1.625-1.368 1.897-.208.07-.421.103-.632.103z" fill="#a3a9ff"/><path d="m21 10c0-2.761-2.239-5-5-5-2.761 0-5 2.239-5 5v3c0 2.761 2.239 5 5 5 2.761 0 5-2.239 5-5 0-.984 0-2.016 0-3z" fill="#a3a9ff"/><g clip-path="url(#b)"><path d="m15.835 16h-2.835v-2c.968 0 1.936.011 2.904-.001.175-.007.348-.024.519-.058.388-.077.76-.232 1.089-.451.169-.112.322-.242.467-.383l.814-.814c.471.471.943.943 1.414 1.414l-.822.823c-.088.085-.087.084-.177.167-.248.22-.51.419-.794.589-.564.337-1.193.562-1.842.659-.245.036-.49.052-.737.055zm-.691-3.947-1.788.894-1.75-3.5 1.788-.894c.584 1.166 1.167 2.333 1.75 3.5zm4-1-1.788.894-1.75-3.5 1.788-.894c.584 1.166 1.167 2.333 1.75 3.5z"/></g></svg>