<svg xmlns="http://www.w3.org/2000/svg" xmlns:xlink="http://www.w3.org/1999/xlink" fill-rule="evenodd" stroke-linejoin="round" stroke-miterlimit="1.414" clip-rule="evenodd" viewBox="0 0 32 32"><clipPath id="a"><path d="m0 0h32v32h-32z" clip-rule="evenodd"/></clipPath><path fill="none" d="m0 0h32v32h-32z"/><g clip-path="url(#a)"><path d="m6 19.991-.024-.022c-.268-.248-.517-.512-.74-.802-.507-.663-.873-1.43-1.069-2.241-.099-.411-.148-.827-.165-1.248-.026-1.936-.013-3.871-.001-5.807.007-.382.031-.763.079-1.142.094-.739.271-1.468.527-2.167.54-1.475 1.432-2.813 2.581-3.883 1.003-.933 2.196-1.658 3.489-2.113.704-.248 1.436-.416 2.177-.501.338-.039.677-.058 1.017-.064 1.419-.009 2.839-.009 4.258 0 .34.006.679.025 1.017.064.741.085 1.473.253 2.177.501 1.293.455 2.486 1.18 3.489 2.113 1.149 1.07 2.041 2.408 2.581 3.883.256.699.433 1.428.527 2.167.048.379.072.76.079 1.142.012 1.887.001 3.774.001 5.661-.005.365-.035.728-.102 1.087-.153.82-.478 1.606-.95 2.294-.239.348-.515.663-.817.957-.044.041-.087.081-.131.12v6.01h-.028c-.001.01-.003.019-.004.029-.065.435-.227.855-.472 1.222-.105.158-.226.301-.357.439-1.07 1.069-2.127 2.152-3.21 3.208-.145.134-.295.261-.457.375-.427.3-.912.515-1.421.629-.257.058-.517.087-.78.097-2.181.027-4.361.027-6.542 0-.263-.01-.523-.039-.78-.097-.509-.114-.994-.329-1.421-.629-.162-.114-.312-.241-.457-.375-1.083-1.056-2.14-2.139-3.21-3.208-.131-.138-.252-.281-.357-.439-.245-.367-.407-.787-.472-1.222-.001-.01-.003-.019-.004-.029h-.028z"/><path fill="#d9d9d9" d="m6 10c0-4.418 3.582-8 8-8h4c4.418 0 8 3.582 8 8v5.519c0 1.134-.481 2.214-1.324 2.973-.179.16-.36.324-.535.481-.735.661-1.688 1.027-2.676 1.027-2.693 0-8.237 0-10.93 0-.988 0-1.941-.366-2.676-1.027-.175-.157-.356-.321-.535-.481-.843-.759-1.324-1.839-1.324-2.973 0-1.394 0-3.439 0-5.519z"/><path fill="#d9d9d9" d="m20 23h-2l-.5-.5-.5.5h-2l-.5-.5-.5.5h-2v-4h8z"/><path fill="#5b5b5b" d="m14 20h1v3h-1z"/><path fill="#5b5b5b" d="m17 20h1v3h-1z"/><path fill="#d9d9d9" d="m8 21v4.586c0 .265.105.519.293.707.656.656 2.253 2.253 3.121 3.121.375.375.884.586 1.414.586h6.344c.53 0 1.039-.211 1.414-.586l3.121-3.121c.188-.188.293-.442.293-.707 0-1.199 0-4.586 0-4.586h-1v4l-4 2h-6l-4-2v-4z"/><path fill="#d9d9d9" d="m20 25h-2l-.5.5-.5-.5h-2l-.5.5-.5-.5h-2v3h8z"/><path fill="#5b5b5b" d="m14 25h1v3h-1z"/><path fill="#5b5b5b" d="m17 25h1v3h-1z"/><path d="m8 14c0-1.657 1.343-3 3-3h1c1.105 0 2 .895 2 2v1c0 1.657-1.343 3-3 3-.339 0-.678 0-1 0-1.105 0-2-.895-2-2 0-.322 0-.661 0-1z"/><path d="m18 13c0-1.105.895-2 2-2h1c1.657 0 3 1.343 3 3v1c0 1.105-.895 2-2 2-.322 0-.661 0-1 0-1.657 0-3-1.343-3-3 0-.339 0-.678 0-1z"/><path d="m14 18 2-2 2 2v1h-4z"/></g></svg>