<svg xmlns="http://www.w3.org/2000/svg" xmlns:xlink="http://www.w3.org/1999/xlink" fill-rule="evenodd" stroke-linejoin="round" stroke-miterlimit="1.414" clip-rule="evenodd" viewBox="0 0 32 32"><clipPath id="a"><path d="m0 0h32v32h-32z" clip-rule="evenodd"/></clipPath><path fill="none" d="m0 0h32v32h-32z"/><g clip-path="url(#a)"><path d="m5.997 11.038c-.009-1.047-.003-2.094.004-3.141.005-.272.02-.543.051-.813.068-.593.202-1.179.401-1.742.364-1.034.944-1.99 1.691-2.792.855-.919 1.926-1.632 3.105-2.064.592-.217 1.209-.362 1.835-.434.27-.031.541-.046.813-.051 1.402-.009 2.804-.009 4.206 0 .272.005.543.02.813.051.626.072 1.243.217 1.835.434 1.029.377 1.976.967 2.769 1.723.885.845 1.573 1.891 1.994 3.04.205.56.347 1.143.422 1.735.034.269.053.539.061.811.021 1.08.006 2.162.003 3.243.268.038.53.105.784.205.841.332 1.534.992 1.906 1.816.14.309.232.637.279.972.074.011.074.011.148.023.425.082.83.229 1.2.454.8.486 1.383 1.291 1.594 2.203.079.346.106.703.079 1.056-.029.377-.119.748-.266 1.096-.164.389-.399.747-.69 1.052-.311.325-.683.59-1.093.775-.45.204-.935.304-1.428.31h-3.687l-1.223.612.763.381c1.408-.005 2.816-.01 4.223.008.148.006.295.017.442.039.342.052.676.156.988.306.404.195.77.468 1.071.8.285.313.512.677.667 1.07.139.352.219.727.239 1.106.018.353-.018.709-.106 1.051-.248.963-.911 1.79-1.795 2.243-.353.181-.734.298-1.126.353-.011.074-.011.074-.023.148-.082.424-.229.83-.454 1.2-.502.825-1.342 1.418-2.289 1.612-.318.065-.646.086-.97.061-.377-.029-.748-.119-1.096-.266-.389-.164-.747-.399-1.052-.691-.325-.31-.59-.682-.775-1.092-.186-.412-.286-.853-.306-1.303l-6.227-3.113-5.777 2.888v.1c-.006.493-.106.978-.31 1.428-.185.41-.45.782-.775 1.092-.305.292-.663.527-1.052.691-.348.147-.719.237-1.096.266-.353.027-.711 0-1.056-.08-.997-.23-1.861-.904-2.327-1.815-.181-.353-.298-.734-.353-1.126-.074-.011-.074-.011-.148-.023-.424-.082-.829-.229-1.199-.454-.801-.486-1.384-1.291-1.594-2.203-.08-.346-.107-.703-.08-1.056.029-.377.119-.748.266-1.096.164-.389.399-.747.691-1.052.31-.325.682-.59 1.092-.775.45-.204.935-.304 1.428-.31h3.687l.776-.388-1.204-.602c-1.111.003-2.223.003-3.335-.011-.089-.003-.089-.003-.178-.009-.147-.013-.292-.031-.436-.061-.337-.069-.664-.188-.967-.352-.769-.419-1.365-1.125-1.646-1.955-.112-.332-.174-.682-.183-1.033-.009-.353.035-.707.132-1.046.116-.41.308-.797.563-1.138.268-.359.605-.665.987-.897.412-.25.872-.41 1.348-.477.011-.074.011-.074.023-.148.066-.341.172-.669.33-.978.399-.779 1.091-1.391 1.913-1.692.228-.084.462-.141.7-.175z"/><path fill="#d9d9d9" d="m22.339 23.216 1.661.83v-.046h4.5c.828 0 1.5.672 1.5 1.5s-.672 1.5-1.5 1.5c-.75 0-1.5 0-1.5 0v1.5c0 .828-.672 1.5-1.5 1.5s-1.5-.672-1.5-1.5v-1.1l-4.811-2.405c.156-.009.811-.995.811-.995s2.316-.755 2.339-.784zm-15.32-4.216h-3.519c-.828 0-1.5-.672-1.5-1.5s.672-1.5 1.5-1.5h1.5s0-.75 0-1.5c0-.828.672-1.5 1.5-1.5.157 0 .309.024.451.069 0 .387.549.931.549.931l.5 4s-.988.93-.981 1z"/><path fill="#d9d9d9" d="m9.661 23.216-1.661.83v-.046s-2.723 0-4.5 0c-.828 0-1.5.672-1.5 1.5s.672 1.5 1.5 1.5h1.5v1.5c0 .828.672 1.5 1.5 1.5s1.5-.672 1.5-1.5v-1.1l4.811-2.405c-.156-.009-.811-.995-.811-.995s-2.316-.755-2.339-.784zm15.32-4.216h3.519c.828 0 1.5-.672 1.5-1.5s-.672-1.5-1.5-1.5c-.75 0-1.5 0-1.5 0s0-.75 0-1.5c0-.828-.672-1.5-1.5-1.5-.157 0-.309.024-.451.069 0 .387-.549.931-.549.931l-.5 4s.988.93.981 1z"/><path fill="#5a5a5a" d="m22.5 16.796 1.5-.75v-1.546c0-.671.441-1.239 1.049-1.431 0 1.907-.012 3.813-.051 5.719-.004.071-.01.142-.017.212h-.18l-11.99 5.995c-.287-.017-.57-.057-.848-.131-.631-.17-1.218-.496-1.695-.942-.168-.157-.319-.329-.459-.51-.049-.066-.098-.131-.148-.196l4.432-2.216h5.907l2.5-2z"/><path fill="#5a5a5a" d="m17.907 21 4.432 2.216c-.05.065-.099.13-.148.196-.14.181-.291.353-.459.51-.477.446-1.064.772-1.695.942-.278.074-.561.114-.848.131l-11.99-5.995h-.18c-.007-.07-.013-.141-.017-.212-.039-1.906-.051-3.812-.051-5.719.608.192 1.049.76 1.049 1.431v1.546l1.5.75v2.204l2.5 2z"/><path fill="#d9d9d9" d="m8 8c0-3.314 2.686-6 6-6h4c3.314 0 6 2.686 6 6v3.343c0 1.061-.421 2.078-1.172 2.829-.215.215-.441.441-.656.656-.751.751-1.768 1.172-2.829 1.172-1.852 0-4.834 0-6.686 0-1.061 0-2.078-.421-2.829-1.172-.215-.215-.441-.441-.656-.656-.751-.751-1.172-1.768-1.172-2.829 0-.914 0-2.112 0-3.343z"/><path fill="#d9d9d9" d="m20 18h-2l-.5-.5-.5.5h-2l-.5-.5-.5.5h-2v-4h8z"/><path fill="#5b5b5b" d="m14 15h1v3h-1z"/><path fill="#5b5b5b" d="m17 15h1v3h-1z"/><path fill="#d9d9d9" d="m9 16v2.667c0 .216.07.427.2.6.442.589 1.518 2.024 2.2 2.933.378.504.97.8 1.6.8h6c.63 0 1.222-.296 1.6-.8.682-.909 1.758-2.344 2.2-2.933.13-.173.2-.384.2-.6 0-.782 0-2.667 0-2.667h-1v2l-1 1-.5.7-.5.3h-2l-.5.5-.5-.5h-2l-.5.5-.5-.5h-2l-.5-.3-.5-.7-1-1v-2z"/><path fill="#5b5b5b" d="m15 22h-1v-2h1zm3 0h-1v-2h1zm-6-2v1l-1-1v-1zm9-1v1l-1 1v-1z"/><path d="m14 10c0-.53-.211-1.039-.586-1.414s-.884-.586-1.414-.586-1.039.211-1.414.586-.586.884-.586 1.414v1c0 .53.211 1.039.586 1.414s.884.586 1.414.586 1.039-.211 1.414-.586.586-.884.586-1.414c0-.329 0-.671 0-1z"/><path d="m22 10c0-.53-.211-1.039-.586-1.414s-.884-.586-1.414-.586-1.039.211-1.414.586-.586.884-.586 1.414v1c0 .53.211 1.039.586 1.414s.884.586 1.414.586 1.039-.211 1.414-.586.586-.884.586-1.414c0-.329 0-.671 0-1z"/></g></svg>