<svg xmlns="http://www.w3.org/2000/svg" xmlns:xlink="http://www.w3.org/1999/xlink" fill-rule="evenodd" stroke-linejoin="round" stroke-miterlimit="1.414" clip-rule="evenodd" viewBox="0 0 32 32"><clipPath id="a"><path d="m0 0h32v32h-32z" clip-rule="evenodd"/></clipPath><path fill="none" d="m0 0h32v32h-32z"/><g clip-path="url(#a)"><path d="m9.06 11.021-4.834-3.021 11.774-7.358c3.925 2.452 7.849 4.905 11.774 7.358l-4.834 3.021c.234.409.433.838.592 1.281.198.554.335 1.129.407 1.712.037.294.055.59.06.887.005.732.005 1.466 0 2.198-.006.363-.033.724-.087 1.082-.11.742-.326 1.467-.638 2.149-.437.954-1.062 1.819-1.831 2.533-.156.145-.318.283-.485.415.315.092.624.206.924.341.564.255 1.094.586 1.572.98 1.089.899 1.894 2.126 2.28 3.486.177.622.262 1.263.266 1.909v2.006h-20c0-.725-.012-1.451.002-2.176.023-.746.156-1.482.408-2.186.172-.482.399-.945.672-1.379.829-1.312 2.094-2.326 3.556-2.849.134-.048.269-.092.405-.131-.504-.398-.96-.856-1.354-1.363-.461-.591-.838-1.248-1.117-1.945-.242-.605-.41-1.241-.498-1.887-.045-.327-.067-.655-.073-.985-.005-.732-.005-1.466 0-2.198.015-.854.157-1.699.435-2.506.164-.477.374-.937.624-1.374z"/><path fill="#333" d="m19.854 25.073c2.355.405 4.146 2.457 4.146 4.927h-16c0-2.47 1.791-4.522 4.146-4.927.469 1.687 7.239 1.687 7.708 0z"/><path fill="#a3a9ff" d="m12.146 25.073c.277-.048.563-.073.854-.073h6c.291 0 .577.025.854.073-.469 1.687-2.018 2.927-3.854 2.927s-3.385-1.24-3.854-2.927z"/><path fill="#a3a9ff" d="m21.657 13c.225.636.343 1.312.343 2v2c0 1.591-.632 3.117-1.757 4.243-1.126 1.125-2.652 1.757-4.243 1.757-1.591 0-3.117-.632-4.243-1.757-1.125-1.126-1.757-2.652-1.757-4.243 0-.663 0-1.337 0-2 0-.688.118-1.364.343-2z"/><path fill="#333" d="m10.269 9.418-2.269-1.418 8-5 8 5-2.269 1.418z"/><path fill="#1e1e1e" d="m10.269 9.418c.847-.869 1.891-1.54 3.034-1.95.835-.299 1.712-.451 2.598-.467.099-.001.099-.001.198 0 .854.015 1.699.157 2.506.435 1.145.395 2.196 1.051 3.052 1.907.025.025.049.05.074.075l-5.498 3.436c-.152.003-.303.005-.455.007z"/><path fill="#333" d="m10.343 13c.296-.836.776-1.604 1.414-2.243 1.126-1.125 2.652-1.757 4.243-1.757 1.591 0 3.117.632 4.243 1.757.638.639 1.118 1.407 1.414 2.243z"/><path d="m20 15c0-.552-.448-1-1-1s-1 .448-1 1v1c0 .552.448 1 1 1s1-.448 1-1c0-.322 0-.678 0-1zm-6 0c0-.552-.448-1-1-1s-1 .448-1 1v1c0 .552.448 1 1 1s1-.448 1-1c0-.322 0-.678 0-1z"/><path d="m9 12h14v2h-14z"/><path fill="#b89d43" d="m13 4.875v5.625c0 .265-.105.52-.293.707-.187.188-.442.293-.707.293s-.52-.105-.707-.293c-.188-.187-.293-.442-.293-.707v-4.375z"/></g></svg>