<svg xmlns="http://www.w3.org/2000/svg" xmlns:xlink="http://www.w3.org/1999/xlink" fill-rule="evenodd" stroke-linecap="round" stroke-linejoin="round" stroke-miterlimit="3" clip-rule="evenodd" viewBox="0 0 32 32"><clipPath id="a"><path d="m0 0v32h32v-32z" clip-rule="evenodd"/></clipPath><path fill="none" d="m0 0v32h32v-32z"/><g clip-path="url(#a)"><path fill="none" stroke="#000" stroke-width="4" d="m7.394 15.814c-3.091-.726-5.394-3.503-5.394-6.814 0-3.863 3.137-7 7-7 3.311 0 6.088 2.303 6.815 5.394l13.851 18.274c.654.719.321 2.153-.762 3.236-1.082 1.082-2.514 1.415-3.234.764z"/><path fill="#737373" d="m8.6 10.4 3.4.6 16 15 1.271 2.487c-.11.143-.233.283-.367.417-1.082 1.082-2.514 1.415-3.234.764l-20.67-15.668z"/><path fill="gray" d="m8.6 10.4 5.4-5.4 15.666 20.668c.573.63.388 1.809-.395 2.819z"/><circle cx="9" cy="9" r="7" fill="#313131"/><path fill="#212121" d="m15.354 17.354c-.094-.094-.147-.221-.147-.354s.053-.26.147-.354l1.292-1.292c.094-.094.221-.147.354-.147s.26.053.354.147c.577.577 1.715 1.715 2.292 2.292.094.094.147.221.147.354s-.053.26-.147.354c-.364.364-.928.928-1.292 1.292-.094.094-.221.147-.354.147s-.26-.053-.354-.147c-.577-.577-1.715-1.715-2.292-2.292z"/></g></svg>