<svg xmlns="http://www.w3.org/2000/svg" xmlns:xlink="http://www.w3.org/1999/xlink" fill-rule="evenodd" stroke-linejoin="round" stroke-miterlimit="1.414" clip-rule="evenodd" viewBox="0 0 32 32"><clipPath id="a"><path d="m0 0h32v32h-32z" clip-rule="evenodd"/></clipPath><clipPath id="b"><path d="m22 14c0-1.591-.632-3.117-1.757-4.243-1.126-1.125-2.652-1.757-4.243-1.757-1.591 0-3.117.632-4.243 1.757-1.125 1.126-1.757 2.652-1.757 4.243v2c0 1.591.632 3.117 1.757 4.243 1.126 1.125 2.652 1.757 4.243 1.757 1.591 0 3.117-.632 4.243-1.757 1.125-1.126 1.757-2.652 1.757-4.243 0-.663 0-1.337 0-2z" clip-rule="evenodd"/></clipPath><clipPath id="c"><path d="m25 20c0-1.105-.895-2-2-2-3.463 0-10.537 0-14 0-1.105 0-2 .895-2 2v10h18s0-6.586 0-10z" clip-rule="evenodd"/></clipPath><path fill="none" d="m0 0h32v32h-32z"/><g clip-path="url(#a)"><path fill-rule="nonzero" d="m16.099 6.001c.854.015 1.699.157 2.506.435 1.177.405 2.253 1.087 3.122 1.978.799.82 1.419 1.811 1.805 2.889.209.584.35 1.192.419 1.808.029.263.043.526.048.79.005.733.005 1.465 0 2.198-.006.33-.028.658-.073.985-.106.775-.326 1.534-.652 2.246-.437.954-1.062 1.819-1.831 2.533-.719.668-1.561 1.201-2.472 1.565-.85.34-1.758.532-2.673.566-1.672.063-3.345-.41-4.736-1.338-.712-.475-1.347-1.064-1.873-1.74-.461-.592-.838-1.248-1.117-1.945-.242-.606-.41-1.241-.498-1.887-.045-.327-.067-.655-.073-.985-.005-.733-.005-1.465 0-2.198.005-.264.019-.527.048-.79.069-.616.21-1.224.419-1.808.42-1.172 1.115-2.24 2.017-3.099.806-.766 1.771-1.361 2.818-1.736.835-.299 1.712-.451 2.598-.467.099-.001.099-.001.198 0z"/><path fill="#a3a9ff" d="m22 14c0-1.591-.632-3.117-1.757-4.243-1.126-1.125-2.652-1.757-4.243-1.757-1.591 0-3.117.632-4.243 1.757-1.125 1.126-1.757 2.652-1.757 4.243v2c0 1.591.632 3.117 1.757 4.243 1.126 1.125 2.652 1.757 4.243 1.757 1.591 0 3.117-.632 4.243-1.757 1.125-1.126 1.757-2.652 1.757-4.243 0-.663 0-1.337 0-2z"/><g clip-path="url(#b)"><path fill="#fff" fill-opacity=".267" d="m9 14h14v6h-14z"/><path d="m20 14c0-.552-.448-1-1-1s-1 .448-1 1v1c0 .552.448 1 1 1s1-.448 1-1c0-.322 0-.678 0-1zm-6 0c0-.552-.448-1-1-1s-1 .448-1 1v1c0 .552.448 1 1 1s1-.448 1-1c0-.322 0-.678 0-1z"/></g><path fill-rule="nonzero" d="m23.102 16.001c.136.005.27.014.405.031.329.042.652.124.96.246.539.212 1.029.543 1.429.962.4.42.707.927.894 1.477.138.411.205.838.21 1.27v12.013h-22c0-4.034-.049-8.069.001-12.103.005-.135.014-.27.031-.404.042-.329.125-.652.246-.96.416-1.055 1.282-1.9 2.347-2.29.41-.15.837-.225 1.273-.242 4.734-.059 9.47-.059 14.204 0z"/><path fill="#252525" d="m25 20c0-1.105-.895-2-2-2-3.463 0-10.537 0-14 0-1.105 0-2 .895-2 2v10h18s0-6.586 0-10z"/><g clip-path="url(#c)"><path d="m5 27h22v2h-22z"/></g><g fill-rule="nonzero"><path fill="#656565" d="m19 20.332v4.668h-2v-1.586l-.586.586h-.828l-.586-.586v1.586h-2v-4.668l1.235-.512 1.765 1.766 1.765-1.766c.412.171.823.341 1.235.512z"/><path d="m29.048 28.001c.111.008.219.029.324.071.267.107.479.329.573.601.037.106.052.215.055.327v1h2v2c-1.016 0-2.032.023-3.048-.001-.047-.004-.047-.004-.094-.009-.095-.016-.186-.04-.273-.08-.247-.113-.441-.326-.53-.583-.037-.106-.052-.215-.055-.327v-1h-2v-2c1.016 0 2.032-.023 3.048.001z"/></g></g></svg>