<?xml version="1.0" encoding="UTF-8" standalone="no"?>
<!-- Created with Inkscape (http://www.inkscape.org/) -->

<svg
   xmlns:dc="http://purl.org/dc/elements/1.1/"
   xmlns:cc="http://creativecommons.org/ns#"
   xmlns:rdf="http://www.w3.org/1999/02/22-rdf-syntax-ns#"
   xmlns:svg="http://www.w3.org/2000/svg"
   xmlns="http://www.w3.org/2000/svg"
   xmlns:sodipodi="http://sodipodi.sourceforge.net/DTD/sodipodi-0.dtd"
   xmlns:inkscape="http://www.inkscape.org/namespaces/inkscape"
   version="1.1"
   id="svg2"
   width="36"
   height="36"
   viewBox="0 0 36.000001 36.000001"
   sodipodi:docname="bodyHatNoSleep.svg"
   inkscape:version="0.92.3 (2405546, 2018-03-11)"
   style="enable-background:new">
  <metadata
     id="metadata8">
    <rdf:RDF>
      <cc:Work
         rdf:about="">
        <dc:format>image/svg+xml</dc:format>
        <dc:type
           rdf:resource="http://purl.org/dc/dcmitype/StillImage" />
        <dc:title />
      </cc:Work>
    </rdf:RDF>
  </metadata>
  <defs
     id="defs6" />
  <sodipodi:namedview
     pagecolor="#ffffff"
     bordercolor="#666666"
     borderopacity="1"
     objecttolerance="10"
     gridtolerance="10"
     guidetolerance="10"
     inkscape:pageopacity="0"
     inkscape:pageshadow="2"
     inkscape:window-width="1600"
     inkscape:window-height="850"
     id="namedview4"
     showgrid="false"
     inkscape:zoom="11.313709"
     inkscape:cx="18.021691"
     inkscape:cy="13.397729"
     inkscape:window-x="0"
     inkscape:window-y="0"
     inkscape:window-maximized="1"
     inkscape:current-layer="svg2"
     inkscape:snap-global="true"
     showguides="false"
     inkscape:snap-bbox="true"
     inkscape:snap-page="true"
     inkscape:lockguides="true" />
  <path
     style="color:#000000;clip-rule:nonzero;display:inline;overflow:visible;visibility:visible;opacity:1;isolation:auto;mix-blend-mode:normal;color-interpolation:sRGB;color-interpolation-filters:linearRGB;solid-color:#000000;solid-opacity:1;vector-effect:none;fill:#443322;fill-opacity:1;fill-rule:nonzero;stroke:none;stroke-width:2.02748466;stroke-linecap:round;stroke-linejoin:round;stroke-miterlimit:4;stroke-dasharray:none;stroke-dashoffset:0;stroke-opacity:0;marker:none;marker-start:none;marker-mid:none;marker-end:none;paint-order:stroke fill markers;color-rendering:auto;image-rendering:auto;shape-rendering:auto;text-rendering:auto;enable-background:accumulate"
     d="m 23.848103,13.686238 c 0.225653,0.07745 0.08514,0.377144 0.104677,0.554075 -0.0679,0.544593 -0.02145,1.093355 -0.08651,1.636365 -0.145349,0.196355 -0.354259,-0.06724 -0.511079,-0.127147 -0.336156,-0.202582 -0.723054,-0.322896 -1.039999,-0.55341 -0.07047,-0.19993 0.168994,-0.354456 0.270406,-0.506094 0.387024,-0.356405 0.769636,-0.743777 1.230928,-1.001295 l 0.02739,-0.0026 z"
     id="path1280"
     inkscape:connector-curvature="0" />
  <path
     style="color:#000000;clip-rule:nonzero;display:inline;overflow:visible;visibility:visible;opacity:1;isolation:auto;mix-blend-mode:normal;color-interpolation:sRGB;color-interpolation-filters:linearRGB;solid-color:#000000;solid-opacity:1;vector-effect:none;fill:#443322;fill-opacity:1;fill-rule:nonzero;stroke:none;stroke-width:2.02748466;stroke-linecap:round;stroke-linejoin:round;stroke-miterlimit:4;stroke-dasharray:none;stroke-dashoffset:0;stroke-opacity:0;marker:none;marker-start:none;marker-mid:none;marker-end:none;paint-order:stroke fill markers;color-rendering:auto;image-rendering:auto;shape-rendering:auto;text-rendering:auto;enable-background:accumulate"
     d="m 12.136543,13.639503 c 0.341182,0.201325 0.64354,0.491095 0.9601,0.739226 0.252136,0.229341 0.525485,0.479603 0.643821,0.800677 -0.212738,0.223405 -0.56257,0.285163 -0.826928,0.451089 -0.234333,0.0811 -0.791188,1.413974 -1.043212,1.416786 -0.162053,-0.181163 -1.275317,-0.583886 -1.326529,-0.809941 -0.03092,-0.499801 1.506426,-2.002043 1.456918,-2.494722 0.0117,-0.06453 0.07231,-0.104705 0.13583,-0.103115 z"
     id="path1282"
     inkscape:connector-curvature="0"
     sodipodi:nodetypes="cccccccc" />
  <path
     style="fill:#774433;fill-opacity:1;fill-rule:evenodd;stroke:none;stroke-width:0.21868676px;stroke-linecap:butt;stroke-linejoin:miter;stroke-opacity:1"
     d="m 23.018498,14.381683 c 0,0 -0.557391,0.468341 -0.728896,0.936682 -0.171505,0.46834 -0.343009,1.490174 -0.343009,1.490174 l -0.986151,-0.894103 c 0,0 1.157655,-1.490176 1.372036,-1.745635 0.214381,-0.255458 0.68602,0.212882 0.68602,0.212882 z"
     id="path1272"
     inkscape:connector-curvature="0" />
  <path
     inkscape:connector-curvature="0"
     id="path1274"
     d="m 12.985472,14.381683 c 0,0 0.55739,0.468341 0.728896,0.936682 0.171505,0.46834 0.34301,1.490174 0.34301,1.490174 l 1.67217,-0.894103 c 0,0 -0.487905,-1.258949 -0.702286,-1.514408 -0.214379,-0.255458 -2.04179,-0.01835 -2.04179,-0.01835 z"
     style="fill:#774433;fill-opacity:1;fill-rule:evenodd;stroke:none;stroke-width:0.21868676px;stroke-linecap:butt;stroke-linejoin:miter;stroke-opacity:1"
     sodipodi:nodetypes="csccsc" />
  <path
     style="color:#000000;clip-rule:nonzero;display:inline;overflow:visible;visibility:visible;opacity:1;isolation:auto;mix-blend-mode:normal;color-interpolation:sRGB;color-interpolation-filters:linearRGB;solid-color:#000000;solid-opacity:1;vector-effect:none;fill:#eebb77;fill-opacity:1;fill-rule:nonzero;stroke:none;stroke-width:2.02748466;stroke-linecap:round;stroke-linejoin:round;stroke-miterlimit:4;stroke-dasharray:none;stroke-dashoffset:0;stroke-opacity:0;marker:none;marker-start:none;marker-mid:none;marker-end:none;paint-order:stroke fill markers;color-rendering:auto;image-rendering:auto;shape-rendering:auto;text-rendering:auto;enable-background:accumulate"
     d="m 14.534051,14.864515 c -0.961095,0.253644 -1.825067,0.736987 -2.673318,1.22506 -1.881475,1.082575 -3.976002,2.637514 -4.714217,4.659034 -0.324537,0.888708 -0.604239,1.813729 -0.81515,2.744327 -0.288182,1.072018 -0.391426,2.195443 -0.751676,3.244666 -0.526491,0.396271 -1.221327,0.631493 -1.838149,0.931408 -0.132146,0.06426 0.03485,0.329408 0.152272,0.565787 0.108991,0.219413 0.235674,0.462777 0.312464,0.592403 0.513111,0.866143 0.857976,1.143062 1.452761,1.758807 -0.35335,0.04555 -0.936177,-0.354702 -1.261533,-0.19454 -0.127096,0.415099 0.477499,1.225587 0.744006,1.486215 0.978791,0.61916 1.87946,1.151802 2.788538,1.764799 1.475554,0.915901 3.244066,1.536843 4.759003,1.868208 1.233377,0.267431 2.455859,0.341649 3.710684,0.43984 1.495649,0.117033 3.001321,3.47e-4 4.493109,-0.08187 0.94439,-0.0521 1.93274,-0.241669 2.855043,-0.427811 1.659835,-0.334988 2.982814,-1.117403 4.42371,-1.883982 1.057945,-0.803985 2.448901,-1.55294 3.179841,-2.539847 0.331037,-0.446971 0.13083,-0.496453 -0.192769,-0.442083 -0.273263,0.04591 -0.668211,0.0396 -0.883168,-0.0048 0.305686,-0.35127 0.604131,-0.71118 0.890887,-1.079841 0.329605,-0.470122 1.38872,-1.65549 1.05302,-1.871732 -0.582762,-0.375357 -1.31339,-0.41352 -1.878294,-0.901494 -0.25035,-0.785011 -0.358124,-1.612418 -0.519081,-2.420484 -0.278594,-1.161259 -0.586857,-2.320568 -1.018025,-3.432563 -0.90974,-2.346269 -2.898875,-3.453845 -4.800785,-4.822617 -0.793392,-0.570962 -1.710878,-0.97541 -2.675449,-1.197044 -2.20587,-0.506852 -4.7479,-0.519814 -6.793724,0.0201 z"
     id="path1084"
     inkscape:connector-curvature="0"
     sodipodi:nodetypes="sssccssscccccssscssccsccssss" />
  <path
     style="opacity:1;fill:#f7e7a7;fill-opacity:1;fill-rule:evenodd;stroke:none;stroke-width:0.21868676px;stroke-linecap:butt;stroke-linejoin:miter;stroke-opacity:1"
     d="m 17.337058,25.276515 c -1.644819,0.733585 -4.971852,1.384773 -5.76012,3.552413 -0.788269,2.167639 -0.123836,5.847475 6.002714,6.021058 0.584153,0.01656 1.177202,0.06071 1.698051,0 6.184941,-0.721032 6.790984,-3.853419 6.002713,-6.021058 -0.549683,-1.511566 -3.649663,-2.883294 -5.806174,-3.429382 -0.936001,-0.237023 -1.486237,-0.413353 -2.137184,-0.123031 z"
     id="path873"
     inkscape:connector-curvature="0"
     sodipodi:nodetypes="sssssss" />
  <path
     style="color:#000000;clip-rule:nonzero;display:inline;overflow:visible;visibility:visible;opacity:1;isolation:auto;mix-blend-mode:normal;color-interpolation:sRGB;color-interpolation-filters:linearRGB;solid-color:#000000;solid-opacity:1;vector-effect:none;fill:#774433;fill-opacity:1;fill-rule:nonzero;stroke:#ff0000;stroke-width:2.02748466;stroke-linecap:round;stroke-linejoin:round;stroke-miterlimit:4;stroke-dasharray:none;stroke-dashoffset:0;stroke-opacity:0;marker:none;marker-start:none;marker-mid:none;marker-end:none;paint-order:stroke fill markers;color-rendering:auto;image-rendering:auto;shape-rendering:auto;text-rendering:auto;enable-background:accumulate"
     d="M 7.339747,14.022626 C 7.03137,14.783792 6.437139,15.36325 5.910521,15.97535 c -0.713064,0.828811 -1.835196,2.760574 -1.371299,3.403423 0.428075,0.593206 1.129791,0.941343 1.774197,1.278096 0.513357,0.268273 0.961024,0.698496 1.528693,0.803105 0.481562,0.08874 0.891676,-0.13789 1.329184,-0.556605 1.424608,-1.363409 3.715586,-1.63347 2.851743,-3.346627 -0.62931,-1.248037 -0.591649,-2.566601 0.08148,-3.838171 0.493003,0.33198 0.923109,0.848873 1.50927,0.984327 0.278852,0.06444 1.650494,0.21888 1.464504,-0.216583 -0.361204,-0.845693 -2.069296,-2.204664 -2.880076,-2.3807 -0.275762,-0.05987 -0.922429,0.593879 -1.235385,0.5422 -1.730452,-0.223227 -2.328588,0.374033 -3.623085,1.374811 z"
     id="path1117"
     inkscape:connector-curvature="0"
     sodipodi:nodetypes="csssssscssscc" />
  <path
     sodipodi:nodetypes="sssssscsccs"
     inkscape:connector-curvature="0"
     id="path1139"
     d="m 27.209309,14.345849 c 0.510508,1.17444 1.813816,1.023642 2.433666,1.541113 0.713063,0.595289 2.100363,2.141579 1.636467,2.784704 -0.427953,0.593295 -0.987161,1.589926 -1.597421,1.985203 -1.187547,0.769196 -1.907793,1.022637 -2.857876,0.2465 -1.527114,-1.247522 -2.3931,-1.48563 -2.851743,-3.346627 -0.307581,-1.248037 -0.183284,-2.566601 -0.08148,-3.838171 -0.493002,0.33198 -0.923108,0.848873 -1.509269,0.984327 -0.278852,0.06444 -0.235487,-0.391143 -0.08551,-0.54085 0.418052,-0.651971 0.883237,-1.454633 1.69402,-1.630668 2.376983,0.06909 2.508053,0.178578 3.219146,1.814469 z"
     style="color:#000000;clip-rule:nonzero;display:inline;overflow:visible;visibility:visible;opacity:1;isolation:auto;mix-blend-mode:normal;color-interpolation:sRGB;color-interpolation-filters:linearRGB;solid-color:#000000;solid-opacity:1;vector-effect:none;fill:#774433;fill-opacity:1;fill-rule:nonzero;stroke:#ff0000;stroke-width:2.02748466;stroke-linecap:round;stroke-linejoin:round;stroke-miterlimit:4;stroke-dasharray:none;stroke-dashoffset:0;stroke-opacity:0;marker:none;marker-start:none;marker-mid:none;marker-end:none;paint-order:stroke fill markers;color-rendering:auto;image-rendering:auto;shape-rendering:auto;text-rendering:auto;enable-background:accumulate" />
  <path
     style="fill:none;fill-opacity:1;fill-rule:evenodd;stroke:#443322;stroke-width:1.3121208;stroke-linecap:round;stroke-linejoin:round;stroke-miterlimit:4;stroke-dasharray:none;stroke-opacity:1"
     d="m 18.266191,26.510714 c 0.04636,0.120425 0.25846,1.817327 0.110894,2.532326"
     id="path1324"
     inkscape:connector-curvature="0"
     sodipodi:nodetypes="cc" />
  <path
     style="color:#000000;clip-rule:nonzero;display:inline;overflow:visible;visibility:visible;opacity:1;isolation:auto;mix-blend-mode:normal;color-interpolation:sRGB;color-interpolation-filters:linearRGB;solid-color:#000000;solid-opacity:1;vector-effect:none;fill:#443322;fill-opacity:1;fill-rule:nonzero;stroke:#ff0000;stroke-width:2.02748466;stroke-linecap:round;stroke-linejoin:round;stroke-miterlimit:4;stroke-dasharray:none;stroke-dashoffset:0;stroke-opacity:0;marker:none;marker-start:none;marker-mid:none;marker-end:none;paint-order:stroke fill markers;color-rendering:auto;image-rendering:auto;shape-rendering:auto;text-rendering:auto;enable-background:accumulate"
     d="m 17.253699,24.847755 c -0.404561,0.08094 -0.813113,0.315141 -1.004773,0.714177 -0.484459,1.00865 0.209276,1.279538 1.273812,1.548531 0.256076,0.06471 0.591374,0.07238 0.769813,0.07666 0.223317,0.0054 0.367961,0.0072 0.579705,-0.03149 1.080386,-0.197055 1.879541,-0.585041 1.395084,-1.593689 -0.19166,-0.399037 -0.60046,-0.632032 -1.004774,-0.714179 -0.625711,-0.127131 -1.351834,-0.131453 -2.008867,0 z"
     id="path1022"
     inkscape:connector-curvature="0"
     sodipodi:nodetypes="ssssssss" />
  <path
     style="opacity:1;vector-effect:none;fill:none;fill-opacity:1;fill-rule:evenodd;stroke:#443322;stroke-width:1.3121208;stroke-linecap:round;stroke-linejoin:round;stroke-miterlimit:4;stroke-dasharray:none;stroke-dashoffset:0;stroke-opacity:1"
     d="m 13.994471,29.200859 c 0.722589,1.318472 2.807324,1.972036 4.373753,-0.191334 1.939292,2.047639 3.768921,1.514885 4.774821,-0.109314"
     id="path1326"
     inkscape:connector-curvature="0"
     sodipodi:nodetypes="ccc" />
  <ellipse
     style="color:#000000;clip-rule:nonzero;display:inline;overflow:visible;visibility:visible;opacity:1;isolation:auto;mix-blend-mode:normal;color-interpolation:sRGB;color-interpolation-filters:linearRGB;solid-color:#000000;solid-opacity:1;vector-effect:none;fill:#f7e7a7;fill-opacity:1;fill-rule:nonzero;stroke:none;stroke-width:1.3121208;stroke-linecap:round;stroke-linejoin:round;stroke-miterlimit:4;stroke-dasharray:none;stroke-dashoffset:0;stroke-opacity:1;marker:none;marker-start:none;marker-mid:none;marker-end:none;paint-order:stroke fill markers;color-rendering:auto;image-rendering:auto;shape-rendering:auto;text-rendering:auto;enable-background:accumulate"
     id="ellipse1355"
     cx="9.0843134"
     cy="23.371964"
     rx="1.3291614"
     ry="0.95796996"
     transform="rotate(-16.19784)" />
  <ellipse
     ry="0.95796996"
     rx="1.3291614"
     cy="9.4340334"
     cx="27.474579"
     id="ellipse1366"
     style="color:#000000;clip-rule:nonzero;display:inline;overflow:visible;visibility:visible;opacity:1;isolation:auto;mix-blend-mode:normal;color-interpolation:sRGB;color-interpolation-filters:linearRGB;solid-color:#000000;solid-opacity:1;vector-effect:none;fill:#f7e7a7;fill-opacity:1;fill-rule:nonzero;stroke:none;stroke-width:1.3121208;stroke-linecap:round;stroke-linejoin:round;stroke-miterlimit:4;stroke-dasharray:none;stroke-dashoffset:0;stroke-opacity:1;marker:none;marker-start:none;marker-mid:none;marker-end:none;paint-order:stroke fill markers;color-rendering:auto;image-rendering:auto;shape-rendering:auto;text-rendering:auto;enable-background:accumulate"
     transform="rotate(23.768904)" />
  <g
     id="g3824"
     transform="matrix(0.90616233,-0.02827707,0.00906118,0.98399201,1.4116561,5.3152591)"
     style="stroke-width:1.05886066">
    <path
       sodipodi:nodetypes="cssssscccccc"
       inkscape:connector-curvature="0"
       id="path3805"
       d="M 6.4570923,10.412067 C 6.8509282,9.1097015 6.4760265,8.3668666 6.5218632,7.144304 6.6364832,4.0871447 9.8324109,2.7153867 10.7964,1.9596644 c 1.788866,-1.40238741 0.665153,-2.27163673 2.423413,-4.3520173 3.05013,-3.6089263 9.003209,-1.7927199 12.89128,1.0131795 2.112171,1.52428766 5.030887,2.9479749 6.414247,4.9877268 1.3796,2.0342076 1.521441,4.310303 1.537206,5.4964974 -0.839011,-2.0545433 -3.936117,-5.903522 -8.064493,-4.8501222 0.154416,1.4836851 1.293003,3.8074483 1.543967,4.684766 C 27.65218,9.5064523 23.504028,8.206329 23.621895,9.455191 L 8.0433396,11.251263 Z"
       style="fill:#4488cc;fill-opacity:1;fill-rule:evenodd;stroke:none;stroke-width:1.05886066px;stroke-linecap:butt;stroke-linejoin:miter;stroke-opacity:1" />
    <ellipse
       ry="4.0294685"
       rx="4.3628936"
       cy="10.403773"
       cx="9.1324387"
       id="path3799"
       style="color:#000000;clip-rule:nonzero;display:inline;overflow:visible;visibility:visible;opacity:1;isolation:auto;mix-blend-mode:normal;color-interpolation:sRGB;color-interpolation-filters:linearRGB;solid-color:#000000;solid-opacity:1;vector-effect:none;fill:#bbd9f2;fill-opacity:1;fill-rule:nonzero;stroke:none;stroke-width:0.8597948;stroke-linecap:round;stroke-linejoin:round;stroke-miterlimit:4;stroke-dasharray:none;stroke-dashoffset:0;stroke-opacity:1;marker:none;marker-start:none;marker-mid:none;marker-end:none;paint-order:stroke markers fill;color-rendering:auto;image-rendering:auto;shape-rendering:auto;text-rendering:auto;enable-background:accumulate" />
    <ellipse
       style="color:#000000;clip-rule:nonzero;display:inline;overflow:visible;visibility:visible;opacity:1;isolation:auto;mix-blend-mode:normal;color-interpolation:sRGB;color-interpolation-filters:linearRGB;solid-color:#000000;solid-opacity:1;vector-effect:none;fill:#bbd9f2;fill-opacity:1;fill-rule:nonzero;stroke:none;stroke-width:0.8597948;stroke-linecap:round;stroke-linejoin:round;stroke-miterlimit:4;stroke-dasharray:none;stroke-dashoffset:0;stroke-opacity:1;marker:none;marker-start:none;marker-mid:none;marker-end:none;paint-order:stroke markers fill;color-rendering:auto;image-rendering:auto;shape-rendering:auto;text-rendering:auto;enable-background:accumulate"
       id="ellipse3801"
       cx="16.525864"
       cy="9.759059"
       rx="4.623692"
       ry="4.1039915" />
    <ellipse
       ry="3.4618766"
       rx="4.2629833"
       cy="9.1530714"
       cx="24.020494"
       id="ellipse3803"
       style="color:#000000;clip-rule:nonzero;display:inline;overflow:visible;visibility:visible;opacity:1;isolation:auto;mix-blend-mode:normal;color-interpolation:sRGB;color-interpolation-filters:linearRGB;solid-color:#000000;solid-opacity:1;vector-effect:none;fill:#bbd9f2;fill-opacity:1;fill-rule:nonzero;stroke:none;stroke-width:0.8597948;stroke-linecap:round;stroke-linejoin:round;stroke-miterlimit:4;stroke-dasharray:none;stroke-dashoffset:0;stroke-opacity:1;marker:none;marker-start:none;marker-mid:none;marker-end:none;paint-order:stroke markers fill;color-rendering:auto;image-rendering:auto;shape-rendering:auto;text-rendering:auto;enable-background:accumulate" />
    <ellipse
       style="color:#000000;clip-rule:nonzero;display:inline;overflow:visible;visibility:visible;opacity:1;isolation:auto;mix-blend-mode:normal;color-interpolation:sRGB;color-interpolation-filters:linearRGB;solid-color:#000000;solid-opacity:1;vector-effect:none;fill:#bbd9f2;fill-opacity:1;fill-rule:nonzero;stroke:none;stroke-width:0.85989952;stroke-linecap:round;stroke-linejoin:round;stroke-miterlimit:4;stroke-dasharray:none;stroke-dashoffset:0;stroke-opacity:1;marker:none;marker-start:none;marker-mid:none;marker-end:none;paint-order:stroke markers fill;color-rendering:auto;image-rendering:auto;shape-rendering:auto;text-rendering:auto;enable-background:accumulate"
       id="ellipse3807"
       cx="33.773861"
       cy="8.3242016"
       rx="3.3802505"
       ry="2.9550614"
       transform="matrix(0.999944,0.01058286,0.01149042,0.99993398,0,0)" />
    <path
       style="fill:#446e98;fill-rule:evenodd;stroke:none;stroke-width:1px;stroke-linecap:butt;stroke-linejoin:miter;stroke-opacity:1;fill-opacity:1"
       d="M 21.695312 1.3164062 C 23.031821 3.9528 24.536589 7.4252729 25.013672 8.8027344 C 25.012403 8.7915829 25.008978 8.7786383 25.007812 8.7675781 C 25.436608 8.6350502 25.852351 8.5728962 26.255859 8.5585938 C 25.636419 6.8163081 24.587233 4.2155107 23.599609 2.2558594 C 22.98952 1.8988402 22.349451 1.5827768 21.695312 1.3164062 z "
       transform="matrix(1.103238,0.03170385,-0.01015927,1.0159765,-1.5033935,-5.4449331)"
       id="path4541" />
  </g>
  <ellipse
     style="color:#000000;clip-rule:nonzero;display:inline;overflow:visible;visibility:visible;opacity:1;isolation:auto;mix-blend-mode:normal;color-interpolation:sRGB;color-interpolation-filters:linearRGB;solid-color:#000000;solid-opacity:1;vector-effect:none;fill:#ffe7e7;fill-opacity:1;fill-rule:nonzero;stroke:#7f6240;stroke-width:1.20027679;stroke-linecap:round;stroke-linejoin:round;stroke-miterlimit:4;stroke-dasharray:none;stroke-dashoffset:0;stroke-opacity:1;marker:none;marker-start:none;marker-mid:none;marker-end:none;paint-order:stroke markers fill;color-rendering:auto;image-rendering:auto;shape-rendering:auto;text-rendering:auto;enable-background:accumulate"
     id="path844"
     cx="5.2396927"
     cy="25.976938"
     rx="2.6684334"
     ry="2.1755333"
     transform="matrix(0.95712731,-0.2896676,0.26046938,0.96548211,0,0)" />
  <ellipse
     style="color:#000000;clip-rule:nonzero;display:inline;overflow:visible;visibility:visible;opacity:1;isolation:auto;mix-blend-mode:normal;color-interpolation:sRGB;color-interpolation-filters:linearRGB;solid-color:#000000;solid-opacity:1;vector-effect:none;fill:#443322;fill-opacity:1;fill-rule:nonzero;stroke:none;stroke-width:1.4000001;stroke-linecap:round;stroke-linejoin:round;stroke-miterlimit:4;stroke-dasharray:none;stroke-dashoffset:0;stroke-opacity:1;marker:none;marker-start:none;marker-mid:none;marker-end:none;paint-order:stroke markers fill;color-rendering:auto;image-rendering:auto;shape-rendering:auto;text-rendering:auto;enable-background:accumulate"
     id="path846"
     cx="-0.46502644"
     cy="26.367659"
     rx="0.60856175"
     ry="0.51040661"
     transform="rotate(-27.393249)" />
  <ellipse
     transform="matrix(-0.95712731,-0.2896676,-0.26046938,0.96548211,0,0)"
     ry="2.1755333"
     rx="2.6684334"
     cy="15.381081"
     cx="-30.077034"
     id="ellipse850"
     style="color:#000000;clip-rule:nonzero;display:inline;overflow:visible;visibility:visible;opacity:1;isolation:auto;mix-blend-mode:normal;color-interpolation:sRGB;color-interpolation-filters:linearRGB;solid-color:#000000;solid-opacity:1;vector-effect:none;fill:#ffe7e7;fill-opacity:1;fill-rule:nonzero;stroke:#7f6240;stroke-width:1.20027673;stroke-linecap:round;stroke-linejoin:round;stroke-miterlimit:4;stroke-dasharray:none;stroke-dashoffset:0;stroke-opacity:1;marker:none;marker-start:none;marker-mid:none;marker-end:none;paint-order:stroke markers fill;color-rendering:auto;image-rendering:auto;shape-rendering:auto;text-rendering:auto;enable-background:accumulate;font-variant-east_asian:normal" />
  <ellipse
     transform="matrix(-0.82651407,-0.56291606,-0.56291606,0.82651407,0,0)"
     ry="0.55520207"
     rx="0.66197169"
     cy="5.3704219"
     cx="-33.706951"
     id="ellipse852"
     style="color:#000000;clip-rule:nonzero;display:inline;overflow:visible;visibility:visible;opacity:1;isolation:auto;mix-blend-mode:normal;color-interpolation:sRGB;color-interpolation-filters:linearRGB;solid-color:#000000;solid-opacity:1;vector-effect:none;fill:#443322;fill-opacity:1;fill-rule:nonzero;stroke:none;stroke-width:1.4000001;stroke-linecap:round;stroke-linejoin:round;stroke-miterlimit:4;stroke-dasharray:none;stroke-dashoffset:0;stroke-opacity:1;marker:none;marker-start:none;marker-mid:none;marker-end:none;paint-order:stroke markers fill;color-rendering:auto;image-rendering:auto;shape-rendering:auto;text-rendering:auto;enable-background:accumulate" />
</svg>
