<?xml version="1.0" encoding="UTF-8" standalone="no"?>
<!-- Created with Inkscape (http://www.inkscape.org/) -->

<svg
   xmlns:dc="http://purl.org/dc/elements/1.1/"
   xmlns:cc="http://creativecommons.org/ns#"
   xmlns:rdf="http://www.w3.org/1999/02/22-rdf-syntax-ns#"
   xmlns:svg="http://www.w3.org/2000/svg"
   xmlns="http://www.w3.org/2000/svg"
   xmlns:sodipodi="http://sodipodi.sourceforge.net/DTD/sodipodi-0.dtd"
   xmlns:inkscape="http://www.inkscape.org/namespaces/inkscape"
   version="1.1"
   id="svg2"
   width="36"
   height="36"
   viewBox="0 0 36.000001 36.000001"
   sodipodi:docname="hugHeart.svg"
   inkscape:version="0.92.3 (2405546, 2018-03-11)"
   style="enable-background:new">
  <metadata
     id="metadata8">
    <rdf:RDF>
      <cc:Work
         rdf:about="">
        <dc:format>image/svg+xml</dc:format>
        <dc:type
           rdf:resource="http://purl.org/dc/dcmitype/StillImage" />
        <dc:title></dc:title>
      </cc:Work>
    </rdf:RDF>
  </metadata>
  <defs
     id="defs6" />
  <sodipodi:namedview
     pagecolor="#ffffff"
     bordercolor="#666666"
     borderopacity="1"
     objecttolerance="10"
     gridtolerance="10"
     guidetolerance="10"
     inkscape:pageopacity="0"
     inkscape:pageshadow="2"
     inkscape:window-width="1600"
     inkscape:window-height="850"
     id="namedview4"
     showgrid="false"
     inkscape:zoom="256"
     inkscape:cx="20.986951"
     inkscape:cy="17.979868"
     inkscape:window-x="0"
     inkscape:window-y="0"
     inkscape:window-maximized="1"
     inkscape:current-layer="svg2"
     inkscape:snap-global="false"
     showguides="true"
     inkscape:snap-bbox="true"
     inkscape:snap-page="true"
     inkscape:lockguides="true" />
  <path
     style="color:#000000;clip-rule:nonzero;display:inline;overflow:visible;visibility:visible;opacity:1;isolation:auto;mix-blend-mode:normal;color-interpolation:sRGB;color-interpolation-filters:linearRGB;solid-color:#000000;solid-opacity:1;vector-effect:none;fill:#443322;fill-opacity:1;fill-rule:nonzero;stroke:none;stroke-width:1.45092022;stroke-linecap:round;stroke-linejoin:round;stroke-miterlimit:4;stroke-dasharray:none;stroke-dashoffset:0;stroke-opacity:0;marker:none;marker-start:none;marker-mid:none;marker-end:none;paint-order:stroke fill markers;color-rendering:auto;image-rendering:auto;shape-rendering:auto;text-rendering:auto;enable-background:accumulate"
     d="m 13.662566,17.215249 c 0.181689,0.06268 0.06855,0.305349 0.08429,0.448601 -0.05466,0.440918 -0.01727,0.885214 -0.06966,1.32485 -0.117033,0.158977 -0.285243,-0.05444 -0.411511,-0.102954 -0.270665,-0.164018 -0.582184,-0.261428 -0.837383,-0.448057 -0.05674,-0.161869 0.136073,-0.286979 0.217726,-0.409751 0.311624,-0.288557 0.619693,-0.602182 0.991114,-0.81068 l 0.02205,-0.002 z"
     id="path1280"
     inkscape:connector-curvature="0" />
  <path
     style="color:#000000;clip-rule:nonzero;display:inline;overflow:visible;visibility:visible;opacity:1;isolation:auto;mix-blend-mode:normal;color-interpolation:sRGB;color-interpolation-filters:linearRGB;solid-color:#000000;solid-opacity:1;vector-effect:none;fill:#443322;fill-opacity:1;fill-rule:nonzero;stroke:none;stroke-width:1.45092022;stroke-linecap:round;stroke-linejoin:round;stroke-miterlimit:4;stroke-dasharray:none;stroke-dashoffset:0;stroke-opacity:0;marker:none;marker-start:none;marker-mid:none;marker-end:none;paint-order:stroke fill markers;color-rendering:auto;image-rendering:auto;shape-rendering:auto;text-rendering:auto;enable-background:accumulate"
     d="m 6.0235144,16.58705 c 0.6376773,-0.972318 0.9718702,0.488429 1.2267562,0.689329 0.2030144,0.185682 0.1055136,0.88784 0.2007951,1.147791 -0.1712913,0.180875 -0.4529681,0.230879 -0.6658229,0.365215 -0.1886791,0.06565 -0.6370461,1.1448 -0.8399698,1.147076 C 5.814791,19.789784 4.9184176,19.463728 4.877182,19.280707 5.4887891,17.596376 5.5058705,17.243144 6.0235144,16.58705 Z"
     id="path1282"
     inkscape:connector-curvature="0"
     sodipodi:nodetypes="ccccccc" />
  <path
     style="fill:#774433;fill-opacity:1;fill-rule:evenodd;stroke:none;stroke-width:0.15649785px;stroke-linecap:butt;stroke-linejoin:miter;stroke-opacity:1"
     d="m 12.994587,17.778306 c 0,0 -0.448798,0.379183 -0.586891,0.758369 -0.138091,0.379178 -0.276179,1.206489 -0.276179,1.206489 L 11.337488,19.01927 c 0,0 0.932117,-1.206495 1.104732,-1.413322 0.172615,-0.206827 0.552367,0.172358 0.552367,0.172358 z"
     id="path1272"
     inkscape:connector-curvature="0" />
  <path
     inkscape:connector-curvature="0"
     id="path1274"
     d="m 6.9313891,17.778306 c 0,0 0.3605719,0.379183 0.4986654,0.758369 0.1380913,0.379178 0.2761829,1.206489 0.2761829,1.206489 L 9.052631,19.01927 c 0,0 -0.3928513,-1.019284 -0.565466,-1.22611 C 7.7137771,17.256331 7.4648085,17.563396 6.9313891,17.7783 Z"
     style="fill:#774433;fill-opacity:1;fill-rule:evenodd;stroke:none;stroke-width:0.15649785px;stroke-linecap:butt;stroke-linejoin:miter;stroke-opacity:1"
     sodipodi:nodetypes="cscccc" />
  <path
     style="color:#000000;clip-rule:nonzero;display:inline;overflow:visible;visibility:visible;opacity:1;isolation:auto;mix-blend-mode:normal;color-interpolation:sRGB;color-interpolation-filters:linearRGB;solid-color:#000000;solid-opacity:1;vector-effect:none;fill:#eebb77;fill-opacity:1;fill-rule:nonzero;stroke:none;stroke-width:1.45092022;stroke-linecap:round;stroke-linejoin:round;stroke-miterlimit:4;stroke-dasharray:none;stroke-dashoffset:0;stroke-opacity:0;marker:none;marker-start:none;marker-mid:none;marker-end:none;paint-order:stroke fill markers;color-rendering:auto;image-rendering:auto;shape-rendering:auto;text-rendering:auto;enable-background:accumulate"
     d="m 6.997239,18.040775 c -0.7738517,0.205358 -1.4695012,0.596688 -2.1524935,0.991847 -1.5149189,0.876487 -1.6682885,1.675475 -2.4701474,2.564897 -0.4339501,0.481337 -1.0495793,1.69632 -1.2916253,2.429717 -0.76418505,2.315473 -1.41745519,5.747283 -0.43514617,7.313114 1.38495087,2.207653 2.71092497,3.232727 4.02973127,3.544664 0.9891301,0.233962 1.9774016,0.276613 2.9877579,0.356109 1.2042604,0.09474 2.4165912,2.82e-4 3.6177442,-0.06628 0.760402,-0.04218 1.556199,-0.195661 2.298815,-0.346368 1.336461,-0.271217 2.501236,-0.746542 3.561866,-1.525331 1.596345,-1.172149 2.000511,-3.80092 1.328895,-7.497397 -0.224318,-0.940185 -0.472525,-1.8788 -0.819691,-2.779106 C 16.920446,21.127028 15.318838,20.2303 13.787466,19.122099 13.148645,18.659828 12.409906,18.332376 11.633257,18.152934 10.608501,17.949274 9.5303471,17.720033 6.997239,18.04077 Z"
     id="path1084"
     inkscape:connector-curvature="0"
     sodipodi:nodetypes="cssssssssscssccc" />
  <path
     style="opacity:1;fill:#f7e7a7;fill-opacity:1;fill-rule:evenodd;stroke:none;stroke-width:0.15649785px;stroke-linecap:butt;stroke-linejoin:miter;stroke-opacity:1"
     d="m 3.7821107,29.47525 c -0.6346961,1.75499 -0.09971,4.734302 4.8332442,4.87484 0.470348,0.01341 0.9478564,0.04917 1.3672322,0 4.9799709,-0.583773 5.4679399,-3.11985 4.8332449,-4.87484 -0.442596,-1.223811 -2.322806,-2.204689 -4.05918,-2.646818 C 8.9476944,26.349395 4.4619088,27.85148 3.7821107,29.47525 Z"
     id="path873"
     inkscape:connector-curvature="0"
     sodipodi:nodetypes="cssscc" />
  <path
     style="color:#000000;clip-rule:nonzero;display:inline;overflow:visible;visibility:visible;opacity:1;isolation:auto;mix-blend-mode:normal;color-interpolation:sRGB;color-interpolation-filters:linearRGB;solid-color:#000000;solid-opacity:1;vector-effect:none;fill:#a03823;fill-opacity:1;fill-rule:nonzero;stroke:#ff0000;stroke-width:1.45092022;stroke-linecap:round;stroke-linejoin:round;stroke-miterlimit:4;stroke-dasharray:none;stroke-dashoffset:0;stroke-opacity:0;marker:none;marker-start:none;marker-mid:none;marker-end:none;paint-order:stroke fill markers;color-rendering:auto;image-rendering:auto;shape-rendering:auto;text-rendering:auto;enable-background:accumulate"
     d="m 3.6871728,16.043444 c -0.2975191,0.002 -0.6405943,0.01828 -0.8904434,0.189666 -0.1607685,0.419844 -0.3316798,0.838285 -0.4993713,1.254491 -0.2482981,0.616264 -0.7267591,1.085414 -1.1507798,1.580988 -0.57414246,0.671031 -1.02394942,2.189633 -0.65043091,2.710105 0.34467587,0.480279 0.45597511,0.807557 0.97483511,1.080199 0.4133434,0.217203 0.7737944,0.565524 1.2308679,0.650221 0.3877423,0.07183 0.7179567,-0.11164 1.070228,-0.450647 1.1470612,-1.103858 3.2639273,-1.322508 2.5683809,-2.709534 -0.506706,-1.010449 -0.4763814,-2.078 0.065605,-3.107504 0.396955,0.268781 0.5907036,0.812555 0.9430051,0.664258 0.3965485,-0.166923 1.3289399,0.131774 1.1791862,-0.04267 C 8.0438165,17.298715 6.8621102,16.078051 6.2092883,15.935525 5.9872515,15.887053 5.4665701,16.416351 5.2145859,16.374508 4.5867505,16.270257 4.2258938,16.039759 3.6871766,16.043444 Z"
     id="path1117"
     inkscape:connector-curvature="0"
     sodipodi:nodetypes="ccssssssscsssssc" />
  <path
     style="fill:#8e4331;fill-opacity:1;fill-rule:evenodd;stroke:none;stroke-width:1px;stroke-linecap:butt;stroke-linejoin:miter;stroke-opacity:1"
     d="m 12.605927,17.430145 c 0.08357,-0.109328 1.403107,-0.97351 1.403107,-0.97351 v 1.192408 l -0.979931,0.08616 z"
     id="path869"
     inkscape:connector-curvature="0"
     sodipodi:nodetypes="ccccc" />
  <path
     sodipodi:nodetypes="cssscscc"
     inkscape:connector-curvature="0"
     id="path1139"
     d="m 16.791919,23.472849 c -0.387739,0.07183 -0.649896,-0.17976 -1.002168,-0.518761 -1.14706,-1.103863 -1.420749,-1.532729 -2.027103,-2.605155 -0.477659,-0.844807 -0.674842,-1.791247 -0.409143,-2.922594 0.232288,-0.989084 0.774145,-1.075599 1.149383,-1.233489 1.451859,-0.331833 2.039987,0.689849 2.43551,1.874886 0.686207,2.055963 1.802938,4.479958 -0.146483,5.405113 z"
     style="color:#000000;clip-rule:nonzero;display:inline;overflow:visible;visibility:visible;opacity:1;isolation:auto;mix-blend-mode:normal;color-interpolation:sRGB;color-interpolation-filters:linearRGB;solid-color:#000000;solid-opacity:1;vector-effect:none;fill:#ba3d28;fill-opacity:1;fill-rule:nonzero;stroke:#ff0000;stroke-width:1.45092022;stroke-linecap:round;stroke-linejoin:round;stroke-miterlimit:4;stroke-dasharray:none;stroke-dashoffset:0;stroke-opacity:0;marker:none;marker-start:none;marker-mid:none;marker-end:none;paint-order:stroke fill markers;color-rendering:auto;image-rendering:auto;shape-rendering:auto;text-rendering:auto;enable-background:accumulate" />
  <path
     style="fill:none;fill-opacity:1;fill-rule:evenodd;stroke:#443322;stroke-width:0.93898737;stroke-linecap:round;stroke-linejoin:round;stroke-miterlimit:4;stroke-dasharray:none;stroke-opacity:1"
     d="m 10.693885,27.966914 c 0.07471,0.116162 0.193263,2.102851 -0.115145,2.445173"
     id="path1324"
     inkscape:connector-curvature="0"
     sodipodi:nodetypes="cc" />
  <path
     style="color:#000000;clip-rule:nonzero;display:inline;overflow:visible;visibility:visible;opacity:1;isolation:auto;mix-blend-mode:normal;color-interpolation:sRGB;color-interpolation-filters:linearRGB;solid-color:#000000;solid-opacity:1;vector-effect:none;fill:#443322;fill-opacity:1;fill-rule:nonzero;stroke:#ff0000;stroke-width:1.45092022;stroke-linecap:round;stroke-linejoin:round;stroke-miterlimit:4;stroke-dasharray:none;stroke-dashoffset:0;stroke-opacity:0;marker:none;marker-start:none;marker-mid:none;marker-end:none;paint-order:stroke fill markers;color-rendering:auto;image-rendering:auto;shape-rendering:auto;text-rendering:auto;enable-background:accumulate"
     d="m 9.6725814,26.126657 c -0.325743,0.06552 -0.6547017,0.255147 -0.8090192,0.57822 -0.3900766,0.816634 0.1685034,1.035951 1.0256423,1.253739 0.2061845,0.05241 0.4761615,0.05861 0.6198345,0.06206 0.17981,0.0043 0.296273,0.0058 0.466766,-0.0255 0.869901,-0.159541 1.513363,-0.473666 1.123288,-1.2903 -0.154319,-0.323074 -0.483477,-0.511713 -0.809018,-0.578221 -0.503809,-0.102933 -1.088467,-0.106427 -1.6174936,0 z"
     id="path1022"
     inkscape:connector-curvature="0"
     sodipodi:nodetypes="ssssssss" />
  <path
     style="opacity:1;vector-effect:none;fill:none;fill-opacity:1;fill-rule:evenodd;stroke:#443322;stroke-width:0.93898737;stroke-linecap:round;stroke-linejoin:round;stroke-miterlimit:4;stroke-dasharray:none;stroke-dashoffset:0;stroke-opacity:1"
     d="m 7.3839848,29.340791 c 2.9499992,2.342352 3.5095452,1.437836 6.1430772,0.398632"
     id="path1326"
     inkscape:connector-curvature="0"
     sodipodi:nodetypes="cc" />
  <ellipse
     style="color:#000000;clip-rule:nonzero;display:inline;overflow:visible;visibility:visible;opacity:1;isolation:auto;mix-blend-mode:normal;color-interpolation:sRGB;color-interpolation-filters:linearRGB;solid-color:#000000;solid-opacity:1;vector-effect:none;fill:#f7e7a7;fill-opacity:1;fill-rule:nonzero;stroke:none;stroke-width:0.93898737;stroke-linecap:round;stroke-linejoin:round;stroke-miterlimit:4;stroke-dasharray:none;stroke-dashoffset:0;stroke-opacity:1;marker:none;marker-start:none;marker-mid:none;marker-end:none;paint-order:stroke fill markers;color-rendering:auto;image-rendering:auto;shape-rendering:auto;text-rendering:auto;enable-background:accumulate"
     id="ellipse1355"
     cx="1.3295251"
     cy="23.109045"
     rx="1.0702783"
     ry="0.77555317"
     transform="matrix(0.96470674,-0.2633266,0.26287433,0.96483008,0,0)" />
  <ellipse
     ry="0.7756027"
     rx="1.0702099"
     cy="21.794201"
     cx="12.133024"
     id="ellipse1366"
     style="color:#000000;clip-rule:nonzero;display:inline;overflow:visible;visibility:visible;opacity:1;isolation:auto;mix-blend-mode:normal;color-interpolation:sRGB;color-interpolation-filters:linearRGB;solid-color:#000000;solid-opacity:1;vector-effect:none;fill:#f7e7a7;fill-opacity:1;fill-rule:nonzero;stroke:none;stroke-width:0.93898737;stroke-linecap:round;stroke-linejoin:round;stroke-miterlimit:4;stroke-dasharray:none;stroke-dashoffset:0;stroke-opacity:1;marker:none;marker-start:none;marker-mid:none;marker-end:none;paint-order:stroke fill markers;color-rendering:auto;image-rendering:auto;shape-rendering:auto;text-rendering:auto;enable-background:accumulate" />
  <path
     sodipodi:nodetypes="cc"
     inkscape:connector-curvature="0"
     id="path5318"
     d="m 3.7680278,25.288818 c 1.3689044,1.550736 2.0947662,0.782504 3.2538283,0.06519"
     style="opacity:1;vector-effect:none;fill:none;fill-opacity:1;fill-rule:evenodd;stroke:#443322;stroke-width:0.93898737;stroke-linecap:round;stroke-linejoin:round;stroke-miterlimit:4;stroke-dasharray:none;stroke-dashoffset:0;stroke-opacity:1" />
  <path
     style="opacity:1;vector-effect:none;fill:none;fill-opacity:1;fill-rule:evenodd;stroke:#443322;stroke-width:0.93898737;stroke-linecap:round;stroke-linejoin:round;stroke-miterlimit:4;stroke-dasharray:none;stroke-dashoffset:0;stroke-opacity:1"
     d="m 15.097462,25.5275 c -1.368903,1.550734 -1.731798,0.646265 -2.890861,-0.07105"
     id="path5338"
     inkscape:connector-curvature="0"
     sodipodi:nodetypes="cc" />
  <path
     inkscape:connector-curvature="0"
     id="path5363"
     d="m 20.77758,17.215249 c -0.181689,0.06268 -0.06855,0.305349 -0.08429,0.448601 0.05466,0.440918 0.01727,0.885214 0.06967,1.32485 0.117033,0.158977 0.285242,-0.05444 0.41151,-0.102954 0.270666,-0.164018 0.582185,-0.261428 0.837383,-0.448057 0.05675,-0.161869 -0.136072,-0.286979 -0.217725,-0.409751 -0.311624,-0.288557 -0.619692,-0.602182 -0.991115,-0.81068 l -0.02205,-0.002 z"
     style="color:#000000;clip-rule:nonzero;display:inline;overflow:visible;visibility:visible;opacity:1;isolation:auto;mix-blend-mode:normal;color-interpolation:sRGB;color-interpolation-filters:linearRGB;solid-color:#000000;solid-opacity:1;vector-effect:none;fill:#443322;fill-opacity:1;fill-rule:nonzero;stroke:none;stroke-width:1.45092022;stroke-linecap:round;stroke-linejoin:round;stroke-miterlimit:4;stroke-dasharray:none;stroke-dashoffset:0;stroke-opacity:0;marker:none;marker-start:none;marker-mid:none;marker-end:none;paint-order:stroke fill markers;color-rendering:auto;image-rendering:auto;shape-rendering:auto;text-rendering:auto;enable-background:accumulate" />
  <path
     sodipodi:nodetypes="cccccccc"
     inkscape:connector-curvature="0"
     id="path5365"
     d="m 28.790775,17.177414 c -0.274712,0.162998 -0.518162,0.397605 -0.773048,0.598501 -0.203015,0.185682 -0.423109,0.3883 -0.518389,0.648252 0.17129,0.180875 0.452965,0.230878 0.665821,0.365215 0.188678,0.06565 0.637046,1.1448 0.839969,1.147076 0.130483,-0.146676 1.026857,-0.472733 1.068091,-0.655755 0.02488,-0.404654 -1.21294,-1.620918 -1.173075,-2.019804 -0.0096,-0.05227 -0.05823,-0.08477 -0.109373,-0.0835 z"
     style="color:#000000;clip-rule:nonzero;display:inline;overflow:visible;visibility:visible;opacity:1;isolation:auto;mix-blend-mode:normal;color-interpolation:sRGB;color-interpolation-filters:linearRGB;solid-color:#000000;solid-opacity:1;vector-effect:none;fill:#443322;fill-opacity:1;fill-rule:nonzero;stroke:none;stroke-width:1.45092022;stroke-linecap:round;stroke-linejoin:round;stroke-miterlimit:4;stroke-dasharray:none;stroke-dashoffset:0;stroke-opacity:0;marker:none;marker-start:none;marker-mid:none;marker-end:none;paint-order:stroke fill markers;color-rendering:auto;image-rendering:auto;shape-rendering:auto;text-rendering:auto;enable-background:accumulate" />
  <path
     inkscape:connector-curvature="0"
     id="path5367"
     d="m 21.445559,17.778306 c 0,0 0.448799,0.379183 0.586891,0.758369 0.138092,0.379178 0.27618,1.206489 0.27618,1.206489 l 0.794028,-0.723894 c 0,0 -0.932116,-1.206495 -1.104733,-1.413322 -0.172613,-0.206827 -0.552366,0.172358 -0.552366,0.172358 z"
     style="fill:#443322;fill-opacity:1;fill-rule:evenodd;stroke:none;stroke-width:0.15649785px;stroke-linecap:butt;stroke-linejoin:miter;stroke-opacity:1" />
  <path
     sodipodi:nodetypes="csccsc"
     style="fill:#443322;fill-opacity:1;fill-rule:evenodd;stroke:none;stroke-width:0.15649785px;stroke-linecap:butt;stroke-linejoin:miter;stroke-opacity:1"
     d="m 28.107237,17.778306 c 0,0 -0.448795,0.379183 -0.586889,0.758369 -0.138093,0.379178 -0.276183,1.206489 -0.276183,1.206489 L 25.897773,19.01927 c 0,0 0.39285,-1.019284 0.565465,-1.22611 0.172612,-0.20683 1.643999,-0.01486 1.643999,-0.01486 z"
     id="path5369"
     inkscape:connector-curvature="0" />
  <path
     sodipodi:nodetypes="csssccsssssssssc"
     inkscape:connector-curvature="0"
     id="path5371"
     d="m 28.277037,18.16922 c 0.773853,0.20536 1.469502,0.59669 2.152494,0.991849 1.514919,0.876487 3.201383,2.135414 3.795776,3.772099 0.26131,0.719527 0.447457,1.478354 0.656339,2.221895 1.07637,3.83144 1.988498,6.215092 -1.287223,8.217392 -1.188079,0.741541 -2.612044,1.244276 -3.831836,1.512559 -0.993087,0.21652 -1.9774,0.276613 -2.987757,0.356109 -1.204261,0.09474 -2.416592,2.82e-4 -3.617746,-0.06628 -0.7604,-0.04218 -1.556198,-0.195661 -2.298811,-0.346368 -1.336463,-0.271217 -2.264556,-0.911963 -2.912233,-2.056057 -1.162324,-2.0532 -1.408288,-2.814867 -1.210778,-6.376978 0.05352,-0.965024 -0.295227,-2.4685 0.05193,-3.368807 0.7325,-1.899612 2.334107,-2.79634 3.865482,-3.904541 0.638819,-0.46227 1.377558,-0.789724 2.154207,-0.969164 1.776117,-0.410364 3.822901,-0.420858 5.470149,0.01627 z"
     style="color:#000000;clip-rule:nonzero;display:inline;overflow:visible;visibility:visible;opacity:1;isolation:auto;mix-blend-mode:normal;color-interpolation:sRGB;color-interpolation-filters:linearRGB;solid-color:#000000;solid-opacity:1;vector-effect:none;fill:#9b8466;fill-opacity:1;fill-rule:nonzero;stroke:none;stroke-width:1.45092022;stroke-linecap:round;stroke-linejoin:round;stroke-miterlimit:4;stroke-dasharray:none;stroke-dashoffset:0;stroke-opacity:0;marker:none;marker-start:none;marker-mid:none;marker-end:none;paint-order:stroke fill markers;color-rendering:auto;image-rendering:auto;shape-rendering:auto;text-rendering:auto;enable-background:accumulate" />
  <path
     sodipodi:nodetypes="sssssss"
     inkscape:connector-curvature="0"
     id="path5373"
     d="m 26.020121,26.599106 c 1.324373,0.593933 4.00322,1.121156 4.637915,2.876144 0.634695,1.75499 0.0997,4.734302 -4.833245,4.87484 -0.470347,0.01341 -0.947856,0.04917 -1.367231,0 -4.97997,-0.583773 -5.46794,-3.11985 -4.833245,-4.87484 0.442592,-1.223811 2.938624,-2.334406 4.674997,-2.776535 0.753647,-0.191902 1.196682,-0.334666 1.720809,-0.09961 z"
     style="opacity:1;fill:#d8d5c6;fill-opacity:1;fill-rule:evenodd;stroke:none;stroke-width:0.15649785px;stroke-linecap:butt;stroke-linejoin:miter;stroke-opacity:1" />
  <path
     sodipodi:nodetypes="ccssssssscssssssc"
     inkscape:connector-curvature="0"
     id="path5375"
     d="m 31.26323,16.043444 c 0.297519,0.002 0.640593,0.01828 0.890443,0.189666 0.160767,0.419844 0.331677,0.838285 0.499371,1.254491 0.248297,0.616264 0.726759,1.085414 1.150779,1.580988 0.574143,0.671031 1.477656,2.235045 1.104138,2.755518 -0.344675,0.480278 -0.909683,0.762144 -1.428543,1.034786 -0.413342,0.217203 -0.773793,0.565524 -1.230865,0.650221 -0.387744,0.07183 -0.717956,-0.11164 -1.070229,-0.450647 -1.147061,-1.103858 -2.991704,-1.322508 -2.296156,-2.709534 0.506704,-1.010449 0.476379,-2.078 -0.06559,-3.107504 -0.396955,0.268781 -0.743259,0.687307 -1.215228,0.796943 -0.122413,0.02843 -0.357404,-0.08198 -0.702897,-0.122351 -0.248695,-0.02907 -0.504331,0.05171 -0.476289,-0.05301 0.192448,-0.718617 1.666146,-1.784965 2.318967,-1.927491 0.222037,-0.04847 0.742719,0.480826 0.994702,0.438983 0.627835,-0.104256 0.988692,-0.334751 1.52741,-0.331066 z"
     style="color:#000000;clip-rule:nonzero;display:inline;overflow:visible;visibility:visible;opacity:1;isolation:auto;mix-blend-mode:normal;color-interpolation:sRGB;color-interpolation-filters:linearRGB;solid-color:#000000;solid-opacity:1;vector-effect:none;fill:#993a26;fill-opacity:1;fill-rule:nonzero;stroke:#ff0000;stroke-width:1.45092022;stroke-linecap:round;stroke-linejoin:round;stroke-miterlimit:4;stroke-dasharray:none;stroke-dashoffset:0;stroke-opacity:0;marker:none;marker-start:none;marker-mid:none;marker-end:none;paint-order:stroke fill markers;color-rendering:auto;image-rendering:auto;shape-rendering:auto;text-rendering:auto;enable-background:accumulate" />
  <path
     sodipodi:nodetypes="ccccc"
     inkscape:connector-curvature="0"
     id="path874"
     d="m 21.899659,17.50827 c -0.08357,-0.109328 -1.403107,-0.97351 -1.403107,-0.97351 v 1.192408 c 0.327594,0.02302 0.678626,-0.09459 0.979931,0.08616 z"
     style="fill:#6f3d2c;fill-opacity:1;fill-rule:evenodd;stroke:none;stroke-width:1px;stroke-linecap:butt;stroke-linejoin:miter;stroke-opacity:1" />
  <path
     style="color:#000000;clip-rule:nonzero;display:inline;overflow:visible;visibility:visible;opacity:1;isolation:auto;mix-blend-mode:normal;color-interpolation:sRGB;color-interpolation-filters:linearRGB;solid-color:#000000;solid-opacity:1;vector-effect:none;fill:#993a26;fill-opacity:1;fill-rule:nonzero;stroke:#ff0000;stroke-width:1.45092022;stroke-linecap:round;stroke-linejoin:round;stroke-miterlimit:4;stroke-dasharray:none;stroke-dashoffset:0;stroke-opacity:0;marker:none;marker-start:none;marker-mid:none;marker-end:none;paint-order:stroke fill markers;color-rendering:auto;image-rendering:auto;shape-rendering:auto;text-rendering:auto;enable-background:accumulate"
     d="m 16.670547,23.485077 c 0.387583,0.07268 1.448383,-0.59988 1.838654,-0.894291 0.745215,-0.56217 1.682306,-1.325497 2.168283,-2.378091 0.436058,-0.944474 0.417531,-1.522918 0.416556,-2.61224 -4.93e-4,-0.55033 -0.380571,-1.073727 -0.99598,-1.317909 -1.00294,-0.397946 -1.665174,-0.341943 -2.386666,0.613093 -0.980784,1.344185 -1.184467,4.239477 -1.175432,5.243476 0.009,1.004 -0.07489,1.306679 0.134588,1.345962 z"
     id="path5377"
     inkscape:connector-curvature="0"
     sodipodi:nodetypes="csssscssc" />
  <path
     sodipodi:nodetypes="ssssssss"
     inkscape:connector-curvature="0"
     id="path5381"
     d="m 25.496661,26.192998 c 0.325745,0.06552 0.654701,0.255147 0.809021,0.57822 0.390074,0.816637 -0.168505,1.035954 -1.025643,1.253739 -0.206186,0.05241 -0.476161,0.05862 -0.619835,0.06206 -0.17981,0.0043 -0.296274,0.0058 -0.466766,-0.0255 -0.869899,-0.159542 -1.513362,-0.473667 -1.123288,-1.290301 0.15432,-0.323074 0.483473,-0.511712 0.809018,-0.578221 0.50381,-0.102933 1.088466,-0.106427 1.617493,0 z"
     style="color:#000000;clip-rule:nonzero;display:inline;overflow:visible;visibility:visible;opacity:1;isolation:auto;mix-blend-mode:normal;color-interpolation:sRGB;color-interpolation-filters:linearRGB;solid-color:#000000;solid-opacity:1;vector-effect:none;fill:#2b2116;fill-opacity:1;fill-rule:nonzero;stroke:none;stroke-width:1.45092022;stroke-linecap:round;stroke-linejoin:round;stroke-miterlimit:4;stroke-dasharray:none;stroke-dashoffset:0;stroke-opacity:0;marker:none;marker-start:none;marker-mid:none;marker-end:none;paint-order:stroke fill markers;color-rendering:auto;image-rendering:auto;shape-rendering:auto;text-rendering:auto;enable-background:accumulate" />
  <path
     sodipodi:nodetypes="cc"
     inkscape:connector-curvature="0"
     id="path5383"
     d="m 27.851538,28.876391 c -2.949997,2.342354 -3.509543,1.437838 -6.143076,0.398635"
     style="opacity:1;vector-effect:none;fill:none;fill-opacity:1;fill-rule:evenodd;stroke:#2b2116;stroke-width:0.93898737;stroke-linecap:round;stroke-linejoin:round;stroke-miterlimit:4;stroke-dasharray:none;stroke-dashoffset:0;stroke-opacity:1" />
  <ellipse
     ry="0.7756027"
     rx="1.0702099"
     cy="21.929249"
     cx="-27.316462"
     id="ellipse5385"
     style="color:#000000;clip-rule:nonzero;display:inline;overflow:visible;visibility:visible;opacity:1;isolation:auto;mix-blend-mode:normal;color-interpolation:sRGB;color-interpolation-filters:linearRGB;solid-color:#000000;solid-opacity:1;vector-effect:none;fill:#d8d5c6;fill-opacity:1;fill-rule:nonzero;stroke:none;stroke-width:0.93898737;stroke-linecap:round;stroke-linejoin:round;stroke-miterlimit:4;stroke-dasharray:none;stroke-dashoffset:0;stroke-opacity:1;marker:none;marker-start:none;marker-mid:none;marker-end:none;paint-order:stroke fill markers;color-rendering:auto;image-rendering:auto;shape-rendering:auto;text-rendering:auto;enable-background:accumulate"
     transform="scale(-1,1)" />
  <ellipse
     style="color:#000000;clip-rule:nonzero;display:inline;overflow:visible;visibility:visible;opacity:1;isolation:auto;mix-blend-mode:normal;color-interpolation:sRGB;color-interpolation-filters:linearRGB;solid-color:#000000;solid-opacity:1;vector-effect:none;fill:#d8d5c6;fill-opacity:1;fill-rule:nonzero;stroke:none;stroke-width:0.93898737;stroke-linecap:round;stroke-linejoin:round;stroke-miterlimit:4;stroke-dasharray:none;stroke-dashoffset:0;stroke-opacity:1;marker:none;marker-start:none;marker-mid:none;marker-end:none;paint-order:stroke fill markers;color-rendering:auto;image-rendering:auto;shape-rendering:auto;text-rendering:auto;enable-background:accumulate"
     id="ellipse5387"
     cx="-22.307127"
     cy="21.794201"
     rx="1.0702099"
     ry="0.7756027"
     transform="scale(-1,1)" />
  <path
     style="opacity:1;vector-effect:none;fill:none;fill-opacity:1;fill-rule:evenodd;stroke:#2b2116;stroke-width:0.93898737;stroke-linecap:round;stroke-linejoin:round;stroke-miterlimit:4;stroke-dasharray:none;stroke-dashoffset:0;stroke-opacity:1"
     d="m 30.73209,25.468529 c -1.368906,1.550736 -2.094765,0.782506 -3.253828,0.06518"
     id="path5389"
     inkscape:connector-curvature="0"
     sodipodi:nodetypes="cc" />
  <path
     sodipodi:nodetypes="cc"
     inkscape:connector-curvature="0"
     id="path5391"
     d="m 19.342683,25.5275 c 1.368905,1.550734 2.094767,0.782504 3.253828,0.0652"
     style="opacity:1;vector-effect:none;fill:none;fill-opacity:1;fill-rule:evenodd;stroke:#2b2116;stroke-width:0.93898737;stroke-linecap:round;stroke-linejoin:round;stroke-miterlimit:4;stroke-dasharray:none;stroke-dashoffset:0;stroke-opacity:1" />
  <path
     sodipodi:nodetypes="cc"
     inkscape:connector-curvature="0"
     id="path5379"
     d="m 24.740484,27.834228 c -0.07471,0.116164 -0.284006,1.875787 0.02439,2.218111"
     style="fill:none;fill-opacity:1;fill-rule:evenodd;stroke:#2b2116;stroke-width:0.93898737;stroke-linecap:round;stroke-linejoin:round;stroke-miterlimit:4;stroke-dasharray:none;stroke-opacity:1" />
  <g
     id="g865"
     transform="translate(-1.9073486e-6,0.01134389)">
    <path
       style="opacity:1;vector-effect:none;fill:#eebb77;fill-opacity:1;fill-rule:evenodd;stroke:#443322;stroke-width:1.09686649;stroke-linecap:round;stroke-linejoin:round;stroke-miterlimit:4;stroke-dasharray:none;stroke-dashoffset:0;stroke-opacity:1;paint-order:stroke markers fill;enable-background:new"
       d="m 27.096095,35.440223 c 0.676963,-1.418461 1.550747,-2.735013 2.56933,-3.898564 0.520478,-0.594555 1.089295,-1.155766 1.761988,-1.53933 0.672694,-0.383566 1.462455,-0.578505 2.208772,-0.409952 0.432425,0.09766 0.841581,0.31695 1.165683,0.637352 0.324102,0.320403 0.561178,0.742016 0.662956,1.200542 0.219506,2.244805 -1.530908,3.998835 -2.517085,4.000438 z"
       id="path2851"
       inkscape:connector-curvature="0"
       sodipodi:nodetypes="cscsccsc" />
    <path
       inkscape:connector-curvature="0"
       id="path2819"
       d="m 34.733368,30.254203 c 0,0 -0.574715,0.365727 -0.835949,0.731455 -0.261234,0.365728 -0.522469,0.888196 -0.522469,0.888196"
       style="opacity:1;vector-effect:none;fill:none;fill-opacity:1;fill-rule:evenodd;stroke:#443322;stroke-width:0.67879081;stroke-linecap:round;stroke-linejoin:round;stroke-miterlimit:4;stroke-dasharray:none;stroke-dashoffset:0;stroke-opacity:1;enable-background:new" />
    <path
       sodipodi:nodetypes="csc"
       style="opacity:1;vector-effect:none;fill:none;fill-opacity:1;fill-rule:evenodd;stroke:#443322;stroke-width:0.67879081;stroke-linecap:round;stroke-linejoin:round;stroke-miterlimit:4;stroke-dasharray:none;stroke-dashoffset:0;stroke-opacity:1;enable-background:new"
       d="m 33.105521,29.396997 c 0,0 -0.653085,0.478801 -0.914319,0.844528 -0.261234,0.365728 -0.522468,0.888197 -0.522468,0.888197"
       id="path2835"
       inkscape:connector-curvature="0" />
  </g>
  <g
     id="g850"
     transform="translate(0,-8.3175241)"
     style="fill:#9b8466;fill-opacity:1">
    <path
       sodipodi:nodetypes="cscsccsc"
       inkscape:connector-curvature="0"
       id="path815"
       d="m 9.0958477,43.769091 c -0.676964,-1.418461 -1.550747,-2.735013 -2.569331,-3.898564 -0.520478,-0.594555 -1.089294,-1.155766 -1.761988,-1.53933 -0.672693,-0.383566 -1.462454,-0.578505 -2.208771,-0.409952 -0.432425,0.09766 -0.841581,0.31695 -1.165683,0.637352 -0.324102,0.320403 -0.56117796,0.742016 -0.66295596,1.200542 -0.219506,2.244805 1.53090796,3.998835 2.51708496,4.000438 z"
       style="opacity:1;vector-effect:none;fill:#9b8466;fill-opacity:1;fill-rule:evenodd;stroke:#443322;stroke-width:1.09686649;stroke-linecap:round;stroke-linejoin:round;stroke-miterlimit:4;stroke-dasharray:none;stroke-dashoffset:0;stroke-opacity:1;paint-order:stroke markers fill;enable-background:new" />
    <path
       style="opacity:1;vector-effect:none;fill:#9b8466;fill-opacity:1;fill-rule:evenodd;stroke:#443322;stroke-width:0.67879081;stroke-linecap:round;stroke-linejoin:round;stroke-miterlimit:4;stroke-dasharray:none;stroke-dashoffset:0;stroke-opacity:1;enable-background:new"
       d="m 1.4585747,38.544401 c 0,0 0.574715,0.365727 0.835949,0.731455 0.261234,0.365728 0.522468,0.888196 0.522468,0.888196"
       id="path817"
       inkscape:connector-curvature="0" />
    <path
       inkscape:connector-curvature="0"
       id="path819"
       d="m 3.0864207,37.687195 c 0,0 0.653086,0.478801 0.91432,0.844528 0.261234,0.365728 0.522468,0.888197 0.522468,0.888197"
       style="opacity:1;vector-effect:none;fill:#9b8466;fill-opacity:1;fill-rule:evenodd;stroke:#443322;stroke-width:0.67879081;stroke-linecap:round;stroke-linejoin:round;stroke-miterlimit:4;stroke-dasharray:none;stroke-dashoffset:0;stroke-opacity:1;enable-background:new"
       sodipodi:nodetypes="csc" />
  </g>
  <path
     style="fill:#834332;fill-opacity:1;fill-rule:evenodd;stroke:none;stroke-width:1px;stroke-linecap:butt;stroke-linejoin:miter;stroke-opacity:1"
     d="m 12.617822,17.407067 -0.226881,0.259434 0.42135,0.291863 0.239036,-0.231058 z"
     id="path862"
     inkscape:connector-curvature="0"
     sodipodi:nodetypes="ccccc" />
  <path
     sodipodi:nodetypes="ccccc"
     inkscape:connector-curvature="0"
     id="path876"
     d="m 21.817974,17.428216 0.248978,0.25391 -0.42135,0.291863 -0.175033,-0.161809 c 0.09601,-0.141184 0.220716,-0.263234 0.347405,-0.383964 z"
     style="fill:#5b3827;fill-opacity:1;fill-rule:evenodd;stroke:none;stroke-width:1px;stroke-linecap:butt;stroke-linejoin:miter;stroke-opacity:1" />
</svg>
