<?xml version="1.0" encoding="UTF-8" standalone="no"?>
<!-- Created with Inkscape (http://www.inkscape.org/) -->

<svg
   xmlns:dc="http://purl.org/dc/elements/1.1/"
   xmlns:cc="http://creativecommons.org/ns#"
   xmlns:rdf="http://www.w3.org/1999/02/22-rdf-syntax-ns#"
   xmlns:svg="http://www.w3.org/2000/svg"
   xmlns="http://www.w3.org/2000/svg"
   xmlns:sodipodi="http://sodipodi.sourceforge.net/DTD/sodipodi-0.dtd"
   xmlns:inkscape="http://www.inkscape.org/namespaces/inkscape"
   version="1.1"
   id="svg2"
   width="36"
   height="36"
   viewBox="0 0 36.000001 36.000001"
   sodipodi:docname="hugSad.svg"
   inkscape:version="0.92.3 (2405546, 2018-03-11)"
   style="enable-background:new">
  <metadata
     id="metadata8">
    <rdf:RDF>
      <cc:Work
         rdf:about="">
        <dc:format>image/svg+xml</dc:format>
        <dc:type
           rdf:resource="http://purl.org/dc/dcmitype/StillImage" />
        <dc:title />
      </cc:Work>
    </rdf:RDF>
  </metadata>
  <defs
     id="defs6" />
  <sodipodi:namedview
     pagecolor="#ffffff"
     bordercolor="#666666"
     borderopacity="1"
     objecttolerance="10"
     gridtolerance="10"
     guidetolerance="10"
     inkscape:pageopacity="0"
     inkscape:pageshadow="2"
     inkscape:window-width="1600"
     inkscape:window-height="850"
     id="namedview4"
     showgrid="false"
     inkscape:zoom="16.000001"
     inkscape:cx="12.590008"
     inkscape:cy="10.890002"
     inkscape:window-x="0"
     inkscape:window-y="0"
     inkscape:window-maximized="1"
     inkscape:current-layer="svg2"
     inkscape:snap-global="false"
     showguides="true"
     inkscape:snap-bbox="true"
     inkscape:snap-page="true"
     inkscape:lockguides="true" />
  <path
     style="color:#000000;clip-rule:nonzero;display:inline;overflow:visible;visibility:visible;opacity:1;isolation:auto;mix-blend-mode:normal;color-interpolation:sRGB;color-interpolation-filters:linearRGB;solid-color:#000000;solid-opacity:1;vector-effect:none;fill:#443322;fill-opacity:1;fill-rule:nonzero;stroke:none;stroke-width:1.45092022;stroke-linecap:round;stroke-linejoin:round;stroke-miterlimit:4;stroke-dasharray:none;stroke-dashoffset:0;stroke-opacity:0;marker:none;marker-start:none;marker-mid:none;marker-end:none;paint-order:stroke fill markers;color-rendering:auto;image-rendering:auto;shape-rendering:auto;text-rendering:auto;enable-background:accumulate"
     d="m 13.73892,17.211474 c 0.181576,0.06261 0.0685,0.304992 0.08424,0.448077 -0.05463,0.440404 -0.01726,0.884182 -0.06961,1.323306 -0.11696,0.158791 -0.285066,-0.05438 -0.411256,-0.102834 -0.270496,-0.163827 -0.581822,-0.261123 -0.836862,-0.447535 -0.05671,-0.16168 0.135988,-0.286644 0.21759,-0.409273 0.311431,-0.28822 0.619309,-0.60148 0.990499,-0.809734 l 0.02204,-0.002 z"
     id="path1280"
     inkscape:connector-curvature="0" />
  <path
     style="color:#000000;clip-rule:nonzero;display:inline;overflow:visible;visibility:visible;opacity:1;isolation:auto;mix-blend-mode:normal;color-interpolation:sRGB;color-interpolation-filters:linearRGB;solid-color:#000000;solid-opacity:1;vector-effect:none;fill:#443322;fill-opacity:1;fill-rule:nonzero;stroke:none;stroke-width:1.45092022;stroke-linecap:round;stroke-linejoin:round;stroke-miterlimit:4;stroke-dasharray:none;stroke-dashoffset:0;stroke-opacity:0;marker:none;marker-start:none;marker-mid:none;marker-end:none;paint-order:stroke fill markers;color-rendering:auto;image-rendering:auto;shape-rendering:auto;text-rendering:auto;enable-background:accumulate"
     d="m 6.1046115,16.584007 c 0.6372813,-0.971183 0.9712667,0.48786 1.2259943,0.688526 0.2028884,0.185465 0.1054481,0.886804 0.2006705,1.146452 -0.1711849,0.180664 -0.4526868,0.230609 -0.6654094,0.36479 C 6.677305,18.849346 6.2292163,19.927239 6.0264186,19.929512 5.8960177,19.783007 5.0002009,19.45733 4.958991,19.274524 5.5702183,17.592156 5.587289,17.239337 6.1046115,16.584007 Z"
     id="path1282"
     inkscape:connector-curvature="0"
     sodipodi:nodetypes="ccccccc" />
  <path
     style="fill:#774433;fill-opacity:1;fill-rule:evenodd;stroke:none;stroke-width:0.15649785px;stroke-linecap:butt;stroke-linejoin:miter;stroke-opacity:1"
     d="m 13.071356,17.773874 c 0,0 -0.44852,0.378741 -0.586527,0.757485 -0.138005,0.378736 -0.276007,1.205082 -0.276007,1.205082 l -0.793537,-0.72305 c 0,0 0.931539,-1.205088 1.104047,-1.411674 0.172508,-0.206585 0.552024,0.172157 0.552024,0.172157 z"
     id="path1272"
     inkscape:connector-curvature="0" />
  <path
     inkscape:connector-curvature="0"
     id="path1274"
     d="m 7.0119224,17.773874 c 0,0 0.360348,0.378741 0.4983557,0.757485 0.1380056,0.378736 0.2760114,1.205082 0.2760114,1.205082 l 1.3455575,-0.72305 c 0,0 -0.3926073,-1.018096 -0.5651148,-1.22468 -0.7729077,-0.536203 -1.0217217,-0.229496 -1.5548098,-0.01484 z"
     style="fill:#774433;fill-opacity:1;fill-rule:evenodd;stroke:none;stroke-width:0.15649785px;stroke-linecap:butt;stroke-linejoin:miter;stroke-opacity:1"
     sodipodi:nodetypes="cscccc" />
  <path
     style="color:#000000;clip-rule:nonzero;display:inline;overflow:visible;visibility:visible;opacity:1;isolation:auto;mix-blend-mode:normal;color-interpolation:sRGB;color-interpolation-filters:linearRGB;solid-color:#000000;solid-opacity:1;vector-effect:none;fill:#eebb77;fill-opacity:1;fill-rule:nonzero;stroke:none;stroke-width:1.45092022;stroke-linecap:round;stroke-linejoin:round;stroke-miterlimit:4;stroke-dasharray:none;stroke-dashoffset:0;stroke-opacity:0;marker:none;marker-start:none;marker-mid:none;marker-end:none;paint-order:stroke fill markers;color-rendering:auto;image-rendering:auto;shape-rendering:auto;text-rendering:auto;enable-background:accumulate"
     d="m 7.0777314,18.036037 c -0.7733712,0.205119 -1.4685886,0.595992 -2.1511568,0.990691 -1.5139782,0.875464 -1.6672525,1.67352 -2.4686136,2.561905 -0.4336806,0.480776 -1.0489274,1.694342 -1.2908232,2.426884 -0.76371048,2.312773 -1.41657493,5.740581 -0.4348759,7.304585 1.3840909,2.205079 2.7092416,3.228958 4.0272289,3.540532 0.9885159,0.233688 1.9761736,0.276289 2.9859025,0.355692 1.2035127,0.09464 2.4150917,2.82e-4 3.6154987,-0.0662 0.759929,-0.04213 1.555232,-0.195434 2.297387,-0.345964 1.335631,-0.270901 2.499683,-0.745672 3.559654,-1.523553 1.595354,-1.170782 1.999269,-3.796488 1.328069,-7.488654 C 18.321824,24.852866 18.073771,23.915346 17.726821,23.01609 16.994776,21.118692 15.394163,20.22301 13.863742,19.116101 13.225318,18.65437 12.487038,18.327299 11.710871,18.148067 10.686751,17.944644 9.6092665,17.71567 7.0777314,18.036033 Z"
     id="path1084"
     inkscape:connector-curvature="0"
     sodipodi:nodetypes="cssssssssscssccc" />
  <path
     style="opacity:1;fill:#f7e7a7;fill-opacity:1;fill-rule:evenodd;stroke:none;stroke-width:0.15649785px;stroke-linecap:butt;stroke-linejoin:miter;stroke-opacity:1"
     d="m 8.499634,26.584387 c -1.3235479,0.593241 -4.0007332,1.11985 -4.6350344,2.872791 -0.6343019,1.752943 -0.099648,4.72878 4.8302429,4.869155 0.4700559,0.01339 0.9472678,0.04911 1.3663835,0 4.976878,-0.583092 5.464544,-3.116212 4.830244,-4.869155 C 14.449149,28.234794 11.954669,27.125494 10.219374,26.68388 9.466196,26.492202 9.023435,26.349605 8.499634,26.58439 Z"
     id="path873"
     inkscape:connector-curvature="0"
     sodipodi:nodetypes="sssssss" />
  <path
     style="color:#000000;clip-rule:nonzero;display:inline;overflow:visible;visibility:visible;opacity:1;isolation:auto;mix-blend-mode:normal;color-interpolation:sRGB;color-interpolation-filters:linearRGB;solid-color:#000000;solid-opacity:1;vector-effect:none;fill:#774433;fill-opacity:1;fill-rule:nonzero;stroke:#ff0000;stroke-width:1.45092022;stroke-linecap:round;stroke-linejoin:round;stroke-miterlimit:4;stroke-dasharray:none;stroke-dashoffset:0;stroke-opacity:0;marker:none;marker-start:none;marker-mid:none;marker-end:none;paint-order:stroke fill markers;color-rendering:auto;image-rendering:auto;shape-rendering:auto;text-rendering:auto;enable-background:accumulate"
     d="m 3.7697207,16.041035 c -0.2973344,0.002 -0.6401965,0.01826 -0.8898904,0.189445 -0.1606687,0.419355 -0.3314739,0.837308 -0.4990612,1.253028 -0.2481439,0.615546 -0.7263079,1.084148 -1.1500652,1.579145 -0.57378595,0.670248 -1.02331362,2.187079 -0.65002704,2.706944 0.34446186,0.479719 0.45569194,0.806615 0.97422974,1.07894 0.4130868,0.216949 0.7733139,0.564864 1.2301036,0.649462 0.3875015,0.07175 0.7175108,-0.11151 1.0695633,-0.450121 1.1463489,-1.102571 3.2619006,-1.320966 2.5667861,-2.706374 -0.5063913,-1.009271 -0.4760856,-2.075577 0.065564,-3.103881 0.3967085,0.268468 0.5903368,0.811608 0.9424196,0.663483 0.3963021,-0.166728 1.3281146,0.131621 1.1784539,-0.04262 C 8.1236587,17.294845 6.9426862,16.075604 6.2902697,15.933245 6.0683707,15.884825 5.5480127,16.413509 5.296185,16.371716 4.6687398,16.267584 4.3081071,16.037354 3.7697245,16.041035 Z"
     id="path1117"
     inkscape:connector-curvature="0"
     sodipodi:nodetypes="ccssssssscsssssc" />
  <path
     sodipodi:nodetypes="csscssscc"
     inkscape:connector-curvature="0"
     id="path1139"
     d="m 16.866329,23.461777 c -0.387498,0.07175 -0.649492,-0.179551 -1.001545,-0.518157 -1.146348,-1.102575 -1.419867,-1.530941 -2.025844,-2.602116 -0.477362,-0.843823 -0.555568,-1.735379 -0.246932,-2.854403 -0.396707,0.268468 -0.561434,0.436995 -1.033104,0.546536 -0.224385,0.0521 -0.165626,-0.296483 -0.06879,-0.43738 0.600937,-0.874399 1.193214,-1.201452 2.088611,-1.40599 1.450956,-0.331446 2.279566,0.202319 2.433997,1.8727 0.10909,2.169336 1.801818,4.474733 -0.146392,5.39881 z"
     style="color:#000000;clip-rule:nonzero;display:inline;overflow:visible;visibility:visible;opacity:1;isolation:auto;mix-blend-mode:normal;color-interpolation:sRGB;color-interpolation-filters:linearRGB;solid-color:#000000;solid-opacity:1;vector-effect:none;fill:#774433;fill-opacity:1;fill-rule:nonzero;stroke:#ff0000;stroke-width:1.45092022;stroke-linecap:round;stroke-linejoin:round;stroke-miterlimit:4;stroke-dasharray:none;stroke-dashoffset:0;stroke-opacity:0;marker:none;marker-start:none;marker-mid:none;marker-end:none;paint-order:stroke fill markers;color-rendering:auto;image-rendering:auto;shape-rendering:auto;text-rendering:auto;enable-background:accumulate" />
  <path
     style="fill:none;fill-opacity:1;fill-rule:evenodd;stroke:#443322;stroke-width:0.93898737;stroke-linecap:round;stroke-linejoin:round;stroke-miterlimit:4;stroke-dasharray:none;stroke-opacity:1"
     d="m 10.772082,27.950601 c 0.07277,0.172109 0.120156,0.879848 -0.02668,1.271175"
     id="path1324"
     inkscape:connector-curvature="0"
     sodipodi:nodetypes="cc" />
  <path
     style="color:#000000;clip-rule:nonzero;display:inline;overflow:visible;visibility:visible;opacity:1;isolation:auto;mix-blend-mode:normal;color-interpolation:sRGB;color-interpolation-filters:linearRGB;solid-color:#000000;solid-opacity:1;vector-effect:none;fill:#443322;fill-opacity:1;fill-rule:nonzero;stroke:#ff0000;stroke-width:1.45092022;stroke-linecap:round;stroke-linejoin:round;stroke-miterlimit:4;stroke-dasharray:none;stroke-dashoffset:0;stroke-opacity:0;marker:none;marker-start:none;marker-mid:none;marker-end:none;paint-order:stroke fill markers;color-rendering:auto;image-rendering:auto;shape-rendering:auto;text-rendering:auto;enable-background:accumulate"
     d="m 9.7514125,26.11249 c -0.3255407,0.06545 -0.6542952,0.254849 -0.8085168,0.577545 -0.3898344,0.815682 0.1683987,1.034744 1.0250061,1.252277 0.2060552,0.05234 0.4758652,0.05854 0.6194492,0.06198 0.179699,0.0043 0.296089,0.0058 0.466476,-0.02547 0.869361,-0.159355 1.512423,-0.473113 1.122591,-1.288795 -0.154223,-0.322697 -0.483177,-0.511116 -0.808516,-0.577547 -0.503497,-0.102812 -1.087791,-0.106303 -1.6164895,0 z"
     id="path1022"
     inkscape:connector-curvature="0"
     sodipodi:nodetypes="ssssssss" />
  <path
     style="opacity:1;vector-effect:none;fill:none;fill-opacity:1;fill-rule:evenodd;stroke:#443322;stroke-width:0.93898737;stroke-linecap:round;stroke-linejoin:round;stroke-miterlimit:4;stroke-dasharray:none;stroke-dashoffset:0;stroke-opacity:1"
     d="m 8.8083679,30.817895 c 0.3948109,-0.59104 1.2480321,-1.137831 1.8864061,-1.387761 0.732051,0.15676 1.183936,0.627291 1.955411,1.619871"
     id="path1326"
     inkscape:connector-curvature="0"
     sodipodi:nodetypes="ccc" />
  <ellipse
     style="color:#000000;clip-rule:nonzero;display:inline;overflow:visible;visibility:visible;opacity:1;isolation:auto;mix-blend-mode:normal;color-interpolation:sRGB;color-interpolation-filters:linearRGB;solid-color:#000000;solid-opacity:1;vector-effect:none;fill:#f7e7a7;fill-opacity:1;fill-rule:nonzero;stroke:none;stroke-width:0.93898731;stroke-linecap:round;stroke-linejoin:round;stroke-miterlimit:4;stroke-dasharray:none;stroke-dashoffset:0;stroke-opacity:1;marker:none;marker-start:none;marker-mid:none;marker-end:none;paint-order:stroke fill markers;color-rendering:auto;image-rendering:auto;shape-rendering:auto;text-rendering:auto;enable-background:accumulate"
     id="ellipse1355"
     cx="1.4062128"
     cy="23.121021"
     rx="1.0695732"
     ry="0.77467799"
     transform="matrix(0.96474323,-0.26319291,0.26300789,0.96479368,0,0)" />
  <ellipse
     ry="0.77469826"
     rx="1.0695453"
     cy="21.785086"
     cx="12.210326"
     id="ellipse1366"
     style="color:#000000;clip-rule:nonzero;display:inline;overflow:visible;visibility:visible;opacity:1;isolation:auto;mix-blend-mode:normal;color-interpolation:sRGB;color-interpolation-filters:linearRGB;solid-color:#000000;solid-opacity:1;vector-effect:none;fill:#f7e7a7;fill-opacity:1;fill-rule:nonzero;stroke:none;stroke-width:0.93898737;stroke-linecap:round;stroke-linejoin:round;stroke-miterlimit:4;stroke-dasharray:none;stroke-dashoffset:0;stroke-opacity:1;marker:none;marker-start:none;marker-mid:none;marker-end:none;paint-order:stroke fill markers;color-rendering:auto;image-rendering:auto;shape-rendering:auto;text-rendering:auto;enable-background:accumulate" />
  <path
     sodipodi:nodetypes="cc"
     inkscape:connector-curvature="0"
     id="path5318"
     d="m 4.5380255,26.025627 c 1.7289284,-0.225645 2.4114152,-0.840718 2.9393077,-1.37239"
     style="opacity:1;vector-effect:none;fill:none;fill-opacity:1;fill-rule:evenodd;stroke:#443322;stroke-width:0.93898737;stroke-linecap:round;stroke-linejoin:round;stroke-miterlimit:4;stroke-dasharray:none;stroke-dashoffset:0;stroke-opacity:1" />
  <path
     style="opacity:1;vector-effect:none;fill:none;fill-opacity:1;fill-rule:evenodd;stroke:#443322;stroke-width:0.93898737;stroke-linecap:round;stroke-linejoin:round;stroke-miterlimit:4;stroke-dasharray:none;stroke-dashoffset:0;stroke-opacity:1"
     d="m 14.985425,25.951531 c -0.993053,0.23643 -2.230723,-0.541988 -2.576566,-1.38347"
     id="path5338"
     inkscape:connector-curvature="0"
     sodipodi:nodetypes="cc" />
  <path
     inkscape:connector-curvature="0"
     id="path5363"
     d="m 20.849515,17.211474 c -0.181576,0.06261 -0.0685,0.304992 -0.08424,0.448077 0.05463,0.440404 0.01726,0.884182 0.06962,1.323306 0.116961,0.158791 0.285065,-0.05438 0.411255,-0.102834 0.270498,-0.163827 0.581823,-0.261123 0.836862,-0.447535 0.05672,-0.16168 -0.135986,-0.286644 -0.217589,-0.409273 -0.31143,-0.28822 -0.619307,-0.60148 -0.990499,-0.809734 l -0.02204,-0.002 z"
     style="color:#000000;clip-rule:nonzero;display:inline;overflow:visible;visibility:visible;opacity:1;isolation:auto;mix-blend-mode:normal;color-interpolation:sRGB;color-interpolation-filters:linearRGB;solid-color:#000000;solid-opacity:1;vector-effect:none;fill:#443322;fill-opacity:1;fill-rule:nonzero;stroke:none;stroke-width:1.45092022;stroke-linecap:round;stroke-linejoin:round;stroke-miterlimit:4;stroke-dasharray:none;stroke-dashoffset:0;stroke-opacity:0;marker:none;marker-start:none;marker-mid:none;marker-end:none;paint-order:stroke fill markers;color-rendering:auto;image-rendering:auto;shape-rendering:auto;text-rendering:auto;enable-background:accumulate" />
  <path
     sodipodi:nodetypes="cccccccc"
     inkscape:connector-curvature="0"
     id="path5365"
     d="m 28.857735,17.173683 c -0.274542,0.162808 -0.517841,0.397142 -0.772569,0.597803 -0.202888,0.185465 -0.422846,0.387848 -0.518067,0.647496 0.171184,0.180664 0.452684,0.230609 0.665408,0.36479 0.188561,0.06557 0.63665,1.143464 0.839448,1.145737 0.130402,-0.146505 1.026218,-0.472182 1.067428,-0.654989 0.02487,-0.404183 -1.212187,-1.619029 -1.172348,-2.017449 -0.0096,-0.05221 -0.05819,-0.08467 -0.109304,-0.0834 z"
     style="color:#000000;clip-rule:nonzero;display:inline;overflow:visible;visibility:visible;opacity:1;isolation:auto;mix-blend-mode:normal;color-interpolation:sRGB;color-interpolation-filters:linearRGB;solid-color:#000000;solid-opacity:1;vector-effect:none;fill:#443322;fill-opacity:1;fill-rule:nonzero;stroke:none;stroke-width:1.45092022;stroke-linecap:round;stroke-linejoin:round;stroke-miterlimit:4;stroke-dasharray:none;stroke-dashoffset:0;stroke-opacity:0;marker:none;marker-start:none;marker-mid:none;marker-end:none;paint-order:stroke fill markers;color-rendering:auto;image-rendering:auto;shape-rendering:auto;text-rendering:auto;enable-background:accumulate" />
  <path
     inkscape:connector-curvature="0"
     id="path5367"
     d="m 21.51708,17.773874 c 0,0 0.44852,0.378741 0.586526,0.757485 0.138006,0.378736 0.276009,1.205082 0.276009,1.205082 l 0.793535,-0.72305 c 0,0 -0.931538,-1.205088 -1.104048,-1.411674 -0.172505,-0.206585 -0.552022,0.172157 -0.552022,0.172157 z"
     style="fill:#443322;fill-opacity:1;fill-rule:evenodd;stroke:none;stroke-width:0.15649785px;stroke-linecap:butt;stroke-linejoin:miter;stroke-opacity:1" />
  <path
     sodipodi:nodetypes="csccsc"
     style="fill:#443322;fill-opacity:1;fill-rule:evenodd;stroke:none;stroke-width:0.15649785px;stroke-linecap:butt;stroke-linejoin:miter;stroke-opacity:1"
     d="m 28.174621,17.773874 c 0,0 -0.448516,0.378741 -0.586525,0.757485 -0.138007,0.378736 -0.276011,1.205082 -0.276011,1.205082 l -1.345556,-0.72305 c 0,0 0.392606,-1.018096 0.565114,-1.22468 0.172505,-0.206589 1.642978,-0.01484 1.642978,-0.01484 z"
     id="path5369"
     inkscape:connector-curvature="0" />
  <path
     sodipodi:nodetypes="csssccsssssssssc"
     inkscape:connector-curvature="0"
     id="path5371"
     d="m 28.344315,18.164333 c 0.773373,0.20512 1.46859,0.595993 2.151157,0.990692 1.513979,0.875464 3.199396,2.132924 3.79342,3.7677 0.261147,0.718688 0.447178,1.47663 0.655932,2.219304 1.075701,3.826971 1.987263,6.207844 -1.286424,8.207809 -1.187342,0.740676 -2.610422,1.242825 -3.829457,1.510796 -0.99247,0.216266 -1.976172,0.276289 -2.985902,0.355692 -1.203513,0.09464 -2.415091,2.82e-4 -3.615499,-0.0662 -0.759928,-0.04213 -1.555232,-0.195434 -2.297384,-0.345964 -1.335633,-0.270901 -2.26315,-0.910901 -2.910424,-2.05366 -1.161603,-2.050805 -1.407414,-2.811585 -1.210026,-6.369542 0.05349,-0.963898 -0.295044,-2.465621 0.0519,-3.364878 0.732044,-1.897397 2.332657,-2.793079 3.863081,-3.899988 0.638423,-0.461731 1.376703,-0.788803 2.15287,-0.968034 1.775013,-0.409885 3.820526,-0.420366 5.466752,0.01625 z"
     style="color:#000000;clip-rule:nonzero;display:inline;overflow:visible;visibility:visible;opacity:1;isolation:auto;mix-blend-mode:normal;color-interpolation:sRGB;color-interpolation-filters:linearRGB;solid-color:#000000;solid-opacity:1;vector-effect:none;fill:#836f55;fill-opacity:1;fill-rule:nonzero;stroke:none;stroke-width:1.45092022;stroke-linecap:round;stroke-linejoin:round;stroke-miterlimit:4;stroke-dasharray:none;stroke-dashoffset:0;stroke-opacity:0;marker:none;marker-start:none;marker-mid:none;marker-end:none;paint-order:stroke fill markers;color-rendering:auto;image-rendering:auto;shape-rendering:auto;text-rendering:auto;enable-background:accumulate" />
  <path
     sodipodi:nodetypes="sssssss"
     inkscape:connector-curvature="0"
     id="path5373"
     d="m 26.088801,26.584387 c 1.32355,0.593241 4.000734,1.11985 4.635034,2.872791 0.634302,1.752943 0.09964,4.72878 -4.830242,4.869155 -0.470055,0.01339 -0.947268,0.04911 -1.366383,0 -4.976877,-0.583092 -5.464545,-3.116212 -4.830243,-4.869155 0.442316,-1.222384 2.936799,-2.331684 4.672093,-2.773298 0.75318,-0.191678 1.19594,-0.334275 1.719741,-0.0995 z"
     style="opacity:1;fill:#d8d5c6;fill-opacity:1;fill-rule:evenodd;stroke:none;stroke-width:0.15649785px;stroke-linecap:butt;stroke-linejoin:miter;stroke-opacity:1" />
  <path
     sodipodi:nodetypes="scssssssscsssss"
     inkscape:connector-curvature="0"
     id="path5375"
     d="m 31.328654,16.041035 c 0.297334,0.002 0.640195,0.01826 0.88989,0.189445 0.160668,0.419355 0.331471,0.837308 0.499061,1.253028 0.248143,0.615546 0.726307,1.084148 1.150065,1.579145 0.573786,0.670248 1.476738,2.232438 1.103452,2.752304 -0.344461,0.479718 -0.909118,0.761255 -1.427657,1.03358 -0.413085,0.216949 -0.773311,0.564864 -1.2301,0.649462 -0.387503,0.07175 -0.71751,-0.11151 -1.069564,-0.450121 -1.146349,-1.102571 -2.989846,-1.320966 -2.294731,-2.706374 0.50639,-1.009271 0.476084,-2.075577 -0.06555,-3.103881 -0.396708,0.268468 -0.742804,0.686473 -1.214473,0.796014 -0.224387,0.0521 -1.328116,0.177004 -1.178453,-0.17515 0.290649,-0.683901 1.665111,-1.782883 2.317527,-1.925242 0.221899,-0.04842 0.742257,0.480264 0.994084,0.438471 0.627445,-0.104135 0.988078,-0.334362 1.526461,-0.330681 z"
     style="color:#000000;clip-rule:nonzero;display:inline;overflow:visible;visibility:visible;opacity:1;isolation:auto;mix-blend-mode:normal;color-interpolation:sRGB;color-interpolation-filters:linearRGB;solid-color:#000000;solid-opacity:1;vector-effect:none;fill:#443322;fill-opacity:1;fill-rule:nonzero;stroke:#ff0000;stroke-width:1.45092022;stroke-linecap:round;stroke-linejoin:round;stroke-miterlimit:4;stroke-dasharray:none;stroke-dashoffset:0;stroke-opacity:0;marker:none;marker-start:none;marker-mid:none;marker-end:none;paint-order:stroke fill markers;color-rendering:auto;image-rendering:auto;shape-rendering:auto;text-rendering:auto;enable-background:accumulate" />
  <path
     style="color:#000000;clip-rule:nonzero;display:inline;overflow:visible;visibility:visible;opacity:1;isolation:auto;mix-blend-mode:normal;color-interpolation:sRGB;color-interpolation-filters:linearRGB;solid-color:#000000;solid-opacity:1;vector-effect:none;fill:#443322;fill-opacity:1;fill-rule:nonzero;stroke:#ff0000;stroke-width:1.45092022;stroke-linecap:round;stroke-linejoin:round;stroke-miterlimit:4;stroke-dasharray:none;stroke-dashoffset:0;stroke-opacity:0;marker:none;marker-start:none;marker-mid:none;marker-end:none;paint-order:stroke fill markers;color-rendering:auto;image-rendering:auto;shape-rendering:auto;text-rendering:auto;enable-background:accumulate"
     d="m 16.745033,23.47399 c 0.387342,0.0726 1.486394,-0.553668 1.837512,-0.893248 0.647578,-0.626297 1.843218,-1.323951 2.166937,-2.375317 0.305793,-0.993153 0.147484,-1.939498 0.06555,-2.967802 0.396708,0.268468 0.742804,0.686473 1.214475,0.796014 0.224385,0.0521 0.189491,-0.316314 0.06879,-0.43738 -0.325492,-0.508148 -0.493556,-0.912143 -1.363138,-1.3187 -0.976772,-0.456672 -2.164102,-0.760331 -3.144277,0.582288 -0.980175,1.342617 -0.989383,4.266925 -0.980354,5.269753 0.009,1.002829 -0.07485,1.305155 0.134505,1.344392 z"
     id="path5377"
     inkscape:connector-curvature="0"
     sodipodi:nodetypes="ssscscscss" />
  <path
     sodipodi:nodetypes="ssssssss"
     inkscape:connector-curvature="0"
     id="path5381"
     d="m 25.565666,26.178754 c 0.325542,0.06545 0.654294,0.254849 0.808519,0.577545 0.389832,0.815684 -0.1684,1.034746 -1.025007,1.252277 -0.206058,0.05234 -0.475865,0.05855 -0.61945,0.06198 -0.179698,0.0043 -0.296089,0.0058 -0.466475,-0.02547 -0.86936,-0.159356 -1.512423,-0.473114 -1.122591,-1.288796 0.154224,-0.322697 0.483173,-0.511116 0.808515,-0.577547 0.503497,-0.102811 1.087791,-0.106303 1.616489,0 z"
     style="color:#000000;clip-rule:nonzero;display:inline;overflow:visible;visibility:visible;opacity:1;isolation:auto;mix-blend-mode:normal;color-interpolation:sRGB;color-interpolation-filters:linearRGB;solid-color:#000000;solid-opacity:1;vector-effect:none;fill:#2b2116;fill-opacity:1;fill-rule:nonzero;stroke:none;stroke-width:1.45092022;stroke-linecap:round;stroke-linejoin:round;stroke-miterlimit:4;stroke-dasharray:none;stroke-dashoffset:0;stroke-opacity:0;marker:none;marker-start:none;marker-mid:none;marker-end:none;paint-order:stroke fill markers;color-rendering:auto;image-rendering:auto;shape-rendering:auto;text-rendering:auto;enable-background:accumulate" />
  <path
     sodipodi:nodetypes="cc"
     inkscape:connector-curvature="0"
     id="path5383"
     d="m 27.919081,28.859017 c -2.948166,2.339622 -3.507364,1.436161 -6.139261,0.39817"
     style="opacity:1;vector-effect:none;fill:none;fill-opacity:1;fill-rule:evenodd;stroke:#2b2116;stroke-width:0.93898737;stroke-linecap:round;stroke-linejoin:round;stroke-miterlimit:4;stroke-dasharray:none;stroke-dashoffset:0;stroke-opacity:1" />
  <ellipse
     ry="0.77469826"
     rx="1.0695453"
     cy="21.919975"
     cx="-27.384336"
     id="ellipse5385"
     style="color:#000000;clip-rule:nonzero;display:inline;overflow:visible;visibility:visible;opacity:1;isolation:auto;mix-blend-mode:normal;color-interpolation:sRGB;color-interpolation-filters:linearRGB;solid-color:#000000;solid-opacity:1;vector-effect:none;fill:#d8d5c6;fill-opacity:1;fill-rule:nonzero;stroke:none;stroke-width:0.93898737;stroke-linecap:round;stroke-linejoin:round;stroke-miterlimit:4;stroke-dasharray:none;stroke-dashoffset:0;stroke-opacity:1;marker:none;marker-start:none;marker-mid:none;marker-end:none;paint-order:stroke fill markers;color-rendering:auto;image-rendering:auto;shape-rendering:auto;text-rendering:auto;enable-background:accumulate"
     transform="scale(-1,1)" />
  <ellipse
     style="color:#000000;clip-rule:nonzero;display:inline;overflow:visible;visibility:visible;opacity:1;isolation:auto;mix-blend-mode:normal;color-interpolation:sRGB;color-interpolation-filters:linearRGB;solid-color:#000000;solid-opacity:1;vector-effect:none;fill:#d8d5c6;fill-opacity:1;fill-rule:nonzero;stroke:none;stroke-width:0.93898737;stroke-linecap:round;stroke-linejoin:round;stroke-miterlimit:4;stroke-dasharray:none;stroke-dashoffset:0;stroke-opacity:1;marker:none;marker-start:none;marker-mid:none;marker-end:none;paint-order:stroke fill markers;color-rendering:auto;image-rendering:auto;shape-rendering:auto;text-rendering:auto;enable-background:accumulate"
     id="ellipse5387"
     cx="-22.378111"
     cy="21.785086"
     rx="1.0695453"
     ry="0.77469826"
     transform="scale(-1,1)" />
  <path
     style="opacity:1;vector-effect:none;fill:none;fill-opacity:1;fill-rule:evenodd;stroke:#2b2116;stroke-width:0.93898737;stroke-linecap:round;stroke-linejoin:round;stroke-miterlimit:4;stroke-dasharray:none;stroke-dashoffset:0;stroke-opacity:1"
     d="m 30.797844,25.45513 c -1.368056,1.548927 -2.093464,0.781592 -3.251808,0.0651"
     id="path5389"
     inkscape:connector-curvature="0"
     sodipodi:nodetypes="cc" />
  <path
     sodipodi:nodetypes="cc"
     inkscape:connector-curvature="0"
     id="path5391"
     d="m 19.41551,25.514031 c 1.368054,1.548926 2.093465,0.781592 3.251807,0.06512"
     style="opacity:1;vector-effect:none;fill:none;fill-opacity:1;fill-rule:evenodd;stroke:#2b2116;stroke-width:0.93898737;stroke-linecap:round;stroke-linejoin:round;stroke-miterlimit:4;stroke-dasharray:none;stroke-dashoffset:0;stroke-opacity:1" />
  <path
     sodipodi:nodetypes="cc"
     inkscape:connector-curvature="0"
     id="path5379"
     d="m 24.809958,27.81807 c -0.07466,0.116028 -0.283829,1.873599 0.02438,2.215523"
     style="fill:none;fill-opacity:1;fill-rule:evenodd;stroke:#2b2116;stroke-width:0.93898737;stroke-linecap:round;stroke-linejoin:round;stroke-miterlimit:4;stroke-dasharray:none;stroke-opacity:1" />
  <g
     id="g865"
     transform="translate(-1.9073486e-6,0.01134389)">
    <path
       style="opacity:1;vector-effect:none;fill:#eebb77;fill-opacity:1;fill-rule:evenodd;stroke:#443322;stroke-width:1.09686649;stroke-linecap:round;stroke-linejoin:round;stroke-miterlimit:4;stroke-dasharray:none;stroke-dashoffset:0;stroke-opacity:1;paint-order:stroke markers fill;enable-background:new"
       d="m 27.096095,35.440223 c 0.676963,-1.418461 1.550747,-2.735013 2.56933,-3.898564 0.520478,-0.594555 1.089295,-1.155766 1.761988,-1.53933 0.672694,-0.383566 1.462455,-0.578505 2.208772,-0.409952 0.432425,0.09766 0.841581,0.31695 1.165683,0.637352 0.324102,0.320403 0.561178,0.742016 0.662956,1.200542 0.219506,2.244805 -1.530908,3.998835 -2.517085,4.000438 z"
       id="path2851"
       inkscape:connector-curvature="0"
       sodipodi:nodetypes="cscsccsc" />
    <path
       inkscape:connector-curvature="0"
       id="path2819"
       d="m 34.733368,30.254203 c 0,0 -0.574715,0.365727 -0.835949,0.731455 -0.261234,0.365728 -0.522469,0.888196 -0.522469,0.888196"
       style="opacity:1;vector-effect:none;fill:none;fill-opacity:1;fill-rule:evenodd;stroke:#443322;stroke-width:0.67879081;stroke-linecap:round;stroke-linejoin:round;stroke-miterlimit:4;stroke-dasharray:none;stroke-dashoffset:0;stroke-opacity:1;enable-background:new" />
    <path
       sodipodi:nodetypes="csc"
       style="opacity:1;vector-effect:none;fill:none;fill-opacity:1;fill-rule:evenodd;stroke:#443322;stroke-width:0.67879081;stroke-linecap:round;stroke-linejoin:round;stroke-miterlimit:4;stroke-dasharray:none;stroke-dashoffset:0;stroke-opacity:1;enable-background:new"
       d="m 33.105521,29.396997 c 0,0 -0.653085,0.478801 -0.914319,0.844528 -0.261234,0.365728 -0.522468,0.888197 -0.522468,0.888197"
       id="path2835"
       inkscape:connector-curvature="0" />
  </g>
  <g
     id="g850"
     transform="translate(0,-8.3175241)">
    <path
       sodipodi:nodetypes="cscsccsc"
       inkscape:connector-curvature="0"
       id="path815"
       d="m 9.0958477,43.769091 c -0.676964,-1.418461 -1.550747,-2.735013 -2.569331,-3.898564 -0.520478,-0.594555 -1.089294,-1.155766 -1.761988,-1.53933 -0.672693,-0.383566 -1.462454,-0.578505 -2.208771,-0.409952 -0.432425,0.09766 -0.841581,0.31695 -1.165683,0.637352 -0.324102,0.320403 -0.56117796,0.742016 -0.66295596,1.200542 -0.219506,2.244805 1.53090796,3.998835 2.51708496,4.000438 z"
       style="opacity:1;vector-effect:none;fill:#836f55;fill-opacity:1;fill-rule:evenodd;stroke:#443322;stroke-width:1.09686649;stroke-linecap:round;stroke-linejoin:round;stroke-miterlimit:4;stroke-dasharray:none;stroke-dashoffset:0;stroke-opacity:1;paint-order:stroke markers fill;enable-background:new" />
    <path
       style="opacity:1;vector-effect:none;fill:none;fill-opacity:1;fill-rule:evenodd;stroke:#443322;stroke-width:0.67879081;stroke-linecap:round;stroke-linejoin:round;stroke-miterlimit:4;stroke-dasharray:none;stroke-dashoffset:0;stroke-opacity:1;enable-background:new"
       d="m 1.4585747,38.544401 c 0,0 0.574715,0.365727 0.835949,0.731455 0.261234,0.365728 0.522468,0.888196 0.522468,0.888196"
       id="path817"
       inkscape:connector-curvature="0" />
    <path
       inkscape:connector-curvature="0"
       id="path819"
       d="m 3.0864207,37.687195 c 0,0 0.653086,0.478801 0.91432,0.844528 0.261234,0.365728 0.522468,0.888197 0.522468,0.888197"
       style="opacity:1;vector-effect:none;fill:none;fill-opacity:1;fill-rule:evenodd;stroke:#443322;stroke-width:0.67879081;stroke-linecap:round;stroke-linejoin:round;stroke-miterlimit:4;stroke-dasharray:none;stroke-dashoffset:0;stroke-opacity:1;enable-background:new"
       sodipodi:nodetypes="csc" />
  </g>
</svg>
