<?xml version="1.0" encoding="UTF-8" standalone="no"?>
<!-- Created with svg_stack (http://github.com/astraw/svg_stack) -->

<svg
   xmlns:dc="http://purl.org/dc/elements/1.1/"
   xmlns:cc="http://creativecommons.org/ns#"
   xmlns:rdf="http://www.w3.org/1999/02/22-rdf-syntax-ns#"
   xmlns:svg="http://www.w3.org/2000/svg"
   xmlns="http://www.w3.org/2000/svg"
   xmlns:sodipodi="http://sodipodi.sourceforge.net/DTD/sodipodi-0.dtd"
   xmlns:inkscape="http://www.inkscape.org/namespaces/inkscape"
   version="1.1"
   width="36.0"
   height="36.0"
   id="svg28"
   sodipodi:docname="ChangeMyName1.svg"
   inkscape:version="0.92.3 (2405546, 2018-03-11)">
  <metadata
     id="metadata32">
    <rdf:RDF>
      <cc:Work
         rdf:about="">
        <dc:format>image/svg+xml</dc:format>
        <dc:type
           rdf:resource="http://purl.org/dc/dcmitype/StillImage" />
        <dc:title></dc:title>
      </cc:Work>
    </rdf:RDF>
  </metadata>
  <sodipodi:namedview
     pagecolor="#ffffff"
     bordercolor="#666666"
     borderopacity="1"
     objecttolerance="10"
     gridtolerance="10"
     guidetolerance="10"
     inkscape:pageopacity="0"
     inkscape:pageshadow="2"
     inkscape:window-width="1600"
     inkscape:window-height="850"
     id="namedview30"
     showgrid="false"
     inkscape:snap-page="true"
     inkscape:snap-bbox="true"
     inkscape:bbox-nodes="true"
     inkscape:zoom="9.2709556"
     inkscape:cx="18.946745"
     inkscape:cy="13.550277"
     inkscape:window-x="0"
     inkscape:window-y="0"
     inkscape:window-maximized="1"
     inkscape:current-layer="id0:id0" />
  <defs
     id="defs2">
    <sodipodi:namedview
       inkscape:lockguides="true"
       inkscape:snap-page="true"
       inkscape:snap-bbox="true"
       showguides="true"
       inkscape:snap-global="true"
       inkscape:current-layer="svg2"
       inkscape:window-maximized="1"
       inkscape:window-y="0"
       inkscape:window-x="0"
       inkscape:cy="19.061649"
       inkscape:cx="-17.086417"
       inkscape:zoom="8.0000001"
       showgrid="false"
       id="namedview4"
       inkscape:window-height="850"
       inkscape:window-width="1600"
       inkscape:pageshadow="2"
       inkscape:pageopacity="0"
       guidetolerance="10"
       gridtolerance="10"
       objecttolerance="10"
       borderopacity="1"
       bordercolor="#666666"
       pagecolor="#ffffff" />
  </defs>
  <g
     id="id0:id0"
     transform="translate(0.0,0.0)">
    <path
       inkscape:connector-curvature="0"
       id="id0:id0:path1280"
       d="m 14.77541,4.5887419 c 0.2576,-0.125266 0.39443,0.2499773 0.562165,0.3845574 0.407658,0.5228607 0.915877,0.9522826 1.324598,1.4713758 0.04445,0.2910592 -0.35798,0.2430923 -0.542199,0.3249513 -0.45825,0.1121074 -0.889264,0.3375466 -1.355079,0.4094935 -0.230588,-0.1110224 -0.15945,-0.4461883 -0.202968,-0.6617689 0.02384,-0.6328193 0.01749,-1.2883506 0.18883,-1.8996936 l 0.02104,-0.025425 z"
       style="color:#000000;clip-rule:nonzero;display:inline;overflow:visible;visibility:visible;opacity:1;isolation:auto;mix-blend-mode:normal;color-interpolation:sRGB;color-interpolation-filters:linearRGB;solid-color:#000000;solid-opacity:1;vector-effect:none;fill:#443322;fill-opacity:1;fill-rule:nonzero;stroke:none;stroke-width:2.02748466;stroke-linecap:round;stroke-linejoin:round;stroke-miterlimit:4;stroke-dasharray:none;stroke-dashoffset:0;stroke-opacity:0;marker:none;marker-start:none;marker-mid:none;marker-end:none;paint-order:stroke fill markers;color-rendering:auto;image-rendering:auto;shape-rendering:auto;text-rendering:auto;enable-background:accumulate" />
    <path
       sodipodi:nodetypes="cccccccc"
       inkscape:connector-curvature="0"
       id="id0:id0:path1282"
       d="m 4.7999455,14.484354 c 0.461428,-0.117489 0.9655035,-0.126395 1.4460431,-0.182964 0.4098321,-0.01797 0.8555345,-0.03606 1.2302271,0.137851 0.010384,0.371338 -0.2336359,0.72088 -0.3161509,1.086904 -0.1295103,0.268082 0.5367877,1.879202 0.3253846,2.095408 -0.292251,-0.0173 -1.5807478,0.58309 -1.8173184,0.433413 C 5.2149101,17.6542 5.2357154,15.066587 4.7728047,14.68768 4.7276007,14.62262 4.7447007,14.536881 4.7999427,14.484354 Z"
       style="color:#000000;clip-rule:nonzero;display:inline;overflow:visible;visibility:visible;opacity:1;isolation:auto;mix-blend-mode:normal;color-interpolation:sRGB;color-interpolation-filters:linearRGB;solid-color:#000000;solid-opacity:1;vector-effect:none;fill:#443322;fill-opacity:1;fill-rule:nonzero;stroke:none;stroke-width:2.02748466;stroke-linecap:round;stroke-linejoin:round;stroke-miterlimit:4;stroke-dasharray:none;stroke-dashoffset:0;stroke-opacity:0;marker:none;marker-start:none;marker-mid:none;marker-end:none;paint-order:stroke fill markers;color-rendering:auto;image-rendering:auto;shape-rendering:auto;text-rendering:auto;enable-background:accumulate" />
    <path
       inkscape:connector-curvature="0"
       id="id0:id0:path1272"
       d="m 14.665749,5.8866766 c 0,0 -0.07275,0.8729806 0.18187,1.418593 0.254617,0.545611 0.982101,1.5640863 0.982101,1.5640863 l -1.60046,0.072748 c 0,0 -0.290995,-2.255195 -0.327369,-2.6553109 -0.03637,-0.400116 0.763858,-0.4001164 0.763858,-0.4001164 z"
       style="fill:#774433;fill-opacity:1;fill-rule:evenodd;stroke:none;stroke-width:0.21868676px;stroke-linecap:butt;stroke-linejoin:miter;stroke-opacity:1" />
    <path
       sodipodi:nodetypes="csccsc"
       style="fill:#774433;fill-opacity:1;fill-rule:evenodd;stroke:none;stroke-width:0.21868676px;stroke-linecap:butt;stroke-linejoin:miter;stroke-opacity:1"
       d="m 6.1542009,14.398225 c 0,0 0.8729792,-0.07275 1.4185923,0.181871 0.5456107,0.254617 1.5640873,0.982101 1.5640873,0.982101 L 9.7916148,13.37975 c 0,0 -1.4894675,-0.661636 -1.8895825,-0.69801 -0.4001143,-0.03638 -1.7478352,1.716482 -1.7478352,1.716482 z"
       id="id0:id0:path1274"
       inkscape:connector-curvature="0" />
    <path
       sodipodi:nodetypes="sssccssscccccssscssccsccssss"
       inkscape:connector-curvature="0"
       id="id0:id0:path1084"
       d="m 7.8804374,13.49698 c -0.5986529,1.032042 -0.9186742,2.177928 -1.2213171,3.314518 -0.6712831,2.521025 -1.1197584,5.626347 -0.018989,7.979651 0.4839238,1.034567 1.0369069,2.062123 1.6530136,3.036083 0.6713721,1.160332 1.5435557,2.20769 2.1343141,3.409688 -0.108105,0.785196 -0.4966163,1.575617 -0.7636734,2.355125 -0.057209,0.167002 0.3109862,0.251855 0.6125464,0.354186 0.279913,0.09499 0.595298,0.195427 0.771185,0.241024 1.175267,0.30467 1.704414,0.248681 2.735048,0.27014 -0.260855,0.338677 -1.09724,0.491177 -1.236425,0.904025 0.246806,0.462452 1.452137,0.641963 1.90089,0.638532 1.359324,-0.301397 2.57846,-0.610433 3.873379,-0.857951 2.034269,-0.469311 4.065076,-1.43915 5.633371,-2.441258 1.274812,-0.817866 2.375316,-1.791555 3.523737,-2.772205 1.368823,-1.168853 2.546475,-2.545883 3.7418,-3.881685 0.756662,-0.845691 1.433183,-1.84611 2.056596,-2.787574 1.121937,-1.694315 1.575853,-3.485106 2.143333,-5.362402 0.210646,-1.584375 0.750817,-3.404249 0.527773,-4.867485 -0.101024,-0.662694 -0.313143,-0.535122 -0.541219,-0.214145 -0.192601,0.271045 -0.533051,0.600707 -0.753304,0.745171 -0.04077,-0.559428 -0.09506,-1.120095 -0.16675,-1.678321 C 34.363734,11.200837 34.249545,9.2896442 33.780009,9.3896964 32.964944,9.5634052 32.31251,10.150634 31.416383,10.212983 30.533344,9.7547131 29.735038,9.1392682 28.908139,8.5854661 27.679699,7.8297184 26.427756,7.100807 25.111967,6.5165831 22.335711,5.2838864 19.701992,6.0251449 16.919122,6.4692603 15.75826,6.6545488 14.634376,7.0873703 13.626733,7.7163199 11.322358,9.1546602 9.154746,11.300126 7.8804282,13.49697 Z"
       style="color:#000000;clip-rule:nonzero;display:inline;overflow:visible;visibility:visible;opacity:1;isolation:auto;mix-blend-mode:normal;color-interpolation:sRGB;color-interpolation-filters:linearRGB;solid-color:#000000;solid-opacity:1;vector-effect:none;fill:#eebb77;fill-opacity:1;fill-rule:nonzero;stroke:none;stroke-width:2.02748466;stroke-linecap:round;stroke-linejoin:round;stroke-miterlimit:4;stroke-dasharray:none;stroke-dashoffset:0;stroke-opacity:0;marker:none;marker-start:none;marker-mid:none;marker-end:none;paint-order:stroke fill markers;color-rendering:auto;image-rendering:auto;shape-rendering:auto;text-rendering:auto;enable-background:accumulate" />
    <path
       sodipodi:nodetypes="sssssss"
       inkscape:connector-curvature="0"
       id="id0:id0:path873"
       d="m 19.153614,20.014277 c -0.768667,2.022108 -3.034839,5.400932 -1.851699,7.921533 1.183138,2.5206 4.890591,5.100703 10.236364,0.05152 0.509712,-0.481427 1.050551,-0.946815 1.440548,-1.440548 4.631016,-5.863008 2.469077,-9.053225 -0.05152,-10.236363 -1.757697,-0.825043 -5.559475,0.632931 -7.855495,1.995877 -0.996555,0.591565 -1.613991,0.907715 -1.918196,1.707979 z"
       style="opacity:1;fill:#f7e7a7;fill-opacity:1;fill-rule:evenodd;stroke:none;stroke-width:0.21868676px;stroke-linecap:butt;stroke-linejoin:miter;stroke-opacity:1" />
    <path
       sodipodi:nodetypes="scssssssscsssss"
       inkscape:connector-curvature="0"
       id="id0:id0:path1117"
       d="m 0.99834269,15.892821 c -0.31129016,0.315655 -0.65566175,0.694229 -0.7380561,1.138329 0.27363253,0.612411 0.53509803,1.234029 0.79759371,1.849892 0.3886713,0.911897 0.3795992,1.91106 0.4557739,2.880751 0.1031439,1.313004 0.8015343,3.915321 1.7442846,4.070976 C 4.127889,25.976402 5.0206149,25.678521 5.8549945,25.419534 6.5196962,25.21322 7.2670256,25.200989 7.8379787,24.808773 8.322327,24.476054 8.4766322,23.934517 8.490075,23.205636 8.5338502,20.832271 10.246689,18.657992 8.0502507,17.927243 6.4501435,17.39489 5.355611,16.236457 4.8403244,14.579075 5.5421828,14.44445 6.3486599,14.521166 6.9616536,14.139617 7.2532693,13.958102 8.5488503,12.926408 8.0190383,12.712167 6.990116,12.296095 4.3800471,12.584156 3.5418269,13.121594 c -0.2850913,0.182795 -0.2751791,1.28991 -0.5848272,1.511256 -0.7715095,0.551493 -1.39494,0.688477 -1.95865701,1.259971 z"
       style="color:#000000;clip-rule:nonzero;display:inline;overflow:visible;visibility:visible;opacity:1;isolation:auto;mix-blend-mode:normal;color-interpolation:sRGB;color-interpolation-filters:linearRGB;solid-color:#000000;solid-opacity:1;vector-effect:none;fill:#774433;fill-opacity:1;fill-rule:nonzero;stroke:none;stroke-width:2.02748466;stroke-linecap:round;stroke-linejoin:round;stroke-miterlimit:4;stroke-dasharray:none;stroke-dashoffset:0;stroke-opacity:0;marker:none;marker-start:none;marker-mid:none;marker-end:none;paint-order:stroke fill markers;color-rendering:auto;image-rendering:auto;shape-rendering:auto;text-rendering:auto;enable-background:accumulate" />
    <path
       style="color:#000000;clip-rule:nonzero;display:inline;overflow:visible;visibility:visible;opacity:1;isolation:auto;mix-blend-mode:normal;color-interpolation:sRGB;color-interpolation-filters:linearRGB;solid-color:#000000;solid-opacity:1;vector-effect:none;fill:#774433;fill-opacity:1;fill-rule:nonzero;stroke:none;stroke-width:2.02748466;stroke-linecap:round;stroke-linejoin:round;stroke-miterlimit:4;stroke-dasharray:none;stroke-dashoffset:0;stroke-opacity:0;marker:none;marker-start:none;marker-mid:none;marker-end:none;paint-order:stroke fill markers;color-rendering:auto;image-rendering:auto;shape-rendering:auto;text-rendering:auto;enable-background:accumulate"
       d="M 16.153106,0.73805676 C 16.468769,0.42677156 16.847335,0.08239433 17.291436,-2.4570375e-8 17.903847,0.27363145 18.525467,0.5350952 19.141328,0.79759399 20.053223,1.1862662 21.05239,1.1771915 22.022078,1.2533689 23.335081,1.356513 25.937402,2.0549008 26.093056,2.9976513 26.236687,3.8676026 25.938808,4.7603277 25.679821,5.5947073 25.473503,6.2594099 25.461276,7.006737 25.069061,7.577694 24.73634,8.0620407 24.194805,8.2163439 23.465924,8.2297866 21.092559,8.2735619 20.166519,8.9907687 18.187529,7.7899633 16.860363,6.9846701 15.839327,5.7527399 14.839354,4.5800441 14.704733,5.2819028 14.781447,6.088379 14.399897,6.7013727 14.218383,6.9929876 13.865957,6.5669847 13.865296,6.3118491 13.662957,5.4001983 13.371863,4.3198223 13.909303,3.4816011 14.092098,3.1965091 14.671792,3.006362 14.893136,2.6967158 15.444629,1.9252061 15.581616,1.3017727 16.153105,0.73806002 Z"
       id="id0:id0:path1139"
       inkscape:connector-curvature="0"
       sodipodi:nodetypes="scssssssscscsss" />
    <path
       style="color:#000000;clip-rule:nonzero;display:inline;overflow:visible;visibility:visible;opacity:1;isolation:auto;mix-blend-mode:normal;color-interpolation:sRGB;color-interpolation-filters:linearRGB;solid-color:#000000;solid-opacity:1;vector-effect:none;fill:#443322;fill-opacity:1;fill-rule:nonzero;stroke:#ff0000;stroke-width:2.02748466;stroke-linecap:round;stroke-linejoin:round;stroke-miterlimit:4;stroke-dasharray:none;stroke-dashoffset:0;stroke-opacity:0;marker:none;marker-start:none;marker-mid:none;marker-end:none;paint-order:stroke fill markers;color-rendering:auto;image-rendering:auto;shape-rendering:auto;text-rendering:auto;enable-background:accumulate"
       d="m 18.716595,19.718695 c -0.274061,0.412358 -0.420572,0.959039 -0.242261,1.462542 0.450722,1.272707 1.270681,0.915602 2.403591,0.242307 0.272526,-0.16196 0.56353,-0.439859 0.718569,-0.587578 0.19406,-0.184844 0.318327,-0.305994 0.464891,-0.518698 0.7482,-1.084897 1.094699,-2.094329 -0.178005,-2.545052 -0.503502,-0.178313 -1.049363,-0.03056 -1.462544,0.242262 -0.639435,0.422212 -1.259137,1.034528 -1.704229,1.704228 z"
       id="id0:id0:id1:path1022"
       inkscape:connector-curvature="0"
       sodipodi:nodetypes="ssssssss" />
    <g
       id="id0:id1:id1"
       transform="matrix(0.67765278,-0.67765278,0.67765278,0.67765278,-7.6599981,16.475215)"
       style="stroke-width:1.04346478">
      <sodipodi:namedview
         pagecolor="#ffffff"
         bordercolor="#666666"
         borderopacity="1"
         objecttolerance="10"
         gridtolerance="10"
         guidetolerance="10"
         inkscape:pageopacity="0"
         inkscape:pageshadow="2"
         inkscape:window-width="1600"
         inkscape:window-height="850"
         id="namedview15"
         showgrid="false"
         inkscape:zoom="16"
         inkscape:cx="13.848982"
         inkscape:cy="15.640474"
         inkscape:window-x="0"
         inkscape:window-y="0"
         inkscape:window-maximized="1"
         inkscape:current-layer="svg2"
         inkscape:snap-global="false"
         showguides="true"
         inkscape:snap-bbox="true"
         inkscape:snap-page="true"
         inkscape:lockguides="true" />
      <ellipse
         style="color:#000000;clip-rule:nonzero;display:inline;overflow:visible;visibility:visible;opacity:1;isolation:auto;mix-blend-mode:normal;color-interpolation:sRGB;color-interpolation-filters:linearRGB;solid-color:#000000;solid-opacity:1;vector-effect:none;fill:#f7e7a7;fill-opacity:1;fill-rule:nonzero;stroke:none;stroke-width:1.36915183;stroke-linecap:round;stroke-linejoin:round;stroke-miterlimit:4;stroke-dasharray:none;stroke-dashoffset:0;stroke-opacity:1;marker:none;marker-start:none;marker-mid:none;marker-end:none;paint-order:stroke fill markers;color-rendering:auto;image-rendering:auto;shape-rendering:auto;text-rendering:auto;enable-background:accumulate"
         id="id0:id1:ellipse1355"
         cx="9.9557495"
         cy="17.993002"
         rx="1.6639764"
         ry="1.2077249"
         transform="rotate(-13.533856)" />
      <ellipse
         ry="1.2077249"
         rx="1.6639764"
         cy="8.877594"
         cx="25.499634"
         id="id0:id1:ellipse1366"
         style="color:#000000;clip-rule:nonzero;display:inline;overflow:visible;visibility:visible;opacity:1;isolation:auto;mix-blend-mode:normal;color-interpolation:sRGB;color-interpolation-filters:linearRGB;solid-color:#000000;solid-opacity:1;vector-effect:none;fill:#f7e7a7;fill-opacity:1;fill-rule:nonzero;stroke:none;stroke-width:1.36915183;stroke-linecap:round;stroke-linejoin:round;stroke-miterlimit:4;stroke-dasharray:none;stroke-dashoffset:0;stroke-opacity:1;marker:none;marker-start:none;marker-mid:none;marker-end:none;paint-order:stroke fill markers;color-rendering:auto;image-rendering:auto;shape-rendering:auto;text-rendering:auto;enable-background:accumulate"
         transform="rotate(14.332101)" />
      <path
         inkscape:connector-curvature="0"
         id="id0:id1:path2101"
         d="M 8.2250101,21.336636 C 9.3219104,17.831291 13.002107,17.319219 14.107482,20.222771"
         style="opacity:1;vector-effect:none;fill:none;fill-opacity:1;fill-rule:evenodd;stroke:#443322;stroke-width:1.36915183;stroke-linecap:round;stroke-linejoin:round;stroke-miterlimit:4;stroke-dasharray:none;stroke-dashoffset:0;stroke-opacity:1"
         sodipodi:nodetypes="cc" />
      <path
         sodipodi:nodetypes="cc"
         style="opacity:1;vector-effect:none;fill:none;fill-opacity:1;fill-rule:evenodd;stroke:#443322;stroke-width:1.36915183;stroke-linecap:round;stroke-linejoin:round;stroke-miterlimit:4;stroke-dasharray:none;stroke-dashoffset:0;stroke-opacity:1"
         d="m 28.045512,21.336636 c -1.0969,-3.505345 -4.777097,-4.017417 -5.882472,-1.113865"
         id="id0:id1:path2112"
         inkscape:connector-curvature="0" />
    </g>
  </g>
  <g
     id="id1:id1"
     transform="matrix(0.67765278,-0.67765278,0.67765278,0.67765278,-7.6599974,16.475215)"
     style="stroke-width:1.04346478">
    <sodipodi:namedview
       pagecolor="#ffffff"
       bordercolor="#666666"
       borderopacity="1"
       objecttolerance="10"
       gridtolerance="10"
       guidetolerance="10"
       inkscape:pageopacity="0"
       inkscape:pageshadow="2"
       inkscape:window-width="1600"
       inkscape:window-height="850"
       id="namedview32"
       showgrid="false"
       inkscape:zoom="13.111111"
       inkscape:cx="6.7151269"
       inkscape:cy="21.080234"
       inkscape:window-x="0"
       inkscape:window-y="0"
       inkscape:window-maximized="1"
       inkscape:current-layer="svg30" />
    <path
       sodipodi:nodetypes="cc"
       inkscape:connector-curvature="0"
       id="id1:id1:path1324"
       d="m 18.336099,23.951417 c 0.05804,0.151821 0.0584,2.729282 -0.03795,3.453914"
       style="fill:none;fill-opacity:1;fill-rule:evenodd;stroke:#443322;stroke-width:1.36915183;stroke-linecap:round;stroke-linejoin:round;stroke-miterlimit:4;stroke-dasharray:none;stroke-opacity:1" />
    <path
       sodipodi:nodetypes="ccsc"
       inkscape:connector-curvature="0"
       id="id1:id1:path1326"
       d="m 11.66251,27.961636 13.285014,-0.724035 c 0,0 0.717731,5.940366 -7.710235,5.635282 -5.335626,-0.193145 -5.574779,-4.911247 -5.574779,-4.911247 z"
       style="opacity:1;vector-effect:none;fill:#ffffff;fill-opacity:1;fill-rule:evenodd;stroke:#443322;stroke-width:1.36915183;stroke-linecap:round;stroke-linejoin:round;stroke-miterlimit:4;stroke-dasharray:none;stroke-dashoffset:0;stroke-opacity:1" />
    <path
       sodipodi:nodetypes="ccccc"
       inkscape:connector-curvature="0"
       id="id1:path841"
       d="m 13.919491,28.296611 c 0.178363,1.487232 0.911081,2.731831 1.792372,4.118644 1.156407,-1.343469 1.77812,-2.840011 1.868645,-4.461864 0.856198,1.922948 1.900193,2.867462 2.478814,4.538136 1.110251,-1.368633 1.697989,-3.029828 2.097457,-4.500001"
       style="opacity:1;vector-effect:none;fill:none;fill-opacity:1;fill-rule:evenodd;stroke:#443322;stroke-width:1.36915183;stroke-linecap:round;stroke-linejoin:round;stroke-miterlimit:4;stroke-dasharray:none;stroke-dashoffset:0;stroke-opacity:1" />
  </g>
</svg>
