<svg height="512pt" viewBox="0 -20 512 512" width="512pt" xmlns="http://www.w3.org/2000/svg"><path d="m452 0h-392c-33.085938 0-60 26.914062-60 60v332c0 44.113281 35.886719 80 80 80h352c44.113281 0 80-35.886719 80-80 0-11.046875-8.953125-20-20-20s-20 8.953125-20 20c0 22.054688-17.945312 40-40 40h-352c-22.054688 0-40-17.945312-40-40v-271h432v171c0 11.046875 8.953125 20 20 20s20-8.953125 20-20v-232c0-33.085938-26.914062-60-60-60zm-81 40c11.027344 0 20 8.972656 20 20s-8.972656 20-20 20-20-8.972656-20-20 8.972656-20 20-20zm100 20c0 11.027344-8.972656 20-20 20s-20-8.972656-20-20 8.972656-20 20-20 20 8.972656 20 20zm-431 0c0-11.027344 8.972656-20 20-20h254.441406c-2.222656 6.261719-3.441406 12.988281-3.441406 20 0 7.386719 1.347656 14.460938 3.800781 21h-274.800781zm346.402344 246.671875c6.375-7.132813 9.605468-17.382813 9.597656-30.464844 0-2.765625-.15625-5.464843-.457031-8.023437l-.214844-1.804688c-.042969-.367187-.074219-.738281-.097656-1.109375-1.289063-8.125-4.257813-14.828125-8.832031-19.941406-10.566407-11.8125-28.546876-14.3125-41.765626-14.328125h-.375c-13.195312.011719-31.164062 2.507812-41.742187 14.328125-2.769531 3.097656-4.996094 7.027344-6.644531 11.671875h21.128906c11.046875 0 20 8.953125 20 20s-8.953125 20-20 20h-59.894531c-.890625 3.648438-1.757813 6.667969-2.222657 8.222656-.03125.105469-.0625.210938-.097656.316406-3.402344 10.761719-8.613281 20.113282-15.488281 27.800782-16.164063 18.070312-40.902344 27.636718-71.535156 27.660156h-.417969c-30.667969-.035156-55.402344-9.601562-71.554688-27.660156-10.222656-11.425782-16.558593-25.703125-18.832031-42.4375-.085937-.640625-.144531-1.28125-.167969-1.925782l-.054687-.464843c-.484375-4.105469-.730469-8.375-.734375-12.695313-.015625-23.226562 6.644531-42.460937 19.785156-57.152344 16.167969-18.070312 40.90625-27.636718 71.542969-27.660156h.410156c17.265625.019532 32.578125 2.957032 45.535157 8.726563 10.089843 4.496093 14.625 16.320312 10.128906 26.410156s-16.316406 14.625-26.40625 10.128906c-7.816406-3.480469-17.671875-5.253906-29.28125-5.269531h-.371094c-13.195312.011719-31.167969 2.507812-41.742188 14.328125-6.378906 7.132813-9.609374 17.382813-9.601562 30.464844.003906 2.765625.15625 5.464843.460938 8.023437l.210937 1.804688c.042969.367187.078125.738281.101563 1.109375 1.289062 8.125 4.253906 14.828125 8.828124 19.941406 10.566407 11.8125 28.546876 14.3125 41.769532 14.328125h.371094c13.195312-.011719 31.167968-2.507812 41.742187-14.328125 2.363281-2.644531 4.332031-5.890625 5.882813-9.671875h-18.367188c-11.046875 0-20-8.953125-20-20s8.953125-20 20-20h57.417969c1.046875-4.527344 2.152343-8.390625 2.699219-10.222656.03125-.105469.0625-.210938.097656-.3125 3.402344-10.765625 8.613281-20.117188 15.488281-27.804688 16.164063-18.070312 40.902344-27.632812 71.535156-27.660156h.417969c30.667969.035156 55.402344 9.601562 71.554688 27.660156 10.222656 11.429688 16.558593 25.707032 18.832031 42.4375.085937.640625.144531 1.28125.167969 1.925782l.054687.464843c.484375 4.105469.730469 8.375.734375 12.695313.015625 23.230468-6.644531 42.460937-19.785156 57.15625-16.167969 18.070312-40.90625 27.632812-71.542969 27.660156h-.410156c-17.265625-.023438-32.578125-2.960938-45.535157-8.730469-10.089843-4.496093-14.625-16.320312-10.128906-26.410156s16.316406-14.625 26.40625-10.128906c7.816406 3.480469 17.671875 5.253906 29.28125 5.269531h.371094c13.199219-.011719 31.167969-2.507812 41.746094-14.328125zm0 0"/></svg>