<svg height="500pt" preserveAspectRatio="xMidYMid meet" viewBox="0 0 500 500" width="500pt" xmlns="http://www.w3.org/2000/svg" xmlns:xlink="http://www.w3.org/1999/xlink"><linearGradient id="a"><stop offset="0" stop-color="#f02569"/><stop offset="1" stop-color="#fa9129"/></linearGradient><linearGradient id="b" gradientTransform="matrix(.98839084 0 0 .98973848 -147.65791 5.149527)" gradientUnits="userSpaceOnUse" x1="352.752" x2="477.189" xlink:href="#a" y1="4.652" y2="488.413"/><linearGradient id="c" gradientUnits="userSpaceOnUse" x1="742.935" x2="867.371" xlink:href="#a" y1="8.772" y2="492.534"/><clipPath id="d"><path d="m736.32713 131.74536c-1.9021-11.76355-2.138-28.04814 3.89064-35.320585 6.02862-7.27245 16.74753-19.362037 30.66603-24.254168 13.66103-4.80166 23.616-6.09294 32.88953-4.4102 10.33245 1.87489 18.25724 8.090841 21.32189 14.69891 3.06465 6.60807 13.9896 28.134173 15.54773 43.051263 1.55805 14.91709-13.78928 25.12033-13.78928 25.12033s-32.86627 17.4933-51.08077 17.98933c-18.21457.49603-33.23554-10.86983-36.81461-25.59785-3.57908-14.72802-2.63116-11.27703-2.63116-11.27703z"/></clipPath><ellipse cx="249.822" cy="250.115" fill="url(#b)" rx="246.815" ry="247.151" stroke-width=".742"/><g fill="#fff"><g stroke-width=".742"><ellipse cx="57.414" cy="188.137" rx="4.777" ry="4.784"/><ellipse cx="99.986" cy="108.475" rx="2.744" ry="2.748"/><ellipse cx="325.184" cy="72.97" rx="4.581" ry="4.587"/><ellipse cx="389.874" cy="244.653" rx="5.017" ry="5.023"/></g><ellipse cx="308.753" cy="416.527" rx="3.967" ry="3.972" stroke-width=".587"/><ellipse cx="107.205" cy="334.282" rx="3.37" ry="3.374" stroke-width=".498"/><path d="m411.33807 173.68252-2.07661 11.70339-11.03528 5.47484 11.79783 2.23311 5.16187 10.45577 2.18276-10.70634 11.15992-5.65387-12.33769-2.61731z"/><path d="m147.67183 193.44728s-20.06996-54.17786-17.69084-81.41335c2.37911-27.235496 1.50653-18.841783 3.85544-27.859142 2.34892-9.017357 12.04102-25.480883 22.31643-30.92595 10.27541-5.445066 48.75045-29.667741 74.35574-27.471611 25.6053 2.196128 28.78386 1.195382 42.93088 16.196527 14.14702 15.001144 24.90375 54.617788 27.09868 65.549046 2.19495 10.93123 9.15862 35.96143 14.07139 36.53925 4.91277.57783 28.65358-.26096 33.07213-11.755 4.41855-11.49402 9.6354-13.11527 12.32537-32.487125 2.68997-19.371875 15.44485-45.431297 26.07584-51.914116.82713-.504388 2.70803-1.643677 2.70803-1.643677s11.439 7.625939 24.54009 19.138948c6.79401 5.970454 13.86444 13.288883 20.37947 20.490485 19.07812 21.088645.24937.343464.24937.343464s-1.9413 28.286781-8.24364 46.235201c-6.30234 17.94844-31.05411 50.52397-55.11588 72.49624-24.06176 21.97225-25.29435 24.34667-25.29435 26.85297 0 2.50629-.53444 9.87979 7.76324 14.93585s39.62493 28.0312 50.81122 53.08431c11.1863 25.0531 9.56085 44.98432 22.97648 69.92474 13.41568 24.94043 19.26231 28.53884 16.01337 33.54308-3.24904 5.00424-23.44773 28.43723-42.19597 41.2159s-45.79305-7.55666-47.81423-17.5746c-2.02119-10.01794-3.43327-29.59264-6.30497-44.09203-2.8717-14.49937-13.32877-39.83671-26.89172-47.48134-13.56296-7.64462-28.65714-5.43842-28.65714-5.43842s4.82354 42.50353-5.10622 72.73986c-9.92976 30.23634-21.18794 38.2781-42.18615 47.57746-20.9982 9.29935-43.33913 16.22264-62.26616 16.63201-18.92702.40936-42.21121-4.75624-51.68741-22.688-9.47621-17.93174-8.20485-36.82812 1.71479-46.6577 9.91964-9.82959 29.97243-12.69792 38.47415-11.88376 8.50173.81415 33.02963-5.86589 40.73408-21.4136 7.70445-15.5477-14.09247-45.81371-21.23837-58.01337-7.1459-12.19968-24.80467-41.39481-24.80467-41.39481s-65.622781 27.1758-78.327528 41.95011c-12.704736 14.77431-35.001677 29.49808-48.615743 29.15093-13.614075-.34714-21.013021-6.5659-21.013021-6.5659-3.076268-8.73094-4.036361-13.02078-5.951181-20.35695-2.3747571-9.09828-4.5648533-21.35714-5.4497497-30.17815 0 0 23.3517227-22.91199 33.2253907-29.84172 10.033255-7.04175 36.473135-27.17346 55.541023-33.96863 19.067879-6.79516 52.319819-18.49916 53.622339-21.57743z"/></g><circle clip-path="url(#d)" cx="792.332" cy="251.626" fill="url(#c)" r="249.714" stroke-width=".75" transform="matrix(.98839084 0 0 .98973848 -551.03081 -11.166101)"/><g fill="#fff"><path d="m271.71085 112.81596s-.6733-8.25934-3.06033-10.65972c-2.38704-2.400382-3.4147-3.219373-4.30462-3.261871-.88992-.04246-2.97515.449533-4.32631 2.923971-1.35117 2.47444 1.22946 6.29857 1.22946 6.29857s1.68729 4.73075.16217 9.27633c-1.52512 4.54559 1.01358 7.22143 2.39991 7.52704 1.38634.30561 6.58711.63897 7.18013-3.59674.59301-4.2357.71959-8.50758.71959-8.50758z"/><path d="m253.91215 72.255739s-2.80762-2.800727-6.32755-.612187c-2.47031 1.535934-2.11167 4.630992-.12352 7.218567 1.98816 2.587574 1.82874 4.35173 3.27543 5.877248 1.4467 1.52552 7.23694 1.364769 8.30897-1.361131 1.07204-2.725899-.22598-5.865855-1.49256-7.546134-1.28839-1.709195-3.64077-3.576363-3.64077-3.576363z"/></g></svg>