<svg xmlns="http://www.w3.org/2000/svg" xmlns:xlink="http://www.w3.org/1999/xlink" width="500" height="500" viewBox="0 0 132.292 132.292"><linearGradient id="a" x1="432.851" x2="464.644" y1="49.977" y2="49.977" gradientUnits="userSpaceOnUse"><stop offset="0" stop-color="#2087e2"/><stop offset="1" stop-color="#b63fff"/></linearGradient><path width="31.792" height="31.792" x="432.851" y="34.081" fill="url(#a)" d="m438.6723 34.080635h20.15068a5.8208333 5.8208333 45 0 1 5.82083 5.820833v20.150671a5.8208333 5.8208333 135 0 1 -5.82083 5.820833h-20.15068a5.8208333 5.8208333 45 0 1 -5.82083-5.820833v-20.150671a5.8208333 5.8208333 135 0 1 5.82083-5.820833z" transform="matrix(4.161118 0 0 4.1611093 -1801.146 -141.81325)"/><path fill="#7f40cf" d="m755.59375 115.26367-.75 38.77149-9.61914 12.17187-46.68854 3.28589 24.59284 23.45825h37.22851c12.64012.00032 22.88704-10.2466 22.88672-22.88672v-37.61133l-9.31641-11.63085z" opacity=".75" transform="matrix(1.0583333 0 0 1.0583314 -696.64204 -71.914618)"/><g fill="none" stroke="#fff" stroke-linecap="round" stroke-linejoin="round" stroke-width="7.865"><path d="m741.45312 94.964844h-41.41796c-8.18705 0-14.77735 6.590276-14.77735 14.777346v41.41797m14.77735 14.77734h41.41796c8.18706 0 14.77735-6.59028 14.77735-14.77734v-41.41797" transform="matrix(1.0583333 0 0 1.0583314 -696.64204 -71.914618)"/><path d="m670.07576 143.37121 15.18204 13.78895 15.49978-13.59955" transform="matrix(1.0583333 0 0 1.0583314 -696.64204 -71.914618)"/><path d="m670.07576 143.37121 15.18204 13.78895 15.49978-13.59955" transform="matrix(-1.0583333 0 0 -1.0583314 828.93303 210.55653)"/></g></svg>