<svg width="50" height="50" viewBox="0 0 50 50" fill="none" xmlns="http://www.w3.org/2000/svg">
<path d="M32.3242 0H14.7461C6.66943 0 0 6.66943 0 14.7461C0 22.1318 5.59082 28.2573 12.7048 29.2529C13.1521 29.4632 14.2049 29.3945 14.7461 29.3945V33.7891C14.7461 34.3298 15.0437 34.8262 15.52 35.0809C15.9903 35.3332 16.5698 35.3103 17.0235 35.0079L25.4435 29.3945H32.3242C40.4009 29.3945 47.0703 22.8228 47.0703 14.7461C47.0703 6.66943 40.4009 0 32.3242 0ZM14.7461 17.6758C13.1311 17.6758 11.8164 16.3611 11.8164 14.7461C11.8164 13.1311 13.1311 11.8164 14.7461 11.8164C16.3611 11.8164 17.6758 13.1311 17.6758 14.7461C17.6758 16.3611 16.3611 17.6758 14.7461 17.6758ZM23.5352 17.6758C21.9201 17.6758 20.6055 16.3611 20.6055 14.7461C20.6055 13.1311 21.9201 11.8164 23.5352 11.8164C25.1502 11.8164 26.4648 13.1311 26.4648 14.7461C26.4648 16.3611 25.1502 17.6758 23.5352 17.6758ZM32.3242 17.6758C30.7092 17.6758 29.3945 16.3611 29.3945 14.7461C29.3945 13.1311 30.7092 11.8164 32.3242 11.8164C33.9393 11.8164 35.2539 13.1311 35.2539 14.7461C35.2539 16.3611 33.9393 17.6758 32.3242 17.6758Z" fill="black"/>
<path d="M48.1877 22.4707C45.3217 28.2961 39.2436 32.3242 32.3242 32.3242H26.3304L18.6485 37.4454C17.2729 38.3644 15.5323 38.4117 14.1353 37.6629C12.7062 36.899 11.8164 35.4142 11.8164 33.7891V32.0796C8.51602 31.5233 5.46934 30.0209 3.07881 27.9102C3.02871 28.4052 2.92969 28.8908 2.92969 29.3945C2.92969 37.4712 9.59912 44.043 17.6758 44.043H24.5565L32.9766 49.7539C33.4302 50.0562 34.0098 50.0792 34.4801 49.8269C34.9563 49.5723 35.2539 49.0759 35.2539 48.5352V44.043C35.7952 44.043 36.8479 44.1116 37.2952 43.9014C44.4092 42.9058 50 36.7788 50 29.3945C50 26.9221 49.3295 24.5809 48.1877 22.4707Z" fill="black"/>
</svg>
