<svg width="46" height="34" viewBox="0 0 46 34" fill="none" xmlns="http://www.w3.org/2000/svg">
<path d="M33.4166 0.333344C36.7318 0.333344 39.9112 1.6503 42.2554 3.99451C44.5996 6.33871 45.9166 9.51814 45.9166 12.8333V21.1667C45.9166 24.4819 44.5996 27.6613 42.2554 30.0055C39.9112 32.3497 36.7318 33.6667 33.4166 33.6667H12.5833C9.26805 33.6667 6.08862 32.3497 3.74442 30.0055C1.40021 27.6613 0.083252 24.4819 0.083252 21.1667V12.8333C0.083252 9.51814 1.40021 6.33871 3.74442 3.99451C6.08862 1.6503 9.26805 0.333344 12.5833 0.333344H33.4166ZM18.8333 10.75H14.6666V14.9167H10.4999V19.0833H14.6645L14.6666 23.25H18.8333L18.8312 19.0833H22.9999V14.9167H18.8333V10.75ZM35.4999 19.0833H31.3333V23.25H35.4999V19.0833ZM31.3333 10.75H27.1666V14.9167H31.3333V10.75Z" fill="black"/>
</svg>
