<svg width="44" height="50" viewBox="0 0 44 50" fill="none" xmlns="http://www.w3.org/2000/svg">
<path d="M0.0273438 50H43.9727V47.0703H41.043V44.1406H2.95703V47.0703H0.0273438V50Z" fill="black"/>
<path d="M0.0273438 23.5352C0.0273438 25.153 1.33896 26.4648 2.95703 26.4648H41.043C42.661 26.4648 43.9727 25.153 43.9727 23.5352V20.6055H0.0273438V23.5352Z" fill="black"/>
<path d="M32.2539 8.88672V0H20.5352V12.3758L9.93506 17.6758H34.0649L23.4648 12.3758V8.88672H32.2539Z" fill="black"/>
<path d="M5.88672 29.3945H11.7461V41.2109H5.88672V29.3945Z" fill="black"/>
<path d="M14.6758 29.3945H20.5352V41.2109H14.6758V29.3945Z" fill="black"/>
<path d="M23.4648 29.3945H29.3242V41.2109H23.4648V29.3945Z" fill="black"/>
<path d="M32.2539 29.3945H38.1133V41.2109H32.2539V29.3945Z" fill="black"/>
</svg>
