<svg width="50" height="50" viewBox="0 0 50 50" fill="none" xmlns="http://www.w3.org/2000/svg">
<path d="M48.1332 11.8722L27.5277 17.7315C26.8982 17.9118 26.4648 18.4869 26.4648 19.1406C26.4648 26.4132 26.4648 31.7068 26.4648 39.0961C25.5996 38.5915 24.6071 38.2812 23.5352 38.2812C20.3036 38.2812 17.6758 40.9091 17.6758 44.1406C17.6758 47.3722 20.3036 50 23.5352 50C26.7667 50 29.3945 47.3722 29.3945 44.1406V29.0352L47.0703 24.0128V33.2367C46.2051 32.7321 45.2126 32.4219 44.1406 32.4219C40.9091 32.4219 38.2812 35.0497 38.2812 38.2812C38.2812 41.5128 40.9091 44.1406 44.1406 44.1406C47.3722 44.1406 50 41.5128 50 38.2812C50 28.9709 50 22.5701 50 13.2812C50 12.3124 49.0732 11.6066 48.1332 11.8722Z" fill="black"/>
<path d="M16.9534 9.04834C14.0838 7.2874 11.7188 5.79785 11.7188 1.46484C11.7188 0.655176 11.0636 0 10.2539 0C9.44424 0 8.78906 0.655176 8.78906 1.46484C8.78906 10.5614 8.78906 4.55029 8.78906 27.2797C7.92383 26.7751 6.93135 26.4648 5.85938 26.4648C2.62783 26.4648 0 29.0927 0 32.3242C0 35.5558 2.62783 38.1836 5.85938 38.1836C9.09092 38.1836 11.7188 35.5558 11.7188 32.3242C11.7188 27.2752 11.7188 23.935 11.7188 18.3449C12.6771 19.1126 13.857 19.7441 14.8905 20.3438C17.9576 22.1218 20.6055 23.6582 20.6055 27.9297C20.6055 28.7394 21.2606 29.3945 22.0703 29.3945C22.88 29.3945 23.5352 28.7394 23.5352 27.9297V19.1406C23.5352 13.0853 20.039 10.9409 16.9534 9.04834Z" fill="black"/>
</svg>
