<svg width="44" height="50" viewBox="0 0 44 50" fill="none" xmlns="http://www.w3.org/2000/svg">
<path d="M35.5749 11.9148L38.7129 8.77644C39.2847 8.20462 39.2847 7.27689 38.7129 6.70506C38.1407 6.13286 37.2133 6.13286 36.6411 6.70506L33.5031 9.84303C32.9309 10.4152 32.9309 11.3426 33.5031 11.9148C34.075 12.4866 35.0027 12.487 35.5749 11.9148Z" fill="black"/>
<path d="M42.3841 20.3971H39.2461C38.437 20.3971 37.7812 21.0529 37.7812 21.862C37.7812 22.6707 38.437 23.3268 39.2461 23.3268H42.3841C43.1932 23.3268 43.8489 22.6707 43.8489 21.862C43.8489 21.0529 43.1932 20.3971 42.3841 20.3971Z" fill="black"/>
<path d="M23.4519 1.46484C23.4519 0.655747 22.7961 0 21.987 0C21.178 0 20.5222 0.655747 20.5222 1.46484V4.60281C20.5222 5.41191 21.178 6.06766 21.987 6.06766C22.7961 6.06766 23.4519 5.41191 23.4519 4.60281V1.46484Z" fill="black"/>
<path d="M8.39911 11.9148C8.97094 12.4866 9.89867 12.487 10.4709 11.9148C11.0427 11.3426 11.0427 10.4152 10.4709 9.84303L7.3329 6.70506C6.7607 6.13286 5.83335 6.13286 5.26114 6.70506C4.68932 7.27727 4.68932 8.20462 5.26114 8.77644L8.39911 11.9148Z" fill="black"/>
<path d="M6.19266 21.862C6.19266 21.0529 5.53691 20.3971 4.72781 20.3971H1.58984C0.780746 20.3971 0.125 21.0529 0.125 21.862C0.125 22.6707 0.780746 23.3268 1.58984 23.3268H4.72781C5.53691 23.3268 6.19266 22.6711 6.19266 21.862Z" fill="black"/>
<path d="M14.2463 29.6279C14.247 28.3889 14.5408 27.1392 15.0996 26.0051C15.0996 26.0051 18.957 18.2994 19.6948 16.827C20.2361 15.7383 20.5222 14.5233 20.5222 13.3125C20.5222 12.1185 20.0709 10.9958 19.25 10.1413L18.0243 8.91568C17.5532 8.44419 16.7586 8.57313 16.4603 9.16936L8.12484 25.8403C8.02299 26.0436 7.97035 26.2679 7.97035 26.4953V37.6563L4.40323 41.2231C3.83141 41.7953 3.83141 42.7226 4.40323 43.2948L10.6792 49.5707C11.2514 50.1429 12.1791 50.1429 12.7509 49.5707L18.6542 43.6671C19.8588 42.4655 20.5222 40.8637 20.5222 39.157V26.8081C20.5222 26.5777 20.3357 26.3912 20.1056 26.3912C18.4874 26.3912 17.176 27.703 17.176 29.3208V34.4157C17.176 35.2481 16.4813 35.9183 15.6402 35.8787C14.8524 35.8417 14.2463 35.163 14.2463 34.3742V29.6333C14.2463 29.6317 14.2463 29.6298 14.2463 29.6279Z" fill="black"/>
<path d="M36.0041 37.6563V26.4953C36.0041 26.2679 35.9511 26.0436 35.8493 25.8403L27.5138 9.16936C27.2155 8.57313 26.4213 8.44419 25.9498 8.91568L24.7241 10.1413C23.9036 10.9958 23.4519 12.1185 23.4519 13.3125C23.4519 14.5233 23.738 15.7383 24.2793 16.827C25.0171 18.2994 28.8749 26.0051 28.8749 26.0051C29.4337 27.1392 29.7271 28.3889 29.7282 29.6279V29.6333V34.3742C29.7282 35.163 29.1221 35.8417 28.3339 35.8791C27.4928 35.9187 26.7985 35.2481 26.7985 34.4157V29.3208C26.7985 27.703 25.4867 26.3912 23.8688 26.3912C23.6388 26.3912 23.4519 26.5777 23.4519 26.8081V39.157C23.4519 40.8637 24.1157 42.4655 25.3203 43.6671L31.2236 49.5707C31.7954 50.1429 32.7231 50.1429 33.2949 49.5711L39.5709 43.2948C40.1431 42.7226 40.1431 41.7953 39.5709 41.2234L36.0041 37.6563Z" fill="black"/>
</svg>
