<svg width="50" height="50" viewBox="0 0 50 50" fill="none" xmlns="http://www.w3.org/2000/svg">
<path d="M1.39643 28.6136L4.65925 29.1484C5.17475 31.6468 6.16128 34.0243 7.56612 36.1537L5.6339 38.8504C5.23298 39.3962 5.23987 40.141 5.65087 40.6793C6.13807 41.2748 6.65578 41.8448 7.20178 42.3869C7.75263 42.9387 8.32045 43.4471 8.90525 43.9387C9.44388 44.3505 10.1897 44.3574 10.7359 43.9556L13.4309 42.0225C15.5582 43.4282 17.934 44.4154 20.4311 44.9311L20.965 48.1965C21.0667 48.8644 21.5997 49.3836 22.2701 49.4677C22.7345 49.5203 23.2024 49.5524 23.6804 49.5762C23.9125 49.5875 24.1392 49.5037 24.3081 49.3441C24.4769 49.1845 24.5735 48.9629 24.5753 48.7304V41.9387C24.5728 41.4809 24.2092 41.1067 23.7516 41.0912C15.1873 40.6472 8.47096 33.5737 8.47096 24.9979C8.47096 16.4222 15.1873 9.34863 23.7516 8.90466C24.2092 8.88915 24.5728 8.51506 24.5753 8.05715V1.27132C24.5741 1.03904 24.4783 0.817259 24.3098 0.657239C24.1413 0.497218 23.9149 0.412984 23.6828 0.42381C23.2065 0.443577 22.7357 0.476959 22.27 0.523793C21.5994 0.615163 21.0686 1.1364 20.9649 1.80519L20.431 5.07056C17.934 5.58704 15.5583 6.57439 13.4308 7.97996L10.7358 6.04602C10.1896 5.64421 9.44379 5.65109 8.90517 6.063C8.31126 6.55085 7.7427 7.06881 7.2017 7.61473C6.6516 8.15294 6.13372 8.72315 5.65079 9.32238C5.23807 9.86133 5.23118 10.6081 5.63381 11.1546L7.56603 13.8513C6.16153 15.98 5.17499 18.3565 4.65917 20.8541L1.39635 21.3881C0.728212 21.4901 0.209109 22.0234 0.125121 22.6941C-0.041707 24.215 -0.041707 25.7495 0.125121 27.2704C0.200497 27.9522 0.719764 28.5009 1.39643 28.6136Z" fill="black"/>
<path d="M23.7648 12.314C17.0695 12.7381 11.8562 18.2921 11.8562 25.0008C11.8562 31.7095 17.0695 37.2635 23.7648 37.6876C23.9778 37.6965 24.1852 37.6175 24.3383 37.4691C24.4914 37.3208 24.577 37.116 24.575 36.9029V13.0987C24.5771 12.8855 24.4915 12.6808 24.3383 12.5325C24.1852 12.3841 23.9778 12.3051 23.7648 12.314Z" fill="black"/>
<path d="M30.5074 13.136H26.27V14.831H30.5074C31.9098 14.8268 33.0456 13.691 33.0498 12.2885V7.04772C34.2173 6.635 34.9176 5.4412 34.7082 4.22075C34.4988 3.00029 33.4406 2.10825 32.2023 2.10825C30.9641 2.10825 29.9059 3.00029 29.6965 4.22075C29.4871 5.4412 30.1873 6.635 31.3548 7.04772V12.2885C31.3548 12.7566 30.9754 13.136 30.5074 13.136Z" fill="black"/>
<path d="M26.27 18.221H34.7449C35.213 18.221 35.5924 17.8415 35.5924 17.3734C35.5924 16.9054 35.213 16.5259 34.7449 16.5259H26.27V18.221Z" fill="black"/>
<path d="M26.27 36.8655H30.5074C30.9755 36.8655 31.3549 37.245 31.3549 37.713V42.9539C30.1874 43.3666 29.4872 44.5604 29.6966 45.7808C29.906 47.0013 30.9641 47.8933 32.2024 47.8933C33.4407 47.8933 34.4989 47.0013 34.7083 45.7808C34.9177 44.5604 34.2174 43.3666 33.0499 42.9539V37.713C33.0458 36.3106 31.9099 35.1748 30.5075 35.1706H26.2701V36.8655H26.27Z" fill="black"/>
<path d="M38.9822 28.3907H26.27V30.0857H38.9822C39.4503 30.0857 39.8298 30.4651 39.8298 30.9332V35.3266C38.6623 35.7393 37.962 36.9331 38.1714 38.1536C38.3808 39.374 39.4389 40.2661 40.6773 40.2661C41.9155 40.2661 42.9737 39.374 43.1831 38.1536C43.3925 36.9331 42.6922 35.7393 41.5248 35.3266V30.9332C41.5205 29.5307 40.3847 28.3949 38.9822 28.3907Z" fill="black"/>
<path d="M47.4571 22.4583C46.3835 22.4628 45.4284 23.1411 45.0706 24.1533H26.27V25.8482H45.0706C45.5036 27.064 46.7801 27.7613 48.0371 27.4686C49.2942 27.176 50.1314 25.9867 49.983 24.7046C49.8346 23.4227 48.7477 22.4561 47.4571 22.4583Z" fill="black"/>
<path d="M35.5924 32.6282C35.5924 32.1601 35.213 31.7806 34.7449 31.7806H26.27V33.4756H34.7449C35.213 33.4757 35.5924 33.0962 35.5924 32.6282Z" fill="black"/>
<path d="M41.5248 19.0685V14.6751C42.6922 14.2624 43.3925 13.0686 43.1831 11.8481C42.9737 10.6276 41.9156 9.7356 40.6773 9.7356C39.439 9.7356 38.3808 10.6276 38.1714 11.8481C37.962 13.0686 38.6623 14.2624 39.8298 14.6751V19.0685C39.8298 19.5365 39.4503 19.916 38.9822 19.916H26.27V21.6109H38.9822C40.3848 21.6066 41.5206 20.4708 41.5248 19.0685Z" fill="black"/>
</svg>
