<svg xmlns="http://www.w3.org/2000/svg" xmlns:svg="http://www.w3.org/2000/svg" id="svg28" width="36" height="36" version="1.1"><metadata id="metadata32"/><g id="id0:id0" transform="translate(0.0,0.0)"><g id="id0:id0:id0" transform="matrix(0.999999972222,0,0,0.999999972222,0.0,0.0)"><path id="id0:id0:path1280" d="m 25.324091,7.7834367 c 0.282494,0.097642 0.106583,0.4754702 0.131045,0.6985298 -0.085,0.6865758 -0.02686,1.378406 -0.108297,2.0629855 -0.181963,0.247548 -0.443497,-0.08477 -0.63982,-0.160295 -0.420833,-0.255398 -0.905191,-0.4070797 -1.301974,-0.6976916 -0.08822,-0.2520539 0.211564,-0.4468667 0.338521,-0.6380388 0.484516,-0.4493244 0.963507,-0.9376892 1.540999,-1.262345 l 0.03429,-0.00323 z" style="color:#000;clip-rule:nonzero;display:inline;overflow:visible;visibility:visible;opacity:1;isolation:auto;mix-blend-mode:normal;color-interpolation:sRGB;color-interpolation-filters:linearRGB;solid-color:#000;solid-opacity:1;vector-effect:none;fill:#432;fill-opacity:1;fill-rule:nonzero;stroke:none;stroke-width:2.02748466;stroke-linecap:round;stroke-linejoin:round;stroke-miterlimit:4;stroke-dasharray:none;stroke-dashoffset:0;stroke-opacity:0;marker:none;marker-start:none;marker-mid:none;marker-end:none;paint-order:stroke fill markers;color-rendering:auto;image-rendering:auto;shape-rendering:auto;text-rendering:auto;enable-background:accumulate"/><path id="id0:id0:path1282" d="m 10.662396,7.7245174 c 0.427125,0.253813 0.805647,0.6191293 1.201948,0.9319518 0.315649,0.2891336 0.657855,0.6046418 0.806,1.0094238 -0.266327,0.2816495 -0.704281,0.359509 -1.035231,0.568693 -0.293361,0.102245 -0.990488,1.782616 -1.305997,1.786161 C 10.126242,11.792352 8.732548,11.284634 8.668435,10.999644 8.629731,10.369538 10.554329,8.475642 10.49235,7.8545162 10.507,7.7731572 10.58288,7.7225132 10.662396,7.7245174 Z" style="color:#000;clip-rule:nonzero;display:inline;overflow:visible;visibility:visible;opacity:1;isolation:auto;mix-blend-mode:normal;color-interpolation:sRGB;color-interpolation-filters:linearRGB;solid-color:#000;solid-opacity:1;vector-effect:none;fill:#432;fill-opacity:1;fill-rule:nonzero;stroke:none;stroke-width:2.02748466;stroke-linecap:round;stroke-linejoin:round;stroke-miterlimit:4;stroke-dasharray:none;stroke-dashoffset:0;stroke-opacity:0;marker:none;marker-start:none;marker-mid:none;marker-end:none;paint-order:stroke fill markers;color-rendering:auto;image-rendering:auto;shape-rendering:auto;text-rendering:auto;enable-background:accumulate"/><path id="id0:id0:path1272" d="m 24.285509,8.6601936 c 0,0 -0.697798,0.5904437 -0.912505,1.1808871 -0.214707,0.5904413 -0.429412,1.8786813 -0.429412,1.8786813 l -1.234563,-1.127208 c 0,0 1.449268,-1.8786836 1.717652,-2.2007436 0.268383,-0.3220598 0.858828,0.2683832 0.858828,0.2683832 z" style="fill:#743;fill-opacity:1;fill-rule:evenodd;stroke:none;stroke-width:.21868676px;stroke-linecap:butt;stroke-linejoin:miter;stroke-opacity:1"/><path style="fill:#743;fill-opacity:1;fill-rule:evenodd;stroke:none;stroke-width:.21868676px;stroke-linecap:butt;stroke-linejoin:miter;stroke-opacity:1" id="id0:id0:path1274" d="m 11.72517,8.6601936 c 0,0 0.697796,0.5904437 0.912504,1.1808871 0.214707,0.5904413 0.429414,1.8786813 0.429414,1.8786813 l 2.093388,-1.127208 c 0,0 -0.610808,-1.5871725 -0.879191,-1.9092323 C 14.012904,8.3612616 11.72517,8.660188 11.72517,8.660188 Z"/><path id="id0:id0:path1084" d="m 13.663834,9.2689057 c -1.203194,0.3197728 -2.2848,0.9291293 -3.346725,1.5444493 -2.3554162,1.364816 -4.977554,3.325147 -5.9017248,5.873703 -0.4062872,1.120405 -0.7564462,2.286591 -1.0204854,3.459808 -0.3607752,1.351507 -0.4900257,2.767823 -0.941023,4.090592 -0.6591135,0.499584 -1.52897871,0.796131 -2.30117733,1.174238 -0.16543323,0.08101 0.0436289,0.415288 0.19062834,0.713295 0.13644608,0.276616 0.29504054,0.583429 0.39117424,0.746849 0.64236355,1.091958 1.07409955,1.441073 1.81871085,2.217351 -0.4423594,0.05742 -1.1719993,-0.447178 -1.57931236,-0.245259 -0.15911201,0.52332 0.59778026,1.545113 0.93142046,1.87369 1.225348,0.780583 2.3528948,1.452092 3.490969,2.224905 1.8472446,1.154688 4.0612434,1.937517 5.957792,2.355273 1.544064,0.337154 3.074489,0.430722 4.645404,0.554512 1.872401,0.147545 3.757351,4.37e-4 5.62492,-0.103213 1.182281,-0.06569 2.419596,-0.304675 3.574227,-0.539347 2.077946,-0.422323 3.734183,-1.408724 5.538039,-2.37516 1.324441,-1.013594 3.065778,-1.957811 3.980842,-3.202018 0.414425,-0.563502 0.163786,-0.625884 -0.241328,-0.557339 -0.342098,0.05788 -0.836533,0.04992 -1.105637,-0.006 0.382688,-0.442851 0.756311,-0.896593 1.1153,-1.361369 0.412633,-0.592689 1.738538,-2.087097 1.318275,-2.359716 -0.729559,-0.473218 -1.644232,-0.52133 -2.351435,-1.136526 -0.313413,-0.989673 -0.448335,-2.032796 -0.649837,-3.051534 -0.348772,-1.464015 -0.734686,-2.92557 -1.274464,-4.327477 -1.138903,-2.957971 -3.6291,-4.354306 -6.010101,-6.079934 C 24.52504,10.03286 23.37644,9.5229667 22.168894,9.2435507 19.407366,8.6045549 16.225,8.5882144 13.663834,9.2688923 Z" style="color:#000;clip-rule:nonzero;display:inline;overflow:visible;visibility:visible;opacity:1;isolation:auto;mix-blend-mode:normal;color-interpolation:sRGB;color-interpolation-filters:linearRGB;solid-color:#000;solid-opacity:1;vector-effect:none;fill:#eb7;fill-opacity:1;fill-rule:nonzero;stroke:none;stroke-width:2.02748466;stroke-linecap:round;stroke-linejoin:round;stroke-miterlimit:4;stroke-dasharray:none;stroke-dashoffset:0;stroke-opacity:0;marker:none;marker-start:none;marker-mid:none;marker-end:none;paint-order:stroke fill markers;color-rendering:auto;image-rendering:auto;shape-rendering:auto;text-rendering:auto;enable-background:accumulate"/><path id="id0:id0:path873" d="m 17.172917,22.395447 c -2.059147,0.92484 -6.224258,1.745801 -7.2110904,4.478572 -0.9868336,2.73277 -0.1550297,7.371986 7.5147934,7.590825 0.731302,0.02087 1.473739,0.07654 2.12579,0 7.742923,-0.909015 8.501628,-4.858055 7.514793,-7.590825 -0.688149,-1.905651 -4.569011,-3.635006 -7.268746,-4.323466 -1.17178,-0.298818 -1.860619,-0.521119 -2.67554,-0.155106 z" style="opacity:1;fill:#f7e7a7;fill-opacity:1;fill-rule:evenodd;stroke:none;stroke-width:.21868676px;stroke-linecap:butt;stroke-linejoin:miter;stroke-opacity:1"/><path id="id0:id0:path1117" d="M 6.8181924,5.958764 C 6.3556062,5.9619852 5.8221878,5.9872205 5.4337192,6.2541012 5.183754,6.907861 4.9180192,7.5594356 4.65729,8.2075251 4.271233,9.1671375 3.5273153,9.8976674 2.8680424,10.66935 1.975358,11.714242 0.57056235,14.14964 1.151314,14.960088 c 0.5359068,0.747863 1.4143853,1.186764 2.2211162,1.611312 0.6426721,0.338215 1.2031058,0.880603 1.91377,1.012485 0.602867,0.111876 1.1162886,-0.17384 1.6640048,-0.701719 1.7834652,-1.718867 4.65154,-2.059337 3.570095,-4.219136 -0.7878332,-1.573416 -0.7406849,-3.2357463 0.102,-4.8388303 0.61719,0.4185311 1.155639,1.0701848 1.889454,1.2409533 0.349095,0.081237 2.066253,0.2759449 1.833412,-0.2730485 C 13.89298,7.7259285 11.754621,6.0126558 10.739605,5.7907253 10.394379,5.7152472 9.5848172,6.5394364 9.1930277,6.474284 8.2168627,6.311946 7.6557976,5.9530257 6.8181924,5.958764 Z" style="color:#000;clip-rule:nonzero;display:inline;overflow:visible;visibility:visible;opacity:1;isolation:auto;mix-blend-mode:normal;color-interpolation:sRGB;color-interpolation-filters:linearRGB;solid-color:#000;solid-opacity:1;vector-effect:none;fill:#743;fill-opacity:1;fill-rule:nonzero;stroke:red;stroke-width:2.02748466;stroke-linecap:round;stroke-linejoin:round;stroke-miterlimit:4;stroke-dasharray:none;stroke-dashoffset:0;stroke-opacity:0;marker:none;marker-start:none;marker-mid:none;marker-end:none;paint-order:stroke fill markers;color-rendering:auto;image-rendering:auto;shape-rendering:auto;text-rendering:auto;enable-background:accumulate"/><path style="color:#000;clip-rule:nonzero;display:inline;overflow:visible;visibility:visible;opacity:1;isolation:auto;mix-blend-mode:normal;color-interpolation:sRGB;color-interpolation-filters:linearRGB;solid-color:#000;solid-opacity:1;vector-effect:none;fill:#743;fill-opacity:1;fill-rule:nonzero;stroke:red;stroke-width:2.02748466;stroke-linecap:round;stroke-linejoin:round;stroke-miterlimit:4;stroke-dasharray:none;stroke-dashoffset:0;stroke-opacity:0;marker:none;marker-start:none;marker-mid:none;marker-end:none;paint-order:stroke fill markers;color-rendering:auto;image-rendering:auto;shape-rendering:auto;text-rendering:auto;enable-background:accumulate" id="id0:id0:path1139" d="m 29.181805,5.958764 c 0.462588,0.00323 0.996005,0.028456 1.384474,0.2953372 0.249967,0.6537598 0.515704,1.3053344 0.776429,1.9534239 0.386056,0.9596124 1.129977,1.6901423 1.789246,2.4618249 0.892684,1.044892 2.297484,3.48029 1.716732,4.290738 -0.535908,0.747863 -1.414386,1.186764 -2.221117,1.611312 -0.642674,0.338215 -1.203104,0.880603 -1.913772,1.012485 -0.602866,0.111876 -1.116284,-0.17384 -1.664001,-0.701719 C 27.266331,15.163299 26.053876,15.009213 25.4797,12.66303 25.09464,11.089614 25.250247,9.4272837 25.377689,7.8241997 24.7605,8.2427308 24.222051,8.8943845 23.488236,9.065153 23.139142,9.14639 23.193431,8.572034 23.381192,8.3832961 23.904551,7.5613486 24.486916,6.549422 25.501934,6.3274922 25.84716,6.2520132 26.41518,6.5394364 26.806967,6.474284 27.783132,6.311946 28.344201,5.9530257 29.1818,5.958764 Z"/><path style="color:#000;clip-rule:nonzero;display:inline;overflow:visible;visibility:visible;opacity:1;isolation:auto;mix-blend-mode:normal;color-interpolation:sRGB;color-interpolation-filters:linearRGB;solid-color:#000;solid-opacity:1;vector-effect:none;fill:#432;fill-opacity:1;fill-rule:nonzero;stroke:red;stroke-width:2.02748466;stroke-linecap:round;stroke-linejoin:round;stroke-miterlimit:4;stroke-dasharray:none;stroke-dashoffset:0;stroke-opacity:0;marker:none;marker-start:none;marker-mid:none;marker-end:none;paint-order:stroke fill markers;color-rendering:auto;image-rendering:auto;shape-rendering:auto;text-rendering:auto;enable-background:accumulate" id="id0:id0:id1:path1022" d="m 17.06856,21.854904 c -0.506469,0.102041 -1.017936,0.397303 -1.257874,0.900373 -0.606494,1.271617 0.261992,1.613129 1.594684,1.952252 0.320581,0.08158 0.740341,0.09125 0.963729,0.09665 0.27957,0.0068 0.460649,0.0091 0.725732,-0.0397 1.352534,-0.248429 2.352996,-0.737568 1.746504,-2.009184 -0.239938,-0.503071 -0.751715,-0.79681 -1.257875,-0.900374 -0.783327,-0.160276 -1.692361,-0.165725 -2.5149,0 z"/></g><g id="id0:id1:id1" transform="matrix(0.999999972222,0,0,0.999999972222,0.0,0.0)"><ellipse id="id0:id1:ellipse1355" cx="18.48" cy="8.705" rx="2.039" ry="1.208" transform="rotate(27.658315)" style="color:#000;clip-rule:nonzero;display:inline;overflow:visible;visibility:visible;opacity:1;isolation:auto;mix-blend-mode:normal;color-interpolation:sRGB;color-interpolation-filters:linearRGB;solid-color:#000;solid-opacity:1;vector-effect:none;fill:#f7e7a7;fill-opacity:1;fill-rule:nonzero;stroke:none;stroke-width:1.3121208;stroke-linecap:round;stroke-linejoin:round;stroke-miterlimit:4;stroke-dasharray:none;stroke-dashoffset:0;stroke-opacity:1;marker:none;marker-start:none;marker-mid:none;marker-end:none;paint-order:stroke fill markers;color-rendering:auto;image-rendering:auto;shape-rendering:auto;text-rendering:auto;enable-background:accumulate"/><ellipse transform="rotate(-29.834267)" style="color:#000;clip-rule:nonzero;display:inline;overflow:visible;visibility:visible;opacity:1;isolation:auto;mix-blend-mode:normal;color-interpolation:sRGB;color-interpolation-filters:linearRGB;solid-color:#000;solid-opacity:1;vector-effect:none;fill:#f7e7a7;fill-opacity:1;fill-rule:nonzero;stroke:none;stroke-width:1.3121208;stroke-linecap:round;stroke-linejoin:round;stroke-miterlimit:4;stroke-dasharray:none;stroke-dashoffset:0;stroke-opacity:1;marker:none;marker-start:none;marker-mid:none;marker-end:none;paint-order:stroke fill markers;color-rendering:auto;image-rendering:auto;shape-rendering:auto;text-rendering:auto;enable-background:accumulate" id="id0:id1:ellipse1366" cx="12.704" cy="25.919" rx="2.195" ry="1.208"/><path style="opacity:1;vector-effect:none;fill:none;fill-opacity:1;fill-rule:evenodd;stroke:#432;stroke-width:1.3121208;stroke-linecap:round;stroke-linejoin:round;stroke-miterlimit:4;stroke-dasharray:none;stroke-dashoffset:0;stroke-opacity:1" id="id0:id1:path4163" d="m 6.9831084,19.693099 6.8037756,0.548209"/><path id="id0:id1:path4174" d="M 22.807632,20.113179 29.58736,19.321228" style="opacity:1;vector-effect:none;fill:none;fill-opacity:1;fill-rule:evenodd;stroke:#432;stroke-width:1.3121208;stroke-linecap:round;stroke-linejoin:round;stroke-miterlimit:4;stroke-dasharray:none;stroke-dashoffset:0;stroke-opacity:1"/></g></g><g id="id1:id1" transform="matrix(0.999999972222,0,0,0.999999972222,0.0,0.0)"><path id="id1:path1324" d="m 18.336099,23.951417 c 0.05804,0.151821 -0.0041,3.354282 -0.10045,4.078914" style="fill:none;fill-opacity:1;fill-rule:evenodd;stroke:#432;stroke-width:1.3121208;stroke-linecap:round;stroke-linejoin:round;stroke-miterlimit:4;stroke-dasharray:none;stroke-opacity:1"/><path id="id1:path1326" d="m 12.16251,29.711636 c 0.434693,-1.071543 1.884046,-2.889564 3.10323,-2.273727 1.008825,0.50958 2.137215,1.118002 3.155301,1.273235 2.154113,0.328449 2.183039,-1.42603 3.246652,-1.473735 1.063614,-0.04771 1.919833,1.241523 2.439789,1.922862" style="opacity:1;vector-effect:none;fill:none;fill-opacity:1;fill-rule:evenodd;stroke:#432;stroke-width:1.3121208;stroke-linecap:round;stroke-linejoin:round;stroke-miterlimit:4;stroke-dasharray:none;stroke-dashoffset:0;stroke-opacity:1"/></g></svg>