<svg xmlns="http://www.w3.org/2000/svg" xmlns:svg="http://www.w3.org/2000/svg" id="svg35" width="36" height="36" version="1.1"><metadata id="metadata39"/><g id="id0:id0" transform="translate(0.0,0.0)"><g id="id0:id0:id0" transform="matrix(0.999999972222,0,0,0.999999972222,0.0,0.0)"><path id="id0:id0:path1280" d="m 25.324091,7.7834367 c 0.282494,0.097642 0.106583,0.4754702 0.131045,0.6985298 -0.085,0.6865758 -0.02686,1.378406 -0.108297,2.0629855 -0.181963,0.247548 -0.443497,-0.08477 -0.63982,-0.160295 -0.420833,-0.255398 -0.905191,-0.4070797 -1.301974,-0.6976916 -0.08822,-0.2520539 0.211564,-0.4468667 0.338521,-0.6380388 0.484516,-0.4493244 0.963507,-0.9376892 1.540999,-1.262345 l 0.03429,-0.00323 z" style="color:#000;clip-rule:nonzero;display:inline;overflow:visible;visibility:visible;opacity:1;isolation:auto;mix-blend-mode:normal;color-interpolation:sRGB;color-interpolation-filters:linearRGB;solid-color:#000;solid-opacity:1;vector-effect:none;fill:#432;fill-opacity:1;fill-rule:nonzero;stroke:none;stroke-width:2.02748466;stroke-linecap:round;stroke-linejoin:round;stroke-miterlimit:4;stroke-dasharray:none;stroke-dashoffset:0;stroke-opacity:0;marker:none;marker-start:none;marker-mid:none;marker-end:none;paint-order:stroke fill markers;color-rendering:auto;image-rendering:auto;shape-rendering:auto;text-rendering:auto;enable-background:accumulate"/><path id="id0:id0:path1282" d="m 10.662396,7.7245174 c 0.427125,0.253813 0.805647,0.6191293 1.201948,0.9319518 0.315649,0.2891336 0.657855,0.6046418 0.806,1.0094238 -0.266327,0.2816495 -0.704281,0.359509 -1.035231,0.568693 -0.293361,0.102245 -0.990488,1.782616 -1.305997,1.786161 C 10.126242,11.792352 8.732548,11.284634 8.668435,10.999644 8.629731,10.369538 10.554329,8.475642 10.49235,7.8545162 10.507,7.7731572 10.58288,7.7225132 10.662396,7.7245174 Z" style="color:#000;clip-rule:nonzero;display:inline;overflow:visible;visibility:visible;opacity:1;isolation:auto;mix-blend-mode:normal;color-interpolation:sRGB;color-interpolation-filters:linearRGB;solid-color:#000;solid-opacity:1;vector-effect:none;fill:#432;fill-opacity:1;fill-rule:nonzero;stroke:none;stroke-width:2.02748466;stroke-linecap:round;stroke-linejoin:round;stroke-miterlimit:4;stroke-dasharray:none;stroke-dashoffset:0;stroke-opacity:0;marker:none;marker-start:none;marker-mid:none;marker-end:none;paint-order:stroke fill markers;color-rendering:auto;image-rendering:auto;shape-rendering:auto;text-rendering:auto;enable-background:accumulate"/><path id="id0:id0:path1272" d="m 24.285509,8.6601936 c 0,0 -0.697798,0.5904437 -0.912505,1.1808871 -0.214707,0.5904413 -0.429412,1.8786813 -0.429412,1.8786813 l -1.234563,-1.127208 c 0,0 1.449268,-1.8786836 1.717652,-2.2007436 0.268383,-0.3220598 0.858828,0.2683832 0.858828,0.2683832 z" style="fill:#743;fill-opacity:1;fill-rule:evenodd;stroke:none;stroke-width:.21868676px;stroke-linecap:butt;stroke-linejoin:miter;stroke-opacity:1"/><path style="fill:#743;fill-opacity:1;fill-rule:evenodd;stroke:none;stroke-width:.21868676px;stroke-linecap:butt;stroke-linejoin:miter;stroke-opacity:1" id="id0:id0:path1274" d="m 11.72517,8.6601936 c 0,0 0.697796,0.5904437 0.912504,1.1808871 0.214707,0.5904413 0.429414,1.8786813 0.429414,1.8786813 l 2.093388,-1.127208 c 0,0 -0.610808,-1.5871725 -0.879191,-1.9092323 C 14.012904,8.3612616 11.72517,8.660188 11.72517,8.660188 Z"/><path id="id0:id0:path1084" d="m 13.663834,9.2689057 c -1.203194,0.3197728 -2.2848,0.9291293 -3.346725,1.5444493 -2.3554162,1.364816 -4.977554,3.325147 -5.9017248,5.873703 -0.4062872,1.120405 -0.7564462,2.286591 -1.0204854,3.459808 -0.3607752,1.351507 -0.4900257,2.767823 -0.941023,4.090592 -0.6591135,0.499584 -1.52897871,0.796131 -2.30117733,1.174238 -0.16543323,0.08101 0.0436289,0.415288 0.19062834,0.713295 0.13644608,0.276616 0.29504054,0.583429 0.39117424,0.746849 0.64236355,1.091958 1.07409955,1.441073 1.81871085,2.217351 -0.4423594,0.05742 -1.1719993,-0.447178 -1.57931236,-0.245259 -0.15911201,0.52332 0.59778026,1.545113 0.93142046,1.87369 1.225348,0.780583 2.3528948,1.452092 3.490969,2.224905 1.8472446,1.154688 4.0612434,1.937517 5.957792,2.355273 1.544064,0.337154 3.074489,0.430722 4.645404,0.554512 1.872401,0.147545 3.757351,4.37e-4 5.62492,-0.103213 1.182281,-0.06569 2.419596,-0.304675 3.574227,-0.539347 2.077946,-0.422323 3.734183,-1.408724 5.538039,-2.37516 1.324441,-1.013594 3.065778,-1.957811 3.980842,-3.202018 0.414425,-0.563502 0.163786,-0.625884 -0.241328,-0.557339 -0.342098,0.05788 -0.836533,0.04992 -1.105637,-0.006 0.382688,-0.442851 0.756311,-0.896593 1.1153,-1.361369 0.412633,-0.592689 1.738538,-2.087097 1.318275,-2.359716 -0.729559,-0.473218 -1.644232,-0.52133 -2.351435,-1.136526 -0.313413,-0.989673 -0.448335,-2.032796 -0.649837,-3.051534 -0.348772,-1.464015 -0.734686,-2.92557 -1.274464,-4.327477 -1.138903,-2.957971 -3.6291,-4.354306 -6.010101,-6.079934 C 24.52504,10.03286 23.37644,9.5229667 22.168894,9.2435507 19.407366,8.6045549 16.225,8.5882144 13.663834,9.2688923 Z" style="color:#000;clip-rule:nonzero;display:inline;overflow:visible;visibility:visible;opacity:1;isolation:auto;mix-blend-mode:normal;color-interpolation:sRGB;color-interpolation-filters:linearRGB;solid-color:#000;solid-opacity:1;vector-effect:none;fill:#eb7;fill-opacity:1;fill-rule:nonzero;stroke:none;stroke-width:2.02748466;stroke-linecap:round;stroke-linejoin:round;stroke-miterlimit:4;stroke-dasharray:none;stroke-dashoffset:0;stroke-opacity:0;marker:none;marker-start:none;marker-mid:none;marker-end:none;paint-order:stroke fill markers;color-rendering:auto;image-rendering:auto;shape-rendering:auto;text-rendering:auto;enable-background:accumulate"/><path id="id0:id0:path873" d="m 17.172917,22.395447 c -2.059147,0.92484 -6.224258,1.745801 -7.2110904,4.478572 -0.9868336,2.73277 -0.1550297,7.371986 7.5147934,7.590825 0.731302,0.02087 1.473739,0.07654 2.12579,0 7.742923,-0.909015 8.501628,-4.858055 7.514793,-7.590825 -0.688149,-1.905651 -4.569011,-3.635006 -7.268746,-4.323466 -1.17178,-0.298818 -1.860619,-0.521119 -2.67554,-0.155106 z" style="opacity:1;fill:#f7e7a7;fill-opacity:1;fill-rule:evenodd;stroke:none;stroke-width:.21868676px;stroke-linecap:butt;stroke-linejoin:miter;stroke-opacity:1"/><path id="id0:id0:path1117" d="M 6.8181924,5.958764 C 6.3556062,5.9619852 5.8221878,5.9872205 5.4337192,6.2541012 5.183754,6.907861 4.9180192,7.5594356 4.65729,8.2075251 4.271233,9.1671375 3.5273153,9.8976674 2.8680424,10.66935 1.975358,11.714242 0.57056235,14.14964 1.151314,14.960088 c 0.5359068,0.747863 1.4143853,1.186764 2.2211162,1.611312 0.6426721,0.338215 1.2031058,0.880603 1.91377,1.012485 0.602867,0.111876 1.1162886,-0.17384 1.6640048,-0.701719 1.7834652,-1.718867 4.65154,-2.059337 3.570095,-4.219136 -0.7878332,-1.573416 -0.7406849,-3.2357463 0.102,-4.8388303 0.61719,0.4185311 1.155639,1.0701848 1.889454,1.2409533 0.349095,0.081237 2.066253,0.2759449 1.833412,-0.2730485 C 13.89298,7.7259285 11.754621,6.0126558 10.739605,5.7907253 10.394379,5.7152472 9.5848172,6.5394364 9.1930277,6.474284 8.2168627,6.311946 7.6557976,5.9530257 6.8181924,5.958764 Z" style="color:#000;clip-rule:nonzero;display:inline;overflow:visible;visibility:visible;opacity:1;isolation:auto;mix-blend-mode:normal;color-interpolation:sRGB;color-interpolation-filters:linearRGB;solid-color:#000;solid-opacity:1;vector-effect:none;fill:#743;fill-opacity:1;fill-rule:nonzero;stroke:red;stroke-width:2.02748466;stroke-linecap:round;stroke-linejoin:round;stroke-miterlimit:4;stroke-dasharray:none;stroke-dashoffset:0;stroke-opacity:0;marker:none;marker-start:none;marker-mid:none;marker-end:none;paint-order:stroke fill markers;color-rendering:auto;image-rendering:auto;shape-rendering:auto;text-rendering:auto;enable-background:accumulate"/><path style="color:#000;clip-rule:nonzero;display:inline;overflow:visible;visibility:visible;opacity:1;isolation:auto;mix-blend-mode:normal;color-interpolation:sRGB;color-interpolation-filters:linearRGB;solid-color:#000;solid-opacity:1;vector-effect:none;fill:#743;fill-opacity:1;fill-rule:nonzero;stroke:red;stroke-width:2.02748466;stroke-linecap:round;stroke-linejoin:round;stroke-miterlimit:4;stroke-dasharray:none;stroke-dashoffset:0;stroke-opacity:0;marker:none;marker-start:none;marker-mid:none;marker-end:none;paint-order:stroke fill markers;color-rendering:auto;image-rendering:auto;shape-rendering:auto;text-rendering:auto;enable-background:accumulate" id="id0:id0:path1139" d="m 29.181805,5.958764 c 0.462588,0.00323 0.996005,0.028456 1.384474,0.2953372 0.249967,0.6537598 0.515704,1.3053344 0.776429,1.9534239 0.386056,0.9596124 1.129977,1.6901423 1.789246,2.4618249 0.892684,1.044892 2.297484,3.48029 1.716732,4.290738 -0.535908,0.747863 -1.414386,1.186764 -2.221117,1.611312 -0.642674,0.338215 -1.203104,0.880603 -1.913772,1.012485 -0.602866,0.111876 -1.116284,-0.17384 -1.664001,-0.701719 C 27.266331,15.163299 26.053876,15.009213 25.4797,12.66303 25.09464,11.089614 25.250247,9.4272837 25.377689,7.8241997 24.7605,8.2427308 24.222051,8.8943845 23.488236,9.065153 23.139142,9.14639 23.193431,8.572034 23.381192,8.3832961 23.904551,7.5613486 24.486916,6.549422 25.501934,6.3274922 25.84716,6.2520132 26.41518,6.5394364 26.806967,6.474284 27.783132,6.311946 28.344201,5.9530257 29.1818,5.958764 Z"/><path style="color:#000;clip-rule:nonzero;display:inline;overflow:visible;visibility:visible;opacity:1;isolation:auto;mix-blend-mode:normal;color-interpolation:sRGB;color-interpolation-filters:linearRGB;solid-color:#000;solid-opacity:1;vector-effect:none;fill:#432;fill-opacity:1;fill-rule:nonzero;stroke:red;stroke-width:2.02748466;stroke-linecap:round;stroke-linejoin:round;stroke-miterlimit:4;stroke-dasharray:none;stroke-dashoffset:0;stroke-opacity:0;marker:none;marker-start:none;marker-mid:none;marker-end:none;paint-order:stroke fill markers;color-rendering:auto;image-rendering:auto;shape-rendering:auto;text-rendering:auto;enable-background:accumulate" id="id0:id0:id1:path1022" d="m 17.06856,21.854904 c -0.506469,0.102041 -1.017936,0.397303 -1.257874,0.900373 -0.606494,1.271617 0.261992,1.613129 1.594684,1.952252 0.320581,0.08158 0.740341,0.09125 0.963729,0.09665 0.27957,0.0068 0.460649,0.0091 0.725732,-0.0397 1.352534,-0.248429 2.352996,-0.737568 1.746504,-2.009184 -0.239938,-0.503071 -0.751715,-0.79681 -1.257875,-0.900374 -0.783327,-0.160276 -1.692361,-0.165725 -2.5149,0 z"/></g><g id="id0:id1:id1" transform="matrix(0.999999972222,0,0,0.999999972222,0.0,0.0)"><g id="id0:id1:g992"><path style="fill:#fff;fill-rule:evenodd;stroke:none;stroke-width:.99999994px;stroke-linecap:butt;stroke-linejoin:miter;stroke-opacity:1" id="id0:id1:path958" d="M 14.830172,21.371804 13.425342,17.68556 10.391674,17.350845 7.3018258,17.68556 4.8861271,21.925268 c 0,0 0.1123577,1.785139 1.7977294,2.566138 1.6853712,0.780999 4.8752905,0.200678 6.3359445,-0.803463 1.460656,-1.004141 1.810371,-2.316139 1.810371,-2.316139 z"/><path style="fill:#1296c0;fill-opacity:1;fill-rule:evenodd;stroke:none;stroke-width:.99999994px;stroke-linecap:butt;stroke-linejoin:miter;stroke-opacity:1" id="id0:id1:path960" d="m 9.3662185,16.504275 c 0,0 -1.3904028,2.235568 -1.2359397,3.57028 0.3134022,2.708108 1.9289532,3.070277 3.4831022,2.900852 1.463418,-0.159534 2.414443,-0.792485 2.808952,-2.119853 0.395874,-1.33196 -0.273245,-2.004549 -1.212345,-3.011691 l -1.622701,-0.68016 z"/><path style="color:#000;font-style:normal;font-variant:normal;font-weight:400;font-stretch:normal;font-size:medium;line-height:normal;font-family:sans-serif;font-variant-ligatures:normal;font-variant-position:normal;font-variant-caps:normal;font-variant-numeric:normal;font-variant-alternates:normal;font-feature-settings:normal;text-indent:0;text-align:start;text-decoration:none;text-decoration-line:none;text-decoration-style:solid;text-decoration-color:#000;letter-spacing:normal;word-spacing:normal;text-transform:none;writing-mode:lr-tb;direction:ltr;text-orientation:mixed;dominant-baseline:auto;baseline-shift:baseline;text-anchor:start;white-space:normal;shape-padding:0;clip-rule:nonzero;display:inline;overflow:visible;visibility:visible;opacity:1;isolation:auto;mix-blend-mode:normal;color-interpolation:sRGB;color-interpolation-filters:linearRGB;solid-color:#000;solid-opacity:1;vector-effect:none;fill:#4e436b;fill-opacity:1;fill-rule:evenodd;stroke:none;stroke-width:.93354332;stroke-linecap:round;stroke-linejoin:round;stroke-miterlimit:4;stroke-dasharray:none;stroke-dashoffset:0;stroke-opacity:1;color-rendering:auto;image-rendering:auto;shape-rendering:auto;text-rendering:auto;enable-background:accumulate" id="id0:id1:path917" d="m 10.310547,16.507812 c -0.3970785,-0.0213 -0.7714229,-0.01329 -1.1210939,0.01953 -0.699341,0.06564 -1.3048863,0.233664 -1.828125,0.482422 -1.046477,0.497515 -1.7249635,1.305126 -2.140625,2.125 -0.3968128,0.782696 -0.6446718,1.545189 -0.8027343,2.138672 -0.649756,-0.04521 -1.6349334,-0.133325 -2.3886719,-0.382813 -0.7202979,-0.238418 1.1837894,1.491201 2.3411841,1.799268 0.5384296,0.143315 1.2789305,0.397524 1.3228784,0.04253 0.4044545,-3.26704 2.3932252,-5.600103 5.4999996,-5.080078 1.341274,0.224508 2.609496,1.036356 2.972657,2.113281 0.363162,1.076925 0.359375,1.451172 0.359375,1.451172 0.18947,0.714087 0.617721,0.536034 0.572265,0.05859 0,0 0.164882,-0.205849 -0.269531,-1.494141 -0.434438,-1.288293 -1.389807,-2.783144 -3.253906,-3.121094 -0.445491,-0.08076 -0.866594,-0.131047 -1.263672,-0.152344 z"/><path style="fill:#8bf5f2;fill-opacity:1;fill-rule:evenodd;stroke:none;stroke-width:.99999994px;stroke-linecap:butt;stroke-linejoin:miter;stroke-opacity:1" id="id0:id1:path962" d="m 9.0700666,19.922688 0.75411,-0.678234 c 0,0 -0.0086,1.814054 1.2496054,1.718738 1.456903,-0.134762 1.658824,-1.627136 1.658824,-1.627136 l 1.109826,0.361788 c 0,0 -0.623178,1.929009 -2.25272,2.546791 -1.6295434,0.617781 -2.5196467,-2.321949 -2.5196467,-2.321949 z"/></g><g id="id0:id1:g1002" transform="matrix(-1,0,0,1,36.267924,0)"><path id="id0:id1:path994" d="M 14.830172,21.371804 13.425342,17.68556 10.391674,17.350845 7.3018258,17.68556 4.8861271,21.925268 c 0,0 0.1123577,1.785139 1.7977294,2.566138 1.6853712,0.780999 4.8752905,0.200678 6.3359445,-0.803463 1.460656,-1.004141 1.810371,-2.316139 1.810371,-2.316139 z" style="fill:#fff;fill-rule:evenodd;stroke:none;stroke-width:.99999994px;stroke-linecap:butt;stroke-linejoin:miter;stroke-opacity:1"/><path id="id0:id1:path996" d="m 7.5100632,17.520741 c 0,0 -1.5671795,1.395879 -1.4127164,2.730591 0.3134022,2.708108 1.9289528,3.070277 3.4831021,2.900852 1.4634181,-0.159534 2.4144431,-0.792485 2.8089521,-2.119853 0.395874,-1.33196 0.699027,-2.667462 -0.814597,-4.072351 L 9.4217724,16.81015 Z" style="fill:#1296c0;fill-opacity:1;fill-rule:evenodd;stroke:none;stroke-width:.99999994px;stroke-linecap:butt;stroke-linejoin:miter;stroke-opacity:1"/><path id="id0:id1:path998" d="m 10.310547,16.507812 c -0.3970785,-0.0213 -0.7714229,-0.01329 -1.1210939,0.01953 -0.699341,0.06564 -1.3048863,0.233664 -1.828125,0.482422 -1.046477,0.497515 -1.7249635,1.305126 -2.140625,2.125 -0.3968128,0.782696 -0.6446718,1.545189 -0.8027343,2.138672 -0.649756,-0.04521 -1.6349334,-0.133325 -2.3886719,-0.382813 -0.7202979,-0.238418 1.1837894,1.491201 2.3411841,1.799268 0.5384296,0.143315 1.2789305,0.397524 1.3228784,0.04253 0.4044545,-3.26704 2.3932252,-5.600103 5.4999996,-5.080078 1.341274,0.224508 2.609496,1.036356 2.972657,2.113281 0.363162,1.076925 0.359375,1.451172 0.359375,1.451172 0.18947,0.714087 0.617721,0.536034 0.572265,0.05859 0,0 0.164882,-0.205849 -0.269531,-1.494141 -0.434438,-1.288293 -1.389807,-2.783144 -3.253906,-3.121094 -0.445491,-0.08076 -0.866594,-0.131047 -1.263672,-0.152344 z" style="color:#000;font-style:normal;font-variant:normal;font-weight:400;font-stretch:normal;font-size:medium;line-height:normal;font-family:sans-serif;font-variant-ligatures:normal;font-variant-position:normal;font-variant-caps:normal;font-variant-numeric:normal;font-variant-alternates:normal;font-feature-settings:normal;text-indent:0;text-align:start;text-decoration:none;text-decoration-line:none;text-decoration-style:solid;text-decoration-color:#000;letter-spacing:normal;word-spacing:normal;text-transform:none;writing-mode:lr-tb;direction:ltr;text-orientation:mixed;dominant-baseline:auto;baseline-shift:baseline;text-anchor:start;white-space:normal;shape-padding:0;clip-rule:nonzero;display:inline;overflow:visible;visibility:visible;opacity:1;isolation:auto;mix-blend-mode:normal;color-interpolation:sRGB;color-interpolation-filters:linearRGB;solid-color:#000;solid-opacity:1;vector-effect:none;fill:#4e436b;fill-opacity:1;fill-rule:evenodd;stroke:none;stroke-width:.93354332;stroke-linecap:round;stroke-linejoin:round;stroke-miterlimit:4;stroke-dasharray:none;stroke-dashoffset:0;stroke-opacity:1;color-rendering:auto;image-rendering:auto;shape-rendering:auto;text-rendering:auto;enable-background:accumulate"/><path id="id0:id1:path1000" d="m 7.0371346,20.099465 0.75411,-0.678234 c 0,0 -0.0086,1.814054 1.249605,1.718738 1.4569034,-0.134762 1.6588244,-1.627136 1.6588244,-1.627136 l 1.109826,0.361788 c 0,0 -0.623178,1.929009 -2.2527201,2.546791 -1.6295433,0.617781 -2.5196466,-2.321949 -2.5196466,-2.321949 z" style="fill:#8bf5f2;fill-opacity:1;fill-rule:evenodd;stroke:none;stroke-width:.99999994px;stroke-linecap:butt;stroke-linejoin:miter;stroke-opacity:1"/></g><path id="id0:id1:path1004" d="M -1.2374372,0.64466076 C -1.6121458,0.93761479 -4.443229,-0.84165069 -4.9185687,-0.82489411 -5.3939085,-0.80813754 -8.0926754,1.166065 -8.4870826,0.90022372 -8.8814897,0.63438241 -8.0641605,-2.607961 -8.226985,-3.0548579 c -0.1628245,-0.4468968 -2.874368,-2.4035145 -2.743416,-2.8607676 0.130952,-0.457253 3.467172,-0.6818659 3.8418806,-0.9748199 0.3747087,-0.2929541 1.3976498,-3.4764126 1.8729896,-3.4931696 0.4753397,-0.01676 1.7199081,3.0867685 2.1143153,3.3526098 0.3944071,0.2658414 3.73816258,0.2549733 3.9009871,0.7018702 0.16282451,0.4468968 -2.4042103,2.5895937 -2.5351619,3.0468467 -0.1309516,0.457253 0.91266174,3.63399501 0.5379531,3.92694906 z" transform="matrix(0.01236547,0.56158047,-0.56158047,0.01236547,18.736174,7.2736331)" style="color:#000;clip-rule:nonzero;display:inline;overflow:visible;visibility:visible;opacity:1;isolation:auto;mix-blend-mode:normal;color-interpolation:sRGB;color-interpolation-filters:linearRGB;solid-color:#000;solid-opacity:1;vector-effect:none;fill:#ef9fd0;fill-opacity:1;fill-rule:nonzero;stroke:#773368;stroke-width:1.66194713;stroke-linecap:round;stroke-linejoin:round;stroke-miterlimit:4;stroke-dasharray:none;stroke-dashoffset:0;stroke-opacity:1;marker:none;marker-start:none;marker-mid:none;marker-end:none;paint-order:stroke fill markers;color-rendering:auto;image-rendering:auto;shape-rendering:auto;text-rendering:auto;enable-background:accumulate"/><path style="color:#000;clip-rule:nonzero;display:inline;overflow:visible;visibility:visible;opacity:1;isolation:auto;mix-blend-mode:normal;color-interpolation:sRGB;color-interpolation-filters:linearRGB;solid-color:#000;solid-opacity:1;vector-effect:none;fill:#ef9fd0;fill-opacity:1;fill-rule:nonzero;stroke:#773368;stroke-width:.83681118;stroke-linecap:round;stroke-linejoin:round;stroke-miterlimit:4;stroke-dasharray:none;stroke-dashoffset:0;stroke-opacity:1;marker:none;marker-start:none;marker-mid:none;marker-end:none;paint-order:stroke fill markers;color-rendering:auto;image-rendering:auto;shape-rendering:auto;text-rendering:auto;enable-background:accumulate" id="id0:id1:path1006" d="M -1.2374372,0.64466076 C -1.6121458,0.93761479 -4.443229,-0.84165069 -4.9185687,-0.82489411 -5.3939085,-0.80813754 -8.0926754,1.166065 -8.4870826,0.90022372 -8.8814897,0.63438241 -8.0641605,-2.607961 -8.226985,-3.0548579 c -0.1628245,-0.4468968 -2.874368,-2.4035145 -2.743416,-2.8607676 0.130952,-0.457253 3.467172,-0.6818659 3.8418806,-0.9748199 0.3747087,-0.2929541 1.3976498,-3.4764126 1.8729896,-3.4931696 0.4753397,-0.01676 1.7199081,3.0867685 2.1143153,3.3526098 0.3944071,0.2658414 3.73816258,0.2549733 3.9009871,0.7018702 0.16282451,0.4468968 -2.4042103,2.5895937 -2.5351619,3.0468467 -0.1309516,0.457253 0.91266174,3.63399501 0.5379531,3.92694906 z" transform="matrix(0.74144341,0.83355651,-0.83355651,0.74144341,8.4772198,15.936128)"/></g></g><g id="id1:id1" transform="translate(0.0,0.0)"><path style="fill:none;fill-opacity:1;fill-rule:evenodd;stroke:#432;stroke-width:1.3121208;stroke-linecap:round;stroke-linejoin:round;stroke-miterlimit:4;stroke-dasharray:none;stroke-opacity:1" id="id1:id1:path1324" d="m 18.336099,23.951417 c 0.05804,0.151821 0.0584,2.729282 -0.03795,3.453914"/><path style="opacity:1;vector-effect:none;fill:none;fill-opacity:1;fill-rule:evenodd;stroke:#432;stroke-width:1.3121208;stroke-linecap:round;stroke-linejoin:round;stroke-miterlimit:4;stroke-dasharray:none;stroke-dashoffset:0;stroke-opacity:1" id="id1:id1:path1326" d="m 11.66251,27.530181 c 1.068151,1.59529 2.336316,2.342426 3.455304,2.148883 1.118989,-0.193542 2.466324,-1.165968 2.9917,-2.092959 0.272273,-0.480409 0.174289,-0.61266 0.539279,0.0074 0.472533,0.802706 2.080208,1.975994 3.143443,2.015121 1.200851,0.04419 2.587522,-0.736452 3.155288,-2.370984"/></g></svg>