<svg viewBox="0 0 24 24" xmlns="http://www.w3.org/2000/svg"><path d="m4.845.904c-.435 0-.82.28-.955.692-1.251 3.853-2.644 8.132-3.82 11.739a1.437 1.437 0 0 0 .522 1.607l11.071 8.045c.2.145.472.144.67-.004l11.073-8.04a1.436 1.436 0 0 0 .522-1.61c-1.285-3.942-2.683-8.256-3.817-11.746a1.004 1.004 0 0 0 -.957-.684.987.987 0 0 0 -.949.69l-2.405 7.408h-7.597l-2.41-7.408a.987.987 0 0 0 -.942-.69h-.006zm-.006 1.42 2.173 6.678h-4.337zm14.326 0 2.168 6.678h-4.341zm-10.593 7.81h6.862c-1.142 3.52-2.288 7.04-3.434 10.559l-3.428-10.558zm-5.514.005h4.321l3.086 9.5zm13.567 0h4.325c-2.467 3.17-4.95 6.328-7.411 9.502 1.028-3.167 2.059-6.334 3.086-9.502zm-14.525.623 6.977 8.947-7.817-5.682a.305.305 0 0 1 -.112-.341zm19.798 0 .952 2.922a.305.305 0 0 1 -.11.341v.002l-7.82 5.68.026-.035z" fill="#fca121"/></svg>