<svg viewBox="0 0 233 233" xmlns="http://www.w3.org/2000/svg" xmlns:xlink="http://www.w3.org/1999/xlink"><linearGradient id="a" x1="50%" x2="50%" y2="100%"><stop offset="0" stop-color="#111d2e"/><stop offset=".212" stop-color="#051839"/><stop offset=".407" stop-color="#0a1b48"/><stop offset=".581" stop-color="#132e62"/><stop offset=".738" stop-color="#144b7e"/><stop offset=".873" stop-color="#136497"/><stop offset="1" stop-color="#1387b8"/></linearGradient><path d="m4.8911 150.01c14.393 48.01 58.916 82.99 111.61 82.99 64.34 0 116.5-52.16 116.5-116.5 0-64.341-52.16-116.5-116.5-116.5-61.741 0-112.26 48.029-116.25 108.76 7.5391 12.66 10.481 20.49 4.6411 41.25z" fill="url(#a)"/><path d="m110.5 87.322c0 .196 0 .392.01.576l-28.508 41.412c-4.618-.21-9.252.6-13.646 2.41-1.937.79-3.752 1.76-5.455 2.88l-62.599-25.77c.00049 0-1.4485 23.83 4.588 41.59l44.254 18.26c2.222 9.93 9.034 18.64 19.084 22.83 16.443 6.87 35.402-.96 42.242-17.41 1.78-4.3 2.61-8.81 2.49-13.31l40.79-29.15c.33.01.67.02 1 .02 24.41 0 44.25-19.9 44.25-44.338 0-24.44-19.84-44.322-44.25-44.322-24.4 0-44.25 19.882-44.25 44.322zm-6.84 83.918c-5.294 12.71-19.9 18.74-32.596 13.45-5.857-2.44-10.279-6.91-12.83-12.24l14.405 5.97c9.363 3.9 20.105-.54 23.997-9.9 3.904-9.37-.525-20.13-9.883-24.03l-14.891-6.17c5.746-2.18 12.278-2.26 18.381.28 6.153 2.56 10.927 7.38 13.457 13.54s2.52 12.96-.04 19.1m51.09-54.38c-16.25 0-29.48-13.25-29.48-29.538 0-16.275 13.23-29.529 29.48-29.529 16.26 0 29.49 13.254 29.49 29.529 0 16.288-13.23 29.538-29.49 29.538m-22.09-29.583c0-12.253 9.92-22.191 22.14-22.191 12.23 0 22.15 9.938 22.15 22.191 0 12.254-9.92 22.183-22.15 22.183-12.22 0-22.14-9.929-22.14-22.183z" fill="#fff"/></svg>