<?xml version="1.0" standalone="no"?>
<!DOCTYPE svg PUBLIC "-//W3C//DTD SVG 1.1//EN" "http://www.w3.org/Graphics/SVG/1.1/DTD/svg11.dtd" >
<!-- Uploaded to: SVG Repo, www.svgrepo.com, Generator: SVG Repo Mixer Tools -->
<svg viewBox="64 64 896 896" focusable="false" data-icon="fediverse" width="1em" height="1em" fill="currentColor" aria-hidden="true"> 
   <path
d="M539 176q-32 0 -55 22t-25 55t20.5 58t56 27t58.5 -20.5t27 -56t-20.5 -59t-56.5 -26.5h-5zM452 271l-232 118q20 20 25 48l231 -118q-19 -20 -24 -48zM619 298q-13 25 -38 38l183 184q13 -25 39 -38zM477 320l-135 265l40 40l143 -280q-28 -5 -48 -25zM581 336
q-22 11 -46 10l-8 -1l21 132l56 9zM155 370q-32 0 -55 22.5t-25 55t20.5 58t56.5 27t59 -21t26.5 -56t-21 -58.5t-55.5 -27h-6zM245 438q1 9 1 18q-1 19 -10 35l132 21l26 -50zM470 474l-26 51l311 49q-1 -8 -1 -17q1 -19 10 -36zM842 480q-32 1 -55 23t-24.5 55t21 58
t56 27t58.5 -20.5t27 -56.5t-20.5 -59t-56.5 -27h-6zM236 493q-13 25 -39 38l210 210l51 -25zM196 531q-21 11 -44 10l-9 -1l40 256q21 -10 45 -9l8 1zM560 553l48 311q21 -10 44 -9l10 1l-46 -294zM755 576l-118 60l8 56l135 -68q-20 -20 -25 -48zM781 625l-119 231
q28 5 48 25l119 -231q-28 -5 -48 -25zM306 654l-68 134q28 5 48 25l60 -119zM568 671l-281 143q19 20 24 48l265 -135zM513 771l-51 25l106 107q13 -25 39 -38zM222 795q-32 0 -55.5 22.5t-25 55t21 57.5t56 27t58.5 -20.5t27 -56t-20.5 -58.5t-56.5 -27h-5zM311 863
q2 9 1 18q-1 19 -9 35l256 41q-1 -9 -1 -18q1 -18 10 -35zM646 863q-32 0 -55 22.5t-24.5 55t20.5 58t56 27t59 -21t27 -56t-20.5 -58.5t-56.5 -27h-6z" />
</svg>
