<svg xmlns="http://www.w3.org/2000/svg" xmlns:xlink="http://www.w3.org/1999/xlink" id="Layer_1" x="0" y="0" version="1.1" viewBox="0 0 46 42" style="enable-background:new 0 0 46 42" xml:space="preserve"><style type="text/css">.st0{clip-path:url(#SVGID_2_)}</style><g><defs><path id="SVGID_1_" d="M22.2,24.2L8.5,39.9c-0.5,0.6-0.1,1.5,0.7,1.5h27.5c0.8,0,1.2-0.9,0.7-1.5L23.8,24.2 c-0.2-0.2-0.5-0.4-0.8-0.4C22.7,23.8,22.4,23.9,22.2,24.2 M6.5,0.6c-2.3,0-3.1,0.2-3.9,0.7C1.8,1.7,1.1,2.4,0.7,3.2 C0.2,4,0,4.9,0,7.1v17.5c0,2.3,0.2,3.1,0.7,3.9c0.4,0.8,1.1,1.5,1.9,1.9c0.8,0.4,1.7,0.7,3.9,0.7h5.2l2.2-2.6H5.8 c-1.1,0-1.6-0.1-2-0.3c-0.4-0.2-0.7-0.5-1-1c-0.2-0.4-0.3-0.8-0.3-2v-19c0-1.1,0.1-1.6,0.3-2c0.2-0.4,0.5-0.7,1-1 c0.4-0.2,0.8-0.3,2-0.3h34.3c1.1,0,1.6,0.1,2,0.3c0.4,0.2,0.7,0.5,1,1c0.2,0.4,0.3,0.8,0.3,2v19c0,1.1-0.1,1.6-0.3,2 c-0.2,0.4-0.5,0.7-1,1c-0.4,0.2-0.8,0.3-2,0.3H32l2.2,2.6h5.2c2.3,0,3.1-0.2,3.9-0.7c0.8-0.4,1.5-1.1,1.9-1.9 c0.4-0.8,0.7-1.7,0.7-3.9V7.1c0-2.3-0.2-3.1-0.7-3.9c-0.4-0.8-1.1-1.5-1.9-1.9c-0.8-0.4-1.7-0.7-3.9-0.7H6.5z"/></defs><clipPath id="SVGID_2_"><use xlink:href="#SVGID_1_" style="overflow:visible"/></clipPath><rect width="58.7" height="53.6" x="-6.4" y="-5.8" class="st0"/></g></svg>