<svg id="Layer_1" enable-background="new 0 0 512.418 512.418" height="512" viewBox="0 0 512.418 512.418" width="512" xmlns="http://www.w3.org/2000/svg"><path d="m437.335 75.082c-100.1-100.102-262.136-100.118-362.252 0-100.103 100.102-100.118 262.136 0 362.253 100.1 100.102 262.136 100.117 362.252 0 100.103-100.102 100.117-262.136 0-362.253zm-10.706 325.739c-11.968-10.702-24.77-20.173-38.264-28.335 8.919-30.809 14.203-64.712 15.452-99.954h75.309c-3.405 47.503-21.657 92.064-52.497 128.289zm-393.338-128.289h75.309c1.249 35.242 6.533 69.145 15.452 99.954-13.494 8.162-26.296 17.633-38.264 28.335-30.84-36.225-49.091-80.786-52.497-128.289zm52.498-160.936c11.968 10.702 24.77 20.173 38.264 28.335-8.919 30.809-14.203 64.712-15.452 99.954h-75.31c3.406-47.502 21.657-92.063 52.498-128.289zm154.097 31.709c-26.622-1.904-52.291-8.461-76.088-19.278 13.84-35.639 39.354-78.384 76.088-88.977zm0 32.708v63.873h-98.625c1.13-29.812 5.354-58.439 12.379-84.632 27.043 11.822 56.127 18.882 86.246 20.759zm0 96.519v63.873c-30.119 1.877-59.203 8.937-86.246 20.759-7.025-26.193-11.249-54.82-12.379-84.632zm0 96.581v108.254c-36.732-10.593-62.246-53.333-76.088-88.976 23.797-10.817 49.466-17.374 76.088-19.278zm32.646 0c26.622 1.904 52.291 8.461 76.088 19.278-13.841 35.64-39.354 78.383-76.088 88.976zm0-32.708v-63.873h98.625c-1.13 29.812-5.354 58.439-12.379 84.632-27.043-11.822-56.127-18.882-86.246-20.759zm0-96.519v-63.873c30.119-1.877 59.203-8.937 86.246-20.759 7.025 26.193 11.249 54.82 12.379 84.632zm0-96.581v-108.254c36.734 10.593 62.248 53.338 76.088 88.977-23.797 10.816-49.466 17.373-76.088 19.277zm73.32-91.957c20.895 9.15 40.389 21.557 57.864 36.951-8.318 7.334-17.095 13.984-26.26 19.931-8.139-20.152-18.536-39.736-31.604-56.882zm-210.891 56.882c-9.165-5.947-17.941-12.597-26.26-19.931 17.475-15.394 36.969-27.801 57.864-36.951-13.068 17.148-23.465 36.732-31.604 56.882zm.001 295.958c8.138 20.151 18.537 39.736 31.604 56.882-20.895-9.15-40.389-21.557-57.864-36.951 8.318-7.334 17.095-13.984 26.26-19.931zm242.494 0c9.165 5.947 17.942 12.597 26.26 19.93-17.475 15.394-36.969 27.801-57.864 36.951 13.067-17.144 23.465-36.729 31.604-56.881zm26.362-164.302c-1.249-35.242-6.533-69.146-15.452-99.954 13.494-8.162 26.295-17.633 38.264-28.335 30.84 36.225 49.091 80.786 52.497 128.289z"/></svg>