<svg enable-background="new 0 0 501.9 501.9" viewBox="0 0 501.9 501.9" xmlns="http://www.w3.org/2000/svg"><path d="m501.8 270.1c-.6-13.9-14.2-25-40.5-33-20.4-6.1-46.3-9.8-74.3-10.4v-106.7c-.1-1.8-.6-3.5-1.5-5-2.8-12.1-16.3-21.9-40.2-29.1-22.5-6.8-51.9-10.5-82.8-10.5-30.8 0-59.9 3.7-82 10.5-18.1 5.6-39.8 16-39.8 33.9 0 1.1.1 2.2.3 3.3l1.1 45.6c-65-12.4-127.7 30.3-140 95.2-1.4 7.4-2.1 14.8-2.1 22.3 0 66 53.7 119.7 119.7 119.7 27.5 0 54.1-9.4 75.4-26.8 18.7 4.4 40.7 6.8 64 7 5.1 27.7 65.1 40.4 121 40.4 30.8 0 59.9-3.8 82-10.7 18.1-5.6 39.8-16.1 39.8-34v-109.8c0-.6 0-1.3-.1-1.9zm-135.7-94.8c0 1.3-4.8 8.2-26.5 14.8-20.3 6.1-48.4 9.7-77 9.7-24.7 0-48.9-2.6-68.1-7.5-.3-.1-.5-.1-.8-.2-9.5-7.5-20-13.5-31.3-17.7l-.7-28.2c6.9 3.5 14.1 6.3 21.6 8.3 21.7 6.3 49.8 9.7 79.3 9.7 30.8 0 60.3-3.7 82.8-10.5 7.5-2.2 14.8-5.1 21.7-8.7v26.2c-1.1 1.4-1 2.7-1 4.1zm-179.6-70.1c20.2-6.2 47.2-9.7 76-9.7 28.6 0 56.7 3.5 77 9.7 21.7 6.6 26.5 13.4 26.5 14.7 0 1.4-4.9 8.3-26.6 14.8-20.3 6.1-48.3 9.6-76.9 9.6-27.6 0-53.8-3.2-73.7-9-21.5-6.2-27.5-13-28-15.2 0-.2-.1-.2-.1-.2.1-1.9 4.7-8.3 25.8-14.7zm.3 254.8c-40.7 37-103.8 34.1-140.8-6.6s-34.1-103.8 6.6-140.8c18.3-16.7 42.3-25.9 67.1-25.9 10 0 19.9 1.5 29.5 4.4 34.7 10.8 60.8 39.6 68.2 75.1 1.3 6.6 2 13.4 2 20.1.1 28.1-11.8 54.8-32.6 73.7zm25.4 2.2c8.1-9.9 14.6-21 19.2-32.9 8.5.7 17.3 1.2 26.5 1.3v1.8l.6 33.9c-15.5-.2-31-1.6-46.3-4.1zm26.7-87.8c5.8.4 11.9.6 18.1.7l.6 35.4c-7-.1-13.9-.4-20.5-.9 1.5-7.7 2.3-15.6 2.3-23.4 0-3.9-.2-7.8-.5-11.8zm24.6-19.2c-.3 0-.7 0-1 0-9.6 0-18.9-.4-27.5-1-3.8-13.4-9.8-26-17.9-37.2 15 1.9 30.1 2.9 45.3 2.9 30.9 0 60.4-3.7 82.9-10.5 7.5-2.2 14.7-5.1 21.6-8.6v26.2c-42.9 1.2-87 10.2-103.4 28.2zm13.2 15.9c0-.1 0-.2.1-.4.9-2.7 8-9.3 28.7-15.1 19.4-5.5 44.7-8.5 71.3-8.5h1.7c28.6 0 56.6 3.3 77 9.5 21.3 6.4 26.3 13 26.4 14.5v.1c-.1 1.5-5.1 8.4-27.3 15-20.5 6.1-47.5 9.4-76 9.4-27.6 0-53.8-3.2-73.7-8.9-21.5-6.2-27.4-13.1-28-15.2-.2-.4-.2-.4-.2-.4zm179.6 125.7c-20.2 6.3-47.3 9.8-76.1 9.8-28.9 0-55.9-3.4-75.9-9.5-21.1-6.5-25.5-13.2-25.5-14.7 0-.1 0-.1 0-.2l-.5-29c8 3.9 16.3 6.9 24.9 9.1 21 5.5 47.7 8.6 75.1 8.6 30.9 0 60.2-3.7 82.6-10.5 7.3-2.2 14.3-5.1 21-8.5v30h.1c0 1.4-4.6 8.3-25.7 14.9zm25.8-73.6h-.1c0 1-.6 2.2-.6 3.3 0 1.4-4.7 8.2-26.3 14.8-20.5 6.2-47.8 9.6-76.7 9.6-55.4 0-92.7-12.5-100.5-22.2l-.1-8.4-.4-23c7 3.5 14.3 6.3 21.8 8.4 21.7 6.3 49.8 9.7 79.3 9.7 30.4 0 59.4-3.6 81.7-10.2 7.6-2.1 14.9-5 21.9-8.6z"/><path d="m156.1 300.4c-4.6-16.3-19.5-27.5-36.4-27.5-9.8 0-17.8-7.9-17.8-17.7.1-9.9 8-17.8 17.8-17.8s17.8 8 17.8 17.8c0 5.5 4.5 10 10 10s10-4.5 10-10c0-16.9-11.2-31.8-27.5-36.4v-4.5c0-5.5-4.5-10-10-10s-10 4.5-10 10v4.3c-20.1 5.4-32.1 26.1-26.7 46.2 4.4 16.5 19.3 28 36.4 28 9.8 0 17.8 7.9 17.8 17.7s-7.9 17.8-17.7 17.8-17.8-7.9-17.8-17.7c0-5.5-4.5-10-10-10s-10 4.5-10 10c.1 17.1 11.5 32 28 36.5v8.7c0 5.5 4.5 10 10 10s10-4.5 10-10v-8.8c20.1-5.7 31.8-26.5 26.1-46.6z"/></svg>