<?xml version="1.0" encoding="iso-8859-1"?>
<!-- Generator: Adobe Illustrator 19.0.0, SVG Export Plug-In . SVG Version: 6.00 Build 0)  -->
<svg version="1.1" id="Capa_1" xmlns="http://www.w3.org/2000/svg" xmlns:xlink="http://www.w3.org/1999/xlink" x="0px" y="0px"
	 viewBox="0 0 512 512" style="enable-background:new 0 0 512 512;" xml:space="preserve">
<g>
	<g>
		<g>
			<path d="M492,127.5h-18v-18c0-11.046-8.954-20-20-20c-11.046,0-20,8.954-20,20v18h-18c-11.046,0-20,8.954-20,20s8.954,20,20,20
				h18v18c0,11.046,8.954,20,20,20c11.046,0,20-8.954,20-20v-18h18c11.046,0,20-8.954,20-20S503.046,127.5,492,127.5z"/>
			<path d="M315.409,249.231C345.854,225.711,365.5,188.86,365.5,147.5C365.5,76.645,307.855,19,237,19S108.5,76.645,108.5,147.5
				c0,41.359,19.646,78.211,50.091,101.731C68.293,280.793,0,367.427,0,473c0,11.046,8.954,20,20,20h434c11.046,0,20-8.954,20-20
				C474,367.401,405.656,280.775,315.409,249.231z M148.5,147.5c0-48.799,39.701-88.5,88.5-88.5s88.5,39.701,88.5,88.5
				S285.799,236,237,236S148.5,196.299,148.5,147.5z M41.008,453C51.061,353.73,135.123,276,237,276s185.939,77.73,195.992,177
				H41.008z"/>
		</g>
	</g>
</g>
<g>
</g>
<g>
</g>
<g>
</g>
<g>
</g>
<g>
</g>
<g>
</g>
<g>
</g>
<g>
</g>
<g>
</g>
<g>
</g>
<g>
</g>
<g>
</g>
<g>
</g>
<g>
</g>
<g>
</g>
</svg>
