<?xml version="1.0" encoding="UTF-8" standalone="no"?>
<svg
   xmlns:osb="http://www.openswatchbook.org/uri/2009/osb"
   xmlns:dc="http://purl.org/dc/elements/1.1/"
   xmlns:cc="http://creativecommons.org/ns#"
   xmlns:rdf="http://www.w3.org/1999/02/22-rdf-syntax-ns#"
   xmlns:svg="http://www.w3.org/2000/svg"
   xmlns="http://www.w3.org/2000/svg"
   xmlns:xlink="http://www.w3.org/1999/xlink"
   version="1.0"
   width="500.000000pt"
   height="500.000000pt"
   viewBox="0 0 500.000000 500.000000"
   preserveAspectRatio="xMidYMid meet"
   id="svg38">
  <metadata
     id="metadata44">
    <rdf:RDF>
      <cc:Work
         rdf:about="">
        <dc:format>image/svg+xml</dc:format>
        <dc:type
           rdf:resource="http://purl.org/dc/dcmitype/StillImage" />
        <dc:title></dc:title>
      </cc:Work>
    </rdf:RDF>
  </metadata>
  <defs
     id="defs42">
    <linearGradient
       id="linearGradient979"
       osb:paint="solid">
      <stop
         style="stop-color:#000000;stop-opacity:1;"
         offset="0"
         id="stop977" />
    </linearGradient>
    <linearGradient
       id="linearGradient913">
      <stop
         style="stop-color:#f02569;stop-opacity:1;"
         offset="0"
         id="stop909" />
      <stop
         style="stop-color:#fa9129;stop-opacity:1"
         offset="1"
         id="stop911" />
    </linearGradient>
    <linearGradient
       xlink:href="#linearGradient913"
       id="linearGradient915"
       x1="352.7518"
       y1="4.6515026"
       x2="477.18854"
       y2="488.41333"
       gradientUnits="userSpaceOnUse"
       gradientTransform="matrix(0.98839084,0,0,0.98973848,-147.65791,5.1495267)" />
    <clipPath
       clipPathUnits="userSpaceOnUse"
       id="clipPath995">
      <path
         style="fill:none;stroke:#000000;stroke-width:0.75px;stroke-linecap:butt;stroke-linejoin:miter;stroke-opacity:1"
         d="m 245.01888,97.119057 c -1.9021,-11.763562 -2.138,-28.048143 3.89064,-35.320591 6.02862,-7.272448 16.74752,-19.362033 30.66601,-24.25417 13.66105,-4.801653 23.61601,-6.092939 32.88953,-4.410199 10.33244,1.874887 18.25725,8.090844 21.3219,14.698914 3.06466,6.60807 13.98963,28.134172 15.54772,43.051266 1.5581,14.917083 -13.78922,25.120323 -13.78922,25.120323 0,0 -32.86631,17.4933 -51.08084,17.98933 -18.21452,0.49603 -33.23551,-10.86983 -36.81458,-25.59785 -3.57908,-14.728013 -2.63116,-11.277023 -2.63116,-11.277023 z"
         id="path997" />
    </clipPath>
    <linearGradient
       xlink:href="#linearGradient913"
       id="linearGradient915-9"
       x1="352.7518"
       y1="4.6515026"
       x2="477.18854"
       y2="488.41333"
       gradientUnits="userSpaceOnUse"
       gradientTransform="translate(390.18293,4.1204156)" />
    <clipPath
       clipPathUnits="userSpaceOnUse"
       id="clipPath995-7">
      <path
         style="fill:none;stroke:#000000;stroke-width:0.75px;stroke-linecap:butt;stroke-linejoin:miter;stroke-opacity:1"
         d="m 245.01888,97.119057 c -1.9021,-11.763562 -2.138,-28.048143 3.89064,-35.320591 6.02862,-7.272448 16.74752,-19.362033 30.66601,-24.25417 13.66105,-4.801653 23.61601,-6.092939 32.88953,-4.410199 10.33244,1.874887 18.25725,8.090844 21.3219,14.698914 3.06466,6.60807 13.98963,28.134172 15.54772,43.051266 1.5581,14.917083 -13.78922,25.120323 -13.78922,25.120323 0,0 -32.86631,17.4933 -51.08084,17.98933 -18.21452,0.49603 -33.23551,-10.86983 -36.81458,-25.59785 -3.57908,-14.728013 -2.63116,-11.277023 -2.63116,-11.277023 z"
         id="path997-0" />
    </clipPath>
    <clipPath
       clipPathUnits="userSpaceOnUse"
       id="clipPath1198">
      <path
         style="fill:none;stroke:#000000;stroke-width:0.75px;stroke-linecap:butt;stroke-linejoin:miter;stroke-opacity:1"
         d="m 736.32713,131.74536 c -1.9021,-11.76355 -2.138,-28.04814 3.89064,-35.320585 6.02862,-7.27245 16.74753,-19.362037 30.66603,-24.254168 13.66103,-4.80166 23.616,-6.09294 32.88953,-4.4102 10.33245,1.87489 18.25724,8.090841 21.32189,14.69891 3.06465,6.60807 13.9896,28.134173 15.54773,43.051263 1.55805,14.91709 -13.78928,25.12033 -13.78928,25.12033 0,0 -32.86627,17.4933 -51.08077,17.98933 -18.21457,0.49603 -33.23554,-10.86983 -36.81461,-25.59785 -3.57908,-14.72802 -2.63116,-11.27703 -2.63116,-11.27703 z"
         id="path1200" />
    </clipPath>
  </defs>
  <ellipse
     style="fill:url(#linearGradient915);fill-opacity:1;stroke-width:0.741798"
     id="path883"
     cx="249.82216"
     cy="250.11517"
     rx="246.81461"
     ry="247.15114" />
  <ellipse
     style="fill:#ffffff;fill-opacity:1;stroke-width:0.741798"
     id="path917"
     cx="57.413521"
     cy="188.13705"
     rx="4.7773228"
     ry="4.7838368" />
  <ellipse
     style="fill:#ffffff;fill-opacity:1;stroke-width:0.741798"
     id="path919"
     cx="99.986122"
     cy="108.47452"
     rx="2.7442372"
     ry="2.7479789" />
  <ellipse
     style="fill:#ffffff;fill-opacity:1;stroke-width:0.741798"
     id="path921"
     cx="325.18384"
     cy="72.969994"
     rx="4.5812206"
     ry="4.5874667" />
  <ellipse
     style="fill:#ffffff;fill-opacity:1;stroke-width:0.741798"
     id="path923"
     cx="389.87433"
     cy="244.65288"
     rx="5.0165544"
     ry="5.0233941" />
  <ellipse
     style="fill:#ffffff;fill-opacity:1;stroke-width:0.58661"
     id="path923-3"
     cx="308.75305"
     cy="416.52707"
     rx="3.9670644"
     ry="3.9724731" />
  <ellipse
     style="fill:#ffffff;fill-opacity:1;stroke-width:0.498297"
     id="path923-3-6"
     cx="107.20528"
     cy="334.28192"
     rx="3.3698299"
     ry="3.3744245" />
  <path
     style="fill:#ffffff;stroke:none;stroke-width:0.741798px;stroke-linecap:butt;stroke-linejoin:miter;stroke-opacity:1"
     d="m 411.33807,173.68252 -2.07661,11.70339 -11.03528,5.47484 11.79783,2.23311 5.16187,10.45577 2.18276,-10.70634 11.15992,-5.65387 -12.33769,-2.61731 z"
     id="path955" />
  <path
     style="fill:#ffffff;stroke:none;stroke-width:0.741798px;stroke-linecap:butt;stroke-linejoin:miter;stroke-opacity:1"
     d="m 147.67183,193.44728 c 0,0 -20.06996,-54.17786 -17.69084,-81.41335 2.37911,-27.235496 1.50653,-18.841783 3.85544,-27.859142 2.34892,-9.017357 12.04102,-25.480883 22.31643,-30.92595 10.27541,-5.445066 48.75045,-29.667741 74.35574,-27.471611 25.6053,2.196128 28.78386,1.195382 42.93088,16.196527 14.14702,15.001144 24.90375,54.617788 27.09868,65.549046 2.19495,10.93123 9.15862,35.96143 14.07139,36.53925 4.91277,0.57783 28.65358,-0.26096 33.07213,-11.755 4.41855,-11.49402 9.6354,-13.11527 12.32537,-32.487125 2.68997,-19.371875 15.44485,-45.431297 26.07584,-51.914116 0.82713,-0.504388 2.70803,-1.643677 2.70803,-1.643677 0,0 11.439,7.625939 24.54009,19.138948 6.79401,5.970454 13.86444,13.288883 20.37947,20.490485 19.07812,21.088645 0.24937,0.343464 0.24937,0.343464 0,0 -1.9413,28.286781 -8.24364,46.235201 -6.30234,17.94844 -31.05411,50.52397 -55.11588,72.49624 -24.06176,21.97225 -25.29435,24.34667 -25.29435,26.85297 0,2.50629 -0.53444,9.87979 7.76324,14.93585 8.29768,5.05606 39.62493,28.0312 50.81122,53.08431 11.1863,25.0531 9.56085,44.98432 22.97648,69.92474 13.41568,24.94043 19.26231,28.53884 16.01337,33.54308 -3.24904,5.00424 -23.44773,28.43723 -42.19597,41.2159 -18.74824,12.77867 -45.79305,-7.55666 -47.81423,-17.5746 -2.02119,-10.01794 -3.43327,-29.59264 -6.30497,-44.09203 -2.8717,-14.49937 -13.32877,-39.83671 -26.89172,-47.48134 -13.56296,-7.64462 -28.65714,-5.43842 -28.65714,-5.43842 0,0 4.82354,42.50353 -5.10622,72.73986 -9.92976,30.23634 -21.18794,38.2781 -42.18615,47.57746 -20.9982,9.29935 -43.33913,16.22264 -62.26616,16.63201 -18.92702,0.40936 -42.21121,-4.75624 -51.68741,-22.688 -9.47621,-17.93174 -8.20485,-36.82812 1.71479,-46.6577 9.91964,-9.82959 29.97243,-12.69792 38.47415,-11.88376 8.50173,0.81415 33.02963,-5.86589 40.73408,-21.4136 7.70445,-15.5477 -14.09247,-45.81371 -21.23837,-58.01337 -7.1459,-12.19968 -24.80467,-41.39481 -24.80467,-41.39481 v 0 c 0,0 -65.622781,27.1758 -78.327528,41.95011 -12.704736,14.77431 -35.001677,29.49808 -48.615743,29.15093 -13.614075,-0.34714 -21.013021,-6.5659 -21.013021,-6.5659 -3.076268,-8.73094 -4.036361,-13.02078 -5.951181,-20.35695 -2.3747571,-9.09828 -4.5648533,-21.35714 -5.4497497,-30.17815 0,0 23.3517227,-22.91199 33.2253907,-29.84172 10.033255,-7.04175 36.473135,-27.17346 55.541023,-33.96863 19.067879,-6.79516 52.319819,-18.49916 53.622339,-21.57743 z"
     id="path957" />
  <circle
     style="fill:url(#linearGradient915-9);fill-opacity:1;stroke-width:0.75"
     id="path883-9"
     cx="792.3316"
     cy="251.62584"
     r="249.71358"
     clip-path="url(#clipPath1198)"
     transform="matrix(0.98839084,0,0,0.98973848,-551.03081,-11.166101)" />
  <path
     style="fill:#ffffff;fill-opacity:1;stroke:none;stroke-width:0.741798px;stroke-linecap:butt;stroke-linejoin:miter;stroke-opacity:1"
     d="m 271.71085,112.81596 c 0,0 -0.6733,-8.25934 -3.06033,-10.65972 -2.38704,-2.400382 -3.4147,-3.219373 -4.30462,-3.261871 -0.88992,-0.04246 -2.97515,0.449533 -4.32631,2.923971 -1.35117,2.47444 1.22946,6.29857 1.22946,6.29857 0,0 1.68729,4.73075 0.16217,9.27633 -1.52512,4.54559 1.01358,7.22143 2.39991,7.52704 1.38634,0.30561 6.58711,0.63897 7.18013,-3.59674 0.59301,-4.2357 0.71959,-8.50758 0.71959,-8.50758 z"
     id="path1202" />
  <path
     style="fill:#ffffff;fill-opacity:1;stroke:none;stroke-width:0.741798px;stroke-linecap:butt;stroke-linejoin:miter;stroke-opacity:1"
     d="m 253.91215,72.255739 c 0,0 -2.80762,-2.800727 -6.32755,-0.612187 -2.47031,1.535934 -2.11167,4.630992 -0.12352,7.218567 1.98816,2.587574 1.82874,4.35173 3.27543,5.877248 1.4467,1.52552 7.23694,1.364769 8.30897,-1.361131 1.07204,-2.725899 -0.22598,-5.865855 -1.49256,-7.546134 -1.28839,-1.709195 -3.64077,-3.576363 -3.64077,-3.576363 z"
     id="path1204" />
</svg>
