<svg xmlns="http://www.w3.org/2000/svg" xmlns:xlink="http://www.w3.org/1999/xlink" fill-rule="evenodd" stroke-linejoin="round" stroke-miterlimit="1.414" clip-rule="evenodd" viewBox="0 0 32 32"><clipPath id="a"><path d="m0 0h32v32h-32z" clip-rule="evenodd"/></clipPath><path fill="none" d="m0 0h32v32h-32z"/><g clip-path="url(#a)"><circle cx="16" cy="16" r="16"/><path fill="#333" d="m15.469 2.01c.176-.007.353-.01.531-.01 7.727 0 14 6.273 14 14s-6.273 14-14 14-14-6.273-14-14c0-.178.003-.355.01-.531 2.255.371 13.83-11.204 13.459-13.459z"/><path fill="#4c4c4c" d="m15.469 2.01c.371 2.255-1.34 5.861-4.469 8.99s-6.735 4.84-8.99 4.469c.273-7.305 6.154-13.186 13.459-13.459z"/><path fill="#fff" d="m25 16c0 4.967-4.033 9-9 9s-9-4.033-9-9 4.033-9 9-9 9 4.033 9 9z"/><path fill-rule="nonzero" d="m16 21.958c-1.216 0-2.187-.309-2.912-.929-.725-.619-1.088-1.459-1.088-2.519v-.234c0-.558.142-1.063.427-1.514.284-.452.683-.801 1.196-1.047-.424-.212-.758-.518-1.004-.92-.245-.402-.368-.859-.368-1.372v-.185c0-.624.151-1.179.452-1.665.301-.485.736-.862 1.305-1.129.569-.268 1.239-.402 2.009-.402s1.439.134 2.008.402c.569.267 1.004.644 1.306 1.129.301.486.451 1.041.451 1.665v.185c0 .502-.125.956-.376 1.364-.251.407-.589.716-1.013.928.514.257.91.611 1.189 1.063s.418.946.418 1.481v.235c0 1.071-.363 1.916-1.088 2.535-.725.62-1.696.929-2.912.929zm.017-7.113c.513 0 .909-.125 1.188-.376s.418-.595.418-1.03v-.184c0-.424-.142-.756-.426-.996-.285-.239-.678-.359-1.18-.359-.514 0-.912.12-1.197.359-.284.24-.427.572-.427.996v.184c0 .435.14.779.419 1.03s.68.376 1.205.376zm0 5.255c.58 0 1.032-.142 1.355-.426.324-.285.486-.684.486-1.197v-.251c0-.491-.162-.876-.486-1.155-.323-.279-.775-.418-1.355-.418s-1.035.139-1.364.418-.494.664-.494 1.155v.251c0 .513.162.912.485 1.197.324.284.781.426 1.373.426z"/></g></svg>