<svg clip-rule="evenodd" fill-rule="evenodd" stroke-linecap="round" stroke-linejoin="round" stroke-miterlimit="1.5" viewBox="0 0 32 32" xmlns="http://www.w3.org/2000/svg" xmlns:xlink="http://www.w3.org/1999/xlink"><clipPath id="a"><path clip-rule="evenodd" d="m0 .017h32v32h-32z"/></clipPath><clipPath id="b"><path clip-rule="evenodd" d="m18.46 19.556v-.433c0-1.763.701-3.453 1.947-4.699 1.246-1.247 2.937-1.947 4.699-1.947h.434v.433c0 1.763-.701 3.453-1.947 4.7-1.246 1.246-2.937 1.946-4.699 1.946z"/></clipPath><clipPath id="c"><path clip-rule="evenodd" d="m13.625 19.642v-.604c0-1.763-.7-3.453-1.947-4.7-1.246-1.246-2.937-1.946-4.699-1.946h-.604v.604c0 1.762.7 3.453 1.947 4.699 1.246 1.246 2.937 1.947 4.699 1.947z"/></clipPath><path d="m0 .017h32v32h-32z" fill="none"/><g clip-path="url(#a)"><path d="m3.812 11.317c-1.113 4.73.505 9.685 4.194 12.848 1.886 1.616 3.871 3.318 5.391 4.62 1.498 1.284 3.708 1.284 5.206 0 1.52-1.302 3.505-3.004 5.391-4.62 3.689-3.163 5.307-8.118 4.194-12.848-.004-.016-.007-.033-.011-.049-1.276-5.42-6.113-9.251-11.681-9.251h-.992c-5.568 0-10.405 3.831-11.681 9.251-.004.016-.007.033-.011.049z" fill="none" stroke="#000" stroke-width="4"/><path d="m3.812 11.317c-1.113 4.73.505 9.685 4.194 12.848 1.886 1.616 3.871 3.318 5.391 4.62 1.498 1.284 3.708 1.284 5.206 0 1.52-1.302 3.505-3.004 5.391-4.62 3.689-3.163 5.307-8.118 4.194-12.848-.004-.016-.007-.033-.011-.049-1.276-5.42-6.113-9.251-11.681-9.251h-.992c-5.568 0-10.405 3.831-11.681 9.251-.004.016-.007.033-.011.049z" fill="#89c794"/><path d="m18.46 19.556v-.433c0-1.763.701-3.453 1.947-4.699 1.246-1.247 2.937-1.947 4.699-1.947h.434v.433c0 1.763-.701 3.453-1.947 4.7-1.246 1.246-2.937 1.946-4.699 1.946z"/><g clip-path="url(#b)"><path d="m17 19.017h1c2.761 0 5-2.239 5-5 0-2.072 0-4 0-4h-6z" fill="#666"/></g><path d="m13.625 19.642v-.604c0-1.763-.7-3.453-1.947-4.7-1.246-1.246-2.937-1.946-4.699-1.946h-.604v.604c0 1.762.7 3.453 1.947 4.699 1.246 1.246 2.937 1.947 4.699 1.947z"/><g clip-path="url(#c)"><path d="m6 13.017h.002c1.326 0 2.597.526 3.534 1.464.937.937 1.464 2.208 1.464 3.534v3.002h-5z" fill="#666"/></g><path d="m19.354 20.017h-1.354v-1.354c0-3.671 2.976-6.646 6.646-6.646h1.354v1.354c0 3.67-2.976 6.646-6.646 6.646zm5.646-7h-.354c-3.118 0-5.646 2.527-5.646 5.646v.354h.354c3.118 0 5.646-2.528 5.646-5.646z"/><path d="m7.354 12.017c3.67 0 6.646 2.975 6.646 6.646v1.354h-1.354c-3.67 0-6.646-2.976-6.646-6.646v-1.354zm0 1h-.354v.354c0 3.118 2.528 5.646 5.646 5.646h.354v-.354c0-3.119-2.528-5.646-5.646-5.646z"/><path d="m13 25.017 3-3 3 3" fill="none" stroke="#3f854b" stroke-width="2"/></g></svg>