<svg clip-rule="evenodd" fill-rule="evenodd" stroke-linecap="round" stroke-linejoin="round" stroke-miterlimit="1.5" viewBox="0 0 32 32" xmlns="http://www.w3.org/2000/svg" xmlns:xlink="http://www.w3.org/1999/xlink"><clipPath id="a"><path clip-rule="evenodd" d="m0 0h32v32h-32z"/></clipPath><path d="m0 0h32v32h-32z" fill="none"/><g clip-path="url(#a)"><path d="m28.901 5.427.155.021.153.03.153.037.15.044.149.053.147.06.121.056.103.052.107.057.124.072.12.078.115.083.111.087.106.092.102.096.097.1.092.104.087.107.082.111.077.114.072.116.066.119.061.123.056.125.051.127.044.128.04.132.033.132.028.135.022.136.017.137.01.139.004.139-.002.139-.009.141-.015.141-.021.139-.027.14-.034.14-.034.116-7.152 22.475h-16.924l-7.152-22.475-.034-.116-.034-.139-.027-.141-.022-.14-.014-.14-.009-.141-.002-.139.004-.139.01-.139.017-.137.022-.136.028-.135.033-.133.039-.13.045-.129.051-.128.056-.124.061-.123.066-.119.072-.116.077-.114.082-.111.087-.107.092-.104.097-.1.102-.096.106-.091.111-.088.116-.083.119-.078.124-.072.107-.057.103-.052.121-.057.147-.059.149-.053.15-.044.153-.037.153-.03.155-.021.155-.014.157-.007.156.002.156.009.156.017.155.025.154.032.153.041.151.048.149.055.145.063.141.07.137.077.133.083.129.089.123.096.119.101.114.108.108.112.102.118.097.124.091.128.084.133.078.138.06.119 5.801 12.328.038.078.035.07.036.068.037.068.039.067.039.066.041.066.042.064.042.064.044.062.045.062.046.061.046.06.048.058.049.059.05.057.051.056.051.055.053.054.053.054.054.052.055.051.057.051.057.049.057.048.059.047.059.046.06.045.061.045.062.043.062.041.063.041.064.04.065.039.065.037.065.036.067.036.067.033.068.033.068.032.069.031.069.029.07.028.07.027.071.026.072.024.071.023.073.022.073.021.073.019.074.018.074.017.074.016.075.014.076.013.075.012.076.01.077.009.076.007.077.007.078.005.077.003.078.002.079.001.079-.001.078-.002.077-.003.078-.005.077-.007.076-.007.077-.009.076-.01.075-.012.076-.013.075-.014.074-.016.074-.017.074-.018.073-.019.073-.021.072-.022.072-.023.072-.024.071-.026.07-.027.07-.028.069-.029.069-.031.069-.032.067-.032.067-.034.067-.036.065-.036.066-.038.064-.038.064-.04.063-.041.062-.041.062-.043.061-.045.06-.045.059-.046.059-.047.057-.048.057-.049.056-.051.056-.051.054-.053.053-.053.053-.054.051-.055.051-.056.05-.057.049-.059.048-.058.046-.06.046-.061.045-.062.044-.062.042-.064.042-.064.041-.066.039-.066.039-.067.037-.067.036-.069.035-.07.038-.078 5.801-12.328.06-.119.078-.138.085-.133.09-.128.097-.124.102-.118.108-.112.114-.108.119-.101.123-.096.129-.089.132-.083.138-.077.141-.07.145-.063.149-.055.151-.048.153-.041.154-.032.155-.025.156-.017.156-.009.156-.002.156.006zm-5.392 15.814-.062.127-.067.134-.07.132-.072.132-.074.129-.076.128-.079.126-.08.124-.083.122-.084.122-.087.119-.088.117-.091.116-.092.114-.095.112-.096.11-.098.109-.099.107-.102.104-.103.103-.105.101-.106.099-.108.097-.11.095-.112.093-.113.091-.114.089-.116.087-.117.085-.119.083-.12.081-.122.079-.123.076-.124.075-.126.072-.126.07-.129.068-.129.065-.13.064-.132.061-.133.059-.133.056-.136.054-.136.052-.137.05-.137.047-.139.045-.14.042-.141.04-.142.038-.142.035-.143.032-.144.031-.145.027-.146.025-.146.023-.147.019-.147.018-.148.014-.148.013-.15.009-.149.007-.15.004-.141.001h-.02l-.141-.001-.15-.004-.149-.007-.15-.009-.148-.013-.148-.014-.147-.018-.147-.019-.146-.023-.146-.025-.145-.027-.144-.031-.143-.032-.142-.035-.142-.038-.141-.04-.139-.042-.14-.045-.138-.047-.136-.05-.136-.052-.135-.054-.134-.056-.133-.059-.132-.061-.13-.064-.129-.065-.129-.068-.126-.07-.126-.072-.124-.075-.123-.076-.122-.079-.12-.081-.119-.083-.117-.085-.116-.087-.114-.089-.113-.091-.112-.093-.11-.095-.107-.097-.107-.099-.105-.101-.103-.103-.102-.104-.099-.107-.098-.109-.096-.11-.095-.112-.092-.114-.09-.116-.089-.117-.087-.12-.084-.121-.083-.122-.08-.124-.079-.126-.076-.128-.074-.129-.072-.131-.07-.133-.068-.134-.061-.127-.554-1.177 2.525 7.936h11.076l2.525-7.936z"/><g fill="none"><path d="m21 15c0-2.761-2.239-5-5-5-2.761 0-5 2.239-5 5v2c0 2.761 2.239 5 5 5 2.761 0 5-2.239 5-5 0-.661 0-1.339 0-2z" stroke="#000" stroke-width="4"/><path d="m16 5v-2" stroke="#000" stroke-width="6"/><path d="m22 6 1-1" stroke="#000" stroke-width="6"/><path d="m10 6-1-1" stroke="#000" stroke-width="6"/></g><path d="m23 30h-14l-4.136-13 .136-1h2l1.706 1 .59 1.254.636 2.319c2.356 3.494 3.435 4.074 6.105 4.037 3.398-.046 4.626-1.201 6.104-4.366l.563-1.99.59-1.254.706-1h3l.136 1z" fill="#999"/><path d="m22.704 18.254-.161 1.771c-.307 3.384-3.145 5.975-6.543 5.975-3.398 0-6.236-2.591-6.543-5.975l-.161-1.771 1.001 2.127c1.04 2.209 3.261 3.619 5.702 3.619h.002c2.441 0 4.662-1.41 5.702-3.619z" fill="#737373"/><path d="m4.864 17-2.565-8.06c-.172-.541.075-1.127.583-1.381.021-.01.041-.021.062-.031.277-.139.6-.16.893-.058.294.102.534.318.666.599l4.203 8.931zm18.43 0 4.203-8.931c.132-.281.372-.497.666-.599.293-.102.616-.081.893.058.021.01.041.021.062.031.508.254.755.84.583 1.381l-2.565 8.06z" fill="#a3a9ff"/><path d="m21 15c0-2.761-2.239-5-5-5-2.761 0-5 2.239-5 5v2c0 2.761 2.239 5 5 5 2.761 0 5-2.239 5-5 0-.661 0-1.339 0-2z" fill="#a3a9ff"/><path d="m14 15c0-.552-.448-1-1-1s-1 .448-1 1v1c0 .552.448 1 1 1s1-.448 1-1c0-.322 0-.678 0-1z"/><path d="m20 15c0-.552-.448-1-1-1s-1 .448-1 1v1c0 .552.448 1 1 1s1-.448 1-1c0-.322 0-.678 0-1z"/><path d="m16 5v-2" fill="none" stroke="#fff" stroke-width="2"/><path d="m22 6 1-1" fill="none" stroke="#fff" stroke-width="2"/><path d="m10 6-1-1" fill="none" stroke="#fff" stroke-width="2"/></g></svg>