<svg clip-rule="evenodd" fill-rule="evenodd" stroke-linejoin="round" stroke-miterlimit="2" viewBox="0 0 32 32" xmlns="http://www.w3.org/2000/svg" xmlns:xlink="http://www.w3.org/1999/xlink"><clipPath id="a"><path clip-rule="evenodd" d="m0 0h32v32h-32z"/></clipPath><path d="m0 0h32v32h-32z" fill="none"/><g clip-path="url(#a)"><path d="m24 0v5.172l3.061-3.062c.313.13.626.259.939.389v12.001c0 2.158.013 4.315 0 6.473v.027l-.001.117c-.003.142-.007.283-.013.424-.021.372-.057.742-.113 1.111-.124.809-.338 1.604-.638 2.366-.602 1.526-1.549 2.91-2.749 4.028-1.073.999-2.344 1.78-3.72 2.284-.946.347-1.94.562-2.945.638-.262.02-.525.029-.787.032h-1.032-.004c-.16-.001-.159-.001-.32-.006-.271-.012-.542-.031-.813-.064-.533-.066-1.06-.178-1.574-.335-1.731-.53-3.29-1.569-4.444-2.964-.449-.542-.827-1.134-1.148-1.76l-6.359-12.719 1.753-.935.162-.078c.15-.069.301-.135.455-.193.353-.134.718-.237 1.089-.307.977-.185 1.994-.139 2.951.13.425.119.834.283 1.227.484-.005-2.175-.003-4.349.024-6.524.004-.099.004-.098.01-.198.023-.261.064-.519.135-.772.13-.471.348-.917.639-1.31.115-.156.242-.302.378-.44l4.009-4.009h1.828v1.172l1.172-1.172h2.828v2.172l2.172-2.172h1.828z"/><path d="m26 20.975c0 4.984-4.041 9.025-9.025 9.025h-.968c-2.762 0-5.287-1.561-6.523-4.031-2.221-4.443-5.484-10.969-5.484-10.969l.013-.007c1.693-.839 3.663-.507 4.987.689l.786 2.318 1.214 1v-12.172c.001-.164.02-.328.06-.487.088-.349.271-.672.526-.927.805-.805 1.609-1.609 2.414-2.414v11h1v-8.172c.001-.164.02-.328.06-.487.088-.349.271-.672.526-.927.805-.805 1.609-1.609 2.414-2.414v13h1v-8.172c.001-.164.02-.328.06-.487.088-.349.271-.672.526-.927.805-.805 1.609-1.609 2.414-2.414v13h1v-6.172c.001-.164.02-.328.06-.487.088-.349.271-.672.526-.927.805-.805 1.609-1.609 2.414-2.414z" fill="#a3a9ff"/><path d="m11 20c0 .14-.029.278-.086.406-.053.119-.13.228-.224.318-.09.086-.197.155-.312.202-.106.043-.219.068-.333.073-.109.005-.219-.008-.325-.039-.093-.027-.182-.068-.264-.121-.181-.117-.321-.293-.395-.495-.041-.11-.061-.227-.061-.344v-4.318c.401.362.743.805 1 1.318.551 1.101 1 2 1 2z" fill="#8484f6"/></g></svg>