<svg clip-rule="evenodd" fill-rule="evenodd" stroke-linejoin="round" stroke-miterlimit="2" viewBox="0 0 32 32" xmlns="http://www.w3.org/2000/svg" xmlns:xlink="http://www.w3.org/1999/xlink"><clipPath id="a"><path clip-rule="evenodd" d="m0 0h32v32h-32z"/></clipPath><path d="m0 0h32v32h-32z" fill="none"/><g clip-path="url(#a)"><path d="m31 19c0 3.448-1.37 6.754-3.808 9.192s-5.744 3.808-9.192 3.808h-1.789c-5.154 0-9.967-2.566-12.841-6.84l-.034-.051-.009-.014-.019-.029-.018-.029-.008-.013-.01-.016s-.697-1.195-1.469-2.519c-1.538-2.637-2.166-5.707-1.788-8.736 0-.001 0-.001 0-.001.075-.595.412-1.125.919-1.444s1.13-.395 1.698-.205h.001c1.573.524 3.047 1.298 4.367 2.288v-2.735c0-4.152 1.649-8.134 4.586-11.07.475-.476 1.158-.68 1.816-.545.659.135 1.205.592 1.455 1.216l.643 1.608.643-1.608c.25-.624.796-1.081 1.455-1.216.658-.135 1.341.069 1.816.545 1.009 1.009 1.866 2.141 2.557 3.362l.068-.34c.144-.723.675-1.308 1.381-1.522s1.473-.022 1.994.5c0 0 .652.652 1.486 1.485 2.625 2.626 4.1 6.187 4.1 9.9z"/><path d="m2 14.001v-.001c1.973.658 3.765 1.765 5.236 3.236.437.437.764.764.764.764v4l-3 2s-.697-1.195-1.469-2.519c-1.317-2.258-1.855-4.886-1.531-7.48zm21-.001v-3.317c0-1.119.111-2.236.33-3.334.291-1.456.67-3.349.67-3.349s.652.652 1.485 1.485c2.251 2.251 3.515 5.303 3.515 8.486v.029l-3.5 2.5zm-14-1v-1.344c0-3.621 1.439-7.095 4-9.656s.382.955.812 2.031c.785 1.961 1.188 4.054 1.188 6.167v2.802l-3.5 2zm7 0v-2.802c0-2.113.403-4.206 1.188-6.167.43-1.076.812-2.031.812-2.031 2.561 2.561 4 6.035 4 9.656v1.344l-3.5 1.5z" fill="#5c56bc"/><path d="m29 19c0 2.917-1.159 5.715-3.222 7.778s-4.861 3.222-7.778 3.222c-.604 0-1.204 0-1.789 0-4.496 0-8.695-2.243-11.196-5.978l-.015-.022 3-6 1 1v-6h6v2h1v-2h6v2h1v-1h6z" fill="#a3a9ff"/></g></svg>