<svg clip-rule="evenodd" fill-rule="evenodd" stroke-linecap="round" stroke-linejoin="round" stroke-miterlimit="1.5" viewBox="0 0 32 32" xmlns="http://www.w3.org/2000/svg" xmlns:xlink="http://www.w3.org/1999/xlink"><clipPath id="a"><path clip-rule="evenodd" d="m0 0h32v32h-32z"/></clipPath><clipPath id="b"><circle clip-rule="evenodd" cx="16" cy="16" r="14"/></clipPath><path d="m0 0h32v32h-32z" fill="none"/><g clip-path="url(#a)"><path d="m0 16c0-8.831 7.169-16 16-16s16 7.169 16 16-7.169 16-16 16-16-7.169-16-16z"/><circle cx="16" cy="16" fill="#e86932" r="14"/><g clip-path="url(#b)"><path d="m4.378 4.378c5.02-5.019 11.229-6.96 13.858-4.331 2.63 2.629.689 8.839-4.331 13.858-5.019 5.02-11.229 6.961-13.858 4.331-2.629-2.629-.688-8.838 4.331-13.858z" fill="#ff8f44"/><g fill="none" stroke="#81310e" stroke-width="2"><path d="m16 31v-30"/><path d="m31 16h-30"/><path d="m31 24s-12-1.896-12-8 12-8 12-8"/><path d="m1 24s12-1.896 12-8-12-8-12-8"/></g></g></g></svg>