<svg xmlns="http://www.w3.org/2000/svg" xmlns:xlink="http://www.w3.org/1999/xlink" fill-rule="evenodd" stroke-linecap="round" stroke-miterlimit="1.5" clip-rule="evenodd" viewBox="0 0 32 32"><clipPath id="a"><path d="m0 0h32v32h-32z" clip-rule="evenodd"/></clipPath><clipPath id="b"><path d="m27 14s.698-2.442 1.269-4.441c.485-1.698.731-3.455.731-5.22 0-.626 0-1.239 0-1.68 0-.364-.295-.659-.659-.659 0 0 0 0-.001 0-1.842 0-3.635.603-5.102 1.718-2.666 2.024-6.738 5.115-6.738 5.115z" clip-rule="evenodd"/></clipPath><clipPath id="c"><path d="m5 14s-.698-2.442-1.269-4.441c-.485-1.698-.731-3.455-.731-5.22 0-.626 0-1.239 0-1.68 0-.364.295-.659.659-.659h.001c1.842 0 3.635.603 5.102 1.718 2.666 2.024 6.738 5.115 6.738 5.115z" clip-rule="evenodd"/></clipPath><path fill="none" d="m0 0h32v32h-32z"/><g clip-path="url(#a)"><path d="m19.491 4.051 2.537-1.926c1.816-1.379 4.033-2.125 6.312-2.125h.001c1.469 0 2.659 1.19 2.659 2.659v1.68c0 1.951-.272 3.893-.808 5.769l-.719 2.516c1.962 5.118.761 10.971-3.175 14.906-.432.432-.853.853-1.248 1.248-2.063 2.063-4.861 3.222-7.778 3.222-.831 0-1.713 0-2.544 0-2.917 0-5.715-1.159-7.778-3.222-.395-.395-.816-.816-1.248-1.248-3.936-3.935-5.137-9.788-3.175-14.906l-.719-2.516c-.536-1.876-.808-3.818-.808-5.769 0-.626 0-1.239 0-1.68 0-1.469 1.19-2.659 2.659-2.659h.001c2.279 0 4.496.746 6.312 2.125l2.537 1.926c.348-.034.699-.051 1.053-.051h4.876c.354 0 .705.017 1.053.051z"/><path fill="#353535" d="m27 14s.698-2.442 1.269-4.441c.485-1.698.731-3.455.731-5.22 0-.626 0-1.239 0-1.68 0-.364-.295-.659-.659-.659 0 0 0 0-.001 0-1.842 0-3.635.603-5.102 1.718-2.666 2.024-6.738 5.115-6.738 5.115z"/><g clip-path="url(#b)"><path fill="#4b4b4b" d="m21 8s1.18-1.18 2.258-2.258c1.149-1.149 2.52-2.053 4.029-2.657 1.317-.527 2.713-1.085 2.713-1.085v12h-9z"/></g><path fill="#353535" d="m5 14s-.698-2.442-1.269-4.441c-.485-1.698-.731-3.455-.731-5.22 0-.626 0-1.239 0-1.68 0-.364.295-.659.659-.659h.001c1.842 0 3.635.603 5.102 1.718 2.666 2.024 6.738 5.115 6.738 5.115z"/><g clip-path="url(#c)"><path fill="#4b4b4b" d="m11 8s-1.18-1.18-2.258-2.258c-1.149-1.149-2.52-2.053-4.029-2.657-1.317-.527-2.713-1.085-2.713-1.085v12h9z"/></g><path fill="#353535" d="m13.562 6c-3.409 0-6.525 1.926-8.05 4.975-.21.421-.426.853-.644 1.289-2.31 4.62-1.404 10.2 2.248 13.852.432.432.853.853 1.248 1.248 1.688 1.688 3.977 2.636 6.364 2.636h2.544c2.387 0 4.676-.948 6.364-2.636l1.248-1.248c3.652-3.652 4.558-9.232 2.248-13.852-.218-.436-.434-.868-.644-1.289-1.525-3.049-4.641-4.975-8.05-4.975-1.579 0-3.297 0-4.876 0z"/><path fill="#fbe844" d="m23 13 1.518-1.518c.162.114.315.243.457.385.656.656 1.025 1.546 1.025 2.473v1.16c0 1.933-1.567 3.5-3.5 3.5h-.002c-.928 0-1.817-.369-2.473-1.025-.348-.347-.615-.761-.789-1.211l1.764-1.764.963-.42z"/><path d="m23 17.001c0 .123-.023.245-.067.36-.038.099-.092.191-.159.273-.063.076-.137.143-.219.198-.095.063-.2.11-.31.138-.206.052-.426.036-.623-.044-.115-.047-.221-.115-.312-.201-.095-.091-.171-.2-.224-.319-.057-.128-.086-.266-.086-.405v-2.001l2-2z"/><path fill="#fbe844" d="m9 13-1.518-1.518c-.162.114-.315.243-.457.385-.656.656-1.025 1.546-1.025 2.473v1.16c0 1.933 1.567 3.5 3.5 3.5h.002c.928 0 1.817-.369 2.473-1.025.348-.347.615-.761.789-1.211l-1.764-1.764-.963-.42z"/><path d="m9 17.001c0 .123.023.245.067.36.038.099.092.191.159.273.063.076.137.143.219.198.095.063.2.11.31.138.206.052.426.036.623-.044.115-.047.221-.115.312-.201.095-.091.171-.2.224-.319.057-.128.086-.266.086-.405v-2.001l-2-2z"/><path fill="#666" d="m13 19.829c0-.22.087-.431.243-.586.155-.156.366-.243.586-.243h4.342c.22 0 .431.087.586.243.156.155.243.366.243.586 0 .107-.053.207-.142.266-.595.397-2.858 1.905-2.858 1.905s-2.263-1.508-2.858-1.905c-.089-.059-.142-.159-.142-.266z"/><path fill="none" stroke="gray" stroke-width="1.5" d="m10 24s.385.385.879.879c.562.562 1.325.878 2.121.878s1.559-.316 2.121-.878c.494-.494.879-.879.879-.879s.385.385.879.879c.562.562 1.325.878 2.121.878s1.559-.316 2.121-.878c.494-.494.879-.879.879-.879"/></g></svg>