<svg xmlns="http://www.w3.org/2000/svg" xmlns:xlink="http://www.w3.org/1999/xlink" fill-rule="evenodd" stroke-linejoin="round" stroke-miterlimit="2" clip-rule="evenodd" viewBox="0 0 32 32"><clipPath id="a"><path d="m0 0h32v32h-32z" clip-rule="evenodd"/></clipPath><clipPath id="b"><path d="m27 14s.698-2.442 1.269-4.441c.485-1.698.731-3.455.731-5.22 0-.626 0-1.239 0-1.68 0-.364-.295-.659-.659-.659 0 0 0 0-.001 0-1.842 0-3.635.603-5.102 1.718-2.666 2.024-6.738 5.115-6.738 5.115z" clip-rule="evenodd"/></clipPath><clipPath id="c"><path d="m5 14s-.698-2.442-1.269-4.441c-.485-1.698-.731-3.455-.731-5.22 0-.626 0-1.239 0-1.68 0-.364.295-.659.659-.659h.001c1.842 0 3.635.603 5.102 1.718 2.666 2.024 6.738 5.115 6.738 5.115z" clip-rule="evenodd"/></clipPath><path fill="none" d="m0 0h32v32h-32z"/><g clip-path="url(#a)"><path d="m19.491 4.051 2.537-1.926c1.816-1.379 4.033-2.125 6.312-2.125h.001c1.469 0 2.659 1.19 2.659 2.659v1.68c0 1.951-.272 3.893-.808 5.769l-.719 2.517c.954 2.488 1.16 5.149.667 7.68l.395.503c1.486 1.891 1.415 4.572-.168 6.382-.01.011-.02.022-.03.033-1.329 1.52-3.389 2.05-5.222 1.49l-.065.065c-2.063 2.063-4.861 3.222-7.778 3.222-.831 0-1.713 0-2.544 0-2.917 0-5.715-1.159-7.778-3.222l-.065-.065c-1.833.56-3.893.03-5.222-1.49-.01-.011-.02-.022-.03-.033-1.583-1.81-1.654-4.491-.168-6.382l.395-.503c-.493-2.53-.287-5.192.667-7.68l-.719-2.517c-.536-1.876-.808-3.818-.808-5.769 0-.626 0-1.239 0-1.68 0-1.469 1.19-2.659 2.659-2.659h.001c2.279 0 4.496.746 6.312 2.125l2.537 1.926c.348-.034.699-.051 1.053-.051h4.876c.354 0 .705.017 1.053.051z"/><path fill="#353535" d="m27 14s.698-2.442 1.269-4.441c.485-1.698.731-3.455.731-5.22 0-.626 0-1.239 0-1.68 0-.364-.295-.659-.659-.659 0 0 0 0-.001 0-1.842 0-3.635.603-5.102 1.718-2.666 2.024-6.738 5.115-6.738 5.115z"/><g clip-path="url(#b)"><path fill="#4b4b4b" d="m21 8s1.18-1.18 2.258-2.258c1.149-1.149 2.52-2.053 4.029-2.657 1.317-.527 2.713-1.085 2.713-1.085v12h-9z"/></g><path fill="#353535" d="m5 14s-.698-2.442-1.269-4.441c-.485-1.698-.731-3.455-.731-5.22 0-.626 0-1.239 0-1.68 0-.364.295-.659.659-.659h.001c1.842 0 3.635.603 5.102 1.718 2.666 2.024 6.738 5.115 6.738 5.115z"/><g clip-path="url(#c)"><path fill="#4b4b4b" d="m11 8s-1.18-1.18-2.258-2.258c-1.149-1.149-2.52-2.053-4.029-2.657-1.317-.527-2.713-1.085-2.713-1.085v12h9z"/></g><path fill="#353535" d="m13.562 6c-3.409 0-6.525 1.926-8.05 4.975-.21.421-.426.853-.644 1.289-2.31 4.62-1.404 10.2 2.248 13.852.432.432.853.853 1.248 1.248 1.688 1.688 3.977 2.636 6.364 2.636h2.544c2.387 0 4.676-.948 6.364-2.636l1.248-1.248c3.652-3.652 4.558-9.232 2.248-13.852-.218-.436-.434-.868-.644-1.289-1.525-3.049-4.641-4.975-8.05-4.975-1.579 0-3.297 0-4.876 0z"/><path fill="#fbe844" d="m10.453 14.662-2.441-2.093c-.314-.269-.351-.743-.081-1.057.269-.314.743-.351 1.057-.081l4.559 3.907-4.841 1.383c-.398.114-.813-.117-.927-.515s.117-.813.515-.927zm11.094 0 2.159.617c.398.114.629.529.515.927s-.529.629-.927.515l-4.841-1.383 4.559-3.907c.314-.27.788-.233 1.057.081.27.314.233.788-.081 1.057z"/><path fill="gray" d="m11.967 26.736c-.808-.561-1.502-1.294-2.025-2.166-.196-.327-.377-.629-.528-.879-.084-.141-.086-.317-.005-.46s.232-.231.396-.231h1.681c.987 0 1.952-.292 2.774-.84.821-.547 1.74-1.16 1.74-1.16s.919.613 1.74 1.16c.822.548 1.787.84 2.774.84h1.681c.164 0 .315.088.396.231s.079.319-.005.46c-.151.25-.332.552-.528.879-.523.872-1.217 1.605-2.025 2.166-1.026-1.084-7.04-1.084-8.066 0z"/><path fill="#b3b3b3" d="m11.967 26.736c1.026-1.084 2.472-1.736 4.032-1.736h.002c1.56 0 3.006.652 4.032 1.736-1.166.81-2.567 1.264-4.033 1.264-1.466 0-2.867-.454-4.033-1.264z"/><path fill="#00bafe" d="m25 17s2.336 2.973 3.963 5.044c.891 1.134.849 2.743-.101 3.829-.01.011-.02.022-.03.033-1.033 1.181-2.802 1.366-4.058.425-.06-.046-.121-.091-.18-.136-.966-.724-1.404-1.956-1.111-3.127.592-2.368 1.517-6.068 1.517-6.068z"/><path fill="#00bafe" d="m7 17s-2.336 2.973-3.963 5.044c-.891 1.134-.849 2.743.101 3.829l.03.033c1.033 1.181 2.802 1.366 4.058.425.06-.046.121-.091.18-.136.966-.724 1.404-1.956 1.111-3.127-.592-2.368-1.517-6.068-1.517-6.068z"/><path fill="#666" d="m13 17.829c0-.22.087-.431.243-.586.155-.156.366-.243.586-.243h4.342c.22 0 .431.087.586.243.156.155.243.366.243.586 0 .107-.053.207-.142.266-.595.397-2.858 1.905-2.858 1.905s-2.263-1.508-2.858-1.905c-.089-.059-.142-.159-.142-.266z"/></g></svg>