<svg xmlns="http://www.w3.org/2000/svg" xmlns:xlink="http://www.w3.org/1999/xlink" fill-rule="evenodd" stroke-linecap="round" stroke-linejoin="round" stroke-miterlimit="1.5" clip-rule="evenodd" viewBox="0 0 32 32"><clipPath id="a"><path d="m0 0h32v32h-32z" clip-rule="evenodd"/></clipPath><clipPath id="b"><path d="m27 14s.698-2.442 1.269-4.441c.485-1.698.731-3.455.731-5.22 0-.626 0-1.239 0-1.68 0-.364-.295-.659-.659-.659 0 0 0 0-.001 0-1.842 0-3.635.603-5.102 1.718-2.666 2.024-6.738 5.115-6.738 5.115z" clip-rule="evenodd"/></clipPath><clipPath id="c"><path d="m5 14s-.698-2.442-1.269-4.441c-.485-1.698-.731-3.455-.731-5.22 0-.626 0-1.239 0-1.68 0-.364.295-.659.659-.659h.001c1.842 0 3.635.603 5.102 1.718 2.666 2.024 6.738 5.115 6.738 5.115z" clip-rule="evenodd"/></clipPath><path fill="none" d="m0 0h32v32h-32z"/><g clip-path="url(#a)"><path fill="none" stroke="#000" stroke-width="4" d="m24.251 26.749-.615.615c-1.688 1.688-3.977 2.636-6.364 2.636-.831 0-1.713 0-2.544 0-2.387 0-4.676-.948-6.364-2.636-.395-.395-.816-.816-1.248-1.248-3.527-3.527-4.492-8.851-2.475-13.372l-.91-3.185c-.485-1.698-.731-3.455-.731-5.22 0-.626 0-1.239 0-1.68 0-.364.295-.659.659-.659h.001c1.842 0 3.635.603 5.102 1.718l3.196 2.426c.524-.095 1.06-.144 1.604-.144h4.876c.544 0 1.08.049 1.604.144l3.196-2.426c1.467-1.115 3.26-1.718 5.102-1.718h.001c.364 0 .659.295.659.659v1.68c0 1.765-.246 3.522-.731 5.22l-.91 3.185c1.07 2.398 1.301 5.023.755 7.485l1.328 2.655c.632 1.264.384 2.79-.615 3.789 0 0 0 0-.001.001-.617.617-1.453.963-2.326.963-.836 0-1.64-.318-2.249-.888z"/><path fill="#353535" d="m27 14s.698-2.442 1.269-4.441c.485-1.698.731-3.455.731-5.22 0-.626 0-1.239 0-1.68 0-.364-.295-.659-.659-.659 0 0 0 0-.001 0-1.842 0-3.635.603-5.102 1.718-2.666 2.024-6.738 5.115-6.738 5.115z"/><g clip-path="url(#b)"><path fill="#4b4b4b" d="m21 8s1.18-1.18 2.258-2.258c1.149-1.149 2.52-2.053 4.029-2.657 1.317-.527 2.713-1.085 2.713-1.085v12h-9z"/></g><path fill="#353535" d="m5 14s-.698-2.442-1.269-4.441c-.485-1.698-.731-3.455-.731-5.22 0-.626 0-1.239 0-1.68 0-.364.295-.659.659-.659h.001c1.842 0 3.635.603 5.102 1.718 2.666 2.024 6.738 5.115 6.738 5.115z"/><g clip-path="url(#c)"><path fill="#4b4b4b" d="m11 8s-1.18-1.18-2.258-2.258c-1.149-1.149-2.52-2.053-4.029-2.657-1.317-.527-2.713-1.085-2.713-1.085v12h9z"/></g><path fill="#353535" d="m13.562 6c-3.409 0-6.525 1.926-8.05 4.975-.21.421-.426.853-.644 1.289-2.31 4.62-1.404 10.2 2.248 13.852.432.432.853.853 1.248 1.248 1.688 1.688 3.977 2.636 6.364 2.636h2.544c2.387 0 4.676-.948 6.364-2.636l1.248-1.248c3.652-3.652 4.558-9.232 2.248-13.852-.218-.436-.434-.868-.644-1.289-1.525-3.049-4.641-4.975-8.05-4.975-1.579 0-3.297 0-4.876 0z"/><path fill="#fbe844" d="m10.865 11.119c1.255.532 2.135 1.775 2.135 3.223v1.16c0 .928-.369 1.817-1.025 2.473s-1.545 1.025-2.473 1.025h-.002c-1.933 0-3.5-1.567-3.5-3.5 0-.384 0-.775 0-1.16 0-.241.025-.479.073-.712z"/><path d="m9 12.841c0-.264.105-.519.293-.706.187-.187.441-.293.706-.293h.002c.265 0 .519.106.706.293.188.187.293.442.293.706v4.16c0 .265-.105.519-.293.706-.187.188-.441.293-.706.293-.001 0-.001 0-.002 0-.265 0-.519-.105-.706-.293-.188-.187-.293-.441-.293-.706 0-1.146 0-3.014 0-4.16z"/><path fill="#fbe844" d="m21.191 11.095 4.691 2.346c.078.291.118.593.118.899v1.16c0 1.933-1.567 3.5-3.5 3.5h-.002c-.928 0-1.817-.369-2.473-1.025s-1.025-1.545-1.025-2.473c0-.384 0-.775 0-1.16 0-1.47.907-2.728 2.191-3.247z"/><path d="m23 12.841c0-.264-.105-.519-.293-.706-.187-.187-.441-.293-.706-.293-.001 0-.001 0-.002 0-.265 0-.519.106-.706.293-.188.187-.293.442-.293.706v4.16c0 .265.105.519.293.706.187.188.441.293.706.293h.002c.265 0 .519-.105.706-.293.188-.187.293-.441.293-.706 0-1.146 0-3.014 0-4.16z"/><path fill="#666" d="m13 19.829c0-.22.087-.431.243-.586.155-.156.366-.243.586-.243h4.342c.22 0 .431.087.586.243.156.155.243.366.243.586 0 .107-.053.207-.142.266-.595.397-2.858 1.905-2.858 1.905s-2.263-1.508-2.858-1.905c-.089-.059-.142-.159-.142-.266z"/><path fill="none" stroke="gray" stroke-linejoin="miter" stroke-width="1.5" d="m12 27 4-3 4 3"/><path fill="#00bafe" d="m26.5 17s-1.757 3.514-2.942 5.884c-.632 1.264-.384 2.79.615 3.789 0 0 0 0 .001.001.617.617 1.453.963 2.326.963s1.709-.346 2.326-.963c.001-.001.001-.001.001-.001.999-.999 1.247-2.525.615-3.789-1.185-2.37-2.942-5.884-2.942-5.884z"/></g></svg>