<svg xmlns="http://www.w3.org/2000/svg" xmlns:xlink="http://www.w3.org/1999/xlink" fill-rule="evenodd" stroke-linejoin="round" stroke-miterlimit="1.414" clip-rule="evenodd" viewBox="0 0 32 32"><clipPath id="a"><path d="m19.854 25.073c2.355.405 4.146 2.457 4.146 4.927h-16c0-2.47 1.791-4.522 4.146-4.927.469 1.687 7.239 1.687 7.708 0z" clip-rule="evenodd"/></clipPath><clipPath id="b"><path d="m22 15c0-1.591-.632-3.117-1.757-4.243-1.126-1.125-2.652-1.757-4.243-1.757-1.591 0-3.117.632-4.243 1.757-1.125 1.126-1.757 2.652-1.757 4.243v2c0 1.591.632 3.117 1.757 4.243 1.126 1.125 2.652 1.757 4.243 1.757 1.591 0 3.117-.632 4.243-1.757 1.125-1.126 1.757-2.652 1.757-4.243 0-.663 0-1.337 0-2z" clip-rule="evenodd"/></clipPath><clipPath id="c"><path d="m22 9c1.105 0 2-.895 2-2s-.895-2-2-2c-3.074 0-8.926 0-12 0-1.105 0-2 .895-2 2s.895 2 2 2v3h12z" clip-rule="evenodd"/></clipPath><path fill="none" d="m0 0h32v32h-32z"/><path d="m8 12h16v3.002c.004.699.004 1.398-.001 2.097-.006.363-.033.724-.087 1.082-.11.742-.326 1.467-.638 2.149-.437.954-1.062 1.819-1.831 2.533-.156.145-.318.283-.485.415.315.092.624.206.924.341.564.255 1.094.586 1.572.98 1.089.899 1.894 2.126 2.28 3.486.177.622.262 1.263.266 1.909v2.006h-20c0-.727-.012-1.453.002-2.18.026-.818.181-1.632.486-2.393.21-.523.477-1.021.804-1.481.717-1.007 1.7-1.817 2.826-2.327.3-.135.61-.25.926-.341-.478-.377-.913-.808-1.294-1.285-.489-.611-.887-1.295-1.178-2.022-.254-.636-.427-1.305-.511-1.985-.037-.294-.055-.59-.06-.887-.005-.7-.005-1.399-.001-2.099z"/><path fill="#fff" d="m19.854 25.073c2.355.405 4.146 2.457 4.146 4.927h-16c0-2.47 1.791-4.522 4.146-4.927.469 1.687 7.239 1.687 7.708 0z"/><g clip-path="url(#a)"><path fill="#666" d="m13 26h2v5h-2z"/></g><path fill="#740d0d" d="m12.146 25.073c.277-.048.563-.073.854-.073h6c.291 0 .577.025.854.073-.469 1.687-2.018 2.927-3.854 2.927s-3.385-1.24-3.854-2.927z"/><path fill="#5963ef" d="m22 15c0-1.591-.632-3.117-1.757-4.243-1.126-1.125-2.652-1.757-4.243-1.757-1.591 0-3.117.632-4.243 1.757-1.125 1.126-1.757 2.652-1.757 4.243v2c0 1.591.632 3.117 1.757 4.243 1.126 1.125 2.652 1.757 4.243 1.757 1.591 0 3.117-.632 4.243-1.757 1.125-1.126 1.757-2.652 1.757-4.243 0-.663 0-1.337 0-2z"/><g clip-path="url(#b)"><path d="m20 15c0-.552-.448-1-1-1s-1 .448-1 1v1c0 .552.448 1 1 1s1-.448 1-1c0-.322 0-.678 0-1zm-6 0c0-.552-.448-1-1-1s-1 .448-1 1v1c0 .552.448 1 1 1s1-.448 1-1c0-.322 0-.678 0-1z"/></g><path fill-rule="nonzero" d="m22.102 3.001c.169.007.337.019.505.045.39.06.772.178 1.128.349.962.464 1.713 1.312 2.055 2.323.128.38.199.779.209 1.18.01.403-.041.808-.151 1.196-.133.468-.352.911-.644 1.301-.326.435-.737.793-1.204 1.07v3.535h-16v-3.535c-.08-.047-.079-.047-.157-.096-.081-.053-.081-.053-.16-.108-.129-.094-.254-.193-.373-.3-.284-.259-.531-.557-.73-.885-.238-.392-.407-.823-.499-1.272-.081-.397-.102-.807-.061-1.21.037-.364.124-.721.258-1.061.367-.931 1.086-1.704 1.987-2.138.356-.171.738-.289 1.128-.349.168-.026.336-.038.505-.045 4.068-.052 8.136-.052 12.204 0z"/><path fill="#ebebeb" d="m22 9c1.105 0 2-.895 2-2s-.895-2-2-2c-3.074 0-8.926 0-12 0-1.105 0-2 .895-2 2s.895 2 2 2v3h12z"/><g clip-path="url(#c)"><path fill="#9d9d9d" d="m7 8h18v2h-18z"/></g></svg>