<svg xmlns="http://www.w3.org/2000/svg" xmlns:xlink="http://www.w3.org/1999/xlink" fill-rule="evenodd" stroke-linejoin="round" stroke-miterlimit="1.414" clip-rule="evenodd" viewBox="0 0 32 32"><clipPath id="a"><path d="m0 0h32v32h-32z" clip-rule="evenodd"/></clipPath><clipPath id="b"><path d="m21 27.998c0-1.656-1.342-2.998-2.998-2.998-.001 0-.002 0-.002 0v-2l-2 2h-6l-2-2v2s-.001 0-.002 0c-1.656 0-2.998 1.342-2.998 2.998v2.002h16s0-.938 0-2.002z" clip-rule="evenodd"/></clipPath><clipPath id="c"><path d="m19 15c0-1.591-.632-3.117-1.757-4.243-1.126-1.125-2.652-1.757-4.243-1.757-.001 0-.001 0-.002 0-3.313 0-5.998 2.685-5.998 5.998v2.004c0 3.313 2.685 5.998 5.998 5.998h.002c1.591 0 3.117-.632 4.243-1.757 1.125-1.126 1.757-2.652 1.757-4.243 0-.663 0-1.337 0-2z" clip-rule="evenodd"/></clipPath><clipPath id="d"><circle cx="26" cy="22" r="4" clip-rule="evenodd"/></clipPath><clipPath id="e"><path d="m7.667 12s1.453-4.36 2.017-6.051c.084-.252.264-.46.501-.579.237-.118.512-.138.764-.054.595.199 1.326.442 1.735.579.205.068.427.068.632 0 .409-.137 1.14-.38 1.735-.579.252-.084.527-.064.764.054.237.119.417.327.501.579.564 1.691 2.017 6.051 2.017 6.051h-10.666z" clip-rule="evenodd"/></clipPath><path fill="none" d="m0 0h32v32h-32z"/><g clip-path="url(#a)"><path d="m6.56 8.997 1.234-3.704c.041-.114.048-.138.1-.254.1-.223.227-.434.378-.627.55-.701 1.404-1.127 2.294-1.147.245-.005.49.019.729.073.124.028.147.038.263.073l1.442.481 1.442-.481.119-.036c.127-.032.159-.043.288-.066.146-.025.291-.036.439-.044.146 0 .146 0 .292.007.13.012.163.013.291.035.193.033.383.085.567.155.598.228 1.115.649 1.459 1.189.129.202.228.417.309.642l1.225 3.676c.573.009 1.145.02 1.718.034.148.011.293.025.439.055.288.057.566.157.825.295.348.186.658.44.908.745.217.265.388.568.504.89.099.277.157.569.172.863.042.84-.28 1.676-.875 2.271-.209.209-.449.386-.709.525-.302.161-.631.27-.97.321-.139.02-.278.029-.418.032h-.025c.004.7.004 1.4-.001 2.099-.005.297-.023.593-.06.887l-.002.014h.594c.49-.547 1.08-1.006 1.736-1.342.571-.292 1.188-.492 1.822-.589.251-.038.503-.058.757-.067.155-.002.154-.002.308 0 .254.009.506.029.757.067.634.097 1.251.297 1.822.589 1.203.616 2.179 1.64 2.736 2.872.224.495.38 1.021.462 1.559.092.603.092 1.219 0 1.822-.09.586-.267 1.158-.524 1.691-.314.65-.745 1.242-1.268 1.741s-1.137.902-1.803 1.184c-.737.312-1.536.473-2.336.473-.524 0-1.048-.069-1.553-.204l-1.447 1.447v2.757h-2.757l-.4.399-.399-.399h-16.444v-4.015c.002-.165.009-.331.026-.496.037-.372.117-.739.237-1.094.297-.877.841-1.664 1.555-2.253.358-.296.757-.54 1.182-.726v-2.543c-.098-.178-.19-.359-.274-.543-.326-.712-.546-1.471-.652-2.246-.045-.327-.067-.655-.073-.985-.005-.699-.005-1.399-.001-2.099h-.025c-.14-.003-.279-.012-.418-.032-.339-.051-.668-.16-.97-.321-.26-.139-.5-.316-.709-.525-.631-.631-.952-1.531-.864-2.418.029-.293.101-.581.214-.852.131-.317.317-.612.548-.866.264-.292.586-.531.942-.699.265-.125.549-.211.839-.255.139-.021.278-.029.418-.032.528 0 1.056-.001 1.585-.003z"/><path fill="#515151" d="m21 27.998c0-1.656-1.342-2.998-2.998-2.998-.001 0-.002 0-.002 0v-2l-2 2h-6l-2-2v2s-.001 0-.002 0c-1.656 0-2.998 1.342-2.998 2.998v2.002h16s0-.938 0-2.002z"/><g clip-path="url(#b)"><path fill="#432710" d="m8 23s2.107 2.107 3.586 3.586c.781.781 2.047.781 2.828 0 1.479-1.479 3.586-3.586 3.586-3.586z"/><path fill="#292929" d="m28.328 23.914-8.485 8.485-4.242-4.242 8.485-8.485z"/></g><path fill="#a3a9ff" d="m19 15c0-1.591-.632-3.117-1.757-4.243-1.126-1.125-2.652-1.757-4.243-1.757-.001 0-.001 0-.002 0-3.313 0-5.998 2.685-5.998 5.998v2.004c0 3.313 2.685 5.998 5.998 5.998h.002c1.591 0 3.117-.632 4.243-1.757 1.125-1.126 1.757-2.652 1.757-4.243 0-.663 0-1.337 0-2z"/><g clip-path="url(#c)"><path fill="#8484f6" d="m6 12h14v5h-14z"/><path d="m17 15c0-.552-.448-1-1-1s-1 .448-1 1v1c0 .552.448 1 1 1s1-.448 1-1c0-.322 0-.678 0-1zm-6 0c0-.552-.448-1-1-1s-1 .448-1 1v1c0 .552.448 1 1 1s1-.448 1-1c0-.322 0-.678 0-1z"/></g><path fill="#7b7b7b" d="m25.5 23.914-1.414-1.414-5.657 5.657 1.414 1.414z"/><circle cx="26" cy="22" r="4" fill="#9abade"/><g clip-path="url(#d)"><path fill="#76a1d2" fill-rule="nonzero" d="m27.789 19.733c.039.002.076.007.114.018.159.045.266.17.37.291.24.278.428.601.551.946.1.278.158.569.172.863.015.302-.015.606-.091.898-.2.777-.717 1.453-1.412 1.853-.233.134-.484.236-.744.303-.747.193-1.555.086-2.226-.294-.192-.109-.373-.239-.537-.387-.086-.078-.171-.156-.216-.266-.026-.063-.039-.131-.038-.199.004-.229.169-.431.393-.48.057-.012.116-.015.174-.007.098.013.185.056.261.118.045.042.089.085.135.125.213.18.456.317.723.399.173.052.352.081.532.085.218.006.436-.024.644-.089.463-.144.865-.46 1.117-.874.118-.195.203-.409.248-.633.1-.487.013-1.003-.243-1.43-.059-.098-.126-.191-.201-.278-.046-.054-.098-.103-.143-.158-.018-.023-.033-.047-.047-.073-.03-.062-.051-.126-.056-.194-.014-.187.081-.37.242-.467.059-.035.123-.055.19-.066.03-.003.058-.005.088-.004z"/></g><path fill="#515151" d="m7.667 12s1.453-4.36 2.017-6.051c.084-.252.264-.46.501-.579.237-.118.512-.138.764-.054.595.199 1.326.442 1.735.579.205.068.427.068.632 0 .409-.137 1.14-.38 1.735-.579.252-.084.527-.064.764.054.237.119.417.327.501.579.564 1.691 2.017 6.051 2.017 6.051h-10.666z"/><g clip-path="url(#e)"><path fill="#1b1b1b" d="m6 9h14v3h-14z"/></g><path fill="#515151" d="m4 12c0 .265.105.52.293.707.187.188.442.293.707.293h16c.265 0 .52-.105.707-.293.188-.187.293-.442.293-.707s-.105-.52-.293-.707c-.187-.188-.442-.293-.707-.293-3.151 0-12.849 0-16 0-.265 0-.52.105-.707.293-.188.187-.293.442-.293.707z"/></g></svg>