<svg clip-rule="evenodd" fill-rule="evenodd" stroke-linecap="round" stroke-linejoin="round" stroke-miterlimit="1.5" viewBox="0 0 32 32" xmlns="http://www.w3.org/2000/svg" xmlns:xlink="http://www.w3.org/1999/xlink"><clipPath id="a"><path clip-rule="evenodd" d="m0 0h32v32h-32z"/></clipPath><path d="m0 0h32v32h-32z" fill="none"/><g clip-path="url(#a)"><path d="m2 16s1.796-1.796 4.1-4.1c2.626-2.626 6.187-4.101 9.9-4.101s7.274 1.475 9.9 4.101c2.304 2.304 4.1 4.1 4.1 4.1s-1.796 1.796-4.1 4.1c-2.626 2.626-6.187 4.101-9.9 4.101s-7.274-1.475-9.9-4.101c-2.304-2.304-4.1-4.1-4.1-4.1z" fill="none" stroke="#000" stroke-width="4"/><path d="m11.083 8.691c-1.876 1.465 11.462 1.271 9.834 0 1.853.695 3.556 1.782 4.983 3.209 2.304 2.304 4.1 4.1 4.1 4.1s-1.796 1.796-4.1 4.1c-2.626 2.626-6.187 4.101-9.9 4.101s-7.274-1.475-9.9-4.101c-2.304-2.304-4.1-4.1-4.1-4.1s1.796-1.796 4.1-4.1c1.427-1.427 3.13-2.514 4.983-3.209z" fill="#fff"/><path d="m11.083 8.691c1.558-.584 3.221-.892 4.917-.892s3.36.308 4.917.892c1.628 1.271 2.752 3.158 3.021 5.309l-2.938 6-6 2.938c-3.944-.493-7-3.861-7-7.938 0-2.562 1.207-4.844 3.083-6.309z" fill="#666"/><path d="m23.938 14c.041.328.062.661.062 1 0 4.415-3.585 8-8 8-.339 0-.672-.021-1-.062v-1.938c0-.265.105-.52.293-.707.187-.188.442-.293.707-.293 2.761 0 5-2.239 5-5 0-.265.105-.52.293-.707.187-.188.442-.293.707-.293z" fill="#454545"/><circle cx="16" cy="15" r="4"/><circle cx="13" cy="12" fill="#fff" fill-opacity=".498039" r="3"/></g></svg>