<svg clip-rule="evenodd" fill-rule="evenodd" stroke-linejoin="round" stroke-miterlimit="2" viewBox="0 0 32 32" xmlns="http://www.w3.org/2000/svg"><path d="m0 0h32v32h-32z" fill="none"/><path d="m6.448 19.968c-.146-.474-.258-.958-.333-1.448-.07-.461-.105-.925-.114-1.391-.007-1.086-.007-2.172 0-3.258.006-.34.025-.679.064-1.017.085-.741.253-1.473.501-2.177.469-1.33 1.222-2.556 2.196-3.577 1.055-1.107 2.363-1.967 3.8-2.493.739-.27 1.51-.453 2.292-.542.338-.039.677-.058 1.017-.064.129-.001.128-.001.258 0 .34.006.679.025 1.017.064.782.089 1.553.272 2.292.542 1.437.526 2.745 1.386 3.8 2.493.974 1.021 1.727 2.247 2.196 3.577.248.704.416 1.436.501 2.177.039.338.058.677.064 1.017.007 1.086.007 2.172 0 3.258-.007.382-.031.763-.079 1.142-.063.491-.161.976-.296 1.452.614.304 1.184.698 1.685 1.167.69.646 1.248 1.432 1.628 2.299.195.445.343.91.441 1.386.044.212.076.425.103.64l.754 6.785h-27.235c0-2.06-.037-4.12.002-6.18.01-.296.034-.591.079-.884.095-.626.277-1.24.538-1.818.509-1.126 1.32-2.109 2.327-2.826.163-.115.331-.224.502-.324z"/><path d="m24.885 21.591c1.409.756 2.422 2.169 2.609 3.857.252 2.267.506 4.552.506 4.552l-2-2h-9l-2 2h-10s0-1.928 0-4c0-1.742.891-3.276 2.242-4.171.512.926 16.893 1.208 17.643-.238z" fill="#999"/><path d="m24 22.038v7.962h-9l-.275-1.101c-3.443-.552-6.152-3.3-6.645-6.762 2.97.571 12.859.696 15.92-.099z" fill="#737373"/><path d="m7.242 21.829c.79-.524 1.739-.829 2.758-.829h12.525c.85 0 1.654.213 2.36.591-.75 1.446-1.852 2.703-3.193 3.632-.9.624-1.902 1.098-2.955 1.397-1.013.288-2.07.413-3.122.373-1.123-.043-2.237-.275-3.282-.687-1.161-.458-2.232-1.135-3.146-1.985-.774-.722-1.433-1.566-1.945-2.492z" fill="#333"/><path d="m15.545 24.987c-4.207-.236-7.545-3.722-7.545-7.987v-3c0-4.418 3.582-8 8-8 4.418 0 8 3.582 8 8 0 .993-8.455 10.987-8.455 10.987z" fill="#a3a9ff"/><path d="m16.979 9h4v14.262c-1.367 1.088-3.097 1.738-4.979 1.738-.153 0-.305-.004-.455-.013l-2.405-5.61c-.106-.249-.161-.517-.161-.788 0-.953 0-3.404 0-5.589 0-1.061.421-2.078 1.171-2.828.75-.751 1.768-1.172 2.829-1.172z" fill="#8484f6"/><path d="m16.266 18c.338.008.673.05 1.002.133.776.196 1.493.609 2.053 1.181.183.187.355.391.497.611.003.005-.012-.018-.009-.013.027.04.054.08.076.123.068.128.107.271.114.416.005.113-.008.226-.041.334-.117.394-.475.682-.885.712-.113.009-.226-.002-.335-.032-.187-.051-.358-.157-.486-.302-.072-.08-.127-.173-.193-.258-.045-.057-.093-.113-.143-.166-.319-.332-.725-.569-1.174-.675-.166-.04-.336-.06-.507-.064-.181-.001-.363-.004-.544.003-.558.03-1.094.251-1.504.633-.089.083-.171.173-.246.269-.051.064-.096.132-.143.198-.03.037-.03.037-.062.074-.124.129-.272.227-.445.28-.107.032-.221.047-.334.042-.41-.017-.777-.294-.906-.685-.041-.122-.057-.252-.049-.381.01-.145.051-.287.121-.414.047-.085.104-.162.162-.241.121-.164.252-.319.394-.464.56-.572 1.277-.985 2.053-1.181.329-.083.664-.125 1.002-.133.177-.001.355-.001.532 0zm5.769-4.999c.15.007.296.043.43.114.112.058.213.139.295.235.075.087.134.188.175.295.037.097.058.2.064.303.019.374-.179.736-.504.921-.142.081-.298.122-.46.13-1.023.018-2.047.018-3.07 0-.162-.008-.318-.049-.46-.13-.325-.185-.523-.547-.504-.921.006-.103.027-.206.064-.303.041-.107.1-.208.175-.295.082-.096.183-.177.295-.235.134-.071.28-.107.43-.114 1.023-.018 2.047-.018 3.07 0zm-9 0c.15.007.296.043.43.114.112.058.213.139.295.235.075.087.134.188.175.295.133.35.055.755-.198 1.031-.07.076-.152.142-.242.193-.142.081-.298.122-.46.13-1.023.018-2.047.018-3.07 0-.15-.007-.296-.043-.43-.114-.112-.058-.213-.139-.295-.235-.075-.087-.134-.188-.175-.295-.133-.35-.055-.755.198-1.031.07-.076.152-.142.242-.193.142-.081.298-.122.46-.13 1.023-.018 2.047-.018 3.07 0z"/><path d="m20.124 8.001c.165.007.329.017.493.037.404.05.803.15 1.183.297.688.266 1.314.684 1.822 1.218.507.533.894 1.178 1.125 1.876.115.349.192.711.229 1.077.016.162.022.325.024.488v1.006h2.281l-.707 2.828c-.127.491-.283.972-.479 1.44-.452 1.076-1.093 2.063-1.882 2.922l5.405 10.81h-10.005l-3.487-10.46c-.158-.158-.318-.314-.473-.475-.068-.072-.134-.145-.199-.22-.382-.449-.701-.946-.94-1.485-.319-.721-.488-1.496-.512-2.282-.025-1.361-.002-2.723-.002-4.084.002-.163.008-.326.024-.488.037-.366.114-.728.229-1.077.231-.698.618-1.343 1.125-1.876.508-.534 1.134-.952 1.822-1.218.38-.147.779-.247 1.183-.297.164-.02.328-.03.493-.037.416-.005.832-.005 1.248 0z" fill-rule="nonzero"/><path d="m19.006 10c-.348.004-.689.058-1.017.176-.839.3-1.513.974-1.813 1.813-.108.302-.163.616-.175.936-.017 1.384-.041 2.769.002 4.153.019.442.106.877.265 1.291.196.506.493.963.869 1.353l.037.037.7.701 3.18 9.54h5.328l-4.599-9.197c.281-.281.564-.561.842-.844.094-.099.094-.098.186-.198.179-.203.352-.411.512-.629.399-.543.728-1.137.978-1.763.101-.251.189-.508.263-.768.057-.199.105-.4.155-.601h-1.719c0-1.025.012-2.05-.001-3.075-.003-.074-.007-.147-.014-.222-.035-.317-.113-.626-.242-.918-.341-.768-1.003-1.369-1.801-1.633-.281-.093-.572-.14-.867-.151-.357-.004-.713-.001-1.069-.001z" fill="#a3a9ff"/></svg>