<svg xmlns="http://www.w3.org/2000/svg" xmlns:xlink="http://www.w3.org/1999/xlink" fill-rule="evenodd" stroke-linejoin="round" stroke-miterlimit="1.414" clip-rule="evenodd" viewBox="0 0 32 32"><clipPath id="a"><path d="m0 0h32v32h-32z" clip-rule="evenodd"/></clipPath><path fill="none" d="m0 0h32v32h-32z"/><g clip-path="url(#a)"><circle cx="16" cy="16" r="16"/><path fill="#ebebeb" d="m4.512 24c-.969-1.388-1.692-2.96-2.108-4.652 3.03.438 16.771-13.227 16.953-16.725l.054-.107.167-.054c3.578.945 6.597 3.272 8.45 6.374l1.842 5.249c.086.626.13 1.265.13 1.915 0 2.974-.929 5.732-2.512 8l-7.225 5.338c-1.344.43-2.777.662-4.263.662s-2.919-.232-4.263-.662z"/><path fill="#fff" d="m4.641 7.818c1.878-2.6 4.625-4.531 7.815-5.365l6.918.157c.331 3.092-1.702 7.528-5.469 11.295-3.851 3.852-8.404 5.891-11.501 5.443-.264-1.073-.404-2.194-.404-3.348 0-.379.015-.755.045-1.126z"/><path fill="#ccc" fill-rule="nonzero" d="m17 14.49 11.332-3.966.66 1.888-11.381 3.983 6.841 9.235-1.607 1.191-6.845-9.242-6.741 9.102-1.607-1.191 6.737-9.095-11.407-3.992.661-1.888 11.357 3.975v-11.948h2z"/><g fill="#303030"><path d="m28.028 8.836c.941 1.576 1.582 3.352 1.842 5.249l-2.282-1.658c-.351-.255-.497-.706-.363-1.118z"/><path d="m27.488 24c-1.74 2.492-4.27 4.393-7.225 5.338l1.51-4.647c.134-.412.518-.691.951-.691z"/><path d="m4.512 24h4.764c.433 0 .817.279.951.691l1.51 4.647c-2.955-.945-5.485-2.846-7.225-5.338z"/><path d="m12.456 2.453c1.132-.296 2.32-.453 3.544-.453 1.237 0 2.436.161 3.578.462l-2.967 2.156c-.351.255-.825.255-1.176 0z"/><path d="m4.641 7.818 1.134 3.491c.134.412-.012.863-.363 1.118l-3.367 2.447c.209-2.621 1.141-5.039 2.596-7.056z"/><path d="m15.412 8.866c.351-.255.825-.255 1.176 0 1.319.958 4.505 3.273 5.824 4.231.351.255.497.706.363 1.118-.504 1.552-1.72 5.296-2.224 6.847-.134.412-.518.691-.951.691-1.631 0-5.569 0-7.2 0-.433 0-.817-.279-.951-.691-.504-1.551-1.72-5.295-2.224-6.847-.134-.412.012-.863.363-1.118 1.319-.958 4.505-3.273 5.824-4.231z"/></g></g></svg>