<svg xmlns="http://www.w3.org/2000/svg" xmlns:xlink="http://www.w3.org/1999/xlink" fill-rule="evenodd" stroke-linecap="round" stroke-linejoin="round" stroke-miterlimit="1.5" clip-rule="evenodd" viewBox="0 0 32 32"><clipPath id="a"><path d="m0 .017h32v32h-32z" clip-rule="evenodd"/></clipPath><path fill="none" d="m0 .017h32v32h-32z"/><g clip-path="url(#a)"><path d="m32 8.017c0-4.419-3.582-8-8-8h-16c-4.418 0-8 3.581-8 8v16c0 4.418 3.582 8 8 8h16c4.418 0 8-3.582 8-8z"/><path fill="gray" d="m30 8.017c0-1.592-.632-3.118-1.757-4.243-1.126-1.125-2.652-1.757-4.243-1.757h-16c-1.591 0-3.117.632-4.243 1.757-1.125 1.125-1.757 2.651-1.757 4.243v16c0 1.591.632 3.117 1.757 4.242 1.126 1.126 2.652 1.758 4.243 1.758h16c1.591 0 3.117-.632 4.243-1.758 1.125-1.125 1.757-2.651 1.757-4.242z"/><g fill="none" stroke="#000" stroke-width="3"><path d="m7 9.017 4 4"/><path d="m21 13.017 4-4"/><path d="m8 24.017s1.841-1.842 3.757-3.758c1.126-1.125 2.652-1.757 4.243-1.757s3.117.632 4.243 1.757c1.916 1.916 3.757 3.758 3.757 3.758"/></g></g></svg>