<svg xmlns="http://www.w3.org/2000/svg" xmlns:xlink="http://www.w3.org/1999/xlink" fill-rule="evenodd" stroke-linejoin="round" stroke-miterlimit="1.414" clip-rule="evenodd" viewBox="0 0 32 32"><clipPath id="a"><path d="m0 0h32v32h-32z" clip-rule="evenodd"/></clipPath><path fill="none" d="m0 0h32v32h-32z"/><g clip-path="url(#a)"><path d="m20.465 7.069c.161.017.322.037.483.061 1.116.163 2.208.482 3.237.944 1.403.629 2.684 1.524 3.758 2.624.981 1.006 1.786 2.18 2.371 3.457.52 1.135.863 2.348 1 3.589.148 1.335.06 2.693-.257 3.998-.07.287-.151.572-.243.853-.094.29-.202.575-.306.86-.401 1.101-.95 2.146-1.63 3.1-.903 1.266-2.035 2.365-3.325 3.233-1.395.939-2.972 1.603-4.619 1.944-.783.161-1.577.246-2.375.266-1.663.024-3.327.009-4.99.001-.423-.006-.845-.028-1.266-.074-.826-.088-1.644-.257-2.438-.502-1.406-.434-2.736-1.109-3.917-1.987-1.084-.806-2.041-1.781-2.826-2.881-.657-.922-1.185-1.927-1.588-2.985-.09-.244-.179-.488-.266-.734-.138-.4-.259-.805-.354-1.217-.199-.859-.299-1.74-.298-2.621.001-1.05.147-2.099.431-3.11.621-2.206 1.89-4.219 3.594-5.749 1.115-1.002 2.415-1.796 3.815-2.331.911-.349 1.863-.588 2.831-.71.083-.011.166-.02.249-.029l2.022-6.069h4.884l2.023 6.069z"/><path fill="#219555" d="m12 12 3-9h2l3 9z"/><path fill="#ec6c10" d="m28.801 15.729c-1.482-4.042-5.33-6.729-9.635-6.729-2.049 0-4.283 0-6.332 0-4.305 0-8.153 2.687-9.635 6.729v.001c-.774 2.112-.777 4.429-.009 6.543.059.162.119.327.18.494 1.579 4.342 5.706 7.233 10.326 7.233h4.608c4.62 0 8.747-2.891 10.326-7.233.061-.167.121-.332.18-.494.768-2.114.765-4.431-.009-6.543 0 0 0 0 0-.001z"/><g fill="#ffec70"><path d="m5 17 4 6 3-2 2 2 2-2 2 2 2-2 3 2 4-6v3.528c0 2.741-1.549 5.246-4 6.472l-3-2-2 2-2-2-1.624 2-2.376-2-3 2c-2.451-1.226-4-3.731-4-6.472 0-1.831 0-3.528 0-3.528z"/><path d="m7 13 6 5s-.926.309-2.051.684c-.915.305-1.921.151-2.703-.413-.782-.563-1.246-1.469-1.246-2.433 0-1.504 0-2.838 0-2.838z"/><path d="m25 13-6 5s.926.309 2.051.684c.915.305 1.921.151 2.703-.413.782-.563 1.246-1.469 1.246-2.433 0-1.504 0-2.838 0-2.838z"/></g></g></svg>