<svg clip-rule="evenodd" fill-rule="evenodd" stroke-linejoin="round" stroke-miterlimit="2" viewBox="0 0 32 32" xmlns="http://www.w3.org/2000/svg" xmlns:xlink="http://www.w3.org/1999/xlink"><clipPath id="a"><path clip-rule="evenodd" d="m0 0h32v32h-32z"/></clipPath><path d="m0 0h32v32h-32z" fill="none"/><g clip-path="url(#a)"><path d="m20.802.001.1.002.099.004.099.006.099.007.099.009.098.011.097.012.098.014.097.015.097.017.096.019.096.02.095.021.095.023.094.025.094.026.094.028.093.029.092.03.092.032.091.034.09.035.09.036.089.038.089.039.087.04.088.042.086.044.086.044.085.047.084.047.083.049.083.05.082.052.081.052.08.055.079.055.079.057.077.058.077.059.076.061.075.061.073.063.073.065.072.065.071.067.07.068.069.069.067.07.067.072.066.073.064.073.063.075.063.077.061.077.059.078.059.08.057.08.057.082.054.082.054.084.052.085.047.079 5.375 9.214.048.085.053.1.049.1.047.102.043.102.041.103.038.105.034.105.032.106.029.106.026.107.023.109.019.108.017.108.014.11.011.109.007.109.005.11.002.111-.001.11-.005.11-.007.11-.01.109-.014.11-.016.11-.02.109-.022.109-.026.108-.029.108-.032.107-.035.107-.033.093-6.158 16.421h-18.772l-6.158-16.422-.033-.092-.035-.106-.032-.108-.029-.108-.026-.108-.022-.109-.02-.109-.016-.11-.014-.109-.01-.11-.007-.11-.005-.111-.001-.109.002-.11.005-.11.007-.11.011-.11.014-.109.017-.108.02-.109.022-.107.026-.107.029-.107.032-.106.035-.106.037-.104.041-.103.043-.102.047-.102.049-.1.053-.099.048-.086 5.375-9.214.047-.079.052-.085.054-.084.054-.082.057-.082.057-.08.059-.08.06-.078.06-.077.063-.076.063-.076.064-.073.066-.073.067-.072.067-.07.069-.069.07-.068.071-.067.072-.065.073-.065.074-.063.074-.062.076-.06.077-.059.077-.058.079-.057.079-.055.08-.055.081-.052.082-.052.083-.05.083-.049.084-.047.085-.047.086-.044.086-.044.088-.042.087-.04.089-.039.089-.038.09-.036.09-.035.091-.034.092-.032.092-.03.093-.029.094-.028.094-.026.094-.025.095-.023.095-.021.096-.02.096-.019.097-.017.097-.015.098-.014.097-.012.098-.011.099-.009.099-.007.099-.006.099-.004.1-.002.091-.001h9.422l.091.001zm-11.416 27.999h13.228l3.68-9.815-1.408 3.1-.072.154-.078.16-.081.159-.084.157-.086.155-.089.152-.092.152-.094.149-.097.147-.099.145-.101.143-.104.141-.106.139-.109.136-.11.135-.113.132-.116.131-.117.128-.12.125-.121.124-.124.121-.126.119-.127.116-.13.114-.132.112-.133.11-.135.107-.137.104-.139.102-.141.1-.142.097-.144.094-.146.092-.147.09-.149.087-.15.084-.152.081-.154.079-.154.076-.157.074-.157.071-.159.068-.16.065-.162.062-.163.06-.164.057-.165.054-.166.051-.167.048-.168.045-.17.042-.17.04-.171.036-.173.033-.173.03-.173.027-.175.024-.176.021-.176.018-.176.014-.178.011-.178.009-.178.004-.17.002h-.02l-.17-.002-.178-.004-.178-.009-.178-.011-.176-.014-.176-.018-.176-.021-.175-.024-.173-.027-.173-.03-.173-.033-.171-.036-.17-.04-.17-.042-.168-.045-.167-.048-.166-.051-.165-.054-.164-.057-.163-.06-.162-.062-.16-.065-.159-.068-.157-.071-.157-.074-.154-.076-.154-.079-.152-.081-.15-.084-.149-.087-.147-.09-.146-.092-.144-.094-.142-.097-.141-.1-.139-.102-.137-.104-.135-.107-.134-.11-.131-.112-.13-.114-.127-.116-.126-.119-.124-.121-.121-.124-.12-.126-.117-.127-.115-.131-.114-.132-.11-.135-.109-.136-.106-.139-.104-.141-.101-.143-.099-.145-.097-.147-.094-.149-.092-.152-.089-.152-.086-.155-.084-.157-.081-.159-.078-.16-.072-.154-1.408-3.1zm6.564-17-.049.001-.05.002-.049.002-.05.003-.049.003-.049.004-.049.005-.049.005-.049.006-.049.006-.049.007-.048.007-.049.009-.048.008-.048.01-.048.01-.048.01-.047.011-.048.012-.047.012-.047.013-.047.013-.047.014-.047.014-.046.015-.047.016-.046.016-.045.017-.046.017-.046.018-.045.018-.045.019-.044.02-.045.02-.044.021-.044.021-.044.021-.043.023-.044.022-.043.024-.042.023-.043.025-.042.025-.041.025-.042.026-.041.026-.041.027-.041.028-.04.027-.04.029-.04.029-.039.029-.039.03-.039.031-.038.031-.038.031-.038.032-.037.033-.037.033-.036.033-.036.034-.036.035-.035.035-.035.035-.035.036-.034.036-.033.036-.033.037-.033.037-.032.038-.031.038-.031.038-.031.039-.03.039-.029.039-.029.04-.029.04-.027.04-.028.041-.027.041-.026.041-.026.041-.025.042-.025.043-.025.042-.023.042-.024.044-.023.043-.022.043-.021.044-.021.044-.021.044-.02.045-.02.044-.018.045-.019.046-.018.045-.017.045-.017.046-.016.046-.016.047-.015.046-.014.047-.014.046-.013.048-.013.047-.012.047-.012.048-.011.047-.011.048-.009.048-.01.048-.008.049-.009.048-.007.048-.007.049-.006.049-.006.049-.005.049-.005.049-.004.049-.003.049-.003.05-.002.049-.002.049-.001.05v.056 1.988.056l.001.05.002.049.002.049.003.05.003.049.004.049.005.049.005.049.006.049.006.049.007.049.007.048.009.049.008.048.01.048.009.048.011.048.011.047.012.048.012.047.013.047.013.047.014.047.014.047.015.046.016.047.016.046.017.046.017.045.018.045.019.046.019.045.019.044.02.045.021.044.021.044.021.044.022.043.023.043.024.044.023.042.025.042.025.043.025.042.026.041.026.041.027.041.028.041.027.04.029.04.029.04.029.039.03.039.031.039.031.038.031.038.032.038.033.037.033.037.033.036.034.036.035.036.035.035.035.035.036.035.036.034.036.033.037.033.037.033.038.032.038.031.038.031.039.031.039.03.039.029.04.029.04.029.04.027.041.028.041.027.041.026.042.026.041.025.042.025.043.025.042.023.043.024.044.022.043.023.044.021.044.021.044.021.045.02.044.02.045.018.045.019.046.018.046.017.045.017.046.016.047.016.046.015.047.014.047.014.046.013.048.013.047.012.048.012.047.011.048.01.048.01.048.01.048.008.049.009.048.007.049.007.049.006.049.006.049.005.049.005.049.004.049.003.05.003.049.002.05.002.049.001h.05.05l.049-.001.05-.002.049-.002.05-.003.049-.003.049-.004.049-.005.049-.005.049-.006.049-.006.049-.007.048-.007.049-.009.048-.008.048-.01.048-.009.048-.011.048-.011.047-.012.047-.012.048-.013.046-.013.047-.014.047-.014.046-.015.047-.016.046-.016.045-.017.046-.017.046-.018.045-.019.045-.018.044-.02.045-.02.044-.021.044-.021.044-.021.043-.023.044-.022.043-.024.042-.023.043-.025.042-.025.042-.025.041-.026.041-.026.041-.027.041-.028.04-.027.04-.029.04-.029.039-.029.039-.03.039-.031.038-.031.038-.031.038-.032.037-.033.037-.033.036-.033.036-.034.036-.035.035-.035.035-.035.035-.036.034-.036.033-.036.033-.037.033-.037.032-.038.031-.038.031-.038.031-.039.03-.039.029-.039.029-.04.029-.04.027-.04.028-.041.027-.041.026-.041.026-.041.025-.042.025-.042.025-.043.023-.042.024-.044.023-.043.022-.043.021-.044.021-.044.021-.044.02-.045.019-.044.02-.046.018-.045.018-.045.017-.046.017-.046.016-.045.016-.047.015-.046.014-.047.014-.047.013-.047.013-.047.012-.047.012-.048.011-.047.011-.048.009-.048.01-.048.008-.048.009-.049.007-.048.007-.049.006-.049.006-.049.005-.049.005-.049.004-.049.003-.049.003-.05.002-.049.002-.05.001-.049v-.056-1.988-.056l-.001-.049-.002-.05-.002-.049-.003-.05-.003-.049-.004-.049-.005-.049-.005-.049-.006-.049-.006-.049-.007-.049-.007-.048-.009-.049-.008-.048-.01-.048-.009-.048-.011-.048-.011-.047-.012-.048-.012-.047-.013-.047-.013-.048-.014-.046-.014-.047-.015-.046-.016-.047-.016-.045-.017-.046-.017-.046-.018-.045-.018-.045-.02-.046-.019-.044-.02-.045-.021-.044-.021-.044-.021-.044-.022-.043-.023-.043-.024-.044-.023-.042-.025-.043-.025-.042-.025-.042-.026-.041-.026-.041-.027-.041-.028-.041-.027-.04-.029-.04-.029-.04-.029-.039-.03-.039-.031-.039-.031-.038-.031-.038-.032-.038-.033-.037-.033-.037-.033-.036-.034-.036-.035-.036-.035-.035-.035-.035-.036-.035-.036-.034-.036-.033-.037-.033-.037-.033-.038-.032-.038-.031-.038-.031-.039-.031-.039-.03-.039-.029-.04-.029-.04-.029-.04-.027-.041-.028-.041-.027-.041-.026-.041-.026-.042-.025-.042-.025-.043-.025-.042-.023-.043-.024-.044-.022-.043-.023-.044-.021-.044-.021-.044-.021-.045-.02-.044-.02-.045-.019-.045-.018-.046-.018-.046-.017-.045-.017-.046-.016-.047-.016-.046-.015-.047-.014-.047-.014-.047-.013-.047-.013-.047-.012-.048-.012-.047-.011-.048-.011-.048-.009-.048-.01-.048-.008-.049-.009-.048-.007-.049-.007-.049-.006-.049-.006-.049-.005-.049-.005-.049-.004-.049-.003-.05-.003-.049-.002-.05-.002-.049-.001h-.05zm-4.453-4.445-1.31 2.949.017-.019.069-.071.07-.071.071-.07.071-.068.072-.068.074-.068.073-.065.075-.065.075-.064.076-.063.077-.062.077-.061.078-.06.078-.059.08-.058.08-.057.08-.056.082-.055.082-.054.082-.053.083-.051.084-.051.084-.05.085-.048.085-.048.086-.047.086-.045.087-.044.088-.044.088-.042.088-.041.089-.04.09-.039.089-.038.091-.037.091-.036.091-.034.092-.034.092-.032.092-.031.093-.03.093-.029.094-.028.094-.027.094-.025.095-.025.095-.023.095-.022.096-.021.096-.02.096-.018.097-.018.097-.016.097-.015.097-.014.098-.013.097-.012.098-.01.099-.009.098-.008.099-.007.098-.005.099-.005.099-.003.1-.001.099-.001.099.001.1.001.099.003.099.005.098.005.099.007.098.008.099.009.098.01.097.012.098.013.097.014.097.015.097.016.097.017.096.019.096.02.096.021.095.022.095.023.095.025.094.025.094.027.094.028.093.029.093.03.092.031.092.032.092.034.091.034.091.036.091.037.089.038.09.039.089.04.088.041.088.042.088.044.087.044.086.045.086.047.085.048.085.048.084.05.084.051.083.051.083.053.081.054.082.055.08.056.08.057.08.058.078.059.078.06.077.061.077.062.076.063.075.064.075.065.073.066.074.067.072.068.071.068.071.07.07.071.069.071.017.019-1.31-2.949-4.503-1.801z"/><path d="m24 30h-16s-4.405-11.748-5.666-15.111c-.108-.287-.147-.591-.119-.889l.785-1h2.5l.5 1 2.347 5.163.41 1.472c1.57 3.479 3.043 4.865 6.684 4.865h1.118c3.641 0 5.642-2.242 6.727-4.789l.367-1.548 2.347-5.163.5-1h2.5l.785 1c.028.298-.011.602-.119.889z" fill="#999"/><path d="m2.215 14c.027-.286.115-.566.264-.821 1.094-1.875 3.803-6.519 5.363-9.194.717-1.229 2.033-1.985 3.455-1.985h3.703v1l-5 2-4 9zm23.785 0-4-9-5-2v-1h3.703c1.422 0 2.738.756 3.455 1.985 1.56 2.675 4.269 7.319 5.363 9.194.149.255.237.535.264.821z" fill="#a3a9ff"/><path d="m8.347 19.163.584 1.286c1.26 2.771 4.024 4.551 7.068 4.551h.002c3.044 0 5.808-1.78 7.068-4.551l.584-1.286-.118 1.418c-.302 3.628-3.335 6.419-6.976 6.419-.372 0-.746 0-1.118 0-3.641 0-6.674-2.791-6.976-6.419z" fill="#737373"/><path d="m22 15c0-1.591-.632-3.117-1.757-4.243-1.126-1.125-2.652-1.757-4.243-1.757-1.591 0-3.117.632-4.243 1.757-1.125 1.126-1.757 2.652-1.757 4.243v2c0 1.591.632 3.117 1.757 4.243 1.126 1.125 2.652 1.757 4.243 1.757 1.591 0 3.117-.632 4.243-1.757 1.125-1.126 1.757-2.652 1.757-4.243 0-.663 0-1.337 0-2z" fill="#a3a9ff"/><path d="m14 15c0-.552-.448-1-1-1s-1 .448-1 1v1c0 .552.448 1 1 1s1-.448 1-1c0-.322 0-.678 0-1z"/><path d="m20 15c0-.552-.448-1-1-1s-1 .448-1 1v1c0 .552.448 1 1 1s1-.448 1-1c0-.322 0-.678 0-1z"/></g></svg>