<svg clip-rule="evenodd" fill-rule="evenodd" stroke-linecap="round" stroke-linejoin="round" stroke-miterlimit="1.5" viewBox="0 0 32 32" xmlns="http://www.w3.org/2000/svg" xmlns:xlink="http://www.w3.org/1999/xlink"><clipPath id="a"><path clip-rule="evenodd" d="m0 0h32v32h-32z"/></clipPath><clipPath id="b"><path clip-rule="evenodd" d="m24 14c0-2.761-2.239-5-5-5-2.761 0-5 2.239-5 5v2c0 2.761 2.239 5 5 5 2.761 0 5-2.239 5-5 0-.661 0-1.339 0-2z"/></clipPath><path d="m0 0h32v32h-32z" fill="none"/><g clip-path="url(#a)"><path d="m7.153 1.003.151.012.15.019.149.026.145.034.143.041.14.047.138.054.133.06.129.067.126.072.122.078.117.084.113.088.109.094.104.099.099.104.094.109.089.113.083.117.078.122.072.125.067.13.06.134.054.137.047.14.041.143.034.146.026.147.019.151.012.152.003.127v4.05l-.003.124-.011.147-.018.147-.026.145-.032.143-.039.142-.046.139-.053.136-.059.134-.066.131-.072.128-.078.124-.085.12-.091.117-.097.112-.089.093.764 6.872 4.825 4.021h8.288l.112.001.124.005.123.008.123.01.122.014.122.017.122.019.12.023.12.025.119.029.118.031.117.034.117.037.115.04.114.042.113.045.113.049.11.05.11.054.109.056.107.059.105.061.104.064.103.067.101.069.1.072.098.074.096.077.094.08.093.082.091.084.089.086.086.089.084.091.082.093.08.094.077.096.074.098.072.1.069.101.067.103.064.104.061.105.059.108.056.108.054.11.05.11.049.113.045.113.042.114.04.116.037.116.034.117.031.118.029.119.025.12.023.121.019.121.017.121.014.123.01.123.008.123.005.124.001.112v6.012h-17.149l-7.174-12.299-.037-.065-.04-.072-.039-.073-.037-.074-.036-.074-.035-.075-.034-.075-.033-.076-.031-.077-.03-.077-.028-.077-.027-.077-.027-.079-.024-.078-.024-.079-.022-.079-.021-.08-.019-.079-.018-.081-.017-.081-.016-.08-.014-.081-.013-.082-.011-.082-.011-.081-.008-.082-.008-.082-.006-.083-.005-.083-.003-.082-.002-.083-.001-.075v-13.222l.003-.128.012-.151.019-.15.026-.148.034-.146.041-.144.047-.139.054-.137.06-.134.067-.129.072-.126.078-.122.083-.117.089-.113.094-.109.099-.104.104-.099.109-.094.112-.088.118-.084.122-.078.125-.072.13-.067.133-.06.137-.054.141-.047.143-.041.145-.034.149-.026.15-.019.151-.012.128-.003h1.05l.128.003zm5.996 26.997h10.851v-1.988-.037l-.001-.025-.002-.024-.002-.025-.003-.024-.003-.025-.004-.024-.005-.024-.005-.024-.005-.024-.007-.023-.006-.024-.008-.023-.008-.023-.008-.023-.009-.023-.01-.022-.01-.022-.011-.022-.011-.022-.012-.021-.012-.021-.013-.021-.013-.021-.014-.02-.014-.02-.015-.02-.016-.019-.015-.018-.017-.019-.017-.018-.017-.018-.018-.017-.018-.017-.018-.017-.019-.015-.02-.016-.019-.015-.02-.014-.02-.014-.021-.013-.02-.013-.022-.012-.021-.012-.022-.011-.022-.011-.022-.01-.022-.01-.023-.009-.023-.008-.023-.008-.023-.008-.024-.006-.023-.007-.024-.005-.024-.005-.024-.005-.024-.004-.025-.003-.024-.003-.025-.002-.024-.002-.025-.001h-.037-9.712l-3.653-3.044 3.526 6.044z"/><path d="m24 14c0-2.761-2.239-5-5-5-2.761 0-5 2.239-5 5v2c0 2.761 2.239 5 5 5 2.761 0 5-2.239 5-5 0-.661 0-1.339 0-2z" fill="none" stroke="#000" stroke-width="4"/><path d="m23 23c.796 0 1.559.316 2.121.879.563.562.879 1.325.879 2.121v4h-14s-5.095-8.734-6.591-11.299c-.129-.221-.229-.457-.297-.701l.297-1h1.591l1 1 6 5h1.536c.692 1.195 6.236 1.195 6.928 0z" fill="#999"/><g fill="#a3a9ff"><path d="m5.112 18c-.074-.263-.112-.536-.112-.811 0-2.213 0-8.189 0-8.189v-5c0-.552.448-1 1-1h1c.552 0 1 .448 1 1v4c0 .265-.105.52-.293.707-.187.188-.442.293-.707.293l1 9z"/><path d="m15.536 23h6.928c-.692 1.195-1.985 2-3.464 2s-2.772-.805-3.464-2z"/><path d="m24 14c0-2.761-2.239-5-5-5-2.761 0-5 2.239-5 5v2c0 2.761 2.239 5 5 5 2.761 0 5-2.239 5-5 0-.661 0-1.339 0-2z"/></g><g clip-path="url(#b)"><path d="m22.02 13c.113.004.224.024.33.063.276.103.496.328.593.605.036.101.054.206.057.312.003.366.022.734-.003 1.099-.013.14-.051.275-.118.398-.06.111-.141.21-.238.29-.092.077-.197.137-.309.176-.107.038-.219.057-.332.057-.391 0-.755-.237-.914-.594-.054-.122-.082-.253-.086-.386-.003-.366-.022-.734.003-1.099.009-.1.031-.197.068-.29.095-.242.286-.44.523-.545.098-.043.201-.069.307-.081.039-.004.079-.005.119-.005zm-6 0c.113.004.224.024.33.063.276.103.496.328.593.605.036.101.054.206.057.312.003.366.022.734-.003 1.099-.013.14-.051.275-.118.398-.06.111-.141.21-.238.29-.092.077-.197.137-.309.176-.107.038-.219.057-.332.057-.391 0-.755-.237-.914-.594-.054-.122-.082-.253-.086-.386-.003-.366-.022-.734.003-1.099.009-.1.031-.197.068-.29.095-.242.286-.44.523-.545.098-.043.201-.069.307-.081.039-.004.079-.005.119-.005z"/></g></g></svg>