<svg clip-rule="evenodd" fill-rule="evenodd" stroke-linecap="round" stroke-linejoin="round" stroke-miterlimit="1.5" viewBox="0 0 32 32" xmlns="http://www.w3.org/2000/svg" xmlns:xlink="http://www.w3.org/1999/xlink"><clipPath id="a"><path clip-rule="evenodd" d="m0 .017h32v32h-32z"/></clipPath><path d="m0 .017h32v32h-32z" fill="none"/><g clip-path="url(#a)"><path d="m28 30.017h-24v-3c0-.531.211-1.039.586-1.415.375-.375.884-.585 1.414-.585h.757c.796 0 1.559.316 2.122.878.181.182.368.368.535.536.375.375.884.586 1.414.586h10.344c.53 0 1.039-.211 1.414-.586.167-.168.354-.354.535-.536.563-.562 1.326-.878 2.122-.878h.757c.53 0 1.039.21 1.414.585.375.376.586.884.586 1.415zm-1-22.286v-5.714h2v6.586c.614.354 1 1.012 1 1.732v8.363c0 .8-.477 1.523-1.212 1.838-.912.391-2.253.966-3.728 1.598-5.785 2.479-12.335 2.479-18.12 0-1.475-.632-2.816-1.207-3.728-1.598-.735-.315-1.212-1.038-1.212-1.838 0-2.116 0-6.246 0-8.363 0-.8.477-1.523 1.212-1.838.912-.39 2.253-.965 3.728-1.597 5.785-2.48 12.335-2.48 18.12 0z" fill="none" stroke="#000" stroke-width="4"/><path d="m8.879 25.895c.181.182.368.368.535.536.375.375.884.586 1.414.586h10.344c.53 0 1.039-.211 1.414-.586l.46-.46v3.546h-14.167z" fill="#404040"/><path d="m28 30.017h-24v-3c0-.531.211-1.039.586-1.415.375-.375.884-.585 1.414-.585h.757c.769 0 1.508.295 2.122.878l1.364 1.364c1.125 1.126 2.651 1.758 4.242 1.758h3.03c1.591 0 3.117-.632 4.242-1.758l1.364-1.364c.563-.562 1.326-.878 2.122-.878h.757c.53 0 1.039.21 1.414.585.375.376.586.884.586 1.415z" fill="#737373"/><path d="m27 2.017h2v10h-2z" fill="#4d4d4d"/><path d="m28 8.16.788.337c.735.315 1.212 1.038 1.212 1.838v8.363c0 .8-.477 1.523-1.212 1.838-.912.391-2.253.966-3.728 1.598-5.785 2.479-12.335 2.479-18.12 0-1.475-.632-2.816-1.207-3.728-1.598-.735-.315-1.212-1.038-1.212-1.838 0-2.116 0-6.246 0-8.363 0-.8.477-1.523 1.212-1.838l.788-.337z" fill="#8a8a8a"/><path d="m4 8.16 2.94-1.26c5.785-2.48 12.335-2.48 18.12 0l2.94 1.26v8.523c0 .808-.485 1.536-1.231 1.847-.788.328-1.884.784-3.077 1.282-4.923 2.051-10.461 2.051-15.384 0-1.193-.498-2.289-.954-3.077-1.282-.746-.311-1.231-1.039-1.231-1.847z" fill="#333"/><path d="m11 9.517c0-.398-.158-.78-.439-1.061-.282-.281-.663-.439-1.061-.439s-.779.158-1.061.439c-.281.281-.439.663-.439 1.061v2c0 .398.158.779.439 1.06.282.282.663.44 1.061.44s.779-.158 1.061-.44c.281-.281.439-.662.439-1.06z" fill="#58d3d7"/><path d="m24 9.517c0-.398-.158-.78-.439-1.061-.282-.281-.663-.439-1.061-.439s-.779.158-1.061.439c-.281.281-.439.663-.439 1.061v2c0 .398.158.779.439 1.06.282.282.663.44 1.061.44s.779-.158 1.061-.44c.281-.281.439-.662.439-1.06z" fill="#58d3d7"/><path d="m11 16.017h.001c1.296 1.281 3.045 2 4.868 2h.303c1.811 0 3.547-.72 4.828-2" fill="none" stroke="#58d3d7" stroke-width="1.5"/><path d="m18 7.017c0-.553-.448-1-1-1-.611 0-1.389 0-2 0-.552 0-1 .447-1 1 0 .552.448 1 1 1h2c.552 0 1-.448 1-1z" fill="#121212"/></g></svg>