<svg xmlns="http://www.w3.org/2000/svg" xmlns:xlink="http://www.w3.org/1999/xlink" fill-rule="evenodd" stroke-linejoin="round" stroke-miterlimit="1.414" clip-rule="evenodd" viewBox="0 0 32 32"><clipPath id="a"><path d="m0 0h32v32h-32z" clip-rule="evenodd"/></clipPath><path fill="none" d="m0 0h32v32h-32z"/><g clip-path="url(#a)"><path d="m7.043 23.279c-.142-.112-.279-.228-.413-.349-.778-.704-1.414-1.562-1.863-2.512-.32-.677-.545-1.4-.664-2.14-.058-.357-.089-.717-.101-1.079-.014-.766-.006-1.532-.001-2.298.015-.854.157-1.699.435-2.506.384-1.114 1.015-2.138 1.837-2.981.846-.867 1.889-1.537 3.03-1.946.835-.299 1.712-.451 2.598-.467.099-.001.099-.001.198 0 .886.016 1.763.168 2.598.467 1.141.409 2.184 1.078 3.03 1.946.822.843 1.453 1.867 1.837 2.981.226.657.362 1.34.414 2.032.402-.178.828-.303 1.263-.37.209-.032.419-.047.631-.056.129-.001.128-.001.256 0 .212.009.422.024.631.056.528.081 1.043.248 1.518.491.381.195.734.439 1.051.722l4.672 1.168v5.124l-1 .25v10.188h-6v-8.101c-.329.067-.664.101-1 .101-.667 0-1.332-.134-1.947-.394-.555-.235-1.066-.571-1.503-.987-.153-.146-.297-.302-.43-.466-.348.413-.738.79-1.162 1.125.316.092.624.206.924.341.564.255 1.094.586 1.572.98 1.089.899 1.894 2.126 2.28 3.486.177.622.262 1.263.266 1.909v2.006h-20c0-.725-.012-1.451.002-2.176.023-.746.156-1.482.408-2.186.172-.482.399-.945.672-1.379.829-1.312 2.094-2.326 3.556-2.849.134-.048.269-.092.405-.131z"/><path fill="#999" d="m15.854 25.073c2.355.405 4.146 2.457 4.146 4.927h-16c0-2.47 1.791-4.522 4.146-4.927.469 1.687 7.239 1.687 7.708 0z"/><path fill="#a3a9ff" d="m8.146 25.073c.277-.048.563-.073.854-.073h6c.291 0 .577.025.854.073-.469 1.687-2.018 2.927-3.854 2.927s-3.385-1.24-3.854-2.927z"/><path fill="#a3a9ff" d="m17.126 20.118c-.247.406-.542.784-.883 1.125-1.126 1.125-2.652 1.757-4.243 1.757-1.591 0-3.117-.632-4.243-1.757-1.125-1.126-1.757-2.652-1.757-4.243 0-.663 0-1.337 0-2 0-1.591.632-3.117 1.757-4.243 1.126-1.125 2.652-1.757 4.243-1.757 1.591 0 3.117.632 4.243 1.757 1.125 1.126 1.757 2.652 1.757 4.243v1.002c-.195.259-.901 3.997-.874 4.116z"/><path fill="#343394" d="m18 16.002v.998c0 1.109-.307 2.186-.874 3.118-.027-.119-.05-.238-.069-.359-.076-.502-.076-1.016 0-1.518.075-.488.223-.965.437-1.41.142-.293.311-.57.506-.829z"/><path d="m16 19c0-1.105-.895-2-2-2s-2 .895-2 2 .895 2 2 2 2-.895 2-2zm3-4.001c0-.265-.105-.519-.293-.706-.187-.188-.441-.293-.706-.293-.611 0-1.391 0-2.002 0-.265 0-.519.105-.706.293-.188.187-.293.441-.293.706v.002c0 .265.105.519.293.706.187.188.441.293.706.293h2.002c.265 0 .519-.105.706-.293.188-.187.293-.441.293-.706 0-.001 0-.001 0-.002zm-6 0c0-.265-.105-.519-.293-.706-.187-.188-.441-.293-.706-.293-.611 0-1.391 0-2.002 0-.265 0-.519.105-.706.293-.188.187-.293.441-.293.706v.002c0 .265.105.519.293.706.187.188.441.293.706.293h2.002c.265 0 .519-.105.706-.293.188-.187.293-.441.293-.706 0-.001 0-.001 0-.002z"/><path fill="gray" d="m25 19h2v11h-2z"/><path fill="#333" d="m22 16.5v5l6-1.5v-2z"/><circle cx="22" cy="19" r="3" fill="#a5a5a5"/></g></svg>