<svg xmlns="http://www.w3.org/2000/svg" xmlns:xlink="http://www.w3.org/1999/xlink" fill-rule="evenodd" stroke-linecap="round" stroke-linejoin="round" stroke-miterlimit="1.5" clip-rule="evenodd" viewBox="0 0 32 32"><clipPath id="a"><path d="m0 0h32v32h-32z" clip-rule="evenodd"/></clipPath><clipPath id="b"><path d="m30 16c0 7.727-6.273 14-14 14s-14-6.273-14-14 6.273-14 14-14 14 6.273 14 14z" clip-rule="evenodd"/></clipPath><path fill="none" d="m0 0h32v32h-32z"/><g clip-path="url(#a)"><circle cx="16" cy="16" r="16"/><path fill="#e2f10a" d="m30 16c0 7.727-6.273 14-14 14s-14-6.273-14-14 6.273-14 14-14 14 6.273 14 14z"/><g clip-path="url(#b)"><path fill="none" stroke="#fff" stroke-width="3" d="m26 1s-.179 12-10 12-10-12-10-12"/><path fill="none" stroke="#fff" stroke-width="3" d="m26 31s-.179-12-10-12-10 12-10 12"/><path fill="#fff" fill-opacity=".467" d="m.76.712c4.967-4.968 11.795-6.205 15.238-2.763 3.443 3.443 2.205 10.271-2.762 15.238-4.967 4.968-11.795 6.205-15.238 2.762-3.443-3.442-2.205-10.27 2.762-15.237z"/></g></g></svg>