<svg clip-rule="evenodd" fill-rule="evenodd" stroke-linecap="round" stroke-linejoin="round" stroke-miterlimit="1.5" viewBox="0 0 32 32" xmlns="http://www.w3.org/2000/svg" xmlns:xlink="http://www.w3.org/1999/xlink"><clipPath id="a"><path clip-rule="evenodd" d="m0 0h32v32h-32z"/></clipPath><clipPath id="b"><path clip-rule="evenodd" d="m30 16c0 7.727-6.273 14-14 14s-14-6.273-14-14 6.273-14 14-14 14 6.273 14 14z"/></clipPath><path d="m0 0h32v32h-32z" fill="none"/><g clip-path="url(#a)"><circle cx="16" cy="16" r="16"/><path d="m30 16c0 7.727-6.273 14-14 14s-14-6.273-14-14 6.273-14 14-14 14 6.273 14 14z" fill="#e2f10a"/><g clip-path="url(#b)"><path d="m26 1s-.179 12-10 12-10-12-10-12" fill="none" stroke="#fff" stroke-width="3"/><path d="m26 31s-.179-12-10-12-10 12-10 12" fill="none" stroke="#fff" stroke-width="3"/><path d="m.76.712c4.967-4.968 11.795-6.205 15.238-2.763 3.443 3.443 2.205 10.271-2.762 15.238-4.967 4.968-11.795 6.205-15.238 2.762-3.443-3.442-2.205-10.27 2.762-15.237z" fill="#fff" fill-opacity=".466667"/></g></g></svg>