<svg clip-rule="evenodd" fill-rule="evenodd" stroke-linecap="round" stroke-linejoin="round" stroke-miterlimit="1.5" viewBox="0 0 32 32" xmlns="http://www.w3.org/2000/svg" xmlns:xlink="http://www.w3.org/1999/xlink"><clipPath id="a"><path clip-rule="evenodd" d="m0 0h32v32h-32z"/></clipPath><clipPath id="b"><path clip-rule="evenodd" d="m30 16c0 7.727-6.273 14-14 14s-14-6.273-14-14 6.273-14 14-14 14 6.273 14 14z"/></clipPath><path d="m0 0h32v32h-32z" fill="none"/><g clip-path="url(#a)"><circle cx="16" cy="16" r="16"/><path d="m30 16c0 7.727-6.273 14-14 14s-14-6.273-14-14 6.273-14 14-14 14 6.273 14 14z" fill="#f3f3f3"/><g clip-path="url(#b)"><path d="m4.378 4.378c5.02-5.019 11.229-6.96 13.858-4.331 2.63 2.629.689 8.839-4.331 13.858-5.019 5.02-11.229 6.961-13.858 4.331-2.629-2.629-.688-8.838 4.331-13.858z" fill="#fff"/><g fill="none" stroke="#ccc" stroke-width="2"><path d="m16 16s.353.084.928.219c5.788 1.369 11.88-.165 16.33-4.111"/><path d="m21.605 16.293s-.011-.363-.029-.953c-.176-5.946-3.234-11.433-8.198-14.71"/><path d="m27.345 15.305s-.01-.363-.028-.953c-.176-5.945-3.235-11.433-8.198-14.71"/><path d="m16 16s-.249.264-.654.694c-4.079 4.329-5.797 10.371-4.604 16.198"/><path d="m12.944 20.707s.32.172.84.452c5.237 2.82 11.518 2.915 16.838.255"/><path d="m10.929 26.173s.32.172.84.452c5.237 2.82 11.518 2.915 16.838.255"/><path d="m16 16s-.104-.348-.274-.913c-1.709-5.697-6.083-10.206-11.726-12.087"/><path d="m13.451 11s-.309.191-.811.501c-5.061 3.125-8.284 8.518-8.64 14.455"/><path d="m9.726 6.522s-.309.191-.812.501c-5.06 3.125-8.283 8.518-8.64 14.455"/></g></g></g></svg>