<svg height="500" viewBox="0 0 132.292 132.292" width="500" xmlns="http://www.w3.org/2000/svg" xmlns:xlink="http://www.w3.org/1999/xlink"><linearGradient id="a" gradientUnits="userSpaceOnUse" x1="432.851" x2="464.644" y1="49.977" y2="49.977"><stop offset="0" stop-color="#2087e2"/><stop offset="1" stop-color="#b63fff"/></linearGradient><path d="m438.6723 34.080635h20.15068a5.8208333 5.8208333 45 0 1 5.82083 5.820833v20.150671a5.8208333 5.8208333 135 0 1 -5.82083 5.820833h-20.15068a5.8208333 5.8208333 45 0 1 -5.82083-5.820833v-20.150671a5.8208333 5.8208333 135 0 1 5.82083-5.820833z" fill="url(#a)" height="31.792" transform="matrix(4.161118 0 0 4.1611094 -1801.1461 -141.81324)" width="31.792" x="432.851" y="34.081"/><path d="m448.73438 100.54688 7.4375 31.60156-10.98243 26.77344-25.40039 15.10351-35.29492-4.46289 38.44727 23.38867h28.78711c12.63935-.00077 22.88508-10.24737 22.88476-22.88672v-49.27148z" fill="#843ed0" opacity=".85" transform="matrix(1.0583333 0 0 1.0583314 -370.00839 -71.914616)"/><path d="m412.11328 104.68945c-5.59189.00057-8.47384 6.41613-8.474 14.33008-.0006 7.91471 2.88157 16.42339 8.474 16.42396 5.59319.00095 8.47655-8.50817 8.47595-16.42396-.00016-7.91502-2.8833-14.33103-8.47595-14.33008zm0 35.15639c-10.37146-2.76591-20.59375 7.08913-20.59375 18.41588s9.21961 14.50976 20.59375 14.50976 22.98331-3.59449 20.5957-14.50976c-1.95927-8.95706-13.93751-16.64025-20.5957-18.41588z" fill="#8e9cf1" stroke="#8f9cf0" stroke-linecap="round" stroke-linejoin="round" stroke-width="7.865" transform="matrix(1.2820503 0 0 1.0118231 -461.37839 -63.87931)"/><g stroke="#fff"><circle cx="414.076" cy="135.33" fill="none" r="48.794" stroke-linecap="round" stroke-linejoin="round" stroke-width="8.69" transform="matrix(.95793351 0 0 .95793182 -330.51153 -63.490751)"/><path d="m450.73455 108.54642-70.4662 53.38348" stroke-width="7.865" transform="matrix(1.0583333 0 0 1.0583314 -372.12506 -76.147936)"/></g></svg>