<svg height="500" viewBox="0 0 132.29166 132.29167" width="500" xmlns="http://www.w3.org/2000/svg" xmlns:xlink="http://www.w3.org/1999/xlink"><linearGradient id="a" gradientUnits="userSpaceOnUse" x1="432.85147" x2="464.6438" y1="49.976803" y2="49.976803"><stop offset="0" stop-color="#2087e2"/><stop offset="1" stop-color="#b63fff"/></linearGradient><path d="m438.6723 34.080635h20.15068a5.8208333 5.8208333 45 0 1 5.82083 5.820833v20.150671a5.8208333 5.8208333 135 0 1 -5.82083 5.820833h-20.15068a5.8208333 5.8208333 45 0 1 -5.82083-5.820833v-20.150671a5.8208333 5.8208333 135 0 1 5.82083-5.820833z" fill="url(#a)" height="31.792337" transform="matrix(4.161118 0 0 4.1611093 -1801.1461 -141.81325)" width="31.792337" x="432.85147" y="34.080635"/><path d="m906.37607 136.92939-1.16908 21.51397-21.18682.9402 23.86651 33.56761h6.78711c12.63935-.00077 22.88508-10.24737 22.88476-22.88672v-17.37304z" fill="#8842da" opacity=".85" transform="matrix(1.0583333 0 0 1.0583314 -859.95885 -71.914618)"/><g stroke="#fff" stroke-linecap="round" stroke-linejoin="round"><circle cx="876.2179" cy="118.02967" fill="none" r="21.553619" stroke-width="8.78842" transform="matrix(.90817292 0 0 .91240816 -737.0168 -65.427926)"/><path d="m845.10701 163.99555c0-16.54233 13.41021-29.95253 29.95254-29.95253 7.21351 0 14.1847 2.60326 19.63258 7.3314" fill="none" stroke-width="6.64064" transform="matrix(1.1474324 0 0 1.2648307 -944.18797 -103.00395)"/><g fill="#fff" stroke-width="7.55906"><path d="m881.64121 159.87402 34.92069.27968" transform="matrix(1.0583333 0 0 1.0583314 -853.60885 -74.031283)"/><path d="m881.64121 159.87402 34.92069.27968" transform="matrix(0 1.0583314 -1.0583333 0 267.28831 -856.231)"/></g></g></svg>