<svg height="500" viewBox="0 0 132.29166 132.29167" width="500" xmlns="http://www.w3.org/2000/svg"><g fill="#e6e6e6" transform="translate(-18.426265 -17.809596)"><path d="m250.125 148.51758c-99.67805 0-148.51199 56.23859-180.482422 102.47656 33.653142 54.00312 80.804372 101.38672 180.482422 101.38672s180.23242-101.38672 180.23242-101.38672-80.55437-102.47656-180.23242-102.47656zm-6.48242 21.29101a78.14637 75.308415 0 0 1 78.14648 75.3086 78.14637 75.308415 0 0 1 -78.14648 75.30859 78.14637 75.308415 0 0 1 -78.14649-75.30859 78.14637 75.308415 0 0 1 78.14649-75.3086zm107.27734 57.14258 37.80469 25.54297s-53.13198 55.17634-41.89258 31.67578c11.23944-23.50056 4.08789-57.21875 4.08789-57.21875z" transform="matrix(.36674861 0 0 .36674861 -7.115053 -7.731546)"/><path d="m222.69944 167.95841 75.93194-77.712664" stroke="#e6e6e6" stroke-linecap="round" stroke-linejoin="round" stroke-width="9.44882" transform="matrix(1.4669944 0 0 1.4669918 -297.82268 -105.43626)"/><path d="m282.05473 127.48237c-5.64672 8.95232-9.87316 8.19182-22.84059 22.84059-8.53359 9.64005-22.84059-10.22608-22.84059-22.84059s10.22608-22.84059 22.84059-22.84059 22.84059 10.22608 22.84059 22.84059" transform="matrix(.65402167 0 0 .63027026 -89.816503 -1.669062)"/></g></svg>