<svg height="500" viewBox="0 0 132.292 132.292" width="500" xmlns="http://www.w3.org/2000/svg" xmlns:xlink="http://www.w3.org/1999/xlink"><linearGradient id="a" gradientUnits="userSpaceOnUse" x1="432.851" x2="464.644" y1="49.977" y2="49.977"><stop offset="0" stop-color="#2087e2"/><stop offset="1" stop-color="#b63fff"/></linearGradient><path d="m438.6723 34.080635h20.15068a5.8208333 5.8208333 45 0 1 5.82083 5.820833v20.150671a5.8208333 5.8208333 135 0 1 -5.82083 5.820833h-20.15068a5.8208333 5.8208333 45 0 1 -5.82083-5.820833v-20.150671a5.8208333 5.8208333 135 0 1 5.82083-5.820833z" fill="url(#a)" height="31.792" transform="matrix(4.161118 0 0 4.1611094 -1801.146 -141.81325)" width="31.792" x="432.851" y="34.081"/><path d="m297.76562 87.59375-20.95898 23.66211 21.25195 19.31641-23.47851 18.95703-32.93164.88867-23.81446 22.88867 24.39063 19.64453h55.1875a22.886149 22.886142 0 0 0 22.88672-22.88672v-63.98242z" fill="#7d3cc8" opacity=".65" transform="matrix(1.0583333 0 0 1.0583314 -206.69154 -71.914617)"/><path d="m259.21414 150.32296c-12.61451 0-18.5817-10.61763-22.84059-22.71855 4.04594-10.36092 10.22608-22.96263 22.84059-22.96263s22.80872 22.9626 22.80872 22.9626-10.19421 22.71858-22.80872 22.71858z" fill="#fff" stroke="#fff" stroke-linecap="round" stroke-linejoin="round" stroke-width="5.407" transform="matrix(1.8667252 0 0 1.0583314 -417.70604 -68.772898)"/><circle cx="259.214" cy="127.482" fill="#8840d6" r="22.841" transform="matrix(.90524051 0 0 .87236589 -170.18748 -46.357422)"/><g fill="#fff"><path d="m222.69944 167.95841 75.93194-77.712664" stroke="#fff" stroke-linecap="round" stroke-linejoin="round" stroke-width="9.449" transform="matrix(1.0583333 0 0 1.0583314 -209.72511 -70.487083)"/><path d="m282.05473 127.48237c-5.64672 8.95232-9.87316 8.19182-22.84059 22.84059-8.53359 9.64005-22.84059-10.22608-22.84059-22.84059s10.22608-22.84059 22.84059-22.84059 22.84059 10.22608 22.84059 22.84059" transform="matrix(.47183064 0 0 .45469567 -59.66328 4.373656)"/><path d="m283.02902 259.27297s1.78809 8.42957-1.02177 14.30472c-2.80985 5.87515 10.4731-7.91868 10.4731-7.91868z" transform="matrix(1.0583333 0 0 1.0583314 -206.69154 -214.34943)"/></g></svg>