<svg xmlns="http://www.w3.org/2000/svg" xmlns:xlink="http://www.w3.org/1999/xlink" width="500" height="500" viewBox="0 0 132.292 132.292"><linearGradient id="a" x1="432.851" x2="464.644" y1="49.977" y2="49.977" gradientUnits="userSpaceOnUse"><stop offset="0" stop-color="#2087e2"/><stop offset="1" stop-color="#b63fff"/></linearGradient><path width="31.792" height="31.792" x="432.851" y="34.081" fill="url(#a)" d="m438.6723 34.080635h20.15068a5.8208333 5.8208333 45 0 1 5.82083 5.820833v20.150671a5.8208333 5.8208333 135 0 1 -5.82083 5.820833h-20.15068a5.8208333 5.8208333 45 0 1 -5.82083-5.820833v-20.150671a5.8208333 5.8208333 135 0 1 5.82083-5.820833z" transform="matrix(4.1611053 0 0 4.1611038 -1801.1405 -141.81306)"/><path fill="#853dd0" d="m604.31641 64.029297 3.55078 7.783203 5.08203 22.791016-19.42383 28.058594-27.0957 19.52148-33.69531-23.11914 46.80664 46.15625h26.50195a22.886149 22.886142 0 0 0 22.88672-22.88672v-60.382808z" opacity=".75" transform="matrix(1.0583301 0 0 1.05833 -533.32357 -42.566358)"/><path fill="#8392ee" d="m552.91873 75.535789s-38.26097-7.735196-18.92593 27.162051c14.58324 26.32085 31.11511 24.28058 31.11511 24.28058s-16.14602-23.38507-12.18918-51.442631z" transform="matrix(.95099105 0 0 .95099098 -474.54607 -32.694089)"/><path fill="none" stroke="#fff" stroke-linecap="round" stroke-linejoin="round" stroke-width="7.865" d="m674.2158 70.253529c-21.05563-22.862132-45.94323 2.215859-45.94323 2.215859s-24.88738-25.078069-45.94281-2.215937c-21.05544 22.862132 16.8893 64.132949 45.94281 78.022769 29.05377-13.88974 66.99886-55.160559 45.94323-78.022691z" transform="matrix(.95454696 0 0 .95454689 -533.57025 -33.626074)"/></svg>