<svg clip-rule="evenodd" fill-rule="evenodd" stroke-linejoin="round" stroke-miterlimit="2" viewBox="0 0 120 120" xmlns="http://www.w3.org/2000/svg" xmlns:xlink="http://www.w3.org/1999/xlink"><linearGradient id="a" gradientUnits="userSpaceOnUse" x1="43.4913" x2="92.3144" y1="84.98" y2="84.98"><stop offset="0" stop-color="#1f2022"/><stop offset="1" stop-color="#635e69"/></linearGradient><linearGradient id="b" gradientTransform="matrix(0 -56.79 56.79 0 66.6136 56.85)" gradientUnits="userSpaceOnUse" x1="0" x2="1" y1="0" y2="0"><stop offset="0" stop-color="#2087e2"/><stop offset="1" stop-color="#b63fff"/></linearGradient><linearGradient id="c" gradientUnits="userSpaceOnUse" x1=".710769" x2="28.622169" y1="60.8612" y2="60.8612"><stop offset="0" stop-color="#100f0f"/><stop offset="1" stop-color="#49261f"/></linearGradient><linearGradient id="d" gradientTransform="matrix(0 -25.8678 25.8678 0 48 100.066)" gradientUnits="userSpaceOnUse" x1="0" x2="1" y1="0" y2="0"><stop offset="0" stop-color="#222020"/><stop offset="1" stop-color="#49261f"/></linearGradient><linearGradient id="e" gradientTransform="matrix(0 -12.6533 12.6533 0 24.3667 81.15)" gradientUnits="userSpaceOnUse" x1="0" x2="1" y1="0" y2="0"><stop offset="0" stop-color="#1e1c1c"/><stop offset="1" stop-color="#49261f"/></linearGradient><clipPath id="f"><path clip-rule="evenodd" d="m6.794 4.146h125.981v119.257h-125.981z"/></clipPath><g clip-path="url(#f)" transform="translate(-24.9312 -11.1717)"><g fill-rule="nonzero" transform="matrix(1.04457 0 0 1.04457 36.3456 18.8777)"><path d="m91.5 75.35c1.033-2.8 1.083-5.35.15-7.65-.867-2.133-2.533-3.933-5-5.4-2.3-1.333-5.083-2.3-8.35-2.9-2.967-.533-6.2-.767-9.7-.7-3.367.1-6.633.467-9.8 1.1-3.033.633-5.7 1.433-8 2.4-2.267.967-4.033 2.017-5.3 3.15-1.267 1.2-1.933 2.433-2 3.7-.1 1.5.667 3.117 2.3 4.85 1.5 1.6 3.6 3.167 6.3 4.7s5.683 2.85 8.95 3.95c3.5 1.167 6.95 1.917 10.35 2.25 2.2.2 4.25.233 6.15.1 2.067-.2 3.983-.633 5.75-1.3 1.9-.733 3.517-1.75 4.85-3.05 1.5-1.433 2.617-3.167 3.35-5.2m-20.9-7.85c1.133.6 1.967 1.333 2.5 2.2.533.967.65 2.067.35 3.3-.233.867-.617 1.617-1.15 2.25-.5.567-1.167 1.017-2 1.35-.7.3-1.55.517-2.55.65-.967.1-1.933.117-2.9.05-1.7-.1-3.567-.433-5.6-1-1.767-.533-3.467-1.2-5.1-2-1.5-.733-2.733-1.5-3.7-2.3-.933-.833-1.383-1.567-1.35-2.2.067-.533.45-1.05 1.15-1.55.7-.467 1.667-.883 2.9-1.25 1.233-.4 2.6-.7 4.1-.9 1.7-.2 3.317-.3 4.85-.3 1.7.033 3.233.167 4.6.4 1.467.3 2.767.733 3.9 1.3z" fill="url(#a)"/><path d="m66.6 15.05c-.133-3.6-1.033-6.6-2.7-9-1.767-2.633-4.367-4.433-7.8-5.4-.767-.233-1.583-.4-2.45-.5-.767-.1-1.55-.117-2.35-.05-.733 0-1.467.083-2.2.25-.633.133-1.333.35-2.1.65-2.467.967-4.7 2.667-6.7 5.1-1.867 2.2-3.467 4.933-4.8 8.2-1.167 2.767-2.1 5.8-2.8 9.1-.667 3.1-1.117 6.25-1.35 9.45-.2 2.9-.217 5.683-.05 8.35.2 2.633.567 5.017 1.1 7.15 1.067 4.367 2.7 7.05 4.9 8.05.2.1.4.183.6.25l1.3.2c.167 0 .417-.017.75-.05 1.4-.133 2.983-.717 4.75-1.75 1.7-1.033 3.483-2.45 5.35-4.25 2-1.933 3.933-4.183 5.8-6.75 1.967-2.667 3.717-5.483 5.25-8.45 1.8-3.5 3.183-6.933 4.15-10.3 1-3.7 1.45-7.117 1.35-10.25m-19.05 8.1c.333.067.617.15.85.25 2.7.933 4.083 3.083 4.15 6.45.033 2.767-.817 5.95-2.55 9.55-1.433 3-3.15 5.633-5.15 7.9-1.867 2.133-3.433 3.267-4.7 3.4l-.25.05-.45-.05-.25-.1c-.933-.433-1.583-1.85-1.95-4.25-.367-2.433-.35-5.217.05-8.35.433-3.5 1.25-6.567 2.45-9.2 1.433-3.133 3.2-4.983 5.3-5.55.367-.1.633-.15.8-.15.267-.033.533-.05.8-.05s.567.033.9.1z" fill="url(#b)"/><path d="m2.7 33.6c-.4.533-.733 1.117-1 1.75-.3.767-.517 1.55-.65 2.35-.7 3.267-.317 6.433 1.15 9.5 1.2 2.533 3.133 4.917 5.8 7.15 2.367 1.967 5.033 3.567 8 4.8 3 1.233 5.617 1.8 7.85 1.7.433 0 .9-.05 1.4-.15s.917-.233 1.25-.4.65-.383.95-.65.533-.567.7-.9c.8-1.533.583-3.9-.65-7.1-1.267-3.1-3.183-6.283-5.75-9.55-2.667-3.4-5.45-6.083-8.35-8.05-3.133-2.1-5.783-2.883-7.95-2.35-.533.133-1.033.367-1.5.7-.467.3-.883.7-1.25 1.2m7.4 9.95c.167-.3.333-.533.5-.7s.367-.317.6-.45c.267-.1.5-.167.7-.2 1.067-.2 2.417.267 4.05 1.4 1.467.967 2.933 2.333 4.4 4.1 1.333 1.6 2.4 3.167 3.2 4.7.767 1.567 1 2.667.7 3.3-.067.133-.15.233-.25.3-.1.133-.217.217-.35.25-.067.067-.2.117-.4.15l-.55.1c-1.067.067-2.45-.233-4.15-.9-1.667-.667-3.233-1.55-4.7-2.65-1.567-1.167-2.733-2.433-3.5-3.8-.867-1.567-1.067-3.133-.6-4.7.1-.333.217-.633.35-.9z" fill="url(#c)"/><path d="m34.95 74.2h-.2c-1.033-.033-1.983.317-2.85 1.05-.8.7-1.483 1.7-2.05 3-.5 1.167-.85 2.483-1.05 3.95s-.233 2.95-.1 4.45c.267 3.167 1.2 5.85 2.8 8.05 1.867 2.533 4.467 4.2 7.8 5h.1l.3.1h.15c3.633.7 6.067.017 7.3-2.05.567-.967.85-2.2.85-3.7-.033-1.433-.3-3-.8-4.7-.5-1.733-1.2-3.467-2.1-5.2-.9-1.767-1.917-3.367-3.05-4.8-1.2-1.5-2.4-2.7-3.6-3.6-1.267-.933-2.433-1.45-3.5-1.55m-1.4 6.2c.533-1.467 1.217-2.167 2.05-2.1h.05c.833.1 1.817.967 2.95 2.6s1.983 3.35 2.55 5.15c.633 1.967.767 3.533.4 4.7-.433 1.233-1.5 1.733-3.2 1.5h-.05l-.05-.05h-.15c-1.667-.333-2.95-1.2-3.85-2.6-.767-1.267-1.2-2.8-1.3-4.6-.1-1.767.1-3.3.6-4.6z" fill="url(#d)"/><path d="m22.7 69.65c-.3-.233-.667-.433-1.1-.6s-.883-.283-1.35-.35c-.433-.1-.9-.167-1.4-.2-1.433-.033-2.833.183-4.2.65-1.333.433-2.417 1.083-3.25 1.95-.833.933-1.233 1.967-1.2 3.1.033 1.233.617 2.567 1.75 4 .3.367.667.767 1.1 1.2.333.333.717.633 1.15.9.333.2.7.383 1.1.55.467.167.833.25 1.1.25 1.2.167 2.367-.083 3.5-.75 1.1-.633 2.05-1.533 2.85-2.7.833-1.2 1.35-2.433 1.55-3.7.2-1.4-.05-2.55-.75-3.45-.267-.333-.55-.617-.85-.85m-1 2.05c.3.4.367.933.2 1.6-.133.633-.433 1.283-.9 1.95-.467.633-1 1.133-1.6 1.5-.633.4-1.25.567-1.85.5l-.55-.1c-.2-.067-.383-.167-.55-.3-.133-.067-.317-.2-.55-.4-.133-.133-.3-.317-.5-.55-.6-.767-.833-1.467-.7-2.1.067-.567.417-1.067 1.05-1.5.567-.4 1.25-.7 2.05-.9s1.567-.283 2.3-.25l.55.05.45.1c.133.067.25.133.35.2z" fill="url(#e)"/></g></g></svg>