<svg height="500" viewBox="0 0 132.29166 132.29167" width="500" xmlns="http://www.w3.org/2000/svg" xmlns:xlink="http://www.w3.org/1999/xlink"><linearGradient id="a" gradientUnits="userSpaceOnUse" x1="432.85147" x2="464.6438" y1="49.976803" y2="49.976803"><stop offset="0" stop-color="#2087e2"/><stop offset="1" stop-color="#b63fff"/></linearGradient><g transform="matrix(4.161118 0 0 4.1611169 -1801.146 -141.81351)"><path d="m435.99505 42.07222c6.79702.447172 12.75258-4.805738 12.75258-4.805738s5.95556 5.25291 12.75258 4.805738c-.58133 12.744387-7.49513 20.585687-12.75258 20.62813-5.1879.04188-12.17125-7.883743-12.75258-20.62813z" fill="url(#a)"/><path d="m448.89883 37.266483s-1.71315 13.938348-.15119 23.866856c1.57746 10.027015-19.60255-17.878401-11.92465-19.034107 7.67789-1.155706 12.07584-4.832749 12.07584-4.832749z" fill="#e2e8f0" fill-opacity=".306452"/><path d="m435.99505 42.07222c6.79702.447172 12.75258-4.805738 12.75258-4.805738s5.95556 5.25291 12.75258 4.805738c-.58133 12.744387-7.49513 20.585687-12.75258 20.62813-5.1879.04188-12.17125-7.883743-12.75258-20.62813z" fill="none" stroke="#fff" stroke-linejoin="round" stroke-width="2"/></g></svg>