<svg xmlns="http://www.w3.org/2000/svg" width="16" height="18" fill="none" viewBox="0 0 16 18"><path fill="#343342" d="M6.33333 16.0833H9.66667C9.66667 17 8.91667 17.75 8 17.75C7.08333 17.75 6.33333 17 6.33333 16.0833ZM15.5 14.4167V15.25H0.5V14.4167L2.16667 12.75V7.75C2.16667 5.16667 3.83333 2.91667 6.33333 2.16667V1.91667C6.33333 1 7.08333 0.25 8 0.25C8.91667 0.25 9.66667 1 9.66667 1.91667V2.16667C12.1667 2.91667 13.8333 5.16667 13.8333 7.75V12.75L15.5 14.4167ZM12.1667 7.75C12.1667 5.41667 10.3333 3.58333 8 3.58333C5.66667 3.58333 3.83333 5.41667 3.83333 7.75V13.5833H12.1667V7.75Z"/></svg>