<?xml version="1.0"?>
<svg xmlns="http://www.w3.org/2000/svg" xmlns:xlink="http://www.w3.org/1999/xlink" xmlns:svgjs="http://svgjs.com/svgjs" version="1.1" width="512" height="512" x="0" y="0" viewBox="0 0 24 24" style="enable-background:new 0 0 512 512" xml:space="preserve"><g><title xmlns="http://www.w3.org/2000/svg"/><circle xmlns="http://www.w3.org/2000/svg" cx="9" cy="5" r="5" fill="#ffffff" data-original="#000000"/><path xmlns="http://www.w3.org/2000/svg" d="m11.534 20.8c-.521-.902-.417-2.013.203-2.8-.62-.787-.724-1.897-.203-2.8l.809-1.4c.445-.771 1.275-1.25 2.166-1.25.122 0 .242.009.361.026.033-.082.075-.159.116-.237-.54-.213-1.123-.339-1.736-.339h-8.5c-2.619 0-4.75 2.131-4.75 4.75v3.5c0 .414.336.75.75.75h10.899z" fill="#ffffff" data-original="#000000"/><path xmlns="http://www.w3.org/2000/svg" d="m21.703 18.469c.02-.155.047-.309.047-.469 0-.161-.028-.314-.047-.469l.901-.682c.201-.152.257-.43.131-.649l-.809-1.4c-.126-.218-.395-.309-.627-.211l-1.037.437c-.253-.193-.522-.363-.819-.487l-.138-1.101c-.032-.25-.244-.438-.496-.438h-1.617c-.252 0-.465.188-.496.438l-.138 1.101c-.297.124-.567.295-.819.487l-1.037-.437c-.232-.098-.501-.008-.627.211l-.809 1.4c-.126.218-.07.496.131.649l.901.682c-.02.155-.047.309-.047.469 0 .161.028.314.047.469l-.901.682c-.201.152-.257.43-.131.649l.809 1.401c.126.218.395.309.627.211l1.037-.438c.253.193.522.363.819.487l.138 1.101c.031.25.243.438.495.438h1.617c.252 0 .465-.188.496-.438l.138-1.101c.297-.124.567-.295.819-.487l1.037.437c.232.098.501.008.627-.211l.809-1.401c.126-.218.07-.496-.131-.649zm-3.703 1.531c-1.105 0-2-.895-2-2s.895-2 2-2 2 .895 2 2-.895 2-2 2z" fill="#ffffff" data-original="#000000"/></g></svg>
